700 0 1 0           
30 Autodesk Translation Framework 20 ASM 226.6.1.65535 NT 24 Wed Jul 29 14:37:38 2026 
1 9.999999999999999547e-07 1.000000000000000036e-10 
body $1 -1 $-1 $2 $-1 $3 #
rgb_color-st-attrib $-1 -1 $4 $-1 $0 0.7450980392156862919 0.737254901960784359 0.7294117647058823151 #
lump $-1 -1 $-1 $-1 $5 $0 #
transform $-1 -1 1 0 0 0 1 0 0 0 1 0 0 0 1 no_rotate no_reflect no_shear #
DXID-attrib $-1 -1 $-1 $1 $0 @10 ASM ENTITY @113 SP10V1 ESTRUCTURA FRENO.IPT|:|DA30385EDF7B3E082ABCEE4109CAF86081F6DA06|:|DA4B9237BACCCDF19C0760CAB7AEC4A8359010B0 #
shell $-1 -1 $-1 $-1 $-1 $6 $-1 $2 #
face $7 -1 $-1 $8 $9 $5 $-1 $10 forward single #
DXID-attrib $-1 -1 $-1 $-1 $6 @10 ASM ENTITY @36 e2965db1-3b23-4734-bdbf-37f8c47bae4c #
face $11 -1 $-1 $12 $13 $5 $-1 $14 reversed single #
loop $-1 -1 $-1 $-1 $15 $6 #
cone-surface $-1 -1 $-1 62.32499999999996021 10.08210656039828912 -27.00000000000001066 2.003786620868866422e-16 8.049545518531271437e-17 1 1.67002704567057636 1.10045884372329339 0 1 I I 0 1 2 forward I I I I #
DXID-attrib $-1 -1 $-1 $-1 $8 @10 ASM ENTITY @36 a848652e-012d-45eb-a494-6ee2ea3c3ef5 #
face $16 -1 $-1 $17 $18 $5 $-1 $19 reversed single #
loop $-1 -1 $-1 $-1 $20 $8 #
plane-surface $-1 -1 $-1 20.99999999999999645 30 -28.60000000000000142 -0.394495166635593475 -0.9188980158326359726 1.530155277435123499e-16 9.18898015832635906 -3.944951666355934528 -1.606617857077945861e-15 forward_v I I I I #
coedge $-1 -1 $-1 $21 $22 $23 $24 forward $9 $-1 #
DXID-attrib $-1 -1 $-1 $-1 $12 @10 ASM ENTITY @36 1540a189-4e08-4640-b828-b0ec13e1fb04 #
face $25 -1 $-1 $26 $27 $5 $-1 $28 forward single #
loop $-1 -1 $-1 $-1 $29 $12 #
plane-surface $-1 -1 $-1 42.66249999999999432 14.58088526306455357 -28.60000000000000853 2.04759082481835014e-16 6.968635165527596685e-17 1 -2.003786620868866373e-15 -10 6.968635165527600876e-16 forward_v I I I I #
coedge $-1 -1 $-1 $30 $31 $22 $32 reversed $13 $-1 #
coedge $-1 -1 $-1 $33 $15 $34 $35 forward $9 $-1 #
coedge $-1 -1 $-1 $15 $33 $20 $32 forward $9 $-1 #
coedge $-1 -1 $-1 $36 $37 $15 $24 reversed $38 $-1 #
edge $-1 -1 $-1 $39 -0.5826389652760712856 $40 0.5826389652760671778 $23 $41 forward @7 unknown #
DXID-attrib $-1 -1 $-1 $-1 $17 @10 ASM ENTITY @36 dba28733-64e2-4833-afda-c57c07425eb7 #
face $42 -1 $-1 $43 $44 $5 $-1 $14 reversed single #
loop $-1 -1 $-1 $-1 $45 $17 #
cone-surface $-1 -1 $-1 62.32500000000002416 10.08210656039826603 -1.600000000000017852 4.440892098500627148e-16 -2.41327315058607376e-17 1 1.670027045670577248 1.100458843723291391 -6.647934400244163029e-16 1 I I 0 1 2 forward I I I I #
coedge $-1 -1 $-1 $46 $47 $33 $48 reversed $18 $-1 #
coedge $-1 -1 $-1 $49 $20 $47 $50 reversed $13 $-1 #
coedge $-1 -1 $-1 $20 $49 $36 $51 reversed $13 $-1 #
edge $-1 -1 $-1 $52 -0.1600000000000001421 $39 0.1600000000000001421 $20 $53 forward @7 tangent #
coedge $-1 -1 $-1 $22 $21 $29 $48 forward $9 $-1 #
coedge $-1 -1 $-1 $54 $55 $21 $35 reversed $56 $-1 #
edge $-1 -1 $-1 $40 -0.1600000000000001421 $57 0.1600000000000001421 $34 $58 forward @7 tangent #
coedge $-1 -1 $-1 $59 $23 $31 $51 forward $38 $-1 #
coedge $-1 -1 $-1 $23 $60 $54 $61 forward $38 $-1 #
loop $-1 -1 $-1 $-1 $23 $62 #
vertex $-1 -1 $-1 $24 $63 #
vertex $-1 -1 $-1 $24 $64 #
ellipse-curve $-1 -1 $-1 62.32499999999996021 10.08210656039828912 -25.40000000000000924 -2.036639773830979272e-16 -7.016517465666268306e-17 -1 1.67002704567057636 1.10045884372329339 0 1 I I #
DXID-attrib $-1 -1 $-1 $-1 $26 @10 ASM ENTITY @36 7ccb28ab-c199-4814-af3f-c926154d9346 #
face $65 -1 $-1 $66 $67 $5 $-1 $68 forward single #
loop $-1 -1 $-1 $-1 $69 $26 #
coedge $-1 -1 $-1 $70 $71 $72 $73 forward $27 $-1 #
coedge $-1 -1 $-1 $74 $29 $55 $75 reversed $18 $-1 #
coedge $-1 -1 $-1 $29 $76 $30 $50 forward $18 $-1 #
edge $-1 -1 $-1 $57 -0.5826389652760671778 $52 0.5826389652760703974 $29 $77 forward @7 unknown #
coedge $-1 -1 $-1 $31 $30 $78 $79 reversed $13 $-1 #
edge $-1 -1 $-1 $80 -0.9959050495200154618 $52 3.283677594302174096 $47 $81 forward @7 unknown #
edge $-1 -1 $-1 $39 -3.283677594302174541 $82 0.9959050495200150177 $36 $83 forward @7 unknown #
vertex $-1 -1 $-1 $48 $84 #
straight-curve $-1 -1 $-1 63.11399033327114694 11.91990259206356129 -27.00000000000001066 2.003786620868866373e-15 8.049545518531271191e-16 10 F -0.7800010000000003885 F 0.7800009999999999444 #
coedge $-1 -1 $-1 $85 $34 $37 $61 reversed $56 $-1 #
coedge $-1 -1 $-1 $34 $85 $46 $75 forward $56 $-1 #
loop $-1 -1 $-1 $-1 $34 $86 #
vertex $-1 -1 $-1 $35 $87 #
straight-curve $-1 -1 $-1 64.32499999999997442 10.08210656039828912 -27.00000000000001066 -2.003786620868866373e-15 -8.049545518531271191e-16 -10 F -0.7800009999999999444 F 0.7800010000000003885 #
coedge $-1 -1 $-1 $88 $36 $89 $90 reversed $38 $-1 #
coedge $-1 -1 $-1 $37 $88 $91 $92 forward $38 $-1 #
edge $-1 -1 $-1 $93 0.7238229473870880781 $40 1.092033603426917354 $37 $94 forward @7 unknown #
face $95 -1 $-1 $96 $38 $5 $-1 $97 forward single #
point $-1 -1 $-1 63.11399033327114694 11.91990259206356662 -25.40000000000000924 #
point $-1 -1 $-1 64.32499999999996021 10.08210656039828912 -25.40000000000000924 #
DXID-attrib $-1 -1 $-1 $-1 $43 @10 ASM ENTITY @36 93cd9afa-d0ed-4f62-ab1c-e786e6818de5 #
face $98 -1 $-1 $99 $100 $5 $-1 $101 forward single #
loop $-1 -1 $-1 $-1 $102 $43 #
plane-surface $-1 -1 $-1 42.66250000000000853 14.58088526306455357 25.39999999999999858 -5.176802724851951644e-16 2.9607746123040166e-17 -1 -4.440892098500625373e-15 10 2.960774612304039897e-16 forward_v I I I I #
coedge $-1 -1 $-1 $103 $104 $71 $105 reversed $44 $-1 #
coedge $-1 -1 $-1 $106 $45 $107 $108 forward $27 $-1 #
coedge $-1 -1 $-1 $45 $106 $69 $105 forward $27 $-1 #
coedge $-1 -1 $-1 $109 $110 $45 $73 reversed $111 $-1 #
edge $-1 -1 $-1 $112 -0.5826389652760720628 $113 0.582638965276068288 $72 $114 forward @7 unknown #
coedge $-1 -1 $-1 $115 $46 $116 $117 forward $18 $-1 #
edge $-1 -1 $-1 $118 0 $57 0.3682106560398292761 $55 $119 forward @7 unknown #
coedge $-1 -1 $-1 $47 $115 $120 $121 reversed $18 $-1 #
ellipse-curve $-1 -1 $-1 62.32499999999996021 10.08210656039828912 -28.60000000000001208 2.04759082481835014e-16 6.968635165527596685e-17 1 1.67002704567057636 1.10045884372329339 0 1 I I #
coedge $-1 -1 $-1 $120 $89 $49 $79 forward $100 $-1 #
edge $-1 -1 $-1 $82 -0.159999999999999698 $80 0.1600000000000005862 $49 $122 forward @7 tangent #
vertex $-1 -1 $-1 $50 $123 #
straight-curve $-1 -1 $-1 32.94034207288763838 24.87385198948157239 -28.60000000000000853 9.18898015832635906 -3.944951666355934528 -1.606617857077946059e-15 I I #
vertex $-1 -1 $-1 $79 $124 #
straight-curve $-1 -1 $-1 32.94034207288763128 24.87385198948157594 -25.40000000000000568 -9.18898015832635906 3.944951666355934528 1.594666024457158643e-15 I I #
point $-1 -1 $-1 63.11399033327114694 11.91990259206356306 -28.60000000000001208 #
coedge $-1 -1 $-1 $55 $54 $125 $126 forward $56 $-1 #
face $127 -1 $-1 $62 $56 $5 $-1 $128 forward single #
point $-1 -1 $-1 64.32500000000000284 10.08210656039828912 -28.60000000000001208 #
coedge $-1 -1 $-1 $60 $59 $129 $130 forward $38 $-1 #
coedge $-1 -1 $-1 $78 $131 $59 $90 forward $100 $-1 #
edge $-1 -1 $-1 $132 -0.9881573615188286031 $82 0.9881573615188260495 $59 $133 forward @7 unknown #
coedge $-1 -1 $-1 $134 $135 $60 $92 reversed $136 $-1 #
edge $-1 -1 $-1 $137 -2.166250000000000231 $93 2.16624999999999801 $60 $138 forward @7 tangent #
vertex $-1 -1 $-1 $61 $139 #
straight-curve $-1 -1 $-1 64.32499999999998863 -0.8382294738708839787 -25.40000000000000924 -2.253753036573235001e-14 10 1.545927562576159937e-16 F 0 F 3.083822947387086177 #
DXID-attrib $-1 -1 $-1 $-1 $62 @10 ASM ENTITY @36 77d8bb45-75d0-403a-ac92-3940541fbb35 #
face $140 -1 $-1 $141 $142 $5 $-1 $143 forward single #
plane-surface $-1 -1 $-1 42.66249999999999432 14.5808852630645589 -25.40000000000000568 2.036639773830979272e-16 7.016517465666268306e-17 1 -2.003786620868866373e-15 -10 7.016517465666272251e-16 forward_v I I I I #
DXID-attrib $-1 -1 $-1 $-1 $66 @10 ASM ENTITY @36 2b979a2c-4ef9-4743-a5b6-3ade25b410dc #
face $144 -1 $-1 $145 $146 $5 $-1 $147 forward single #
loop $-1 -1 $-1 $-1 $120 $66 #
cone-surface $-1 -1 $-1 23 26.96485324245257331 -27 -2.003786620868866422e-16 -8.049545518531271437e-17 -1 -1.100458843723294944 1.670027045670575472 0 1 I I 0 1 2 forward I I I I #
coedge $-1 -1 $-1 $148 $149 $106 $150 reversed $67 $-1 #
coedge $-1 -1 $-1 $151 $69 $149 $152 reversed $44 $-1 #
coedge $-1 -1 $-1 $69 $151 $109 $153 reversed $44 $-1 #
edge $-1 -1 $-1 $154 2.700000000000000178 $112 3.020000000000000906 $69 $155 forward @7 tangent #
coedge $-1 -1 $-1 $71 $70 $102 $150 forward $27 $-1 #
coedge $-1 -1 $-1 $156 $157 $70 $108 reversed $158 $-1 #
edge $-1 -1 $-1 $113 -3.020000000000000906 $159 -2.700000000000000622 $107 $160 forward @7 tangent #
coedge $-1 -1 $-1 $161 $72 $104 $153 forward $111 $-1 #
coedge $-1 -1 $-1 $72 $162 $156 $163 reversed $111 $-1 #
loop $-1 -1 $-1 $-1 $72 $164 #
vertex $-1 -1 $-1 $73 $165 #
vertex $-1 -1 $-1 $73 $166 #
ellipse-curve $-1 -1 $-1 62.32500000000004547 10.08210656039826603 28.59999999999999432 -5.165851673864580283e-16 2.86434184018911294e-17 -1 1.670027045670577248 1.100458843723291391 -6.647934400244163029e-16 1 I I #
coedge $-1 -1 $-1 $76 $74 $167 $168 reversed $18 $-1 #
coedge $-1 -1 $-1 $169 $170 $74 $117 reversed $171 $-1 #
edge $-1 -1 $-1 $118 -2.166250000000000675 $172 2.166250000000000231 $74 $173 forward @7 tangent #
vertex $-1 -1 $-1 $75 $174 #
straight-curve $-1 -1 $-1 64.32500000000000284 6.399999999999996803 -28.60000000000001208 2.465190328815661892e-31 10 -6.123233995736766282e-16 F -0.7238229473870880781 F 2.359999999999998099 #
coedge $-1 -1 $-1 $131 $78 $76 $121 forward $100 $-1 #
edge $-1 -1 $-1 $80 -0.9881573615188270487 $175 0.9881573615188286031 $76 $176 forward @7 unknown #
straight-curve $-1 -1 $-1 23.78899033327118673 28.80264927411784726 -27 -2.003786620868866373e-15 -8.049545518531271191e-16 -10 F -0.7800009999999995003 F 0.7800010000000003885 #
point $-1 -1 $-1 23.78899033327118673 28.80264927411784726 -28.60000000000000853 #
point $-1 -1 $-1 23.78899033327118673 28.80264927411785081 -25.40000000000000568 #
coedge $-1 -1 $-1 $177 $178 $85 $126 reversed $179 $-1 #
edge $-1 -1 $-1 $93 -0.07040000000000024016 $118 0.2496000000000000441 $85 $180 forward @7 tangent #
DXID-attrib $-1 -1 $-1 $-1 $86 @10 ASM ENTITY @36 3e175356-58f7-461f-9baf-575d553da78a #
plane-surface $-1 -1 $-1 64.32499999999997442 6.399999999999996803 -25.40000000000000924 1 -2.465190328815661892e-32 -2.003786620868866422e-16 2.465190328815661892e-31 10 -6.123233995736766282e-16 forward_v I I I I #
coedge $-1 -1 $-1 $181 $182 $88 $130 reversed $183 $-1 #
edge $-1 -1 $-1 $132 -7.604451430163704728 $137 -3.141592653589793116 $88 $184 forward @7 unknown #
coedge $-1 -1 $-1 $89 $120 $181 $185 forward $100 $-1 #
vertex $-1 -1 $-1 $185 $186 #
ellipse-curve $-1 -1 $-1 23 26.96485324245257331 -25.39999999999999858 -2.036639773830979272e-16 -7.016517465666268306e-17 -1 -1.100458843723294944 1.670027045670575472 0 1 I I #
coedge $-1 -1 $-1 $187 $91 $188 $189 forward $136 $-1 #
coedge $-1 -1 $-1 $91 $187 $177 $190 forward $136 $-1 #
loop $-1 -1 $-1 $-1 $91 $191 #
vertex $-1 -1 $-1 $130 $192 #
straight-curve $-1 -1 $-1 42.66249999999999432 6.399999999999996803 -25.40000000000000568 10 0 -2.036639773830979075e-15 I I #
point $-1 -1 $-1 64.32499999999997442 6.399999999999996803 -25.40000000000000924 #
DXID-attrib $-1 -1 $-1 $-1 $96 @10 ASM ENTITY @36 848f671d-6546-40a6-bc7b-772662c4dbe1 #
face $193 -1 $-1 $194 $195 $5 $-1 $196 forward single #
loop $-1 -1 $-1 $-1 $197 $96 #
cone-surface $-1 -1 $-1 13.79999999999999716 1.600000000000000311 -24.60000000000000142 -0 -1 -0 2.828427124746188959 0 -2.828427124746192511 1 I I 0 1 4.000000000000000888 forward I I I I #
DXID-attrib $-1 -1 $-1 $-1 $99 @10 ASM ENTITY @36 8249410a-7734-42c5-bb2f-5165205e1baa #
face $198 -1 $-1 $86 $158 $5 $-1 $199 forward single #
loop $-1 -1 $-1 $-1 $200 $99 #
cone-surface $-1 -1 $-1 22.99999999999998579 26.96485324245258397 -1.599999999999997202 4.440892098500626162e-16 -2.413273150586070371e-17 1 -1.100458843723294944 1.670027045670575472 5.044364134822261191e-16 1 I I 0 1 2 forward I I I I #
coedge $-1 -1 $-1 $201 $102 $157 $202 reversed $67 $-1 #
coedge $-1 -1 $-1 $102 $203 $103 $152 forward $67 $-1 #
edge $-1 -1 $-1 $159 -0.582638965276068288 $154 0.5826389652760720628 $102 $204 forward @7 unknown #
coedge $-1 -1 $-1 $104 $103 $205 $206 reversed $44 $-1 #
edge $-1 -1 $-1 $207 -0.9959050495200177933 $154 3.283677594302179426 $149 $208 forward @7 unknown #
edge $-1 -1 $-1 $112 -3.28367759430217987 $209 0.9959050495200184594 $109 $210 forward @7 unknown #
vertex $-1 -1 $-1 $150 $211 #
straight-curve $-1 -1 $-1 63.11399033327121089 11.91990259206353997 -1.600000000000018074 4.440892098500626951e-15 -2.413273150586075917e-16 10 F 2.079999000000000819 F 3.640001000000001596 #
coedge $-1 -1 $-1 $212 $107 $110 $163 forward $158 $-1 #
coedge $-1 -1 $-1 $107 $212 $148 $202 forward $158 $-1 #
loop $-1 -1 $-1 $-1 $107 $145 #
vertex $-1 -1 $-1 $108 $213 #
straight-curve $-1 -1 $-1 64.32500000000003126 10.0821065603982607 -1.600000000000018741 -4.440892098500626951e-15 2.413273150586073945e-16 -10 F -3.640001000000001596 F -2.079999000000000819 #
coedge $-1 -1 $-1 $214 $109 $200 $215 reversed $111 $-1 #
coedge $-1 -1 $-1 $110 $214 $216 $217 forward $111 $-1 #
edge $-1 -1 $-1 $113 -1.092033603426914024 $218 -0.7238229473870880781 $156 $219 forward @7 unknown #
face $220 -1 $-1 $221 $111 $5 $-1 $222 reversed single #
point $-1 -1 $-1 63.1139903332712322 11.91990259206353997 28.59999999999999076 #
point $-1 -1 $-1 64.32500000000003126 10.0821065603982607 28.59999999999999076 #
coedge $-1 -1 $-1 $182 $181 $115 $168 forward $183 $-1 #
edge $-1 -1 $-1 $175 -7.604451430163704728 $172 -3.141592653589793116 $167 $223 forward @7 unknown #
coedge $-1 -1 $-1 $224 $116 $178 $225 reversed $171 $-1 #
coedge $-1 -1 $-1 $116 $224 $226 $227 reversed $171 $-1 #
loop $-1 -1 $-1 $-1 $116 $228 #
vertex $-1 -1 $-1 $117 $229 #
straight-curve $-1 -1 $-1 42.66249999999999432 6.399999999999996803 -28.60000000000000853 -10 0 2.047590824818350239e-15 I I #
point $-1 -1 $-1 64.32500000000000284 6.399999999999996803 -28.60000000000001208 #
vertex $-1 -1 $-1 $168 $230 #
ellipse-curve $-1 -1 $-1 23 26.96485324245257331 -28.60000000000000142 2.04759082481835014e-16 6.968635165527596685e-17 1 -1.100458843723294944 1.670027045670575472 0 1 I I #
coedge $-1 -1 $-1 $231 $125 $135 $190 reversed $179 $-1 #
coedge $-1 -1 $-1 $125 $231 $169 $225 forward $179 $-1 #
loop $-1 -1 $-1 $-1 $125 $232 #
straight-curve $-1 -1 $-1 64.32499999999997442 6.399999999999992362 -26.10400000000001342 -2.003786620868866373e-15 -6.123233995736766282e-16 -10 I I #
coedge $-1 -1 $-1 $167 $129 $131 $185 reversed $183 $-1 #
coedge $-1 -1 $-1 $129 $167 $233 $234 forward $183 $-1 #
loop $-1 -1 $-1 $-1 $181 $235 #
straight-curve $-1 -1 $-1 20.99999999999999645 -8.07645894774176476 -25.39999999999999858 0 -4.607999999999997875 0 F -8.263120431367568131 F -1.570796326794896558 #
edge $-1 -1 $-1 $175 -0.1600000000000001421 $132 0.1600000000000001421 $181 $236 forward @7 tangent #
point $-1 -1 $-1 20.99999999999999645 26.96485324245257331 -25.39999999999999858 #
coedge $-1 -1 $-1 $135 $134 $237 $238 reversed $136 $-1 #
coedge $-1 -1 $-1 $233 $239 $134 $189 reversed $240 $-1 #
edge $-1 -1 $-1 $137 -6.938893903907251057e-16 $241 1.570796326794896558 $134 $242 forward @7 unknown #
edge $-1 -1 $-1 $243 0 $93 1.570796326794897224 $135 $244 forward @7 unknown #
face $245 -1 $-1 $246 $136 $5 $-1 $247 forward single #
point $-1 -1 $-1 20.99999999999999289 6.399999999999996803 -25.39999999999999858 #
DXID-attrib $-1 -1 $-1 $-1 $141 @10 ASM ENTITY @36 d37be6fb-ee13-4020-add1-4085d30acbd3 #
face $248 -1 $-1 $249 $250 $5 $-1 $251 reversed single #
loop $-1 -1 $-1 $-1 $252 $141 #
plane-surface $-1 -1 $-1 -20.00000000000000711 0 -28.59999999999999787 0 0 -1 -10 0 0 forward_v I I I I #
coedge $-1 -1 $-1 $253 $254 $255 $256 forward $142 $-1 #
DXID-attrib $-1 -1 $-1 $-1 $145 @10 ASM ENTITY @36 a291337f-cc38-4e9e-a688-4927ba4d8d9c #
plane-surface $-1 -1 $-1 64.32500000000003126 6.400000000000001243 25.39999999999998792 1 -2.010042488810059101e-15 -4.440892098500627148e-16 -2.01004248881005918e-14 -10 -6.123233995736677536e-16 forward_v I I I I #
coedge $-1 -1 $-1 $205 $257 $161 $215 forward $146 $-1 #
coedge $-1 -1 $-1 $258 $148 $259 $260 forward $67 $-1 #
edge $-1 -1 $-1 $261 0.7238229473870880781 $159 1.092033603426914024 $148 $262 forward @7 unknown #
coedge $-1 -1 $-1 $149 $258 $263 $264 reversed $67 $-1 #
ellipse-curve $-1 -1 $-1 62.32500000000003126 10.08210656039826603 25.39999999999999147 5.176802724851951644e-16 -2.9607746123040166e-17 1 1.670027045670577248 1.100458843723291391 -6.647934400244163029e-16 1 I I #
coedge $-1 -1 $-1 $263 $200 $151 $206 forward $146 $-1 #
edge $-1 -1 $-1 $209 -3.020000000000000906 $207 -2.700000000000000178 $151 $265 forward @7 tangent #
vertex $-1 -1 $-1 $152 $266 #
straight-curve $-1 -1 $-1 32.9403420728876597 24.87385198948157239 25.39999999999999858 9.18898015832635906 -3.944951666355934528 -4.873754879628571817e-15 I I #
vertex $-1 -1 $-1 $206 $267 #
straight-curve $-1 -1 $-1 32.9403420728876668 24.87385198948157239 28.60000000000000853 -9.18898015832635906 3.944951666355934528 4.859887754354535648e-15 I I #
point $-1 -1 $-1 63.11399033327121799 11.91990259206353997 25.39999999999998437 #
coedge $-1 -1 $-1 $157 $156 $268 $269 forward $158 $-1 #
point $-1 -1 $-1 64.32500000000003126 10.0821065603982607 25.39999999999998792 #
coedge $-1 -1 $-1 $162 $161 $270 $271 reversed $111 $-1 #
edge $-1 -1 $-1 $272 -0.9881573615188286031 $209 0.9881573615188260495 $161 $273 forward @7 unknown #
coedge $-1 -1 $-1 $274 $275 $162 $217 reversed $276 $-1 #
edge $-1 -1 $-1 $277 -2.166250000000001119 $218 2.166250000000001563 $162 $278 forward @7 tangent #
vertex $-1 -1 $-1 $163 $279 #
straight-curve $-1 -1 $-1 64.32500000000001705 -0.8382294738708795379 28.59999999999999076 -2.01004248881005918e-14 -10 1.545927562576203078e-16 F -3.08382294738708751 F -0 #
DXID-attrib $-1 -1 $-1 $-1 $164 @10 ASM ENTITY @36 31b14654-fbb3-4135-9f84-d99e878345d0 #
face $280 -1 $-1 $281 $282 $5 $-1 $283 forward single #
plane-surface $-1 -1 $-1 42.66250000000002274 14.58088526306455357 28.60000000000000142 -5.165851673864580283e-16 2.86434184018911294e-17 -1 -4.440892098500625373e-15 10 2.864341840189136483e-16 forward_v I I I I #
straight-curve $-1 -1 $-1 20.99999999999999645 -8.07645894774176476 -28.60000000000000142 0 -4.607999999999997875 0 F -8.263120431367568131 F -1.570796326794896558 #
coedge $-1 -1 $-1 $170 $169 $284 $285 reversed $171 $-1 #
edge $-1 -1 $-1 $286 2.780812553655571808e-31 $118 1.570796326794897002 $178 $287 forward @7 unknown #
coedge $-1 -1 $-1 $239 $233 $170 $227 forward $240 $-1 #
edge $-1 -1 $-1 $172 -3.469446951953618133e-16 $288 1.570796326794896558 $226 $289 forward @7 unknown #
face $290 -1 $-1 $235 $171 $5 $-1 $291 reversed single #
point $-1 -1 $-1 20.99999999999999289 6.399999999999996803 -28.60000000000000142 #
point $-1 -1 $-1 20.99999999999999645 26.96485324245257331 -28.60000000000000142 #
coedge $-1 -1 $-1 $178 $177 $292 $293 reversed $179 $-1 #
face $294 -1 $-1 $295 $179 $5 $-1 $296 forward single #
coedge $-1 -1 $-1 $226 $188 $182 $234 reversed $240 $-1 #
edge $-1 -1 $-1 $172 -0.2496000000000000441 $137 0.07040000000000024016 $182 $297 forward @7 tangent #
face $298 -1 $-1 $232 $183 $5 $-1 $299 forward single #
straight-curve $-1 -1 $-1 20.99999999999999645 26.96485324245257331 -27 2.003786620868866373e-15 8.049545518531271191e-16 10 F -0.7800010000000003885 F 0.7800009999999995003 #
coedge $-1 -1 $-1 $300 $301 $187 $238 forward $302 $-1 #
edge $-1 -1 $-1 $243 -5.382500000000000284 $241 -1.050000000000000266 $187 $303 forward @7 tangent #
coedge $-1 -1 $-1 $188 $226 $304 $305 reversed $240 $-1 #
loop $-1 -1 $-1 $-1 $233 $295 #
vertex $-1 -1 $-1 $238 $306 #
ellipse-curve $-1 -1 $-1 20.99999999999999289 6.399999999999995026 -22.20000000000000995 -1 0 2.003786620868866422e-16 0 0 -3.199999999999989519 1 I I #
vertex $-1 -1 $-1 $307 $308 #
ellipse-curve $-1 -1 $-1 64.32499999999998863 6.399999999999995026 -22.20000000000002061 1 0 -2.003786620868866422e-16 0 -3.19999999999999174 0 1 I I #
DXID-attrib $-1 -1 $-1 $-1 $191 @10 ASM ENTITY @36 1eadf757-ffe4-4305-b36b-194d0cab262c #
face $309 -1 $-1 $310 $311 $5 $-1 $312 reversed single #
cone-surface $-1 -1 $-1 42.66249999999999432 6.399999999999995026 -22.20000000000001705 1 0 -2.003786620868866422e-16 -0 -3.19999999999999174 -0 1 I I -0 -1 4.607999999999998764 forward I I I I #
DXID-attrib $-1 -1 $-1 $-1 $194 @10 ASM ENTITY @36 734c0dfb-c6ab-437d-8cb4-acdb0f625bab #
face $313 -1 $-1 $314 $315 $5 $-1 $316 forward single #
loop $-1 -1 $-1 $317 $318 $194 #
plane-surface $-1 -1 $-1 -2.631847435666780764e-15 0 0 0 1 0 0 0 10 forward_v I I I I #
coedge $-1 -1 $-1 $319 $320 $253 $321 reversed $195 $-1 #
coedge $-1 -1 $-1 $322 $197 $252 $321 forward $142 $-1 #
coedge $-1 -1 $-1 $197 $322 $323 $324 forward $142 $-1 #
coedge $-1 -1 $-1 $325 $326 $197 $256 reversed $327 $-1 #
edge $-1 -1 $-1 $328 -0.7853981633974488341 $329 0.7853981633974471688 $255 $330 forward @7 unknown #
coedge $-1 -1 $-1 $200 $263 $331 $332 forward $146 $-1 #
coedge $-1 -1 $-1 $203 $201 $333 $334 reversed $67 $-1 #
coedge $-1 -1 $-1 $335 $336 $201 $260 reversed $282 $-1 #
edge $-1 -1 $-1 $261 -2.166250000000002451 $337 2.166250000000002007 $201 $338 forward @7 tangent #
vertex $-1 -1 $-1 $202 $339 #
straight-curve $-1 -1 $-1 64.32500000000001705 -0.8382294738708795379 25.39999999999998792 2.01004248881005918e-14 10 -1.545927562576203078e-16 F 0 F 3.083822947387087954 #
coedge $-1 -1 $-1 $257 $205 $203 $264 forward $146 $-1 #
edge $-1 -1 $-1 $207 -0.9881573615188270487 $340 0.9881573615188286031 $203 $341 forward @7 unknown #
straight-curve $-1 -1 $-1 23.78899033327117252 28.80264927411785436 -1.599999999999997424 -4.440892098500626162e-15 2.413273150586070494e-16 -10 F -3.640001000000001152 F -2.079999000000001264 #
point $-1 -1 $-1 23.78899033327118673 28.80264927411785436 25.40000000000000568 #
point $-1 -1 $-1 23.78899033327118673 28.80264927411786147 28.60000000000001208 #
coedge $-1 -1 $-1 $342 $343 $212 $269 reversed $344 $-1 #
edge $-1 -1 $-1 $218 -0.2496000000000000441 $261 0.07040000000000024016 $212 $345 forward @7 tangent #
coedge $-1 -1 $-1 $331 $346 $214 $271 forward $347 $-1 #
edge $-1 -1 $-1 $277 0 $272 2.056485324245258095 $270 $348 forward @7 unknown #
vertex $-1 -1 $-1 $215 $349 #
ellipse-curve $-1 -1 $-1 23 26.96485324245258397 28.60000000000001208 -5.165851673864580283e-16 2.86434184018911294e-17 -1 -1.100458843723294944 1.670027045670575472 5.044364134822261191e-16 1 I I #
coedge $-1 -1 $-1 $350 $216 $351 $352 reversed $276 $-1 #
coedge $-1 -1 $-1 $216 $350 $342 $353 reversed $276 $-1 #
loop $-1 -1 $-1 $-1 $216 $354 #
vertex $-1 -1 $-1 $217 $355 #
straight-curve $-1 -1 $-1 42.66250000000002274 6.399999999999996803 28.59999999999999787 10 0 -5.165851673864579691e-15 I I #
point $-1 -1 $-1 64.32500000000003126 6.400000000000001243 28.59999999999999076 #
DXID-attrib $-1 -1 $-1 $-1 $221 @10 ASM ENTITY @36 4c0c8a1a-1de2-40a8-93a8-24c2a6907a2a #
face $356 -1 $-1 $357 $358 $5 $-1 $359 reversed single #
loop $-1 -1 $-1 $-1 $259 $221 #
cone-surface $-1 -1 $-1 42.66250000000000853 6.400000000000003908 22.20000000000000284 -1 0 4.440892098500626162e-16 -0 -3.199999999999998845 -0 1 I I -0 -1 4.607999999999998764 forward I I I I #
coedge $-1 -1 $-1 $360 $361 $224 $285 forward $327 $-1 #
edge $-1 -1 $-1 $288 1.050000000000000266 $286 5.382500000000000284 $224 $362 forward @7 tangent #
vertex $-1 -1 $-1 $285 $363 #
ellipse-curve $-1 -1 $-1 64.32500000000000284 6.399999999999995026 -22.20000000000002061 1 0 -2.003786620868866422e-16 0 -6.399999999999992362 0 1 I I #
vertex $-1 -1 $-1 $364 $365 #
ellipse-curve $-1 -1 $-1 20.99999999999999289 6.399999999999995026 -22.20000000000000995 -1 0 2.003786620868866422e-16 0 0 -6.399999999999992362 1 I I #
DXID-attrib $-1 -1 $-1 $-1 $228 @10 ASM ENTITY @36 4ebd8a3a-1a45-4f8e-91c6-c6613aaa7d9c #
cone-surface $-1 -1 $-1 42.66249999999999432 6.399999999999995026 -22.20000000000001705 1 0 -2.003786620868866422e-16 -0 -6.399999999999992362 -0 1 I I -0 -1 4.607999999999998764 forward I I I I #
coedge $-1 -1 $-1 $366 $367 $231 $293 forward $368 $-1 #
edge $-1 -1 $-1 $286 -0.1599999999999999201 $243 0.1600000000000000311 $231 $369 forward @7 tangent #
DXID-attrib $-1 -1 $-1 $-1 $232 @10 ASM ENTITY @36 71342017-554d-4e94-b084-fdd632161dfd #
face $370 -1 $-1 $191 $240 $5 $-1 $371 forward single #
plane-surface $-1 -1 $-1 64.32499999999997442 6.399999999999995026 -25.40000000000000924 1 0 -2.003786620868866422e-16 -2.003786620868866373e-15 0 -10 forward_v I I I I #
straight-curve $-1 -1 $-1 20.99999999999999645 6.400000000000001243 -26.10400000000000276 2.003786620868866373e-15 6.123233995736766282e-16 10 I I #
DXID-attrib $-1 -1 $-1 $-1 $235 @10 ASM ENTITY @36 8173480f-93e3-4dea-848e-6376dc6dd995 #
plane-surface $-1 -1 $-1 20.99999999999999645 6.399999999999996803 -25.39999999999999858 -1 0 2.003786620868866422e-16 0 -10 6.123233995736766282e-16 forward_v I I I I #
coedge $-1 -1 $-1 $372 $237 $373 $374 forward $302 $-1 #
coedge $-1 -1 $-1 $237 $375 $366 $307 reversed $302 $-1 #
loop $-1 -1 $-1 $376 $377 $378 #
straight-curve $-1 -1 $-1 10.49999999999999289 3.200000000000000622 -22.20000000000000639 -10 0 2.05003674483583437e-15 I I #
coedge $-1 -1 $-1 $379 $373 $239 $305 forward $311 $-1 #
edge $-1 -1 $-1 $241 0 $288 0.3199999999999999512 $239 $380 forward @7 tangent #
point $-1 -1 $-1 20.99999999999999645 3.200000000000000622 -22.20000000000000995 #
edge $381 -1 $-1 $243 -5.080000000000001847 $382 -0.6400000000000001243 $366 $383 forward @7 unknown #
point $-1 -1 $-1 64.32499999999998863 3.200000000000000622 -22.20000000000002061 #
DXID-attrib $-1 -1 $-1 $-1 $246 @10 ASM ENTITY @36 620b66d1-716d-459d-b2df-31cb1705f60d #
face $384 -1 $-1 $385 $386 $5 $-1 $387 reversed single #
loop $-1 -1 $-1 $-1 $304 $246 #
plane-surface $-1 -1 $-1 20.99999999999999645 3.200000000000000622 -20.60000000000000853 1 0 0 0 0 -10 forward_v I I I I #
DXID-attrib $-1 -1 $-1 $-1 $249 @10 ASM ENTITY @36 a5c70c3e-37e5-4c2f-af67-ab2ae4d71a95 #
face $388 -1 $-1 $389 $390 $5 $-1 $391 forward single #
loop $-1 -1 $-1 $-1 $392 $249 #
cone-surface $-1 -1 $-1 13.80000000000000604 1.600000000000000311 24.59999999999999076 0 1 0 2.828427124746189847 0 2.828427124746189847 1 I I 0 1 4 forward I I I I #
loop $-1 -1 $-1 $393 $394 $194 #
coedge $-1 -1 $-1 $318 $318 $395 $396 forward $250 $-1 #
coedge $-1 -1 $-1 $397 $252 $326 $398 forward $195 $-1 #
coedge $-1 -1 $-1 $252 $397 $399 $400 forward $195 $-1 #
edge $-1 -1 $-1 $329 -0.1600000000000000311 $401 0.1600000000000000311 $252 $402 forward @7 tangent #
coedge $-1 -1 $-1 $254 $253 $377 $403 forward $142 $-1 #
coedge $-1 -1 $-1 $404 $405 $254 $324 reversed $386 $-1 #
edge $-1 -1 $-1 $406 -0.1600000000000000311 $328 0.1600000000000000311 $323 $407 forward @7 tangent #
coedge $-1 -1 $-1 $408 $255 $405 $409 forward $327 $-1 #
coedge $-1 -1 $-1 $255 $410 $319 $398 reversed $327 $-1 #
loop $-1 -1 $-1 $-1 $255 $194 #
vertex $-1 -1 $-1 $256 $411 #
vertex $-1 -1 $-1 $256 $412 #
ellipse-curve $-1 -1 $-1 13.79999999999999716 0 -24.60000000000000142 0 1 0 2.828427124746188959 0 -2.828427124746192511 1 I I #
coedge $-1 -1 $-1 $333 $270 $257 $332 reversed $347 $-1 #
edge $-1 -1 $-1 $340 2.700000000000000622 $272 3.020000000000000906 $331 $413 forward @7 tangent #
coedge $-1 -1 $-1 $346 $331 $258 $334 forward $347 $-1 #
edge $-1 -1 $-1 $340 -7.604451430163705616 $337 -3.141592653589793116 $258 $414 forward @7 unknown #
coedge $-1 -1 $-1 $415 $259 $343 $416 reversed $282 $-1 #
coedge $-1 -1 $-1 $259 $415 $417 $418 reversed $282 $-1 #
vertex $-1 -1 $-1 $260 $419 #
straight-curve $-1 -1 $-1 42.66250000000000853 6.399999999999996803 25.39999999999999858 -10 0 5.176802724851950855e-15 I I #
point $-1 -1 $-1 64.32500000000003126 6.400000000000001243 25.39999999999998792 #
vertex $-1 -1 $-1 $334 $420 #
ellipse-curve $-1 -1 $-1 23 26.96485324245258397 25.40000000000000924 5.176802724851951644e-16 -2.9607746123040166e-17 1 -1.100458843723294944 1.670027045670575472 5.044364134822261191e-16 1 I I #
coedge $-1 -1 $-1 $421 $268 $275 $353 forward $344 $-1 #
coedge $-1 -1 $-1 $268 $421 $335 $416 forward $344 $-1 #
loop $-1 -1 $-1 $-1 $268 $422 #
straight-curve $-1 -1 $-1 64.32500000000003126 6.400000000000001243 26.10399999999998855 -4.440892098500626162e-15 6.123233995736766282e-16 -10 I I #
coedge $-1 -1 $-1 $270 $333 $423 $424 forward $347 $-1 #
loop $-1 -1 $-1 $-1 $331 $425 #
straight-curve $-1 -1 $-1 21.00000000000001066 6.400000000000001243 28.60000000000001208 4.930380657631323784e-31 10 6.123233995736766282e-16 F -0.7238229473870880781 F 2.359999999999999876 #
point $-1 -1 $-1 21.00000000000001066 26.96485324245258397 28.60000000000001208 #
coedge $-1 -1 $-1 $275 $274 $426 $427 reversed $276 $-1 #
coedge $-1 -1 $-1 $423 $428 $274 $352 forward $429 $-1 #
edge $-1 -1 $-1 $430 -9.244463733058728591e-31 $277 1.570796326794896336 $351 $431 forward @7 unknown #
edge $-1 -1 $-1 $218 3.469446951953616161e-16 $432 1.570796326794896558 $342 $433 forward @7 unknown #
face $434 -1 $-1 $435 $276 $5 $-1 $436 reversed single #
point $-1 -1 $-1 21.00000000000001066 6.400000000000001243 28.60000000000001208 #
DXID-attrib $-1 -1 $-1 $-1 $281 @10 ASM ENTITY @36 83a98dcd-ebd9-4c1f-9425-6638c1dc770d #
face $437 -1 $-1 $438 $439 $5 $-1 $440 reversed single #
loop $-1 -1 $-1 $-1 $441 $281 #
plane-surface $-1 -1 $-1 17.80000000000000426 3.200000000000000622 20.60000000000000853 -1 0 5.551115123125786646e-16 5.551115123125786646e-15 0 10 forward_v I I I I #
coedge $-1 -1 $-1 $426 $284 $367 $442 reversed $327 $-1 #
coedge $-1 -1 $-1 $284 $408 $379 $364 forward $327 $-1 #
straight-curve $-1 -1 $-1 10.49999999999999289 0 -22.20000000000000639 10 0 -2.05003674483583437e-15 I I #
point $-1 -1 $-1 64.32499999999998863 1.11022302462515654e-15 -22.20000000000002061 #
edge $-1 -1 $-1 $443 1.030000000000000471 $288 1.190000000000000613 $361 $444 forward @7 unknown #
point $-1 -1 $-1 20.99999999999999645 1.11022302462515654e-15 -22.20000000000000995 #
coedge $-1 -1 $-1 $445 $292 $301 $307 forward $368 $-1 #
coedge $-1 -1 $-1 $292 $445 $360 $442 forward $368 $-1 #
loop $-1 -1 $-1 $-1 $292 $446 #
straight-curve $-1 -1 $-1 64.32499999999998863 1.600000000000000311 -22.20000000000002061 0 10 0 I I #
DXID-attrib $-1 -1 $-1 $-1 $295 @10 ASM ENTITY @36 693f6a05-f5e0-4ddf-9ad3-48e5fc3c6efb #
plane-surface $-1 -1 $-1 20.99999999999999645 6.399999999999995026 -28.60000000000000142 -1 0 2.003786620868866422e-16 2.003786620868866373e-15 0 10 forward_v I I I I #
coedge $-1 -1 $-1 $447 $300 $448 $449 forward $302 $-1 #
coedge $-1 -1 $-1 $304 $450 $300 $374 reversed $311 $-1 #
edge $-1 -1 $-1 $241 -1.190000000000000613 $451 -1.030000000000000471 $300 $452 forward @7 unknown #
coedge $-1 -1 $-1 $301 $453 $415 $454 forward $302 $-1 #
loop $-1 -1 $-1 $455 $456 $378 #
coedge $-1 -1 $-1 $399 $447 $322 $403 reversed $302 $-1 #
face $457 -1 $-1 $458 $302 $5 $-1 $459 forward single #
coedge $-1 -1 $-1 $450 $304 $361 $364 reversed $311 $-1 #
straight-curve $-1 -1 $-1 20.99999999999999645 3.200000000000000622 -22.20000000000000995 0 -10 0 I I #
DXID-attrib $-1 -1 $-1 $-1 $307 @10 ASM ENTITY @36 e5ff101e-8d2b-461f-82d6-79b2f6f41876 #
vertex $-1 -1 $-1 $454 $460 #
straight-curve $-1 -1 $-1 64.32500000000001705 3.200000000000000622 28.59999999999999432 4.658278425000657045e-15 0 10 F -5.720000000000000639 F -0 #
DXID-attrib $-1 -1 $-1 $-1 $310 @10 ASM ENTITY @36 6c196e48-dec5-4241-9763-9ceb037e8d98 #
face $461 -1 $-1 $354 $462 $5 $-1 $463 reversed single #
loop $-1 -1 $-1 $-1 $323 $310 #
plane-surface $-1 -1 $-1 17.79999999999999361 3.200000000000000622 -28.60000000000000142 -1 0 2.775557561562893323e-16 2.775557561562893323e-15 0 10 forward_v I I I I #
DXID-attrib $-1 -1 $-1 $-1 $314 @10 ASM ENTITY @36 ea9d8486-8a25-4647-953b-37039fc89076 #
face $464 -1 $-1 $465 $466 $5 $-1 $467 forward single #
loop $-1 -1 $-1 $-1 $468 $314 #
plane-surface $-1 -1 $-1 20.00000000000000355 0 28.59999999999999076 4.440892098500626162e-16 0 1 10 0 -4.440892098500626162e-15 forward_v I I I I #
coedge $-1 -1 $-1 $469 $470 $471 $472 forward $315 $-1 #
loop $-1 -1 $-1 $473 $474 $194 #
coedge $-1 -1 $-1 $394 $394 $475 $476 forward $317 $-1 #
coedge $-1 -1 $-1 $395 $395 $318 $396 reversed $477 $-1 #
edge $-1 -1 $-1 $478 -3.141592653589793116 $478 3.141592653589793116 $318 $479 forward @7 unknown #
coedge $-1 -1 $-1 $320 $319 $480 $481 reversed $195 $-1 #
edge $482 -1 $-1 $329 5.052499999999999325 $483 8.032500000000000639 $319 $484 forward @7 unknown #
coedge $-1 -1 $-1 $485 $377 $320 $400 reversed $302 $-1 #
edge $486 -1 $-1 $487 -8.032500000000000639 $401 -5.052499999999999325 $320 $488 forward @7 unknown #
vertex $-1 -1 $-1 $321 $489 #
straight-curve $-1 -1 $-1 13.79999999999999716 1.600000000000000311 -28.59999999999999787 0 10 0 F -1.400001000000000051 F 1.400001000000000051 #
edge $-1 -1 $-1 $401 -0.7853981633974471688 $406 0.7853981633974488341 $377 $490 forward @7 unknown #
coedge $-1 -1 $-1 $491 $323 $447 $492 reversed $386 $-1 #
coedge $-1 -1 $-1 $323 $491 $325 $409 reversed $386 $-1 #
vertex $-1 -1 $-1 $403 $493 #
straight-curve $-1 -1 $-1 17.79999999999999361 1.600000000000000311 -24.60000000000000142 0 -10 0 F -1.400001000000000051 F 1.400001000000000051 #
coedge $-1 -1 $-1 $361 $325 $494 $495 forward $327 $-1 #
edge $-1 -1 $-1 $328 -1.029999999999999583 $496 -0.6300000000000005596 $325 $497 forward @7 unknown #
coedge $-1 -1 $-1 $326 $498 $499 $500 reversed $327 $-1 #
point $-1 -1 $-1 17.79999999999999716 0 -24.60000000000000142 #
point $-1 -1 $-1 13.79999999999999893 0 -28.60000000000000142 #
straight-curve $-1 -1 $-1 20.99999999999998224 26.96485324245258397 -1.599999999999996536 4.440892098500626162e-15 -2.413273150586070494e-16 10 F 2.079999000000001264 F 3.640001000000001152 #
straight-curve $-1 -1 $-1 20.99999999999999645 -8.076458947741759431 25.40000000000000924 0 -4.607999999999997875 0 F -8.263120431367571683 F -1.570796326794896558 #
coedge $-1 -1 $-1 $336 $335 $375 $454 reversed $282 $-1 #
edge $-1 -1 $-1 $382 0 $261 1.570796326794895892 $335 $501 forward @7 unknown #
coedge $-1 -1 $-1 $428 $423 $336 $418 forward $429 $-1 #
edge $-1 -1 $-1 $337 6.938893903907232322e-16 $502 1.570796326794896558 $336 $503 forward @7 unknown #
point $-1 -1 $-1 20.99999999999999289 6.400000000000001243 25.40000000000000924 #
point $-1 -1 $-1 20.99999999999999645 26.96485324245258397 25.40000000000000924 #
coedge $-1 -1 $-1 $343 $342 $445 $504 reversed $344 $-1 #
face $505 -1 $-1 $425 $344 $5 $-1 $506 forward single #
coedge $-1 -1 $-1 $417 $351 $346 $424 reversed $429 $-1 #
edge $-1 -1 $-1 $337 -0.07039999999999979607 $277 0.2496000000000004881 $346 $507 forward @7 tangent #
face $508 -1 $-1 $164 $347 $5 $-1 $509 forward single #
coedge $-1 -1 $-1 $510 $360 $350 $427 forward $327 $-1 #
edge $-1 -1 $-1 $432 -3.216250000000000053 $430 1.116250000000000409 $350 $511 forward @7 tangent #
coedge $-1 -1 $-1 $351 $417 $512 $513 forward $429 $-1 #
loop $-1 -1 $-1 $-1 $423 $435 #
vertex $-1 -1 $-1 $427 $514 #
ellipse-curve $-1 -1 $-1 21.00000000000001066 6.400000000000003908 22.20000000000000995 -1 0 4.440892098500626162e-16 0 -6.400000000000001243 0 1 I I #
vertex $-1 -1 $-1 $442 $515 #
ellipse-curve $-1 -1 $-1 64.32500000000004547 6.400000000000003908 22.19999999999999218 1 0 -4.440892098500626162e-16 0 0 6.399999999999996803 1 I I #
DXID-attrib $-1 -1 $-1 $-1 $354 @10 ASM ENTITY @36 cd7c9f86-56f3-48f5-869a-1633d865e6ec #
face $516 -1 $-1 $422 $429 $5 $-1 $517 forward single #
cone-surface $-1 -1 $-1 42.66250000000000853 6.400000000000003908 22.20000000000000284 -1 0 4.440892098500626162e-16 -0 -6.400000000000000355 -0 1 I I -0 -1 4.607999999999998764 forward I I I I #
DXID-attrib $-1 -1 $-1 $-1 $357 @10 ASM ENTITY @36 f6457452-6fcc-495f-b014-cb88c73c664b #
face $518 -1 $-1 $519 $520 $5 $-1 $521 reversed single #
loop $-1 -1 $-1 $-1 $512 $357 #
plane-surface $-1 -1 $-1 21.00000000000001066 3.200000000000000622 28.60000000000000142 1 0 -5.551115123125786646e-16 -5.551115123125786646e-15 0 -10 forward_v I I I I #
coedge $-1 -1 $-1 $522 $523 $470 $524 reversed $358 $-1 #
edge $525 -1 $-1 $432 0.6400000000000001243 $286 5.080000000000001847 $367 $526 forward @7 unknown #
vertex $-1 -1 $-1 $495 $527 #
straight-curve $-1 -1 $-1 20.99999999999999645 0 -10.30000000000000426 0 0 -10 I I #
coedge $-1 -1 $-1 $367 $366 $421 $504 forward $368 $-1 #
face $528 -1 $-1 $529 $368 $5 $-1 $530 forward single #
coedge $-1 -1 $-1 $377 $372 $404 $492 forward $302 $-1 #
coedge $-1 -1 $-1 $531 $532 $372 $449 reversed $462 $-1 #
edge $-1 -1 $-1 $451 -1.209999999999999964 $533 -0.8899999999999999023 $372 $534 forward @7 unknown #
coedge $-1 -1 $-1 $373 $379 $531 $535 reversed $311 $-1 #
vertex $-1 -1 $-1 $374 $536 #
straight-curve $-1 -1 $-1 20.99999999999999645 3.200000000000000622 -10.30000000000000426 0 0 10 I I #
coedge $-1 -1 $-1 $375 $537 $538 $539 forward $302 $-1 #
edge $-1 -1 $-1 $502 -1.116250000000000409 $382 3.216250000000000053 $415 $540 forward @7 tangent #
loop $-1 -1 $-1 $541 $542 $378 #
coedge $-1 -1 $-1 $456 $456 $543 $544 forward $376 $-1 #
DXID-attrib $-1 -1 $-1 $-1 $378 @10 ASM ENTITY @36 708703e1-b37d-4d1d-9244-efd69081c392 #
face $545 -1 $-1 $546 $547 $5 $-1 $548 reversed single #
plane-surface $-1 -1 $-1 -3.00036422526598352e-15 3.200000000000000622 0 0 1 0 0 0 10 forward_v I I I I #
point $-1 -1 $-1 64.32500000000001705 3.200000000000000622 22.19999999999999218 #
DXID-attrib $-1 -1 $-1 $-1 $385 @10 ASM ENTITY @36 813d48f6-21b7-4807-b43e-11b45b431a6c #
loop $-1 -1 $-1 $-1 $494 $385 #
plane-surface $-1 -1 $-1 17.79999999999999716 3.200000000000000622 -20.60000000000000853 0 0 1 10 0 0 forward_v I I I I #
DXID-attrib $-1 -1 $-1 $-1 $389 @10 ASM ENTITY @36 ddd81760-d9b8-4555-b4b0-4ea3344c1688 #
face $549 -1 $-1 $378 $550 $5 $-1 $551 forward single #
loop $-1 -1 $-1 $-1 $552 $389 #
cone-surface $-1 -1 $-1 -16 0 24.60000000000000853 0 1 0 -2.828427124746186738 0 2.8284271247461934 1 I I 0 1 3.999999999999999556 forward I I I I #
coedge $-1 -1 $-1 $553 $554 $469 $555 reversed $390 $-1 #
coedge $-1 -1 $-1 $556 $392 $468 $555 forward $315 $-1 #
coedge $-1 -1 $-1 $392 $556 $441 $524 forward $315 $-1 #
coedge $-1 -1 $-1 $557 $558 $392 $472 reversed $302 $-1 #
edge $-1 -1 $-1 $559 -0.7853981633974493892 $560 0.7853981633974477239 $471 $561 forward @7 unknown #
loop $-1 -1 $-1 $562 $563 $194 #
coedge $-1 -1 $-1 $474 $474 $564 $565 forward $393 $-1 #
coedge $-1 -1 $-1 $475 $475 $394 $476 reversed $566 $-1 #
edge $-1 -1 $-1 $567 -3.141592653589793116 $567 3.141592653589793116 $394 $568 forward @7 unknown #
loop $-1 -1 $-1 $-1 $395 $569 #
vertex $-1 -1 $-1 $396 $570 #
ellipse-curve $-1 -1 $-1 -11.29999999999999893 0 20.70000000000000284 0 1 0 3.349999999999999645 0 0 1 I I #
coedge $-1 -1 $-1 $499 $571 $397 $481 forward $550 $-1 #
edge $-1 -1 $-1 $487 -0.3200000000000000622 $483 0 $397 $572 forward @7 tangent #
DXID-attrib $-1 -1 $-1 $-1 $398 @10 ASM ENTITY @36 63501e01-8680-4e22-9895-076e593534d1 #
vertex $-1 -1 $-1 $398 $573 #
straight-curve $-1 -1 $-1 64.32499999999998863 0 -28.60000000000001208 -10 0 2.003786620868866373e-15 F 0 F 8.432500000000000995 #
coedge $-1 -1 $-1 $574 $399 $571 $575 reversed $302 $-1 #
DXID-attrib $-1 -1 $-1 $-1 $400 @10 ASM ENTITY @36 80d53cd3-e2c4-47c3-91b6-dd500c585c4b #
vertex $-1 -1 $-1 $481 $576 #
straight-curve $-1 -1 $-1 64.32499999999998863 3.200000000000000622 -28.60000000000001208 10 0 -2.003786620868866373e-15 F -8.432500000000000995 F 0 #
point $-1 -1 $-1 13.79999999999999893 3.200000000000000622 -28.60000000000000142 #
ellipse-curve $-1 -1 $-1 13.79999999999999716 3.200000000000000622 -24.60000000000000142 -0 -1 -0 2.828427124746188959 0 -2.828427124746192511 1 I I #
coedge $-1 -1 $-1 $405 $404 $532 $577 forward $386 $-1 #
edge $-1 -1 $-1 $533 0.6300000000000005596 $406 1.029999999999999583 $447 $578 forward @7 unknown #
point $-1 -1 $-1 17.79999999999999716 3.200000000000000622 -24.60000000000000142 #
coedge $-1 -1 $-1 $532 $531 $408 $495 reversed $462 $-1 #
edge $-1 -1 $-1 $496 0.8899999999999999023 $443 1.209999999999999964 $408 $579 forward @7 unknown #
vertex $-1 -1 $-1 $409 $580 #
straight-curve $-1 -1 $-1 17.79999999999999716 0 -14.30000000000000426 2.775557561562893323e-15 0 10 I I #
coedge $-1 -1 $-1 $410 $581 $582 $583 reversed $327 $-1 #
coedge $-1 -1 $-1 $584 $480 $410 $500 forward $550 $-1 #
edge $-1 -1 $-1 $483 -0.7853981633974471688 $585 0.7853981633974489451 $410 $586 forward @7 unknown #
ellipse-curve $-1 -1 $-1 64.32500000000001705 6.400000000000003908 22.19999999999999218 -1 0 4.440892098500626162e-16 0 -3.199999999999998401 0 1 I I #
vertex $-1 -1 $-1 $539 $587 #
ellipse-curve $-1 -1 $-1 20.99999999999999289 6.400000000000003908 22.20000000000000995 1 0 -4.440892098500626162e-16 0 0 3.199999999999998401 1 I I #
edge $-1 -1 $-1 $382 -0.1600000000000000311 $432 0.1600000000000000311 $421 $588 forward @7 tangent #
DXID-attrib $-1 -1 $-1 $-1 $422 @10 ASM ENTITY @36 9ac195e7-8f61-44e9-a6c6-4dd18fa2c26c #
plane-surface $-1 -1 $-1 64.32500000000004547 6.400000000000003908 28.59999999999999076 1 0 -4.440892098500626162e-16 -4.440892098500626162e-15 0 -10 forward_v I I I I #
straight-curve $-1 -1 $-1 20.99999999999999645 6.400000000000001243 26.10400000000000631 4.440892098500626162e-15 -6.123233995736766282e-16 10 I I #
DXID-attrib $-1 -1 $-1 $-1 $425 @10 ASM ENTITY @36 1f9ad649-aa12-4e29-b5ac-7f530bbae0c2 #
plane-surface $-1 -1 $-1 20.99999999999999645 6.400000000000001243 25.40000000000000924 -1 0 4.440892098500626162e-16 4.930380657631323784e-31 10 6.123233995736766282e-16 forward_v I I I I #
coedge $-1 -1 $-1 $589 $426 $590 $591 forward $327 $-1 #
straight-curve $-1 -1 $-1 32.16250000000000853 0 22.20000000000000639 -10 0 4.100073489671667951e-15 I I #
coedge $-1 -1 $-1 $538 $590 $428 $513 reversed $439 $-1 #
edge $-1 -1 $-1 $502 0 $430 0.3200000000000000622 $512 $592 forward @7 tangent #
point $-1 -1 $-1 21.00000000000000711 0 22.20000000000000995 #
point $-1 -1 $-1 64.32500000000001705 0 22.19999999999999218 #
DXID-attrib $-1 -1 $-1 $-1 $435 @10 ASM ENTITY @36 bfa529f6-c529-4095-9ac2-3f4f70074048 #
plane-surface $-1 -1 $-1 20.99999999999999645 6.400000000000003908 25.40000000000000924 -1 0 4.440892098500626162e-16 4.440892098500626162e-15 0 10 forward_v I I I I #
DXID-attrib $-1 -1 $-1 $-1 $438 @10 ASM ENTITY @36 5ec267f3-dece-4a5b-82f1-89077f42d5d2 #
face $593 -1 $-1 $594 $595 $5 $-1 $596 reversed single #
loop $-1 -1 $-1 $-1 $597 $438 #
plane-surface $-1 -1 $-1 21.00000000000000711 3.200000000000000622 20.60000000000000853 -0 -0 -1 -10 0 0 forward_v I I I I #
coedge $-1 -1 $-1 $598 $441 $599 $600 reversed $358 $-1 #
coedge $-1 -1 $-1 $441 $598 $557 $601 reversed $358 $-1 #
edge $-1 -1 $-1 $602 -0.1600000000000000311 $559 0.1600000000000000311 $441 $603 forward @7 tangent #
DXID-attrib $-1 -1 $-1 $-1 $442 @10 ASM ENTITY @36 961a7652-441e-4769-a291-fde3e272db98 #
straight-curve $-1 -1 $-1 64.32500000000001705 0 28.59999999999999432 -4.658278425000657045e-15 0 -10 F 0 F 5.720000000000000639 #
point $-1 -1 $-1 20.99999999999999645 5.551115123125782702e-16 -20.60000000000000853 #
DXID-attrib $-1 -1 $-1 $-1 $446 @10 ASM ENTITY @36 fe2eb95b-b259-4969-89ce-410bb9463e03 #
face $604 -1 $-1 $-1 $605 $5 $-1 $606 forward single #
plane-surface $-1 -1 $-1 64.32499999999998863 0 -28.60000000000001208 1 0 -4.658278425000656847e-16 -4.658278425000657045e-15 0 -10 forward_v I I I I #
coedge $-1 -1 $-1 $494 $448 $450 $535 forward $462 $-1 #
coedge $-1 -1 $-1 $448 $494 $491 $577 reversed $462 $-1 #
vertex $-1 -1 $-1 $449 $607 #
straight-curve $-1 -1 $-1 8.899999999999996803 3.200000000000000622 -20.60000000000000853 -10 0 0 I I #
edge $-1 -1 $-1 $451 0 $443 0.3200000000000000067 $450 $608 forward @7 unknown #
point $-1 -1 $-1 20.99999999999999645 3.200000000000000622 -20.60000000000000853 #
coedge $-1 -1 $-1 $453 $557 $609 $610 forward $302 $-1 #
coedge $-1 -1 $-1 $611 $512 $453 $539 reversed $439 $-1 #
edge $-1 -1 $-1 $612 0.6300000000000014477 $502 0.7900000000000015898 $453 $613 forward @7 unknown #
straight-curve $-1 -1 $-1 32.16250000000000853 3.200000000000000622 22.20000000000000639 10 0 -4.100073489671667951e-15 I I #
loop $-1 -1 $-1 $614 $615 $378 #
coedge $-1 -1 $-1 $542 $542 $616 $617 forward $455 $-1 #
coedge $-1 -1 $-1 $543 $543 $456 $544 reversed $595 $-1 #
edge $-1 -1 $-1 $618 -3.141592653589793116 $618 3.141592653589793116 $456 $619 forward @7 unknown #
DXID-attrib $-1 -1 $-1 $-1 $458 @10 ASM ENTITY @36 76f010b1-6fa7-4567-9cda-cb403577d07c #
face $620 -1 $-1 $621 $622 $5 $-1 $623 reversed single #
loop $-1 -1 $-1 $-1 $624 $458 #
plane-surface $-1 -1 $-1 3.690000000000008384 3.200000000000000622 5.749999999999996447 0 0 1 -10 0 0 forward_v I I I I #
DXID-attrib $-1 -1 $-1 $-1 $465 @10 ASM ENTITY @36 19c594c8-7d8b-4de5-8c86-53235ae87f03 #
loop $-1 -1 $-1 $-1 $571 $465 #
cone-surface $-1 -1 $-1 -16.00000000000001066 0 -24.60000000000000142 0 1 0 -2.828427124746188959 0 -2.828427124746192511 1 I I 0 1 4.000000000000000888 forward I I I I #
coedge $-1 -1 $-1 $625 $626 $627 $628 forward $466 $-1 #
coedge $-1 -1 $-1 $629 $468 $558 $630 forward $390 $-1 #
coedge $-1 -1 $-1 $468 $629 $631 $632 forward $390 $-1 #
edge $-1 -1 $-1 $560 -0.1600000000000000311 $633 0.1600000000000000311 $468 $634 forward @7 tangent #
coedge $-1 -1 $-1 $470 $469 $635 $636 forward $315 $-1 #
coedge $-1 -1 $-1 $537 $471 $523 $601 forward $302 $-1 #
coedge $-1 -1 $-1 $471 $627 $553 $630 reversed $302 $-1 #
vertex $-1 -1 $-1 $472 $637 #
vertex $-1 -1 $-1 $472 $638 #
ellipse-curve $-1 -1 $-1 13.80000000000000604 3.200000000000000622 24.59999999999999076 -0 -1 -0 2.828427124746189847 0 2.828427124746189847 1 I I #
loop $-1 -1 $-1 $639 $640 $194 #
coedge $-1 -1 $-1 $563 $563 $641 $642 forward $473 $-1 #
coedge $-1 -1 $-1 $564 $564 $474 $565 reversed $643 $-1 #
edge $-1 -1 $-1 $644 -3.141592653589793116 $644 3.141592653589793116 $474 $645 forward @7 unknown #
loop $-1 -1 $-1 $-1 $475 $646 #
vertex $-1 -1 $-1 $476 $647 #
ellipse-curve $-1 -1 $-1 8.000000000000005329 0 20.69999999999999929 0 1 0 3.350000000000001421 0 0 1 I I #
face $648 -1 $-1 $446 $649 $5 $-1 $650 reversed single #
point $-1 -1 $-1 -14.64999999999999858 0 20.70000000000000284 #
coedge $-1 -1 $-1 $480 $584 $485 $575 forward $550 $-1 #
straight-curve $-1 -1 $-1 -16.00000000000001066 0 -28.59999999999999787 -0 -10 -0 F -1.560000999999999971 F 1.240001000000000131 #
point $-1 -1 $-1 -16.00000000000001421 0 -28.59999999999999432 #
coedge $-1 -1 $-1 $627 $485 $651 $652 reversed $302 $-1 #
edge $-1 -1 $-1 $653 -0.7853981633974489451 $487 0.7853981633974471688 $485 $654 forward @7 unknown #
point $-1 -1 $-1 -16.00000000000001421 3.200000000000000622 -28.59999999999999432 #
edge $-1 -1 $-1 $533 0 $496 0.3200000000000000067 $532 $655 forward @7 unknown #
straight-curve $-1 -1 $-1 17.79999999999999716 3.200000000000000622 -14.30000000000000426 -2.775557561562893323e-15 0 -10 I I #
straight-curve $-1 -1 $-1 8.899999999999996803 0 -20.60000000000000853 10 0 0 I I #
point $-1 -1 $-1 17.79999999999999716 5.551115123125782702e-16 -20.60000000000000853 #
coedge $-1 -1 $-1 $498 $631 $656 $657 reversed $327 $-1 #
coedge $-1 -1 $-1 $658 $659 $498 $583 forward $605 $-1 #
edge $660 -1 $-1 $585 0.3999999999999999112 $661 5.320000000000000284 $582 $662 forward @7 unknown #
coedge $-1 -1 $-1 $571 $499 $659 $663 forward $550 $-1 #
vertex $-1 -1 $-1 $583 $664 #
ellipse-curve $-1 -1 $-1 -16.00000000000001066 0 -24.60000000000000142 0 1 0 -2.828427124746188959 0 -2.828427124746192511 1 I I #
point $-1 -1 $-1 21.00000000000000711 3.200000000000000622 22.20000000000000995 #
straight-curve $-1 -1 $-1 64.32500000000001705 1.600000000000000311 22.19999999999998863 0 -10 0 I I #
coedge $-1 -1 $-1 $599 $510 $597 $665 forward $327 $-1 #
coedge $-1 -1 $-1 $512 $611 $510 $591 reversed $439 $-1 #
edge $-1 -1 $-1 $430 -0.7900000000000015898 $666 -0.6300000000000014477 $510 $667 forward @7 unknown #
straight-curve $-1 -1 $-1 21.00000000000000711 3.200000000000000622 22.20000000000000995 0 -10 0 I I #
DXID-attrib $-1 -1 $-1 $-1 $519 @10 ASM ENTITY @36 375114ff-1fd3-45d2-9246-edb71cdb4a2b #
face $668 -1 $-1 $646 $669 $5 $-1 $670 reversed single #
loop $-1 -1 $-1 $671 $543 $519 #
cone-surface $-1 -1 $-1 -11.30000000000000782 0 -20.69999999999999929 0 1 0 3.350000000000000089 0 0 1 I I 0 1 3.350000000000000089 forward I I I I #
coedge $-1 -1 $-1 $672 $673 $589 $665 reversed $520 $-1 #
coedge $-1 -1 $-1 $523 $522 $673 $674 reversed $358 $-1 #
coedge $-1 -1 $-1 $635 $589 $522 $600 forward $327 $-1 #
edge $-1 -1 $-1 $675 1.030000000000000915 $602 1.429999999999998606 $599 $676 forward @7 unknown #
edge $-1 -1 $-1 $559 -1.429999999999998606 $677 -1.030000000000000915 $557 $678 forward @7 unknown #
vertex $-1 -1 $-1 $600 $679 #
straight-curve $-1 -1 $-1 17.80000000000000782 1.600000000000000311 24.59999999999998721 0 10 0 F -1.400001000000000051 F 1.400001000000000051 #
DXID-attrib $-1 -1 $-1 $-1 $529 @10 ASM ENTITY @36 ed08906a-a738-4af1-ac9d-03b4461bae33 #
loop $-1 -1 $-1 $-1 $658 $529 #
plane-surface $-1 -1 $-1 -20.00000000000000355 0 4.440892098500626162e-15 -1 0 2.329139212500328424e-16 2.329139212500328522e-15 0 10 forward_v I I I I #
point $-1 -1 $-1 17.79999999999999716 3.200000000000000622 -20.60000000000000853 #
straight-curve $-1 -1 $-1 20.99999999999999645 3.200000000000000622 -20.60000000000000853 0 -10 0 I I #
coedge $-1 -1 $-1 $673 $672 $537 $610 reversed $520 $-1 #
edge $-1 -1 $-1 $677 0.7300000000000004263 $612 1.050000000000000488 $537 $680 forward @7 unknown #
coedge $-1 -1 $-1 $590 $538 $672 $681 forward $439 $-1 #
vertex $-1 -1 $-1 $610 $682 #
straight-curve $-1 -1 $-1 21 3.200000000000000622 14.29999999999999538 5.551115123125786646e-15 0 10 I I #
loop $-1 -1 $-1 $683 $684 $378 #
coedge $-1 -1 $-1 $615 $615 $685 $686 forward $541 $-1 #
coedge $-1 -1 $-1 $616 $616 $542 $617 reversed $669 $-1 #
edge $-1 -1 $-1 $687 -3.141592653589793116 $687 3.141592653589793116 $542 $688 forward @7 unknown #
vertex $-1 -1 $-1 $544 $689 #
ellipse-curve $-1 -1 $-1 -11.30000000000000782 3.200000000000000622 -20.69999999999999929 -0 -1 -0 3.350000000000000089 0 0 1 I I #
DXID-attrib $-1 -1 $-1 $-1 $546 @10 ASM ENTITY @36 685d74cf-5e50-47bc-8b07-8eaac7f2d8c7 #
face $690 -1 $-1 $691 $692 $5 $-1 $693 reversed single #
loop $-1 -1 $-1 $-1 $694 $546 #
plane-surface $-1 -1 $-1 3.690000000000008828 3.200000000000000622 1.749999999999997113 1 0 1.387778780781445922e-16 -1.387778780781445873e-15 0 10 forward_v I I I I #
coedge $-1 -1 $-1 $695 $696 $697 $698 reversed $547 $-1 #
coedge $-1 -1 $-1 $656 $552 $658 $699 forward $466 $-1 #
coedge $-1 -1 $-1 $552 $656 $629 $700 forward $466 $-1 #
coedge $-1 -1 $-1 $558 $574 $552 $628 reversed $302 $-1 #
edge $-1 -1 $-1 $701 -0.7853981633974477239 $702 0.7853981633974506105 $627 $703 forward @7 unknown #
coedge $-1 -1 $-1 $554 $553 $626 $700 reversed $390 $-1 #
edge $704 -1 $-1 $560 -3.380000000000000338 $701 -0.3999999999999996891 $553 $705 forward @7 unknown #
coedge $-1 -1 $-1 $581 $635 $554 $632 reversed $327 $-1 #
edge $706 -1 $-1 $707 0.3999999999999996891 $633 3.380000000000000338 $554 $708 forward @7 unknown #
vertex $-1 -1 $-1 $636 $709 #
straight-curve $-1 -1 $-1 13.80000000000000782 1.600000000000000311 28.59999999999999432 -0 -10 -0 F -1.400001000000000051 F 1.400001000000000051 #
coedge $-1 -1 $-1 $631 $599 $556 $636 reversed $327 $-1 #
edge $-1 -1 $-1 $633 -0.7853981633974477239 $602 0.7853981633974493892 $635 $710 forward @7 unknown #
point $-1 -1 $-1 17.80000000000000782 3.200000000000000622 24.59999999999998721 #
point $-1 -1 $-1 13.80000000000000782 3.200000000000000622 28.59999999999999432 #
loop $-1 -1 $-1 $711 $712 $194 #
coedge $-1 -1 $-1 $713 $714 $715 $716 forward $562 $-1 #
coedge $-1 -1 $-1 $641 $641 $563 $642 reversed $671 $-1 #
edge $-1 -1 $-1 $717 -3.141592653589793116 $717 3.141592653589793116 $563 $718 forward @7 unknown #
loop $-1 -1 $-1 $-1 $564 $594 #
vertex $-1 -1 $-1 $565 $719 #
ellipse-curve $-1 -1 $-1 7.999999999999991118 0 -20.69999999999999929 0 1 0 3.350000000000000089 0 0 1 I I #
face $720 -1 $-1 $569 $721 $5 $-1 $722 reversed single #
point $-1 -1 $-1 4.650000000000004796 0 20.69999999999999929 #
DXID-attrib $-1 -1 $-1 $-1 $569 @10 ASM ENTITY @36 c28a26c4-6095-45f8-afd8-b645a9c7e7d2 #
loop $-1 -1 $-1 $477 $723 $569 #
cone-surface $-1 -1 $-1 -11.29999999999999893 0 20.70000000000000284 0 1 0 3.349999999999999645 0 0 1 I I 0 1 3.349999999999999645 forward I I I I #
coedge $-1 -1 $-1 $659 $658 $574 $652 forward $605 $-1 #
edge $724 -1 $-1 $702 -5.320000000000000284 $653 -0.3999999999999999112 $651 $725 forward @7 unknown #
vertex $-1 -1 $-1 $575 $726 #
ellipse-curve $-1 -1 $-1 -16.00000000000001066 3.200000000000000622 -24.60000000000000142 -0 -1 -0 -2.828427124746188959 0 -2.828427124746192511 1 I I #
straight-curve $-1 -1 $-1 17.79999999999999716 3.200000000000000622 -20.60000000000000853 0 -10 0 I I #
coedge $-1 -1 $-1 $626 $625 $581 $657 forward $466 $-1 #
edge $-1 -1 $-1 $661 -0.7853981633974506105 $707 0.7853981633974477239 $581 $727 forward @7 unknown #
coedge $-1 -1 $-1 $651 $582 $625 $699 reversed $605 $-1 #
coedge $-1 -1 $-1 $582 $651 $584 $663 reversed $605 $-1 #
DXID-attrib $-1 -1 $-1 $-1 $583 @10 ASM ENTITY @36 74940d37-158f-4844-b7c9-714ed8431a0a #
vertex $-1 -1 $-1 $657 $728 #
straight-curve $-1 -1 $-1 -20.00000000000000711 0 -28.59999999999999787 2.329139212500328522e-15 0 10 F 0 F 5.720000000000000639 #
edge $-1 -1 $-1 $585 0 $653 0.3200000000000000622 $659 $729 forward @7 tangent #
point $-1 -1 $-1 -20.00000000000000711 0 -24.60000000000000142 #
edge $-1 -1 $-1 $666 -1.050000000000000488 $675 -0.7300000000000004263 $589 $730 forward @7 unknown #
vertex $-1 -1 $-1 $591 $731 #
straight-curve $-1 -1 $-1 21 0 14.29999999999999538 -5.551115123125786646e-15 0 -10 I I #
DXID-attrib $-1 -1 $-1 $-1 $594 @10 ASM ENTITY @36 a45fb715-9a56-42aa-be7e-a99ac52a0602 #
loop $-1 -1 $-1 $643 $616 $594 #
cone-surface $-1 -1 $-1 7.999999999999991118 0 -20.69999999999999929 0 1 0 3.350000000000000089 0 0 1 I I 0 1 3.350000000000000089 forward I I I I #
loop $-1 -1 $-1 $-1 $641 $519 #
coedge $-1 -1 $-1 $609 $597 $611 $681 reversed $520 $-1 #
coedge $-1 -1 $-1 $597 $609 $598 $674 forward $520 $-1 #
edge $-1 -1 $-1 $677 0 $675 0.3200000000000000067 $598 $732 forward @7 unknown #
vertex $-1 -1 $-1 $665 $733 #
straight-curve $-1 -1 $-1 17.79999999999999716 0 10.30000000000000071 5.551115123125786646e-15 0 10 I I #
vertex $-1 -1 $-1 $601 $734 #
straight-curve $-1 -1 $-1 17.79999999999999716 3.200000000000000622 10.30000000000000071 -5.551115123125786646e-15 0 -10 I I #
point $-1 -1 $-1 17.80000000000000782 0 24.59999999999998721 #
straight-curve $-1 -1 $-1 10.5 3.200000000000000622 20.60000000000000853 10 0 0 I I #
edge $-1 -1 $-1 $612 0 $666 0.3200000000000000067 $672 $735 forward @7 unknown #
point $-1 -1 $-1 21.00000000000000711 3.200000000000000622 20.60000000000000853 #
loop $-1 -1 $-1 $736 $737 $378 #
coedge $-1 -1 $-1 $684 $684 $723 $738 forward $614 $-1 #
coedge $-1 -1 $-1 $685 $685 $615 $686 reversed $721 $-1 #
edge $-1 -1 $-1 $739 -3.141592653589793116 $739 3.141592653589793116 $615 $740 forward @7 unknown #
vertex $-1 -1 $-1 $617 $741 #
ellipse-curve $-1 -1 $-1 7.999999999999991118 3.200000000000000622 -20.69999999999999929 -0 -1 -0 3.350000000000000089 0 0 1 I I #
point $-1 -1 $-1 -14.65000000000000746 3.200000000000000622 -20.69999999999999929 #
DXID-attrib $-1 -1 $-1 $-1 $621 @10 ASM ENTITY @36 6961e24b-3ad7-4379-ab9f-3cb765d78e14 #
face $742 -1 $-1 $743 $744 $5 $-1 $745 reversed single #
loop $-1 -1 $-1 $-1 $746 $621 #
plane-surface $-1 -1 $-1 -4.609999999999993214 3.200000000000000622 1.749999999999997113 3.344045254895049494e-17 0 -1 10 0 3.344045254895049494e-16 forward_v I I I I #
coedge $-1 -1 $-1 $747 $748 $749 $750 reversed $622 $-1 #
coedge $-1 -1 $-1 $751 $624 $748 $752 forward $547 $-1 #
coedge $-1 -1 $-1 $624 $751 $753 $754 reversed $547 $-1 #
coedge $-1 -1 $-1 $755 $749 $624 $698 forward $756 $-1 #
edge $-1 -1 $-1 $757 -0.1845000000000005524 $758 0.6454999999999994076 $697 $759 forward @7 unknown #
edge $-1 -1 $-1 $702 -0.3200000000000000622 $661 0 $658 $760 forward @7 tangent #
edge $-1 -1 $-1 $707 0 $701 0.3200000000000000622 $629 $761 forward @7 tangent #
vertex $-1 -1 $-1 $630 $762 #
vertex $-1 -1 $-1 $628 $763 #
ellipse-curve $-1 -1 $-1 -16 3.200000000000000622 24.60000000000000853 -0 -1 -0 -2.828427124746186738 0 2.8284271247461934 1 I I #
DXID-attrib $-1 -1 $-1 $-1 $630 @10 ASM ENTITY @36 b7be4142-0391-4689-9b09-b90a7acc0132 #
straight-curve $-1 -1 $-1 -19.99999999999999645 3.200000000000000622 28.60000000000000853 -10 0 4.440892098500626162e-15 F -8.432500000000000995 F 0 #
DXID-attrib $-1 -1 $-1 $-1 $632 @10 ASM ENTITY @36 1572298e-9f12-4fd1-854d-853882f3e63d #
vertex $-1 -1 $-1 $632 $764 #
straight-curve $-1 -1 $-1 -19.99999999999999645 0 28.60000000000000853 10 0 -4.440892098500626162e-15 F 0 F 8.432500000000000995 #
point $-1 -1 $-1 13.80000000000000782 0 28.59999999999999432 #
ellipse-curve $-1 -1 $-1 13.80000000000000604 0 24.59999999999999076 0 1 0 2.828427124746189847 0 2.828427124746189847 1 I I #
loop $-1 -1 $-1 $765 $766 $194 #
coedge $-1 -1 $-1 $767 $768 $769 $770 forward $639 $-1 #
coedge $-1 -1 $-1 $771 $640 $772 $773 forward $562 $-1 #
coedge $-1 -1 $-1 $640 $771 $774 $775 forward $562 $-1 #
coedge $-1 -1 $-1 $776 $777 $640 $716 reversed $778 $-1 #
edge $-1 -1 $-1 $779 0.2295000000000009255 $780 1.059500000000000997 $640 $781 forward @7 unknown #
vertex $-1 -1 $-1 $642 $782 #
ellipse-curve $-1 -1 $-1 -11.30000000000000782 0 -20.69999999999999929 0 1 0 3.350000000000000089 0 0 1 I I #
point $-1 -1 $-1 4.649999999999991473 0 -20.69999999999999929 #
DXID-attrib $-1 -1 $-1 $-1 $646 @10 ASM ENTITY @36 22de5b3e-94bd-469e-816a-17292f343626 #
loop $-1 -1 $-1 $566 $685 $646 #
cone-surface $-1 -1 $-1 8.000000000000005329 0 20.69999999999999929 0 1 0 3.350000000000001421 0 0 1 I I 0 1 3.350000000000001421 forward I I I I #
coedge $-1 -1 $-1 $723 $723 $684 $738 reversed $649 $-1 #
DXID-attrib $-1 -1 $-1 $-1 $652 @10 ASM ENTITY @36 70d90221-1251-4313-ba13-d534a846f9a0 #
straight-curve $-1 -1 $-1 -20.00000000000000711 3.200000000000000622 -28.59999999999999787 -2.329139212500328522e-15 0 -10 F -5.720000000000000639 F -0 #
point $-1 -1 $-1 -20.00000000000000711 3.200000000000000622 -24.60000000000000142 #
ellipse-curve $-1 -1 $-1 -16 0 24.60000000000000853 0 1 0 -2.828427124746186738 0 2.8284271247461934 1 I I #
point $-1 -1 $-1 -19.99999999999999645 0 24.60000000000000497 #
straight-curve $-1 -1 $-1 -20.00000000000000711 0 -24.60000000000000142 0 10 0 F -1.240001000000000131 F 1.560000999999999971 #
straight-curve $-1 -1 $-1 10.5 0 20.60000000000000853 -10 0 0 I I #
point $-1 -1 $-1 21.00000000000000711 5.551115123125782702e-16 20.60000000000000853 #
straight-curve $-1 -1 $-1 17.80000000000000426 3.200000000000000622 20.60000000000000853 0 -10 0 I I #
point $-1 -1 $-1 17.80000000000000426 5.551115123125782702e-16 20.60000000000000853 #
point $-1 -1 $-1 17.80000000000000426 3.200000000000000622 20.60000000000000853 #
straight-curve $-1 -1 $-1 21.00000000000000711 3.200000000000000622 20.60000000000000853 0 -10 0 I I #
loop $-1 -1 $-1 $783 $784 $378 #
coedge $-1 -1 $-1 $785 $786 $787 $788 forward $683 $-1 #
edge $-1 -1 $-1 $789 -3.141592653589793116 $789 3.141592653589793116 $684 $790 forward @7 unknown #
vertex $-1 -1 $-1 $686 $791 #
ellipse-curve $-1 -1 $-1 8.000000000000005329 3.200000000000000622 20.69999999999999929 -0 -1 -0 3.350000000000001421 0 0 1 I I #
point $-1 -1 $-1 4.649999999999991473 3.200000000000000622 -20.69999999999999929 #
DXID-attrib $-1 -1 $-1 $-1 $691 @10 ASM ENTITY @36 826a4dee-7259-4d75-bffe-5d39795131ac #
face $792 -1 $-1 $793 $794 $5 $-1 $795 reversed single #
loop $-1 -1 $-1 $-1 $796 $691 #
plane-surface $-1 -1 $-1 -4.609999999999991438 3.200000000000000622 5.749999999999996447 -1 0 4.163336342344338013e-16 -4.163336342344337815e-15 0 -10 forward_v I I I I #
coedge $-1 -1 $-1 $797 $798 $799 $800 reversed $692 $-1 #
coedge $-1 -1 $-1 $801 $694 $798 $802 forward $622 $-1 #
coedge $-1 -1 $-1 $694 $801 $695 $752 reversed $622 $-1 #
coedge $-1 -1 $-1 $697 $799 $694 $750 forward $756 $-1 #
edge $-1 -1 $-1 $803 0.08749999999999985567 $757 0.4874999999999997113 $749 $804 forward @7 unknown #
coedge $-1 -1 $-1 $696 $695 $805 $806 reversed $547 $-1 #
edge $807 -1 $-1 $757 0 $808 0.3200000000000000622 $748 $809 forward @7 unknown #
coedge $-1 -1 $-1 $810 $796 $696 $754 forward $744 $-1 #
edge $811 -1 $-1 $758 0 $812 0.3200000000000000622 $753 $813 forward @7 unknown #
coedge $-1 -1 $-1 $799 $697 $796 $814 forward $756 $-1 #
loop $-1 -1 $-1 $-1 $697 $378 #
vertex $-1 -1 $-1 $698 $815 #
vertex $-1 -1 $-1 $698 $816 #
straight-curve $-1 -1 $-1 1.84500000000000286 3.200000000000000622 5.749999999999996447 -10 0 0 I I #
straight-curve $-1 -1 $-1 -20 0 24.60000000000000853 -0 -10 -0 F -1.560000999999999971 F 1.240001000000000131 #
straight-curve $-1 -1 $-1 -15.99999999999999822 0 28.60000000000000853 0 10 0 F -1.240001000000000131 F 1.560000999999999971 #
point $-1 -1 $-1 -15.99999999999999822 3.200000000000000622 28.60000000000000853 #
point $-1 -1 $-1 -19.99999999999999645 3.200000000000000622 24.60000000000000497 #
point $-1 -1 $-1 -15.99999999999999822 0 28.60000000000000853 #
loop $-1 -1 $-1 $327 $805 $194 #
coedge $-1 -1 $-1 $817 $818 $819 $820 forward $711 $-1 #
coedge $-1 -1 $-1 $821 $712 $822 $823 forward $639 $-1 #
coedge $-1 -1 $-1 $712 $821 $824 $825 forward $639 $-1 #
coedge $-1 -1 $-1 $826 $827 $712 $770 reversed $828 $-1 #
edge $-1 -1 $-1 $829 -0.1124999999999997669 $830 0.2875000000000002554 $712 $831 forward @7 unknown #
coedge $-1 -1 $-1 $714 $713 $832 $833 forward $562 $-1 #
coedge $-1 -1 $-1 $834 $835 $713 $773 reversed $836 $-1 #
edge $-1 -1 $-1 $780 -0.4874999999999998224 $837 -0.08749999999999980016 $713 $838 forward @7 unknown #
coedge $-1 -1 $-1 $839 $840 $714 $775 reversed $841 $-1 #
edge $-1 -1 $-1 $842 -0.112500000000000322 $779 0.2874999999999999223 $714 $843 forward @7 unknown #
coedge $-1 -1 $-1 $787 $715 $840 $844 reversed $778 $-1 #
coedge $-1 -1 $-1 $715 $787 $834 $845 forward $778 $-1 #
loop $-1 -1 $-1 $-1 $787 $846 #
vertex $-1 -1 $-1 $716 $847 #
vertex $-1 -1 $-1 $716 $848 #
straight-curve $-1 -1 $-1 10.59500000000000597 0 5.75 10 0 -2.675236203916039595e-15 I I #
point $-1 -1 $-1 -14.65000000000000746 0 -20.69999999999999929 #
loop $-1 -1 $-1 $756 $849 $378 #
coedge $-1 -1 $-1 $850 $851 $852 $853 forward $736 $-1 #
coedge $-1 -1 $-1 $854 $737 $855 $856 forward $683 $-1 #
coedge $-1 -1 $-1 $737 $854 $857 $858 forward $683 $-1 #
coedge $-1 -1 $-1 $777 $776 $737 $788 reversed $778 $-1 #
edge $-1 -1 $-1 $859 -1.059500000000000997 $860 -0.2295000000000009255 $737 $861 forward @7 unknown #
vertex $-1 -1 $-1 $738 $862 #
ellipse-curve $-1 -1 $-1 -11.29999999999999893 3.200000000000000622 20.70000000000000284 -0 -1 -0 3.349999999999999645 0 0 1 I I #
point $-1 -1 $-1 4.650000000000004796 3.200000000000000622 20.69999999999999929 #
DXID-attrib $-1 -1 $-1 $-1 $743 @10 ASM ENTITY @36 570916a5-d4a1-47e9-a5b2-b3d2b0becff6 #
face $863 -1 $-1 $864 $865 $5 $-1 $866 reversed single #
loop $-1 -1 $-1 $-1 $867 $743 #
plane-surface $-1 -1 $-1 3.689999999999995062 3.200000000000000622 -5.750000000000001776 1 0 4.163336342344336041e-16 -4.163336342344336238e-15 0 10 forward_v I I I I #
coedge $-1 -1 $-1 $753 $868 $755 $814 reversed $744 $-1 #
coedge $-1 -1 $-1 $869 $746 $868 $870 forward $692 $-1 #
coedge $-1 -1 $-1 $746 $869 $747 $802 reversed $692 $-1 #
coedge $-1 -1 $-1 $749 $755 $746 $800 forward $756 $-1 #
edge $-1 -1 $-1 $871 -0.2304999999999995108 $803 0.599500000000000699 $799 $872 forward @7 unknown #
coedge $-1 -1 $-1 $748 $747 $873 $874 reversed $622 $-1 #
edge $875 -1 $-1 $803 0 $876 0.3200000000000000622 $798 $877 forward @7 unknown #
vertex $-1 -1 $-1 $800 $878 #
straight-curve $-1 -1 $-1 3.690000000000008828 3.200000000000000622 0.8749999999999988898 -1.387778780781445873e-15 0 10 I I #
coedge $-1 -1 $-1 $873 $879 $751 $806 forward $765 $-1 #
edge $-1 -1 $-1 $812 -0.6454999999999994076 $808 0.1845000000000004969 $805 $880 forward @7 unknown #
DXID-attrib $-1 -1 $-1 $-1 $752 @10 ASM ENTITY @36 9d2b74fe-67fe-4ec9-b82c-8ae06b1e036a #
vertex $-1 -1 $-1 $806 $881 #
straight-curve $-1 -1 $-1 3.690000000000008384 3.200000000000000622 5.749999999999996447 0 -10 0 I I #
coedge $-1 -1 $-1 $868 $753 $879 $882 reversed $744 $-1 #
DXID-attrib $-1 -1 $-1 $-1 $754 @10 ASM ENTITY @36 578f7c9c-d508-42d1-b45b-32d4ec03561c #
vertex $-1 -1 $-1 $806 $883 #
straight-curve $-1 -1 $-1 -4.609999999999991438 3.200000000000000622 5.749999999999996447 0 -10 0 I I #
edge $-1 -1 $-1 $758 -0.2874999999999997002 $871 0.1125000000000002109 $755 $884 forward @7 unknown #
point $-1 -1 $-1 3.690000000000008384 3.200000000000000622 5.749999999999996447 #
point $-1 -1 $-1 -4.609999999999991438 3.200000000000000622 5.749999999999996447 #
coedge $-1 -1 $-1 $885 $766 $886 $887 forward $711 $-1 #
coedge $-1 -1 $-1 $766 $885 $888 $889 forward $711 $-1 #
coedge $-1 -1 $-1 $890 $891 $766 $820 reversed $794 $-1 #
edge $-1 -1 $-1 $892 -0.1124999999999999334 $893 0.2875000000000001443 $766 $894 forward @7 unknown #
coedge $-1 -1 $-1 $768 $767 $895 $896 forward $639 $-1 #
coedge $-1 -1 $-1 $897 $898 $767 $823 reversed $899 $-1 #
edge $-1 -1 $-1 $830 -1.474500000000000366 $900 -0.6445000000000002949 $767 $901 forward @7 unknown #
coedge $-1 -1 $-1 $902 $903 $768 $825 reversed $904 $-1 #
edge $-1 -1 $-1 $905 0.2295000000000002593 $829 1.05950000000000033 $768 $906 forward @7 unknown #
coedge $-1 -1 $-1 $852 $769 $903 $907 reversed $828 $-1 #
coedge $-1 -1 $-1 $769 $852 $897 $908 forward $828 $-1 #
loop $-1 -1 $-1 $-1 $852 $909 #
vertex $-1 -1 $-1 $770 $910 #
vertex $-1 -1 $-1 $770 $911 #
straight-curve $-1 -1 $-1 21.19000000000000128 0 -2.875000000000002665 0 0 -10 I I #
coedge $-1 -1 $-1 $912 $913 $771 $833 reversed $914 $-1 #
edge $-1 -1 $-1 $837 -1.47450000000000081 $842 -0.64450000000000085 $771 $915 forward @7 unknown #
coedge $-1 -1 $-1 $857 $772 $777 $845 reversed $836 $-1 #
coedge $-1 -1 $-1 $772 $857 $912 $916 forward $836 $-1 #
loop $-1 -1 $-1 $-1 $857 $917 #
vertex $-1 -1 $-1 $773 $918 #
straight-curve $-1 -1 $-1 21.19000000000001549 0 0.8749999999999980016 0 0 -10 I I #
coedge $-1 -1 $-1 $855 $774 $913 $919 reversed $841 $-1 #
coedge $-1 -1 $-1 $774 $855 $776 $844 forward $841 $-1 #
loop $-1 -1 $-1 $-1 $855 $920 #
vertex $-1 -1 $-1 $833 $921 #
straight-curve $-1 -1 $-1 12.89000000000001478 0 2.874999999999999112 0 0 10 I I #
edge $922 -1 $-1 $860 0 $779 0.3200000000000000622 $840 $923 forward @7 unknown #
edge $924 -1 $-1 $859 0 $780 0.3200000000000000622 $834 $925 forward @7 unknown #
face $926 -1 $-1 $917 $778 $5 $-1 $927 reversed single #
point $-1 -1 $-1 12.89000000000001478 0 5.749999999999998224 #
point $-1 -1 $-1 21.19000000000001549 0 5.749999999999996447 #
coedge $-1 -1 $-1 $928 $929 $867 $930 forward $783 $-1 #
coedge $-1 -1 $-1 $931 $784 $932 $933 forward $736 $-1 #
coedge $-1 -1 $-1 $784 $931 $934 $935 forward $736 $-1 #
coedge $-1 -1 $-1 $827 $826 $784 $853 reversed $828 $-1 #
edge $-1 -1 $-1 $936 -0.2875000000000002554 $937 0.1124999999999997669 $784 $938 forward @7 unknown #
coedge $-1 -1 $-1 $786 $785 $939 $940 forward $683 $-1 #
coedge $-1 -1 $-1 $840 $839 $785 $856 reversed $841 $-1 #
edge $-1 -1 $-1 $860 -0.2874999999999999223 $941 0.112500000000000322 $785 $942 forward @7 unknown #
coedge $-1 -1 $-1 $835 $834 $786 $858 reversed $836 $-1 #
edge $-1 -1 $-1 $943 0.08749999999999980016 $859 0.4874999999999998224 $786 $944 forward @7 unknown #
vertex $-1 -1 $-1 $788 $945 #
vertex $-1 -1 $-1 $788 $946 #
straight-curve $-1 -1 $-1 10.59500000000000597 3.200000000000000622 5.75 -10 0 2.675236203916039595e-15 I I #
point $-1 -1 $-1 -14.64999999999999858 3.200000000000000622 20.70000000000000284 #
DXID-attrib $-1 -1 $-1 $-1 $793 @10 ASM ENTITY @36 3e3d9331-6e2f-49d7-8f8f-d29b61d77afd #
face $947 -1 $-1 $948 $949 $5 $-1 $950 reversed single #
loop $-1 -1 $-1 $-1 $951 $793 #
plane-surface $-1 -1 $-1 -4.610000000000004761 3.200000000000000622 -5.750000000000001776 -0 -0 -1 10 0 0 forward_v I I I I #
coedge $-1 -1 $-1 $891 $890 $849 $930 reversed $794 $-1 #
coedge $-1 -1 $-1 $796 $810 $797 $870 reversed $744 $-1 #
coedge $-1 -1 $-1 $798 $797 $952 $953 reversed $692 $-1 #
edge $954 -1 $-1 $871 0 $955 0.3200000000000000622 $868 $956 forward @7 unknown #
vertex $-1 -1 $-1 $814 $957 #
straight-curve $-1 -1 $-1 -2.304999999999997939 3.200000000000000622 1.749999999999997113 10 0 3.344045254895049494e-16 I I #
coedge $-1 -1 $-1 $952 $805 $801 $874 forward $765 $-1 #
edge $-1 -1 $-1 $808 -0.4874999999999997113 $876 -0.08749999999999985567 $873 $958 forward @7 unknown #
DXID-attrib $-1 -1 $-1 $-1 $802 @10 ASM ENTITY @36 42c68e8a-ff78-4607-9ed8-306a10409fc8 #
vertex $-1 -1 $-1 $874 $959 #
straight-curve $-1 -1 $-1 3.690000000000008828 3.200000000000000622 1.749999999999997335 0 -10 0 I I #
point $-1 -1 $-1 3.690000000000008828 3.200000000000000622 1.749999999999997335 #
coedge $-1 -1 $-1 $805 $952 $810 $882 forward $765 $-1 #
straight-curve $-1 -1 $-1 1.84500000000000286 0 5.749999999999996447 10 0 0 I I #
point $-1 -1 $-1 3.690000000000007496 0 5.749999999999996447 #
edge $-1 -1 $-1 $955 -0.1125000000000002109 $812 0.2874999999999997002 $879 $960 forward @7 unknown #
point $-1 -1 $-1 -4.609999999999991438 0 5.749999999999996447 #
straight-curve $-1 -1 $-1 -4.609999999999992326 3.200000000000000622 2.874999999999999112 -4.163336342344337815e-15 0 -10 I I #
coedge $-1 -1 $-1 $818 $817 $961 $962 forward $711 $-1 #
coedge $-1 -1 $-1 $963 $964 $817 $887 reversed $865 $-1 #
edge $-1 -1 $-1 $893 -0.5994999999999999218 $965 0.2305000000000000937 $817 $966 forward @7 unknown #
coedge $-1 -1 $-1 $967 $968 $818 $889 reversed $969 $-1 #
edge $-1 -1 $-1 $970 -0.6454999999999999627 $892 0.1844999999999998308 $818 $971 forward @7 unknown #
coedge $-1 -1 $-1 $867 $819 $968 $972 reversed $794 $-1 #
coedge $-1 -1 $-1 $819 $867 $963 $973 forward $794 $-1 #
vertex $-1 -1 $-1 $820 $974 #
vertex $-1 -1 $-1 $820 $975 #
straight-curve $-1 -1 $-1 3.689999999999993729 0 -2.875000000000000444 4.163336342344336238e-15 0 -10 I I #
coedge $-1 -1 $-1 $976 $977 $821 $896 reversed $978 $-1 #
edge $-1 -1 $-1 $900 -0.4875000000000000444 $905 -0.08750000000000024425 $821 $979 forward @7 unknown #
coedge $-1 -1 $-1 $934 $822 $827 $908 reversed $899 $-1 #
coedge $-1 -1 $-1 $822 $934 $976 $980 forward $899 $-1 #
loop $-1 -1 $-1 $-1 $934 $981 #
vertex $-1 -1 $-1 $823 $982 #
straight-curve $-1 -1 $-1 6.444999999999998508 0 -5.750000000000001776 -10 0 2.675236203916039595e-15 I I #
coedge $-1 -1 $-1 $932 $824 $977 $983 reversed $904 $-1 #
coedge $-1 -1 $-1 $824 $932 $826 $907 forward $904 $-1 #
loop $-1 -1 $-1 $-1 $932 $984 #
vertex $-1 -1 $-1 $896 $985 #
straight-curve $-1 -1 $-1 10.59499999999999886 0 -1.750000000000004885 10 0 0 I I #
edge $986 -1 $-1 $937 0 $829 0.3200000000000000622 $903 $987 forward @7 unknown #
edge $988 -1 $-1 $936 0 $830 0.3200000000000000622 $897 $989 forward @7 unknown #
face $990 -1 $-1 $981 $828 $5 $-1 $991 reversed single #
point $-1 -1 $-1 21.19000000000000128 0 -1.750000000000004885 #
point $-1 -1 $-1 21.19000000000000128 0 -5.750000000000005329 #
coedge $-1 -1 $-1 $939 $832 $835 $916 reversed $914 $-1 #
coedge $-1 -1 $-1 $832 $939 $839 $919 forward $914 $-1 #
loop $-1 -1 $-1 $-1 $939 $992 #
straight-curve $-1 -1 $-1 6.445000000000006501 0 1.749999999999996003 -10 0 0 I I #
edge $993 -1 $-1 $943 0 $837 0.3200000000000000622 $912 $994 forward @7 unknown #
face $995 -1 $-1 $992 $836 $5 $-1 $996 reversed single #
point $-1 -1 $-1 21.19000000000001549 0 1.749999999999996003 #
edge $997 -1 $-1 $941 0 $842 0.3200000000000000622 $839 $998 forward @7 unknown #
face $999 -1 $-1 $228 $841 $5 $-1 $1000 reversed single #
point $-1 -1 $-1 12.89000000000001478 0 1.749999999999996003 #
DXID-attrib $-1 -1 $-1 $-1 $844 @10 ASM ENTITY @36 b4d31511-0bbb-445f-b85c-779138784314 #
straight-curve $-1 -1 $-1 12.89000000000001478 3.200000000000000622 5.749999999999998224 0 -10 0 I I #
DXID-attrib $-1 -1 $-1 $-1 $845 @10 ASM ENTITY @36 826db096-845f-4a31-b36f-f2e9439b0993 #
straight-curve $-1 -1 $-1 21.19000000000001549 3.200000000000000622 5.749999999999996447 0 -10 0 I I #
DXID-attrib $-1 -1 $-1 $-1 $846 @10 ASM ENTITY @36 6d0404f2-80c2-43bb-8cf7-0f7791008c3c #
plane-surface $-1 -1 $-1 21.19000000000001549 3.200000000000000622 5.749999999999996447 2.675236203916039595e-16 0 1 -10 0 2.675236203916039595e-15 forward_v I I I I #
coedge $-1 -1 $-1 $1001 $849 $1002 $1003 forward $783 $-1 #
coedge $-1 -1 $-1 $849 $1001 $951 $1004 forward $783 $-1 #
edge $-1 -1 $-1 $1005 -0.2875000000000001443 $1006 0.1124999999999999334 $849 $1007 forward @7 unknown #
coedge $-1 -1 $-1 $851 $850 $1008 $1009 forward $736 $-1 #
coedge $-1 -1 $-1 $903 $902 $850 $933 reversed $904 $-1 #
edge $-1 -1 $-1 $937 -1.05950000000000033 $1010 -0.2295000000000002593 $850 $1011 forward @7 unknown #
coedge $-1 -1 $-1 $898 $897 $851 $935 reversed $899 $-1 #
edge $-1 -1 $-1 $1012 0.6445000000000002949 $936 1.474500000000000366 $851 $1013 forward @7 unknown #
vertex $-1 -1 $-1 $853 $1014 #
vertex $-1 -1 $-1 $853 $1015 #
straight-curve $-1 -1 $-1 21.19000000000000128 3.200000000000000622 -2.875000000000002665 0 0 10 I I #
coedge $-1 -1 $-1 $913 $912 $854 $940 reversed $914 $-1 #
edge $-1 -1 $-1 $941 0.64450000000000085 $943 1.47450000000000081 $854 $1016 forward @7 unknown #
vertex $-1 -1 $-1 $856 $1017 #
straight-curve $-1 -1 $-1 12.89000000000001478 3.200000000000000622 2.874999999999999112 0 0 -10 I I #
vertex $-1 -1 $-1 $940 $1018 #
straight-curve $-1 -1 $-1 21.19000000000001549 3.200000000000000622 0.8749999999999980016 0 0 10 I I #
point $-1 -1 $-1 21.19000000000001549 3.200000000000000622 5.749999999999996447 #
point $-1 -1 $-1 12.89000000000001478 3.200000000000000622 5.749999999999998224 #
DXID-attrib $-1 -1 $-1 $-1 $864 @10 ASM ENTITY @36 23b10409-e34f-4d28-b2ff-0dd61de37c37 #
face $1019 -1 $-1 $909 $969 $5 $-1 $1020 reversed single #
loop $-1 -1 $-1 $-1 $1021 $864 #
plane-surface $-1 -1 $-1 -4.610000000000004761 3.200000000000000622 -1.750000000000000888 -1 0 0 -0 -0 -10 forward_v I I I I #
coedge $-1 -1 $-1 $964 $963 $929 $1004 reversed $865 $-1 #
coedge $-1 -1 $-1 $879 $873 $869 $953 forward $765 $-1 #
edge $-1 -1 $-1 $876 -0.599500000000000699 $955 0.2304999999999995108 $952 $1022 forward @7 unknown #
DXID-attrib $-1 -1 $-1 $-1 $870 @10 ASM ENTITY @36 5d96ba1e-2d9a-4587-833a-7f1c5f00773c #
vertex $-1 -1 $-1 $953 $1023 #
straight-curve $-1 -1 $-1 -4.609999999999993214 3.200000000000000622 1.749999999999997113 0 -10 0 I I #
point $-1 -1 $-1 -4.609999999999993214 3.200000000000000622 1.749999999999997113 #
straight-curve $-1 -1 $-1 3.690000000000008828 0 0.8749999999999988898 1.387778780781445873e-15 0 -10 I I #
point $-1 -1 $-1 3.690000000000008828 0 1.749999999999997335 #
straight-curve $-1 -1 $-1 -4.609999999999992326 0 2.874999999999999112 4.163336342344337815e-15 0 10 I I #
coedge $-1 -1 $-1 $1024 $1025 $885 $962 reversed $949 $-1 #
edge $-1 -1 $-1 $965 -0.4875000000000001554 $970 -0.08750000000000004996 $885 $1026 forward @7 unknown #
coedge $-1 -1 $-1 $951 $886 $891 $973 reversed $865 $-1 #
coedge $-1 -1 $-1 $886 $951 $1024 $1027 forward $865 $-1 #
vertex $-1 -1 $-1 $887 $1028 #
straight-curve $-1 -1 $-1 -2.305000000000003713 0 -5.750000000000001776 -10 0 0 I I #
coedge $-1 -1 $-1 $1002 $888 $1025 $1029 reversed $969 $-1 #
coedge $-1 -1 $-1 $888 $1002 $890 $972 forward $969 $-1 #
loop $-1 -1 $-1 $-1 $1002 $948 #
vertex $-1 -1 $-1 $962 $1030 #
straight-curve $-1 -1 $-1 1.844999999999995532 0 -1.750000000000000888 10 0 0 I I #
edge $1031 -1 $-1 $1006 0 $892 0.3200000000000000622 $968 $1032 forward @7 unknown #
edge $1033 -1 $-1 $1005 0 $893 0.3200000000000000622 $963 $1034 forward @7 unknown #
point $-1 -1 $-1 3.689999999999993729 0 -1.750000000000000888 #
point $-1 -1 $-1 3.689999999999995062 0 -5.750000000000001776 #
coedge $-1 -1 $-1 $1008 $895 $898 $980 reversed $978 $-1 #
coedge $-1 -1 $-1 $895 $1008 $902 $983 forward $978 $-1 #
loop $-1 -1 $-1 $-1 $1008 $1035 #
straight-curve $-1 -1 $-1 12.89000000000000057 0 -0.8750000000000024425 0 0 10 I I #
edge $1036 -1 $-1 $1012 0 $900 0.3200000000000000622 $976 $1037 forward @7 unknown #
face $1038 -1 $-1 $1035 $899 $5 $-1 $1039 reversed single #
point $-1 -1 $-1 12.89000000000000057 0 -5.750000000000002665 #
edge $1040 -1 $-1 $1010 0 $905 0.3200000000000000622 $902 $1041 forward @7 unknown #
face $1042 -1 $-1 $846 $904 $5 $-1 $1043 reversed single #
point $-1 -1 $-1 12.89000000000000057 0 -1.750000000000004885 #
DXID-attrib $-1 -1 $-1 $-1 $907 @10 ASM ENTITY @36 e408af17-9ccd-4c6b-9d8a-cb67120cf08e #
straight-curve $-1 -1 $-1 21.19000000000000128 3.200000000000000622 -1.750000000000004885 0 -10 0 I I #
DXID-attrib $-1 -1 $-1 $-1 $908 @10 ASM ENTITY @36 25b6288a-2bba-47e1-a306-25605e2cbed4 #
straight-curve $-1 -1 $-1 21.19000000000000128 3.200000000000000622 -5.750000000000005329 0 -10 0 I I #
DXID-attrib $-1 -1 $-1 $-1 $909 @10 ASM ENTITY @36 c89a6ffa-5cdc-49f9-9f5a-7b39f00d306d #
plane-surface $-1 -1 $-1 21.19000000000000128 3.200000000000000622 -5.750000000000005329 1 0 0 0 0 10 forward_v I I I I #
face $1044 -1 $-1 $920 $914 $5 $-1 $1045 reversed single #
DXID-attrib $-1 -1 $-1 $-1 $916 @10 ASM ENTITY @36 a9ac9d3c-8906-486d-b949-b23dfc7e50cf #
straight-curve $-1 -1 $-1 21.19000000000001549 3.200000000000000622 1.749999999999996003 0 -10 0 I I #
DXID-attrib $-1 -1 $-1 $-1 $917 @10 ASM ENTITY @36 ddce3db0-802b-4212-959a-a92dfa4a50d8 #
plane-surface $-1 -1 $-1 21.19000000000001549 3.200000000000000622 1.749999999999996003 1 0 0 0 0 10 forward_v I I I I #
DXID-attrib $-1 -1 $-1 $-1 $919 @10 ASM ENTITY @36 52bebe3f-58e3-4d6c-b2c5-f09b4d14cb54 #
straight-curve $-1 -1 $-1 12.89000000000001478 3.200000000000000622 1.749999999999996003 0 -10 0 I I #
DXID-attrib $-1 -1 $-1 $-1 $920 @10 ASM ENTITY @36 5544d4bf-c38c-40e0-8ff4-c707c7c74390 #
plane-surface $-1 -1 $-1 12.89000000000001478 3.200000000000000622 5.749999999999998224 -1 -0 -0 0 0 -10 forward_v I I I I #
coedge $-1 -1 $-1 $929 $928 $1021 $1046 forward $783 $-1 #
coedge $-1 -1 $-1 $968 $967 $928 $1003 reversed $969 $-1 #
edge $-1 -1 $-1 $1006 -0.1844999999999997753 $1047 0.6454999999999999627 $928 $1048 forward @7 unknown #
edge $-1 -1 $-1 $1049 -0.2305000000000000937 $1005 0.5994999999999999218 $929 $1050 forward @7 unknown #
vertex $-1 -1 $-1 $930 $1051 #
vertex $-1 -1 $-1 $930 $1052 #
straight-curve $-1 -1 $-1 3.689999999999993729 3.200000000000000622 -2.875000000000000444 -4.163336342344336238e-15 0 10 I I #
coedge $-1 -1 $-1 $977 $976 $931 $1009 reversed $978 $-1 #
edge $-1 -1 $-1 $1010 0.08750000000000024425 $1012 0.4875000000000000444 $931 $1053 forward @7 unknown #
vertex $-1 -1 $-1 $933 $1054 #
straight-curve $-1 -1 $-1 10.59499999999999886 3.200000000000000622 -1.750000000000004885 -10 0 0 I I #
vertex $-1 -1 $-1 $1009 $1055 #
straight-curve $-1 -1 $-1 6.444999999999998508 3.200000000000000622 -5.750000000000001776 10 0 -2.675236203916039595e-15 I I #
point $-1 -1 $-1 21.19000000000000128 3.200000000000000622 -5.750000000000005329 #
point $-1 -1 $-1 21.19000000000000128 3.200000000000000622 -1.750000000000004885 #
straight-curve $-1 -1 $-1 6.445000000000006501 3.200000000000000622 1.749999999999996003 10 0 0 I I #
point $-1 -1 $-1 12.89000000000001478 3.200000000000000622 1.749999999999996003 #
point $-1 -1 $-1 21.19000000000001549 3.200000000000000622 1.749999999999996003 #
DXID-attrib $-1 -1 $-1 $-1 $948 @10 ASM ENTITY @36 ef86eb38-2d4e-4220-9b1a-38e16d0481a1 #
plane-surface $-1 -1 $-1 3.689999999999993729 3.200000000000000622 -1.750000000000000888 0 0 1 -10 -0 -0 forward_v I I I I #
coedge $-1 -1 $-1 $1025 $1024 $1001 $1046 reversed $949 $-1 #
straight-curve $-1 -1 $-1 -2.304999999999997939 0 1.749999999999997113 -10 0 -3.344045254895049494e-16 I I #
point $-1 -1 $-1 -4.609999999999993214 0 1.749999999999997113 #
coedge $-1 -1 $-1 $1021 $961 $964 $1027 reversed $949 $-1 #
coedge $-1 -1 $-1 $961 $1021 $967 $1029 forward $949 $-1 #
straight-curve $-1 -1 $-1 -4.610000000000004761 0 -0.8750000000000004441 0 0 10 I I #
edge $1056 -1 $-1 $1049 0 $965 0.3200000000000000622 $1024 $1057 forward @7 unknown #
point $-1 -1 $-1 -4.610000000000004761 0 -5.750000000000001776 #
edge $1058 -1 $-1 $1047 0 $970 0.3200000000000000622 $967 $1059 forward @7 unknown #
point $-1 -1 $-1 -4.610000000000004761 0 -1.750000000000000888 #
DXID-attrib $-1 -1 $-1 $-1 $972 @10 ASM ENTITY @36 49f4744e-f64d-4799-b511-3935d64b7435 #
straight-curve $-1 -1 $-1 3.689999999999993285 3.200000000000000622 -1.750000000000000888 0 -10 0 I I #
DXID-attrib $-1 -1 $-1 $-1 $973 @10 ASM ENTITY @36 93bf7745-bf01-44be-a10b-2b40c60eb684 #
straight-curve $-1 -1 $-1 3.689999999999995062 3.200000000000000622 -5.750000000000001776 0 -10 0 I I #
face $1060 -1 $-1 $984 $978 $5 $-1 $1061 reversed single #
DXID-attrib $-1 -1 $-1 $-1 $980 @10 ASM ENTITY @36 5a48c13a-5e52-4660-9e69-07addf11466c #
straight-curve $-1 -1 $-1 12.89000000000000057 3.200000000000000622 -5.750000000000002665 0 -10 0 I I #
DXID-attrib $-1 -1 $-1 $-1 $981 @10 ASM ENTITY @36 379c11ad-a7e1-4a2b-9e22-ed58316057ac #
plane-surface $-1 -1 $-1 12.89000000000000057 3.200000000000000622 -5.750000000000002665 -2.675236203916039595e-16 -0 -1 10 0 -2.675236203916039595e-15 forward_v I I I I #
DXID-attrib $-1 -1 $-1 $-1 $983 @10 ASM ENTITY @36 39404050-260f-49df-ad2c-680a4d923eef #
straight-curve $-1 -1 $-1 12.89000000000000057 3.200000000000000622 -1.750000000000004885 0 -10 0 I I #
DXID-attrib $-1 -1 $-1 $-1 $984 @10 ASM ENTITY @36 0a7379e1-7204-4b79-a222-979b01d32376 #
plane-surface $-1 -1 $-1 21.19000000000000128 3.200000000000000622 -1.750000000000004885 0 0 1 -10 -0 -0 forward_v I I I I #
DXID-attrib $-1 -1 $-1 $-1 $992 @10 ASM ENTITY @36 91f3b0a1-0832-4477-bdef-ac676addcab9 #
plane-surface $-1 -1 $-1 12.89000000000001478 3.200000000000000622 1.749999999999996003 0 0 -1 10 0 0 forward_v I I I I #
edge $-1 -1 $-1 $1047 0.08750000000000004996 $1049 0.4875000000000001554 $1001 $1062 forward @7 unknown #
vertex $-1 -1 $-1 $1003 $1063 #
straight-curve $-1 -1 $-1 1.844999999999995532 3.200000000000000622 -1.750000000000000888 -10 0 0 I I #
vertex $-1 -1 $-1 $1046 $1064 #
straight-curve $-1 -1 $-1 -2.305000000000003713 3.200000000000000622 -5.750000000000001776 10 0 0 I I #
point $-1 -1 $-1 3.689999999999995062 3.200000000000000622 -5.750000000000001776 #
point $-1 -1 $-1 3.689999999999993285 3.200000000000000622 -1.750000000000000888 #
straight-curve $-1 -1 $-1 12.89000000000000057 3.200000000000000622 -0.8750000000000024425 0 0 -10 I I #
point $-1 -1 $-1 12.89000000000000057 3.200000000000000622 -1.750000000000004885 #
point $-1 -1 $-1 12.89000000000000057 3.200000000000000622 -5.750000000000002665 #
DXID-attrib $-1 -1 $-1 $-1 $1027 @10 ASM ENTITY @36 794e1f00-67c0-426b-8442-898d80f2b0cc #
straight-curve $-1 -1 $-1 -4.610000000000004761 3.200000000000000622 -5.750000000000001776 0 -10 0 I I #
DXID-attrib $-1 -1 $-1 $-1 $1029 @10 ASM ENTITY @36 43c19369-c64c-4853-bf55-385cfccc2d49 #
straight-curve $-1 -1 $-1 -4.610000000000004761 3.200000000000000622 -1.750000000000000888 0 -10 0 I I #
DXID-attrib $-1 -1 $-1 $-1 $1035 @10 ASM ENTITY @36 22aaf365-d4d4-44bf-936c-ba024cae1e34 #
plane-surface $-1 -1 $-1 12.89000000000000057 3.200000000000000622 -1.750000000000004885 -1 0 0 -0 -0 -10 forward_v I I I I #
straight-curve $-1 -1 $-1 -4.610000000000004761 3.200000000000000622 -0.8750000000000004441 0 0 -10 I I #
point $-1 -1 $-1 -4.610000000000004761 3.200000000000000622 -1.750000000000000888 #
point $-1 -1 $-1 -4.610000000000004761 3.200000000000000622 -5.750000000000001776 #
End-of-ACIS-data 