700 0 1 0           
30 Autodesk Translation Framework 20 ASM 226.6.1.65535 NT 24 Wed Jul 29 14:38:00 2026 
1 9.999999999999999547e-07 1.000000000000000036e-10 
body $1 -1 $-1 $2 $-1 $3 #
rgb_color-st-attrib $-1 -1 $4 $-1 $0 0.7490196078431372584 0.7490196078431372584 0.7490196078431372584 #
lump $-1 -1 $-1 $-1 $5 $0 #
transform $-1 -1 1 0 0 0 1 0 0 0 1 0 0 0 1 no_rotate no_reflect no_shear #
DXID-attrib $-1 -1 $-1 $1 $0 @10 ASM ENTITY @110 SP14V1 PEDAL DERECHO.IPT|:|B05ACE12F89908F90E26FF4DB8BAAEEB3459F66F|:|DA4B9237BACCCDF19C0760CAB7AEC4A8359010B0 #
shell $-1 -1 $-1 $-1 $-1 $6 $-1 $2 #
face $7 -1 $-1 $8 $9 $5 $-1 $10 forward single #
DXID-attrib $-1 -1 $-1 $-1 $6 @10 ASM ENTITY @36 39b05c09-898e-4962-98d5-6c04ae975775 #
face $11 -1 $-1 $12 $13 $5 $-1 $14 reversed single #
loop $-1 -1 $-1 $-1 $15 $6 #
cone-surface $-1 -1 $-1 33.1160000000000494 -71.79999999999996874 -47.14070580672085242 -1 -6.123233995736766036e-17 -3.282501643029073618e-16 0 -13.28668967871267093 -6.961600202653857039 1 I I 0 1 15.00000000000000178 forward I I I I #
DXID-attrib $-1 -1 $-1 $-1 $8 @10 ASM ENTITY @36 5341b909-9e89-4926-9ba7-e308224c1066 #
face $16 -1 $-1 $17 $18 $5 $-1 $19 reversed single #
loop $-1 -1 $-1 $-1 $20 $8 #
plane-surface $-1 -1 $-1 34.71600000000005792 -21.79999999999996874 -100 -3.047387809265012776e-16 0.5692099788303086605 0.8221921916437784361 -1.458844474291036938e-15 -8.221921916437784361 5.692099788303086605 reverse_v I I I I #
coedge $-1 -1 $-1 $21 $22 $23 $24 forward $9 $-1 #
DXID-attrib $-1 -1 $-1 $-1 $12 @10 ASM ENTITY @36 24d7c7e6-1e47-4f16-b902-b5b97f695c30 #
face $25 -1 $-1 $26 $27 $5 $-1 $28 forward single #
loop $-1 -1 $-1 $29 $23 $12 #
plane-surface $-1 -1 $-1 31.51600000000002666 -42.39178404378118614 -4.451795007899561985e-15 1 3.805489422832487656e-17 3.104638637541392661e-16 3.104638637541392858e-15 3.108624468950438708e-15 -10 reverse_v I I I I #
coedge $-1 -1 $-1 $30 $31 $21 $32 reversed $13 $-1 #
coedge $-1 -1 $-1 $33 $15 $20 $32 forward $9 $-1 #
coedge $-1 -1 $-1 $15 $33 $34 $35 forward $9 $-1 #
coedge $-1 -1 $-1 $36 $37 $15 $24 reversed $18 $-1 #
edge $-1 -1 $-1 $38 -0.4826258315949633615 $39 0.482625831594963417 $23 $40 forward @7 unknown #
DXID-attrib $-1 -1 $-1 $-1 $17 @10 ASM ENTITY @36 e2deddb1-4a07-414e-b22c-0c0fc880e746 #
face $41 -1 $-1 $42 $43 $5 $-1 $44 reversed single #
loop $-1 -1 $-1 $-1 $45 $17 #
cone-surface $-1 -1 $-1 1.59999999999982867 -71.80000000000001137 -47.14070580672084532 -1 1.837589179357618433e-15 -1.642818908444052859e-15 -1.31605486849455882e-14 -13.28668967871267093 -6.961600202653857039 1 I I 0 1 15.00000000000000178 forward I I I I #
loop $-1 -1 $-1 $-1 $46 $12 #
coedge $-1 -1 $-1 $47 $20 $37 $48 forward $13 $-1 #
coedge $-1 -1 $-1 $20 $47 $49 $50 forward $13 $-1 #
edge $-1 -1 $-1 $39 -0.1600000000000001421 $51 0.1600000000000001421 $20 $52 forward @7 tangent #
coedge $-1 -1 $-1 $22 $21 $53 $54 forward $9 $-1 #
coedge $-1 -1 $-1 $55 $56 $22 $35 reversed $57 $-1 #
edge $-1 -1 $-1 $58 -0.159999999999999698 $38 0.1600000000000001421 $34 $59 forward @7 tangent #
coedge $-1 -1 $-1 $60 $23 $56 $61 reversed $18 $-1 #
coedge $-1 -1 $-1 $23 $62 $30 $48 reversed $18 $-1 #
vertex $-1 -1 $-1 $24 $63 #
vertex $-1 -1 $-1 $24 $64 #
ellipse-curve $-1 -1 $-1 31.51600000000004798 -71.79999999999996874 -47.14070580672085242 1 3.805489422832487656e-17 3.104638637541392661e-16 0 -13.28668967871267093 -6.961600202653857039 1 I I #
DXID-attrib $-1 -1 $-1 $-1 $26 @10 ASM ENTITY @36 f42c0da1-364d-48a2-8582-cf9c3958ddb6 #
face $65 -1 $-1 $66 $67 $5 $-1 $14 reversed single #
loop $-1 -1 $-1 $68 $69 $26 #
plane-surface $-1 -1 $-1 -31.51600000000009771 -42.39178404378118614 -7.923934227666026612e-15 -1 1.814411733628575095e-15 -1.772371007991204616e-16 1.77237100799120146e-15 -1.776356839400250465e-15 -10 reverse_v I I I I #
coedge $-1 -1 $-1 $70 $71 $72 $73 forward $27 $-1 #
coedge $-1 -1 $-1 $74 $75 $76 $77 reversed $29 $-1 #
coedge $-1 -1 $-1 $31 $30 $78 $79 reversed $13 $-1 #
edge $-1 -1 $-1 $39 -3.427194634300904319 $80 3.224005379985149133 $37 $81 forward @7 unknown #
coedge $-1 -1 $-1 $82 $53 $31 $50 reversed $83 $-1 #
edge $-1 -1 $-1 $84 -3.224005379985149133 $51 3.427194634300904319 $49 $85 forward @7 unknown #
vertex $-1 -1 $-1 $32 $86 #
straight-curve $-1 -1 $-1 33.1160000000000494 -80.33814968245459909 -59.47358868137753518 10 6.123233995736766282e-16 3.282501643029073717e-15 F -4.810000999999999749 F 4.810000999999998861 #
coedge $-1 -1 $-1 $49 $87 $33 $54 reversed $83 $-1 #
edge $-1 -1 $-1 $51 -0.482625831594963417 $58 0.4826258315949633615 $53 $88 forward @7 unknown #
coedge $-1 -1 $-1 $89 $34 $87 $90 reversed $57 $-1 #
coedge $-1 -1 $-1 $34 $89 $36 $61 forward $57 $-1 #
loop $-1 -1 $-1 $-1 $34 $91 #
vertex $-1 -1 $-1 $54 $92 #
straight-curve $-1 -1 $-1 33.1160000000000494 -86.79999999999998295 -47.14070580672084532 -10 -6.123233995736766282e-16 -3.282501643029073717e-15 F -4.810000999999998861 F 4.810000999999999749 #
coedge $-1 -1 $-1 $93 $36 $94 $95 reversed $18 $-1 #
edge $-1 -1 $-1 $96 5.249999999999997335 $38 14.71407058067208418 $36 $97 forward @7 unknown #
coedge $-1 -1 $-1 $37 $98 $99 $100 reversed $18 $-1 #
point $-1 -1 $-1 31.51600000000004798 -86.79999999999998295 -47.14070580672084532 #
point $-1 -1 $-1 31.51600000000005153 -80.33814968245459909 -59.47358868137753518 #
DXID-attrib $-1 -1 $-1 $-1 $42 @10 ASM ENTITY @36 26283169-c901-4564-9057-38a8f288134b #
face $101 -1 $-1 $102 $103 $5 $-1 $104 forward single #
loop $-1 -1 $-1 $-1 $105 $42 #
loop $-1 -1 $-1 $-1 $106 $26 #
coedge $-1 -1 $-1 $107 $108 $109 $110 reversed $43 $-1 #
coedge $-1 -1 $-1 $109 $45 $105 $111 forward $27 $-1 #
coedge $-1 -1 $-1 $45 $109 $112 $113 forward $27 $-1 #
coedge $-1 -1 $-1 $114 $115 $45 $73 reversed $116 $-1 #
edge $-1 -1 $-1 $117 -0.4826258315949627509 $118 0.482625831594963417 $72 $119 forward @7 unknown #
coedge $-1 -1 $-1 $120 $46 $121 $122 reversed $29 $-1 #
coedge $-1 -1 $-1 $46 $123 $124 $125 reversed $29 $-1 #
coedge $-1 -1 $-1 $126 $127 $46 $77 forward $128 $-1 #
edge $-1 -1 $-1 $129 -0.47741992001655148 $130 0.4463405106868482131 $46 $131 forward @7 unknown #
coedge $-1 -1 $-1 $99 $132 $47 $79 forward $103 $-1 #
edge $-1 -1 $-1 $84 -0.1600000000000001421 $80 0.1600000000000001421 $47 $133 forward @7 tangent #
vertex $-1 -1 $-1 $48 $134 #
straight-curve $-1 -1 $-1 31.51600000000005508 -52.16002300679802772 -78.98152253375516807 1.454306924267108303e-15 8.221921916437784361 -5.692099788303086605 I I #
coedge $-1 -1 $-1 $135 $49 $132 $136 reversed $83 $-1 #
loop $-1 -1 $-1 $137 $53 $138 #
vertex $-1 -1 $-1 $79 $139 #
straight-curve $-1 -1 $-1 34.71600000000005792 -52.16002300679802772 -78.98152253375516807 -1.458844474291036938e-15 -8.221921916437784361 5.692099788303086605 I I #
point $-1 -1 $-1 34.71600000000005082 -80.33814968245459909 -59.47358868137753518 #
coedge $-1 -1 $-1 $53 $140 $55 $90 forward $83 $-1 #
ellipse-curve $-1 -1 $-1 34.71600000000005082 -71.79999999999996874 -47.14070580672085242 -1 -3.805489422832487656e-17 -3.112610300359484557e-16 0 -13.28668967871267093 -6.961600202653857039 1 I I #
coedge $-1 -1 $-1 $56 $55 $141 $142 reversed $57 $-1 #
edge $-1 -1 $-1 $143 5.249999999999997335 $58 14.71407058067208418 $55 $144 forward @7 unknown #
face $145 -1 $-1 $146 $57 $5 $-1 $147 forward single #
point $-1 -1 $-1 34.71600000000004371 -86.79999999999998295 -47.14070580672084532 #
coedge $-1 -1 $-1 $148 $60 $149 $150 reversed $18 $-1 #
coedge $-1 -1 $-1 $141 $151 $60 $95 forward $152 $-1 #
edge $-1 -1 $-1 $153 -0.4636476090008063711 $96 0.4636476090008068152 $60 $154 forward @7 unknown #
vertex $-1 -1 $-1 $61 $155 #
straight-curve $-1 -1 $-1 31.51600000000000179 -86.7999999999999261 100 3.108624468950439102e-15 -3.108624468950437524e-15 -10 I I #
coedge $-1 -1 $-1 $62 $156 $157 $158 reversed $18 $-1 #
coedge $-1 -1 $-1 $159 $78 $62 $100 forward $103 $-1 #
edge $-1 -1 $-1 $80 -0.3027723318024852506 $160 0.3027723318024853061 $62 $161 forward @7 unknown #
DXID-attrib $-1 -1 $-1 $-1 $66 @10 ASM ENTITY @36 4397f790-191b-41b4-8733-662aed346308 #
face $162 -1 $-1 $163 $164 $5 $-1 $165 forward single #
loop $-1 -1 $-1 $-1 $132 $66 #
cone-surface $-1 -1 $-1 33.1160000000000565 -17.11435283193017298 -84.99999999999998579 1 8.634793176872600539e-17 3.108624468950438609e-16 4.652518710121743672e-15 -4.472513660132852564 -14.31770308254522384 1 I I 0 1 14.99999999999999822 forward I I I I #
coedge $-1 -1 $-1 $166 $167 $70 $111 reversed $67 $-1 #
coedge $-1 -1 $-1 $168 $169 $170 $171 reversed $68 $-1 #
coedge $-1 -1 $-1 $172 $69 $167 $173 reversed $43 $-1 #
coedge $-1 -1 $-1 $69 $174 $175 $176 reversed $43 $-1 #
coedge $-1 -1 $-1 $71 $70 $69 $110 forward $27 $-1 #
edge $-1 -1 $-1 $177 -0.482625831594963639 $178 0.4826258315949627509 $69 $179 forward @7 unknown #
edge $-1 -1 $-1 $118 -3.631599999999998829 $177 -3.311599999999998101 $105 $180 forward @7 tangent #
coedge $-1 -1 $-1 $175 $181 $71 $113 reversed $182 $-1 #
edge $-1 -1 $-1 $178 3.311599999999997213 $117 3.631599999999997497 $112 $183 forward @7 tangent #
coedge $-1 -1 $-1 $184 $72 $181 $185 forward $116 $-1 #
coedge $-1 -1 $-1 $72 $186 $166 $187 reversed $116 $-1 #
loop $-1 -1 $-1 $188 $72 $189 #
vertex $-1 -1 $-1 $73 $190 #
vertex $-1 -1 $-1 $73 $191 #
ellipse-curve $-1 -1 $-1 -34.71600000000007924 -71.79999999999994031 -47.14070580672090216 1 -1.814411733628575095e-15 1.780342670809296758e-16 -1.31605486849455882e-14 -13.28668967871267093 -6.961600202653857039 1 I I #
coedge $-1 -1 $-1 $192 $74 $193 $194 reversed $29 $-1 #
coedge $-1 -1 $-1 $195 $196 $74 $122 forward $197 $-1 #
edge $-1 -1 $-1 $198 0.7725800799834452448 $129 1.696340510686847214 $74 $199 forward @7 unknown #
coedge $-1 -1 $-1 $75 $192 $200 $201 reversed $29 $-1 #
coedge $-1 -1 $-1 $202 $203 $75 $125 forward $204 $-1 #
edge $-1 -1 $-1 $130 -1.942820323027549367 $205 -1.019059892324147842 $75 $206 forward @7 unknown #
coedge $-1 -1 $-1 $207 $76 $203 $208 reversed $128 $-1 #
coedge $-1 -1 $-1 $76 $207 $195 $209 forward $128 $-1 #
loop $-1 -1 $-1 $-1 $76 $210 #
vertex $-1 -1 $-1 $77 $211 #
vertex $-1 -1 $-1 $77 $212 #
straight-curve $-1 -1 $-1 31.51600000000003732 -65.93457779007067643 -31.85050470695119884 -1.222754267370107761e-15 -8.660254037844381969 5.000000000000008882 I I #
coedge $-1 -1 $-1 $78 $159 $82 $136 forward $103 $-1 #
straight-curve $-1 -1 $-1 33.11600000000006361 -25.65250251438479978 -97.33288287465666144 -10 -8.634793176872603004e-16 -3.108624468950439102e-15 F -4.810000999999999749 F 4.810000999999999749 #
point $-1 -1 $-1 31.51600000000005863 -25.65250251438480689 -97.33288287465666144 #
coedge $-1 -1 $-1 $213 $82 $214 $215 forward $83 $-1 #
edge $-1 -1 $-1 $216 -0.3027723318024853061 $84 0.3027723318024852506 $82 $217 forward @7 unknown #
loop $-1 -1 $-1 $-1 $218 $138 #
face $219 -1 $-1 $220 $83 $5 $-1 $221 forward single #
point $-1 -1 $-1 34.71600000000006503 -25.65250251438480689 -97.33288287465666144 #
coedge $-1 -1 $-1 $87 $222 $223 $224 reversed $83 $-1 #
coedge $-1 -1 $-1 $223 $94 $89 $142 forward $152 $-1 #
edge $-1 -1 $-1 $96 -0.1600000000000001421 $143 0.159999999999999698 $89 $225 forward @7 tangent #
vertex $-1 -1 $-1 $224 $226 #
straight-curve $-1 -1 $-1 34.71600000000000108 -86.7999999999999261 100 3.108624468950439102e-15 -3.108624468950437524e-15 -10 I I #
DXID-attrib $-1 -1 $-1 $-1 $91 @10 ASM ENTITY @36 9d0706d5-626c-4732-9040-3b4b3bc67861 #
face $227 -1 $-1 $228 $229 $5 $-1 $230 forward single #
plane-surface $-1 -1 $-1 31.51600000000000179 -86.7999999999999261 100 6.123233995736756175e-17 -1 3.108624468950437623e-16 -3.108624468950439102e-15 3.108624468950437524e-15 10 reverse_v I I I I #
coedge $-1 -1 $-1 $231 $93 $232 $233 reversed $18 $-1 #
coedge $-1 -1 $-1 $234 $235 $93 $150 forward $236 $-1 #
edge $-1 -1 $-1 $237 -6.873671361751258146 $153 -0.6236713617512521513 $93 $238 forward @7 unknown #
coedge $-1 -1 $-1 $94 $223 $234 $239 forward $152 $-1 #
loop $-1 -1 $-1 $-1 $223 $240 #
vertex $-1 -1 $-1 $95 $241 #
ellipse-curve $-1 -1 $-1 31.51600000000001245 -71.79999999999994031 47.50000000000001421 1 3.805489422832487656e-17 3.104638637541392661e-16 0 -13.41640786499872995 6.708203932499384514 1 I I #
point $-1 -1 $-1 31.51600000000001955 -86.79999999999994031 47.50000000000002842 #
coedge $-1 -1 $-1 $98 $231 $242 $243 reversed $18 $-1 #
coedge $-1 -1 $-1 $244 $245 $98 $158 forward $164 $-1 #
edge $-1 -1 $-1 $160 -10.07784392178166044 $246 -3.141592653589792672 $98 $247 forward @7 unknown #
coedge $-1 -1 $-1 $132 $99 $245 $248 forward $103 $-1 #
vertex $-1 -1 $-1 $158 $249 #
ellipse-curve $-1 -1 $-1 31.51600000000005153 -17.11435283193017298 -84.99999999999998579 1 3.805489422832487656e-17 3.104638637541392661e-16 4.652518710121743672e-15 -4.472513660132852564 -14.31770308254522384 1 I I #
DXID-attrib $-1 -1 $-1 $-1 $102 @10 ASM ENTITY @36 2f6d6b41-4086-43dc-a8c9-be6c8aeb7ce6 #
face $250 -1 $-1 $251 $252 $5 $-1 $253 forward single #
loop $-1 -1 $-1 $-1 $245 $102 #
plane-surface $-1 -1 $-1 31.51600000000005863 -1.516000000000001791 -99.99999999999998579 3.108624468950439102e-16 -3.108624468950438609e-16 -1 6.123233995736756422e-16 -10 3.108624468950438708e-15 reverse_v I I I I #
coedge $-1 -1 $-1 $254 $105 $115 $187 forward $67 $-1 #
coedge $-1 -1 $-1 $105 $254 $107 $173 forward $67 $-1 #
coedge $-1 -1 $-1 $255 $106 $256 $257 reversed $68 $-1 #
coedge $-1 -1 $-1 $106 $258 $259 $260 reversed $68 $-1 #
coedge $-1 -1 $-1 $261 $262 $106 $171 forward $263 $-1 #
edge $-1 -1 $-1 $264 -0.4463405106868525429 $265 0.4774199200165470391 $106 $266 forward @7 unknown #
coedge $-1 -1 $-1 $267 $107 $268 $269 reversed $43 $-1 #
edge $-1 -1 $-1 $270 -3.224005379985146913 $177 3.427194634300904319 $107 $271 forward @7 unknown #
coedge $-1 -1 $-1 $108 $272 $273 $274 reversed $43 $-1 #
coedge $-1 -1 $-1 $275 $112 $108 $176 forward $182 $-1 #
edge $-1 -1 $-1 $178 5.285929419327912271 $276 14.75 $108 $277 forward @7 unknown #
vertex $-1 -1 $-1 $111 $278 #
vertex $-1 -1 $-1 $110 $279 #
ellipse-curve $-1 -1 $-1 -31.5160000000000764 -71.79999999999994031 -47.14070580672089505 -1 1.814411733628575095e-15 -1.772371007991204616e-16 -1.31605486849455882e-14 -13.28668967871267093 -6.961600202653857039 1 I I #
straight-curve $-1 -1 $-1 1.599999999999833111 -80.33814968245464172 -59.47358868137751386 10 -1.837589179357618354e-14 1.642818908444052978e-14 F -8.281600999999998436 F 1.338401000000000174 #
coedge $-1 -1 $-1 $112 $275 $114 $185 reversed $182 $-1 #
loop $-1 -1 $-1 $-1 $112 $280 #
straight-curve $-1 -1 $-1 1.599999999999801359 -86.79999999999999716 -47.14070580672084532 -10 1.837589179357618354e-14 -1.642818908444052978e-14 F -1.338401000000000174 F 8.281600999999998436 #
coedge $-1 -1 $-1 $281 $114 $282 $283 reversed $116 $-1 #
edge $-1 -1 $-1 $117 5.285929419327911383 $284 14.75 $181 $285 forward @7 unknown #
coedge $-1 -1 $-1 $115 $286 $287 $288 reversed $116 $-1 #
edge $-1 -1 $-1 $118 -3.427194634300904319 $289 3.224005379985144693 $115 $290 forward @7 unknown #
loop $-1 -1 $-1 $-1 $291 $189 #
face $292 -1 $-1 $293 $116 $5 $-1 $294 forward single #
point $-1 -1 $-1 -34.71600000000017161 -86.79999999999994031 -47.14070580672090216 #
point $-1 -1 $-1 -34.7160000000001574 -80.33814968245457067 -59.47358868137758492 #
coedge $-1 -1 $-1 $123 $120 $295 $296 reversed $29 $-1 #
coedge $-1 -1 $-1 $297 $298 $120 $194 forward $299 $-1 #
edge $-1 -1 $-1 $300 0.5571796769724484122 $198 1.480940107675848161 $120 $301 forward @7 unknown #
coedge $-1 -1 $-1 $302 $121 $127 $209 reversed $197 $-1 #
coedge $-1 -1 $-1 $121 $302 $297 $303 forward $197 $-1 #
loop $-1 -1 $-1 $-1 $121 $304 #
vertex $-1 -1 $-1 $122 $305 #
straight-curve $-1 -1 $-1 31.51600000000003732 -47.10926024276521673 -25.75590175359972989 1.881884370171287464e-15 -8.660254037844387298 -4.999999999999999112 I I #
coedge $-1 -1 $-1 $306 $307 $123 $201 forward $308 $-1 #
edge $-1 -1 $-1 $205 -2.158220726038546644 $309 -1.234460295335145563 $123 $310 forward @7 unknown #
coedge $-1 -1 $-1 $311 $124 $307 $312 reversed $204 $-1 #
coedge $-1 -1 $-1 $124 $311 $126 $208 forward $204 $-1 #
loop $-1 -1 $-1 $-1 $124 $313 #
vertex $-1 -1 $-1 $201 $314 #
straight-curve $-1 -1 $-1 31.51600000000003376 -69.79999999999996874 -10.19059892324145977 -3.104638637541393253e-15 8.360120394759408252e-15 10 I I #
coedge $-1 -1 $-1 $127 $126 $218 $315 forward $128 $-1 #
edge $316 -1 $-1 $317 0 $130 0.3200000000000002842 $203 $318 forward @7 unknown #
edge $319 -1 $-1 $320 0 $129 0.3200000000000002842 $195 $321 forward @7 unknown #
face $322 -1 $-1 $323 $128 $5 $-1 $324 reversed single #
point $-1 -1 $-1 31.51600000000003732 -61.79999999999999716 -34.23760430703396196 #
point $-1 -1 $-1 31.51600000000003732 -69.79999999999998295 -29.61880215351695256 #
coedge $-1 -1 $-1 $325 $135 $326 $327 reversed $83 $-1 #
coedge $-1 -1 $-1 $245 $244 $135 $215 reversed $164 $-1 #
edge $-1 -1 $-1 $216 -10.07784392178166044 $328 -3.141592653589792672 $214 $329 forward @7 unknown #
vertex $-1 -1 $-1 $136 $330 #
ellipse-curve $-1 -1 $-1 34.71600000000005082 -17.11435283193017298 -84.99999999999998579 -1 -3.805489422832487656e-17 -3.112610300359484557e-16 4.652518710121743672e-15 -4.472513660132852564 -14.31770308254522384 1 I I #
coedge $-1 -1 $-1 $331 $332 $207 $315 reversed $137 $-1 #
DXID-attrib $-1 -1 $-1 $-1 $138 @10 ASM ENTITY @36 4bdd510c-703f-47c9-9442-ef63e666bad4 #
face $333 -1 $-1 $334 $335 $5 $-1 $336 forward single #
plane-surface $-1 -1 $-1 34.7160000000000295 -42.39178404378118614 -3.457035177835420841e-15 1 3.805489422832487656e-17 3.112610300359484557e-16 3.112610300359484557e-15 3.108624468950438708e-15 -10 reverse_v I I I I #
coedge $-1 -1 $-1 $140 $337 $338 $339 reversed $83 $-1 #
coedge $-1 -1 $-1 $151 $141 $140 $224 forward $152 $-1 #
edge $-1 -1 $-1 $143 -0.4636476090008068152 $340 0.4636476090008063711 $140 $341 forward @7 unknown #
straight-curve $-1 -1 $-1 33.11600000000002098 -86.79999999999994031 47.50000000000002842 10 6.123233995736768255e-16 3.870458971311481622e-15 F -4.810001000000001525 F 4.810000999999997973 #
point $-1 -1 $-1 34.71600000000001529 -86.79999999999994031 47.50000000000002842 #
DXID-attrib $-1 -1 $-1 $-1 $146 @10 ASM ENTITY @36 fc46aad6-b5c8-4bb5-a14d-0e8493b93658 #
face $342 -1 $-1 $343 $344 $5 $-1 $345 forward single #
loop $-1 -1 $-1 $-1 $346 $146 #
cone-surface $-1 -1 $-1 1.599999999999990541 -21.79999999999988347 85 -1 2.179812776307961809e-16 -1.776356839400255494e-16 -3.803402924291422752e-15 -4.743416490252561957 14.23024947075770896 1 I I 0 1 15 forward I I I I #
coedge $-1 -1 $-1 $156 $148 $347 $348 forward $18 $-1 #
coedge $-1 -1 $-1 $349 $350 $148 $233 forward $344 $-1 #
edge $-1 -1 $-1 $351 -0.3217505543966417414 $237 0.3217505543966409642 $148 $352 forward @7 unknown #
coedge $-1 -1 $-1 $338 $149 $151 $239 reversed $236 $-1 #
coedge $-1 -1 $-1 $149 $338 $349 $353 reversed $236 $-1 #
loop $-1 -1 $-1 $-1 $234 $354 #
vertex $-1 -1 $-1 $150 $355 #
straight-curve $-1 -1 $-1 31.51600000000001245 -85.78937089400994864 55.75797182949252573 2.167222336351432834e-15 -8.000000000000005329 -5.999999999999993783 I I #
edge $-1 -1 $-1 $340 -0.159999999999999698 $153 0.1600000000000005862 $234 $356 forward @7 tangent #
face $357 -1 $-1 $91 $152 $5 $-1 $358 forward single #
point $-1 -1 $-1 31.51600000000001245 -80.7999999999999261 59.50000000000003553 #
coedge $-1 -1 $-1 $359 $360 $156 $243 forward $361 $-1 #
edge $-1 -1 $-1 $246 -10 $362 10 $156 $363 forward @7 tangent #
coedge $-1 -1 $-1 $214 $157 $364 $365 reversed $164 $-1 #
coedge $-1 -1 $-1 $157 $214 $159 $248 reversed $164 $-1 #
vertex $-1 -1 $-1 $243 $366 #
straight-curve $-1 -1 $-1 31.51600000000005863 5.548863824875187589 -99.99999999999998579 2.189265874603262188e-31 2.248816000000001925 -6.990724443767254277e-16 F -41.06554908221708899 F -1.570796326794896558 #
edge $-1 -1 $-1 $160 -0.1600000000000001421 $216 0.159999999999999698 $245 $367 forward @7 tangent #
point $-1 -1 $-1 31.51600000000005863 -17.11435283193017654 -99.99999999999998579 #
DXID-attrib $-1 -1 $-1 $-1 $163 @10 ASM ENTITY @36 dd38ad43-5c1e-45da-9bbe-ae0a753dfe6b #
face $368 -1 $-1 $369 $370 $5 $-1 $371 forward single #
loop $-1 -1 $-1 $-1 $268 $163 #
cone-surface $-1 -1 $-1 1.600000000000023848 -17.11435283193015167 -85 1 2.787865893704196397e-16 1.776356839400250563e-16 3.78017145197391279e-15 -4.4725136601328499 -14.31770308254522561 1 I I 0 1 15 forward I I I I #
coedge $-1 -1 $-1 $167 $166 $372 $373 reversed $67 $-1 #
coedge $-1 -1 $-1 $374 $168 $375 $376 reversed $68 $-1 #
coedge $-1 -1 $-1 $377 $378 $168 $257 forward $379 $-1 #
edge $-1 -1 $-1 $380 1.019059892324148731 $264 1.942820323027550256 $168 $381 forward @7 unknown #
coedge $-1 -1 $-1 $169 $374 $382 $383 reversed $68 $-1 #
coedge $-1 -1 $-1 $384 $385 $169 $260 forward $386 $-1 #
edge $-1 -1 $-1 $265 -1.696340510686853431 $387 -0.7725800799834514621 $169 $388 forward @7 unknown #
coedge $-1 -1 $-1 $389 $170 $385 $390 forward $263 $-1 #
coedge $-1 -1 $-1 $170 $389 $377 $391 reversed $263 $-1 #
loop $-1 -1 $-1 $-1 $170 $323 #
vertex $-1 -1 $-1 $171 $392 #
vertex $-1 -1 $-1 $171 $393 #
straight-curve $-1 -1 $-1 -31.51600000000014035 -65.93457779007064801 -31.85050470695124147 1.659945204646469697e-14 8.660254037844381969 -5.000000000000008882 I I #
coedge $-1 -1 $-1 $394 $172 $395 $396 forward $43 $-1 #
coedge $-1 -1 $-1 $372 $397 $172 $269 forward $252 $-1 #
edge $-1 -1 $-1 $398 -0.3027723318024854726 $270 0.3027723318024845844 $172 $399 forward @7 unknown #
vertex $-1 -1 $-1 $173 $400 #
straight-curve $-1 -1 $-1 -31.51600000000009416 -52.16002300679798509 -78.98152253375522491 -1.592680286210078338e-14 -8.221921916437784361 5.692099788303086605 I I #
coedge $-1 -1 $-1 $174 $401 $402 $403 reversed $43 $-1 #
coedge $-1 -1 $-1 $404 $405 $174 $274 forward $370 $-1 #
edge $-1 -1 $-1 $276 -0.4636476090008060935 $406 0.4636476090008064821 $174 $407 forward @7 unknown #
coedge $-1 -1 $-1 $181 $175 $405 $408 reversed $182 $-1 #
vertex $-1 -1 $-1 $274 $409 #
straight-curve $-1 -1 $-1 -31.51600000000016166 -86.7999999999999261 -100.0000000000000142 -1.776356839400255592e-15 -2.664535259100375697e-15 10 I I #
point $-1 -1 $-1 -31.51600000000014745 -80.33814968245457067 -59.4735886813775636 #
point $-1 -1 $-1 -31.51600000000016877 -86.79999999999994031 -47.14070580672089505 #
face $410 -1 $-1 $138 $182 $5 $-1 $411 forward single #
coedge $-1 -1 $-1 $412 $184 $413 $414 reversed $116 $-1 #
coedge $-1 -1 $-1 $405 $404 $184 $283 forward $370 $-1 #
edge $-1 -1 $-1 $415 -0.4636476090008069817 $284 0.4636476090008060935 $184 $416 forward @7 unknown #
vertex $-1 -1 $-1 $283 $417 #
straight-curve $-1 -1 $-1 -34.7160000000001645 -86.7999999999999261 -100.0000000000000142 -1.776356839400255592e-15 -2.664535259100375697e-15 10 I I #
coedge $-1 -1 $-1 $186 $418 $419 $420 forward $116 $-1 #
coedge $-1 -1 $-1 $397 $372 $186 $288 forward $252 $-1 #
edge $-1 -1 $-1 $289 -0.3027723318024850285 $421 0.3027723318024853061 $186 $422 forward @7 unknown #
vertex $-1 -1 $-1 $187 $423 #
straight-curve $-1 -1 $-1 -34.71600000000010056 -52.16002300679798509 -78.98152253375523912 1.593134041212470985e-14 8.221921916437784361 -5.692099788303086605 I I #
coedge $-1 -1 $-1 $424 $425 $389 $426 reversed $188 $-1 #
DXID-attrib $-1 -1 $-1 $-1 $189 @10 ASM ENTITY @36 ca5a6154-bf8a-4621-aba6-73354cc45daa #
face $427 -1 $-1 $428 $429 $5 $-1 $430 reversed single #
plane-surface $-1 -1 $-1 -34.71600000000010056 -42.39178404378117193 -1.071281446552442035e-14 -1 1.814411733628575095e-15 -1.780342670809296758e-16 1.780342670809293553e-15 -1.776356839400250465e-15 -10 reverse_v I I I I #
coedge $-1 -1 $-1 $431 $432 $192 $296 forward $433 $-1 #
edge $-1 -1 $-1 $309 -0.9082207260385486425 $300 0.01553970466485103848 $192 $434 forward @7 unknown #
coedge $-1 -1 $-1 $435 $193 $196 $303 reversed $299 $-1 #
coedge $-1 -1 $-1 $193 $435 $431 $436 forward $299 $-1 #
loop $-1 -1 $-1 $-1 $193 $437 #
vertex $-1 -1 $-1 $194 $438 #
straight-curve $-1 -1 $-1 31.51600000000003376 -53.79999999999996874 -14.80940107675847273 3.104638637541393253e-15 -1.316752711071833608e-14 -10 I I #
coedge $-1 -1 $-1 $196 $195 $332 $439 forward $197 $-1 #
edge $440 -1 $-1 $441 0 $198 0.3200000000000002842 $196 $442 forward @7 unknown #
face $443 -1 $-1 $210 $197 $5 $-1 $444 reversed single #
point $-1 -1 $-1 31.51600000000003732 -53.79999999999999005 -29.61880215351695256 #
coedge $-1 -1 $-1 $445 $200 $432 $446 reversed $308 $-1 #
coedge $-1 -1 $-1 $200 $445 $202 $312 forward $308 $-1 #
loop $-1 -1 $-1 $-1 $200 $447 #
vertex $-1 -1 $-1 $296 $448 #
straight-curve $-1 -1 $-1 31.51600000000003376 -51.1092602427651741 -9.590094216290252049 -1.881884370171281153e-15 8.660254037844401509 4.999999999999976907 I I #
coedge $-1 -1 $-1 $203 $202 $331 $449 forward $204 $-1 #
edge $450 -1 $-1 $451 0 $205 0.3199999999999998401 $307 $452 forward @7 unknown #
face $453 -1 $-1 $454 $204 $5 $-1 $455 reversed single #
point $-1 -1 $-1 31.51600000000003732 -69.79999999999996874 -20.38119784648294086 #
edge $-1 -1 $-1 $317 -0.4463405106868482131 $320 0.47741992001655148 $218 $456 forward @7 unknown #
DXID-attrib $-1 -1 $-1 $-1 $208 @10 ASM ENTITY @36 f082c906-2328-47b2-8e57-5403b9b79df4 #
vertex $-1 -1 $-1 $449 $457 #
straight-curve $-1 -1 $-1 34.71600000000003661 -69.79999999999998295 -29.61880215351695256 -10 0 -2.984814368927321616e-15 I I #
DXID-attrib $-1 -1 $-1 $-1 $209 @10 ASM ENTITY @36 3299d986-1edb-4a61-acd2-9481d94ca5ba #
vertex $-1 -1 $-1 $209 $458 #
straight-curve $-1 -1 $-1 34.71600000000003661 -61.79999999999999716 -34.23760430703396196 -10 0 -2.984814368927321616e-15 I I #
DXID-attrib $-1 -1 $-1 $-1 $210 @10 ASM ENTITY @36 b1fd1a62-f9a2-4f93-9048-bb34697d6603 #
face $459 -1 $-1 $460 $263 $5 $-1 $324 reversed single #
plane-surface $-1 -1 $-1 34.71600000000003661 -69.79999999999998295 -29.61880215351695256 2.584925069071876725e-16 -0.5000000000000008882 -0.8660254037844381525 1.22674009877915361e-15 8.660254037844381969 -5.000000000000008882 reverse_v I I I I #
coedge $-1 -1 $-1 $337 $213 $461 $462 forward $83 $-1 #
coedge $-1 -1 $-1 $463 $464 $213 $327 forward $465 $-1 #
edge $-1 -1 $-1 $466 -9.999999999999998224 $328 10 $213 $467 forward @7 tangent #
vertex $-1 -1 $-1 $365 $468 #
straight-curve $-1 -1 $-1 34.71600000000005792 5.548863824875187589 -99.99999999999998579 2.189265874603262188e-31 2.248816000000001925 -6.990724443767254277e-16 F -41.06554908221708899 F -1.570796326794896558 #
point $-1 -1 $-1 34.71600000000005792 -17.11435283193017654 -99.99999999999998579 #
coedge $-1 -1 $-1 $469 $218 $311 $449 reversed $137 $-1 #
coedge $-1 -1 $-1 $218 $470 $302 $439 reversed $137 $-1 #
DXID-attrib $-1 -1 $-1 $-1 $220 @10 ASM ENTITY @36 81b51212-c517-4235-a874-b1a359e2c325 #
face $471 -1 $-1 $472 $473 $5 $-1 $474 forward single #
loop $-1 -1 $-1 $-1 $475 $220 #
cone-surface $-1 -1 $-1 -30.00000000000002132 -1.51599999999999957 0 -1.776356839400250563e-16 0 1 0 4.71600000000000108 0 1 I I -0 1 2.248816000000001925 reversed I I I I #
coedge $-1 -1 $-1 $222 $325 $476 $477 reversed $83 $-1 #
coedge $-1 -1 $-1 $235 $234 $222 $339 forward $236 $-1 #
edge $-1 -1 $-1 $340 0.6236713617512521513 $478 6.873671361751258146 $222 $479 forward @7 unknown #
vertex $-1 -1 $-1 $224 $480 #
ellipse-curve $-1 -1 $-1 34.71600000000001529 -71.79999999999994031 47.50000000000001421 -1 -3.805489422832487656e-17 -3.112610300359484557e-16 0 -13.41640786499872995 6.708203932499384514 1 I I #
DXID-attrib $-1 -1 $-1 $-1 $228 @10 ASM ENTITY @36 ccfe6b41-3d0c-48ff-89b7-81da2eecb23c #
face $481 -1 $-1 $354 $482 $5 $-1 $483 forward single #
loop $-1 -1 $-1 $-1 $232 $228 #
cone-surface $-1 -1 $-1 33.11600000000000676 -21.79999999999987281 85.00000000000001421 -1 4.034559369077151902e-17 -3.108624468950438609e-16 -4.681111291435603605e-15 -4.743416490252563733 14.23024947075770896 1 I I 0 1 15.00000000000000178 forward I I I I #
coedge $-1 -1 $-1 $484 $485 $412 $486 forward $229 $-1 #
coedge $-1 -1 $-1 $487 $488 $231 $348 reversed $482 $-1 #
edge $-1 -1 $-1 $351 -12.16145021419053407 $362 -3.14159265358982065 $231 $489 forward @7 unknown #
coedge $-1 -1 $-1 $476 $232 $235 $353 forward $344 $-1 #
coedge $-1 -1 $-1 $232 $476 $487 $490 forward $344 $-1 #
vertex $-1 -1 $-1 $233 $491 #
ellipse-curve $-1 -1 $-1 31.51600000000000179 -21.79999999999987281 85.00000000000001421 1 3.805489422832487656e-17 3.104638637541392661e-16 -4.681111291435603605e-15 -4.743416490252563733 14.23024947075770896 1 I I #
edge $-1 -1 $-1 $237 -0.1600000000000005862 $478 0.159999999999999698 $235 $492 forward @7 tangent #
face $493 -1 $-1 $494 $236 $5 $-1 $495 reversed single #
point $-1 -1 $-1 31.51599999999999824 -30.79999999999984794 97.00000000000002842 #
straight-curve $-1 -1 $-1 33.11600000000001387 -80.7999999999999261 59.50000000000002842 -10 -6.123233995736771213e-16 -3.870458971311480833e-15 F -4.810000999999997973 F 4.810001000000001525 #
DXID-attrib $-1 -1 $-1 $-1 $240 @10 ASM ENTITY @36 4c0ca0dc-1b3c-4155-8c05-6e1bd0c8cbe3 #
cone-surface $-1 -1 $-1 33.11600000000002098 -71.79999999999994031 47.50000000000001421 1 6.123233995736768501e-17 3.870458971311481622e-16 0 -13.41640786499872995 6.708203932499384514 1 I I 0 1 14.99999999999999822 forward I I I I #
coedge $-1 -1 $-1 $496 $242 $497 $498 forward $361 $-1 #
coedge $-1 -1 $-1 $242 $496 $499 $500 reversed $361 $-1 #
loop $-1 -1 $-1 $-1 $242 $501 #
vertex $-1 -1 $-1 $348 $502 #
straight-curve $-1 -1 $-1 31.51600000000002666 -1.516000000000006231 6.891666471849406363e-15 -3.104638637541392858e-15 0 10 I I #
coedge $-1 -1 $-1 $499 $503 $244 $365 forward $504 $-1 #
edge $-1 -1 $-1 $328 -0.2833592000000000333 $246 0.03664079999999980686 $244 $505 forward @7 tangent #
point $-1 -1 $-1 31.51600000000005863 -1.516000000000001791 -100 #
straight-curve $-1 -1 $-1 33.11600000000006361 -17.11435283193017654 -99.99999999999998579 10 8.634793176872601032e-16 3.108624468950438708e-15 F -4.810000999999999749 F 4.810000999999999749 #
DXID-attrib $-1 -1 $-1 $-1 $251 @10 ASM ENTITY @36 5a0c4e48-b75d-40db-ba15-45cc9c63af2d #
face $506 -1 $-1 $240 $507 $5 $-1 $495 reversed single #
loop $-1 -1 $-1 $-1 $273 $251 #
cone-surface $-1 -1 $-1 1.600000000000025846 -71.80000000000003979 47.49999999999994316 1 -1.837589179357617644e-15 -1.037070242355088681e-15 -1.768805584188682718e-14 -13.41640786499873528 6.708203932499367639 1 I I 0 1 14.99999999999999822 forward I I I I #
coedge $-1 -1 $-1 $287 $268 $254 $373 forward $252 $-1 #
edge $-1 -1 $-1 $270 3.311600000000006983 $289 3.631600000000007711 $254 $508 forward @7 tangent #
coedge $-1 -1 $-1 $258 $255 $509 $510 reversed $68 $-1 #
coedge $-1 -1 $-1 $511 $512 $255 $376 forward $513 $-1 #
edge $-1 -1 $-1 $514 1.234460295335150892 $380 2.158220726038551973 $255 $515 forward @7 unknown #
coedge $-1 -1 $-1 $516 $256 $262 $391 forward $379 $-1 #
coedge $-1 -1 $-1 $256 $516 $511 $517 reversed $379 $-1 #
loop $-1 -1 $-1 $-1 $256 $454 #
vertex $-1 -1 $-1 $257 $518 #
straight-curve $-1 -1 $-1 -31.5160000000001439 -69.79999999999996874 -10.19059892324147043 1.772371007991189233e-15 -8.360120394759408252e-15 -10 I I #
coedge $-1 -1 $-1 $519 $520 $258 $383 forward $521 $-1 #
edge $-1 -1 $-1 $387 -1.480940107675849049 $522 -0.5571796769724493004 $258 $523 forward @7 unknown #
coedge $-1 -1 $-1 $524 $259 $520 $525 forward $386 $-1 #
coedge $-1 -1 $-1 $259 $524 $261 $390 reversed $386 $-1 #
loop $-1 -1 $-1 $-1 $259 $526 #
vertex $-1 -1 $-1 $383 $527 #
straight-curve $-1 -1 $-1 -31.51600000000009771 -47.10926024276516699 -25.75590175359971568 1.482708103847350064e-14 8.660254037844387298 4.999999999999999112 I I #
coedge $-1 -1 $-1 $262 $261 $291 $426 forward $263 $-1 #
edge $528 -1 $-1 $265 6.62320000000001663 $529 6.943200000000016026 $385 $321 forward @7 unknown #
edge $530 -1 $-1 $264 6.623200000000018406 $531 6.943200000000017802 $377 $318 forward @7 unknown #
point $-1 -1 $-1 -31.5160000000001439 -69.79999999999998295 -29.61880215351697387 #
point $-1 -1 $-1 -31.51600000000012614 -61.79999999999999716 -34.23760430703397617 #
coedge $-1 -1 $-1 $532 $267 $533 $534 reversed $43 $-1 #
coedge $-1 -1 $-1 $535 $536 $267 $396 reversed $537 $-1 #
edge $-1 -1 $-1 $398 -10.07784392178168176 $538 -3.14159265358982065 $267 $539 forward @7 unknown #
coedge $-1 -1 $-1 $268 $287 $535 $540 forward $252 $-1 #
vertex $-1 -1 $-1 $269 $541 #
ellipse-curve $-1 -1 $-1 -31.51600000000009416 -17.11435283193016232 -85 -1 1.814411733628575095e-15 -1.772371007991204616e-16 3.78017145197391279e-15 -4.4725136601328499 -14.31770308254522561 1 I I #
point $-1 -1 $-1 -31.51600000000004087 -25.65250251438479268 -97.33288287465668986 #
coedge $-1 -1 $-1 $272 $532 $542 $543 reversed $43 $-1 #
coedge $-1 -1 $-1 $544 $545 $272 $403 forward $507 $-1 #
edge $-1 -1 $-1 $406 0.6236713617512412711 $546 6.873671361751249265 $272 $547 forward @7 unknown #
coedge $-1 -1 $-1 $282 $273 $545 $548 forward $370 $-1 #
coedge $-1 -1 $-1 $273 $282 $275 $408 forward $370 $-1 #
vertex $-1 -1 $-1 $403 $549 #
ellipse-curve $-1 -1 $-1 -31.51600000000010837 -71.79999999999996874 47.49999999999998579 -1 1.814411733628575095e-15 -1.772371007991204616e-16 -1.768805584188682718e-14 -13.41640786499873528 6.708203932499367639 1 I I #
edge $-1 -1 $-1 $284 -3.631600000000018813 $276 -3.311600000000018529 $275 $550 forward @7 tangent #
point $-1 -1 $-1 -31.51600000000019008 -86.79999999999995453 47.49999999999998579 #
DXID-attrib $-1 -1 $-1 $-1 $280 @10 ASM ENTITY @36 19cc373c-1372-4f4a-942a-d169807d7c51 #
plane-surface $-1 -1 $-1 -31.51600000000016166 -86.7999999999999261 -100.0000000000000142 -1.837589179357618039e-15 -1 -2.66453525910037905e-16 1.776356839400255592e-15 2.664535259100375697e-15 -10 reverse_v I I I I #
coedge $-1 -1 $-1 $551 $281 $346 $486 reversed $116 $-1 #
coedge $-1 -1 $-1 $545 $544 $281 $414 forward $507 $-1 #
edge $-1 -1 $-1 $552 -6.873671361751249265 $415 -0.6236713617512427144 $281 $553 forward @7 unknown #
vertex $-1 -1 $-1 $548 $554 #
ellipse-curve $-1 -1 $-1 -34.71600000000010056 -71.79999999999995453 47.49999999999998579 1 -1.814411733628575095e-15 1.780342670809296758e-16 -1.768805584188682718e-14 -13.41640786499873528 6.708203932499367639 1 I I #
point $-1 -1 $-1 -34.71600000000019293 -86.79999999999995453 47.49999999999998579 #
coedge $-1 -1 $-1 $286 $551 $475 $555 reversed $116 $-1 #
coedge $-1 -1 $-1 $536 $535 $286 $420 reversed $537 $-1 #
edge $-1 -1 $-1 $556 6.217248937900876626e-15 $421 1.559835283193023336 $419 $557 forward @7 unknown #
vertex $-1 -1 $-1 $288 $558 #
ellipse-curve $-1 -1 $-1 -34.71600000000009345 -17.11435283193016232 -85 1 -1.814411733628575095e-15 1.780342670809296758e-16 3.78017145197391279e-15 -4.4725136601328499 -14.31770308254522561 1 I I #
point $-1 -1 $-1 -34.71600000000005082 -25.65250251438479978 -97.33288287465668986 #
coedge $-1 -1 $-1 $559 $291 $524 $560 reversed $188 $-1 #
coedge $-1 -1 $-1 $291 $561 $516 $562 reversed $188 $-1 #
edge $-1 -1 $-1 $529 -0.4774199200165470391 $531 0.4463405106868525429 $291 $563 forward @7 unknown #
DXID-attrib $-1 -1 $-1 $-1 $293 @10 ASM ENTITY @36 50a713a1-65b1-440d-ab56-e1202144c67d #
face $564 -1 $-1 $565 $465 $5 $-1 $566 forward single #
loop $-1 -1 $-1 $-1 $533 $293 #
cone-surface $-1 -1 $-1 -30.00000000000002132 -1.51599999999999957 0 -1.776356839400250563e-16 0 1 0 1.516000000000000458 0 1 I I -0 1 2.248816000000001925 reversed I I I I #
coedge $-1 -1 $-1 $567 $295 $298 $436 reversed $433 $-1 #
coedge $-1 -1 $-1 $295 $567 $306 $446 forward $433 $-1 #
loop $-1 -1 $-1 $-1 $295 $494 #
straight-curve $-1 -1 $-1 31.51600000000003732 -53.93457779007066222 -20.30349932315870021 1.222754267370105394e-15 8.660254037844385522 -5.000000000000001776 I I #
coedge $-1 -1 $-1 $298 $297 $470 $568 forward $299 $-1 #
edge $569 -1 $-1 $570 0 $300 0.3199999999999998401 $298 $571 forward @7 unknown #
face $572 -1 $-1 $313 $299 $5 $-1 $573 reversed single #
point $-1 -1 $-1 31.51600000000003732 -53.79999999999998295 -20.38119784648295507 #
edge $-1 -1 $-1 $320 -1.696340510686847214 $441 -0.7725800799834454669 $332 $574 forward @7 unknown #
DXID-attrib $-1 -1 $-1 $-1 $303 @10 ASM ENTITY @36 7cf3b05b-1bfa-443a-a2c2-58c60fc69db1 #
vertex $-1 -1 $-1 $303 $575 #
straight-curve $-1 -1 $-1 34.71600000000003661 -53.79999999999999005 -29.61880215351695256 -10 0 -2.984814368927321616e-15 I I #
DXID-attrib $-1 -1 $-1 $-1 $304 @10 ASM ENTITY @36 b575685c-37b7-43ae-b7e5-ad367f4ef62c #
plane-surface $-1 -1 $-1 34.71600000000003661 -61.79999999999999716 -34.23760430703396196 2.584925069071878204e-16 0.499999999999999889 -0.8660254037844387076 -1.885870201580333313e-15 8.660254037844387298 4.999999999999999112 reverse_v I I I I #
coedge $-1 -1 $-1 $307 $306 $469 $576 forward $308 $-1 #
edge $577 -1 $-1 $578 0 $309 0.3200000000000002842 $432 $579 forward @7 unknown #
face $580 -1 $-1 $581 $308 $5 $-1 $582 reversed single #
point $-1 -1 $-1 31.51600000000003376 -61.79999999999996163 -15.76239569296594922 #
edge $-1 -1 $-1 $451 1.019059892324147842 $317 1.942820323027549367 $331 $583 forward @7 unknown #
DXID-attrib $-1 -1 $-1 $-1 $312 @10 ASM ENTITY @36 a2d70fb1-afdd-4530-89a3-1715e84e7a2f #
vertex $-1 -1 $-1 $576 $584 #
straight-curve $-1 -1 $-1 34.71600000000003661 -69.79999999999996874 -20.38119784648294086 -10 0 -2.984814368927321616e-15 I I #
DXID-attrib $-1 -1 $-1 $-1 $313 @10 ASM ENTITY @36 9e331ad9-20ce-4ba7-8092-30fc0838324c #
face $585 -1 $-1 $304 $379 $5 $-1 $455 reversed single #
plane-surface $-1 -1 $-1 34.71600000000003661 -69.79999999999996874 -20.38119784648294086 -2.495340748024023722e-31 -1 8.360120394759408449e-16 3.112610300359484557e-15 -8.360120394759408252e-15 -10 reverse_v I I I I #
straight-curve $-1 -1 $-1 34.71600000000003661 -65.93457779007067643 -31.85050470695119884 1.22674009877915361e-15 8.660254037844381969 -5.000000000000008882 I I #
point $-1 -1 $-1 34.71600000000003661 -69.79999999999998295 -29.61880215351695256 #
point $-1 -1 $-1 34.71600000000003661 -61.79999999999999716 -34.23760430703396196 #
DXID-attrib $-1 -1 $-1 $-1 $323 @10 ASM ENTITY @36 695aab24-8e4c-4337-9ed9-b14541ebab48 #
face $586 -1 $-1 $526 $521 $5 $-1 $573 reversed single #
coedge $-1 -1 $-1 $488 $487 $325 $462 reversed $482 $-1 #
edge $-1 -1 $-1 $466 6.217248937900876626e-15 $587 2.028399999999993319 $461 $588 forward @7 unknown #
coedge $-1 -1 $-1 $589 $326 $503 $590 forward $465 $-1 #
coedge $-1 -1 $-1 $326 $589 $591 $592 forward $465 $-1 #
loop $-1 -1 $-1 $-1 $326 $428 #
vertex $-1 -1 $-1 $462 $593 #
straight-curve $-1 -1 $-1 34.7160000000000295 -1.516000000000006231 7.886771946836010458e-15 3.112610300359484951e-15 0 -10 I I #
point $-1 -1 $-1 34.71600000000005792 -1.516000000000001791 -100 #
coedge $-1 -1 $-1 $594 $331 $445 $576 reversed $137 $-1 #
coedge $-1 -1 $-1 $332 $594 $435 $568 reversed $137 $-1 #
DXID-attrib $-1 -1 $-1 $-1 $334 @10 ASM ENTITY @36 f48a9558-03c1-4ced-9d94-481047271016 #
face $595 -1 $-1 $596 $597 $5 $-1 $598 forward single #
loop $-1 -1 $-1 $-1 $599 $334 #
plane-surface $-1 -1 $-1 -31.51600000000004087 -1.51599999999999735 100 -1.776356839400256233e-16 -3.108624468950438609e-16 1 -1.837589179357618039e-14 -10 -3.108624468950442257e-15 reverse_v I I I I #
coedge $-1 -1 $-1 $600 $601 $418 $555 forward $335 $-1 #
coedge $-1 -1 $-1 $350 $349 $337 $477 forward $344 $-1 #
edge $-1 -1 $-1 $478 -0.3217505543966409642 $587 0.3217505543966417969 $337 $602 forward @7 unknown #
vertex $-1 -1 $-1 $353 $603 #
straight-curve $-1 -1 $-1 34.71600000000001529 -85.78937089400994864 55.75797182949252573 -2.172005334042288169e-15 8.000000000000005329 5.999999999999993783 I I #
point $-1 -1 $-1 34.71600000000001529 -80.7999999999999261 59.50000000000003553 #
DXID-attrib $-1 -1 $-1 $-1 $343 @10 ASM ENTITY @36 aa208655-dafb-4897-ae3c-862e416bdb74 #
loop $-1 -1 $-1 $-1 $487 $343 #
plane-surface $-1 -1 $-1 31.51599999999999824 -1.515999999999939618 100.0000000000000142 -3.108624468950438609e-16 0 1 -6.123233995736766282e-16 10 0 reverse_v I I I I #
coedge $-1 -1 $-1 $542 $346 $544 $604 forward $229 $-1 #
coedge $-1 -1 $-1 $346 $542 $599 $605 forward $229 $-1 #
edge $-1 -1 $-1 $606 -0.3217505543966414083 $552 0.3217505543966426851 $412 $607 forward @7 unknown #
coedge $-1 -1 $-1 $461 $347 $350 $490 reversed $482 $-1 #
coedge $-1 -1 $-1 $347 $461 $608 $609 reversed $482 $-1 #
straight-curve $-1 -1 $-1 31.51599999999999824 5.548863824875249762 100.0000000000000142 2.189265874603262188e-31 2.248816000000001925 -6.990724443767254277e-16 F -41.06554908221708899 F -1.570796326794896558 #
edge $-1 -1 $-1 $587 -0.1599999999999992539 $351 0.1600000000000005862 $487 $610 forward @7 tangent #
point $-1 -1 $-1 31.51599999999999824 -21.79999999999987281 100.0000000000000142 #
straight-curve $-1 -1 $-1 33.11599999999999966 -30.79999999999986215 97.00000000000002842 10 -4.034559369077151902e-16 3.108624468950438708e-15 F -4.810001000000001525 F 4.810000999999997973 #
DXID-attrib $-1 -1 $-1 $-1 $354 @10 ASM ENTITY @36 5d9e0bfc-4f17-4649-aa44-009eb17fa952 #
face $611 -1 $-1 $612 $433 $5 $-1 $613 reversed single #
plane-surface $-1 -1 $-1 34.71600000000001529 -86.79999999999995453 55.00000000000000711 2.728973137304981234e-16 0.5999999999999994227 -0.8000000000000004885 -2.172005334042287774e-15 8.000000000000005329 5.999999999999994671 reverse_v I I I I #
coedge $-1 -1 $-1 $360 $359 $614 $615 reversed $361 $-1 #
coedge $-1 -1 $-1 $608 $616 $359 $498 reversed $617 $-1 #
edge $-1 -1 $-1 $362 -1.464674174967223255e-15 $618 1.570796326794937636 $359 $619 forward @7 unknown #
coedge $-1 -1 $-1 $620 $364 $360 $500 forward $504 $-1 #
edge $-1 -1 $-1 $246 -3.295516893676252472e-15 $621 1.570796326794894782 $360 $622 forward @7 unknown #
face $623 -1 $-1 $624 $361 $5 $-1 $625 reversed single #
point $-1 -1 $-1 31.51599999999999824 -1.516000000000001791 100 #
coedge $-1 -1 $-1 $364 $620 $463 $590 reversed $504 $-1 #
loop $-1 -1 $-1 $-1 $364 $626 #
straight-curve $-1 -1 $-1 31.88240800000005848 -1.516000000000006231 -99.99999999999998579 -10 -6.123233995736766282e-16 -3.108624468950438708e-15 I I #
DXID-attrib $-1 -1 $-1 $-1 $369 @10 ASM ENTITY @36 8198473f-b96a-4381-a739-725a8604a076 #
loop $-1 -1 $-1 $-1 $545 $369 #
straight-curve $-1 -1 $-1 1.600000000000028288 -25.65250251438478557 -97.33288287465668986 -10 -2.787865893704196595e-15 -1.776356839400250859e-15 F -1.338400999999993068 F 8.281601000000005541 #
coedge $-1 -1 $-1 $627 $628 $374 $510 forward $629 $-1 #
edge $-1 -1 $-1 $522 -0.01553970466484586033 $514 0.9082207260385537495 $374 $630 forward @7 unknown #
coedge $-1 -1 $-1 $631 $375 $378 $517 forward $513 $-1 #
coedge $-1 -1 $-1 $375 $631 $627 $632 reversed $513 $-1 #
loop $-1 -1 $-1 $-1 $375 $581 #
vertex $-1 -1 $-1 $376 $633 #
straight-curve $-1 -1 $-1 -31.51600000000011903 -51.10926024276513147 -9.590094216290243168 -1.482708103847352904e-14 -8.660254037844401509 -4.999999999999976907 I I #
coedge $-1 -1 $-1 $378 $377 $425 $562 forward $379 $-1 #
edge $634 -1 $-1 $380 6.623200000000018406 $635 6.94320000000001869 $511 $452 forward @7 unknown #
point $-1 -1 $-1 -31.51600000000014745 -69.79999999999996874 -20.38119784648295507 #
coedge $-1 -1 $-1 $636 $382 $628 $637 forward $521 $-1 #
coedge $-1 -1 $-1 $382 $636 $384 $525 reversed $521 $-1 #
loop $-1 -1 $-1 $-1 $382 $460 #
vertex $-1 -1 $-1 $510 $638 #
straight-curve $-1 -1 $-1 -31.51600000000011903 -53.79999999999996874 -14.80940107675848161 -1.772371007991180753e-15 1.316752711071833608e-14 10 I I #
coedge $-1 -1 $-1 $385 $384 $424 $560 forward $386 $-1 #
edge $639 -1 $-1 $387 6.623200000000014853 $640 6.943200000000014249 $384 $442 forward @7 unknown #
face $641 -1 $-1 $642 $386 $5 $-1 $444 reversed single #
point $-1 -1 $-1 -31.51600000000010837 -53.79999999999999005 -29.61880215351697387 #
DXID-attrib $-1 -1 $-1 $-1 $390 @10 ASM ENTITY @36 472e7c20-c211-4538-92df-c5adcf7d5258 #
vertex $-1 -1 $-1 $390 $643 #
DXID-attrib $-1 -1 $-1 $-1 $391 @10 ASM ENTITY @36 10114637-7885-4964-af3b-6c3e24882741 #
vertex $-1 -1 $-1 $391 $644 #
coedge $-1 -1 $-1 $401 $394 $645 $646 reversed $43 $-1 #
coedge $-1 -1 $-1 $647 $648 $394 $534 forward $429 $-1 #
edge $-1 -1 $-1 $649 -10.00000000000000178 $538 9.999999999999998224 $394 $650 forward @7 tangent #
coedge $-1 -1 $-1 $419 $395 $397 $540 reversed $537 $-1 #
coedge $-1 -1 $-1 $395 $419 $651 $652 reversed $537 $-1 #
loop $-1 -1 $-1 $-1 $535 $642 #
vertex $-1 -1 $-1 $396 $653 #
straight-curve $-1 -1 $-1 -31.51599999999999113 5.548863824875254203 -99.99999999999998579 3.994699682152716279e-15 2.248816000000001925 6.990724443767262165e-16 F -41.06554908221708899 F -1.570796326794896558 #
edge $-1 -1 $-1 $421 -3.631600000000005934 $398 -3.311600000000006094 $535 $654 forward @7 tangent #
point $-1 -1 $-1 -31.51600000000003376 -17.11435283193015877 -99.99999999999998579 #
coedge $-1 -1 $-1 $485 $484 $401 $543 forward $229 $-1 #
edge $-1 -1 $-1 $546 -0.3217505543966426851 $655 0.3217505543966414083 $401 $656 forward @7 unknown #
coedge $-1 -1 $-1 $413 $402 $484 $604 reversed $507 $-1 #
coedge $-1 -1 $-1 $402 $413 $404 $548 reversed $507 $-1 #
vertex $-1 -1 $-1 $543 $657 #
straight-curve $-1 -1 $-1 -31.51600000000019364 -85.7893708940098918 55.75797182949253283 1.345187126423388864e-14 8.000000000000005329 5.999999999999993783 I I #
edge $-1 -1 $-1 $406 3.311600000000020749 $415 3.631600000000020145 $545 $658 forward @7 tangent #
point $-1 -1 $-1 -31.51600000000018298 -80.79999999999996874 59.49999999999998579 #
straight-curve $-1 -1 $-1 1.599999999999998312 -86.80000000000003979 47.49999999999994316 10 -1.837589179357617723e-14 -1.03707024235508876e-14 F -8.281601000000019752 F 1.338400999999978636 #
coedge $-1 -1 $-1 $418 $412 $659 $660 forward $116 $-1 #
vertex $-1 -1 $-1 $604 $661 #
straight-curve $-1 -1 $-1 -34.71600000000018582 -85.7893708940098918 55.75797182949253283 -1.344708826654303251e-14 -8.000000000000005329 -5.999999999999993783 I I #
point $-1 -1 $-1 -34.71600000000017872 -80.79999999999995453 59.49999999999998579 #
edge $-1 -1 $-1 $556 -10.00000000000000178 $662 10.00000000000000178 $418 $663 forward @7 tangent #
vertex $-1 -1 $-1 $420 $664 #
straight-curve $-1 -1 $-1 -34.71600000000000819 -1.515999999999930736 -100.0000000000000142 -1.837589179357618039e-14 -10 -3.451266460341926649e-30 F -0.3532431912437594135 F 8.528399999999999537 #
point $-1 -1 $-1 -34.7160000000000295 -17.11435283193016232 -100.0000000000000142 #
coedge $-1 -1 $-1 $665 $424 $636 $666 reversed $188 $-1 #
edge $-1 -1 $-1 $640 0.7725800799834525723 $529 1.696340510686854763 $424 $667 forward @7 unknown #
coedge $-1 -1 $-1 $425 $665 $631 $668 reversed $188 $-1 #
edge $-1 -1 $-1 $531 -1.9428203230275507 $635 -1.019059892324149175 $425 $669 forward @7 unknown #
straight-curve $-1 -1 $-1 -34.71600000000013608 -65.93457779007064801 -31.85050470695124503 -1.660343787787374164e-14 -8.660254037844381969 5.000000000000008882 I I #
DXID-attrib $-1 -1 $-1 $-1 $428 @10 ASM ENTITY @36 add1f089-752b-44e2-add5-b893ae459391 #
face $670 -1 $-1 $626 $617 $5 $-1 $671 forward single #
cone-surface $-1 -1 $-1 30.00000000000002842 -1.51599999999999957 1.776356839400250465e-14 3.108624468950438609e-16 0 -1 0 4.71600000000000108 0 1 I I -0 1 2.248816000000001925 reversed I I I I #
coedge $-1 -1 $-1 $432 $431 $594 $672 forward $433 $-1 #
edge $-1 -1 $-1 $441 -1.480940107675848161 $570 -0.5571796769724484122 $470 $673 forward @7 unknown #
DXID-attrib $-1 -1 $-1 $-1 $436 @10 ASM ENTITY @36 53d328bc-1d1d-4d62-9a82-72d015e204f8 #
vertex $-1 -1 $-1 $436 $674 #
straight-curve $-1 -1 $-1 34.71600000000003661 -53.79999999999998295 -20.38119784648295507 -10 0 -2.984814368927321616e-15 I I #
DXID-attrib $-1 -1 $-1 $-1 $437 @10 ASM ENTITY @36 381377f5-050a-4b52-bf4d-77f1bafd4a81 #
plane-surface $-1 -1 $-1 34.71600000000003661 -53.79999999999999005 -29.61880215351695256 3.930262412331215239e-31 1 -1.316752711071833648e-15 -3.112610300359484951e-15 1.316752711071833608e-14 10 reverse_v I I I I #
straight-curve $-1 -1 $-1 34.71600000000003661 -47.10926024276521673 -25.75590175359972278 -1.885870201580333708e-15 8.660254037844387298 4.999999999999999112 I I #
point $-1 -1 $-1 34.71600000000003661 -53.79999999999999005 -29.61880215351695256 #
edge $-1 -1 $-1 $578 1.234460295335145563 $451 2.158220726038546644 $469 $675 forward @7 unknown #
DXID-attrib $-1 -1 $-1 $-1 $446 @10 ASM ENTITY @36 11228ef5-21bf-4528-bc15-ff2a7baf0413 #
vertex $-1 -1 $-1 $672 $676 #
straight-curve $-1 -1 $-1 34.71600000000003661 -61.79999999999996163 -15.76239569296594922 -10 0 -2.984814368927321616e-15 I I #
DXID-attrib $-1 -1 $-1 $-1 $447 @10 ASM ENTITY @36 502dc6df-f92e-4ddb-8f8e-e056094262ee #
face $677 -1 $-1 $437 $513 $5 $-1 $582 reversed single #
plane-surface $-1 -1 $-1 34.71600000000003661 -61.79999999999996163 -15.76239569296594922 -2.584925069071882641e-16 -0.4999999999999976685 0.8660254037844401509 1.885870201580327397e-15 -8.660254037844401509 -4.999999999999976907 reverse_v I I I I #
straight-curve $-1 -1 $-1 34.71600000000003661 -69.79999999999996874 -10.19059892324145977 3.112610300359484951e-15 -8.360120394759408252e-15 -10 I I #
point $-1 -1 $-1 34.71600000000003661 -69.79999999999996874 -20.38119784648294086 #
DXID-attrib $-1 -1 $-1 $-1 $454 @10 ASM ENTITY @36 bc82d296-e024-42ec-ad5f-2a7219d477e6 #
DXID-attrib $-1 -1 $-1 $-1 $460 @10 ASM ENTITY @36 ddd70041-44d1-4264-bb9a-7ef4e4b7496f #
vertex $-1 -1 $-1 $477 $678 #
straight-curve $-1 -1 $-1 34.71599999999999397 -1.515999999999939618 99.99999999999998579 6.123233995736766282e-16 -10 0 F -0.3532431912437594135 F 8.528399999999999537 #
coedge $-1 -1 $-1 $464 $463 $679 $680 reversed $465 $-1 #
edge $-1 -1 $-1 $328 -2.295308416050737194e-15 $681 1.570796326794894782 $503 $682 forward @7 unknown #
coedge $-1 -1 $-1 $616 $608 $464 $592 reversed $617 $-1 #
edge $-1 -1 $-1 $683 1.506663985920484541e-14 $466 1.570796326794925424 $591 $684 forward @7 unknown #
point $-1 -1 $-1 34.71599999999999397 -1.516000000000001791 99.99999999999998579 #
coedge $-1 -1 $-1 $470 $469 $567 $672 reversed $137 $-1 #
DXID-attrib $-1 -1 $-1 $-1 $472 @10 ASM ENTITY @36 e8dad9b1-0dcd-4762-bed2-ed0f0f74f406 #
face $685 -1 $-1 $189 $686 $5 $-1 $687 forward single #
loop $-1 -1 $-1 $-1 $651 $472 #
plane-surface $-1 -1 $-1 -31.51600000000000534 -1.515999999999996906 -100 1.776356839400250563e-16 0 -1 10 0 1.776356839400250465e-15 reverse_v I I I I #
coedge $-1 -1 $-1 $645 $659 $485 $605 reversed $473 $-1 #
coedge $-1 -1 $-1 $688 $475 $689 $690 forward $335 $-1 #
coedge $-1 -1 $-1 $475 $688 $691 $692 forward $335 $-1 #
ellipse-curve $-1 -1 $-1 34.71600000000000819 -21.79999999999987281 85.00000000000001421 -1 -3.805489422832487656e-17 -3.112610300359484557e-16 -4.681111291435603605e-15 -4.743416490252563733 14.23024947075770896 1 I I #
point $-1 -1 $-1 34.71600000000000108 -30.79999999999984794 97.00000000000002842 #
edge $-1 -1 $-1 $552 -3.631600000000008155 $546 -3.311600000000008759 $544 $693 forward @7 tangent #
edge $-1 -1 $-1 $655 3.311600000000006538 $606 3.631600000000006823 $599 $694 forward @7 tangent #
vertex $-1 -1 $-1 $486 $695 #
ellipse-curve $-1 -1 $-1 -34.71600000000010766 -21.79999999999987281 85 1 -1.814411733628575095e-15 1.780342670809296758e-16 -3.803402924291422752e-15 -4.743416490252561957 14.23024947075770896 1 I I #
coedge $-1 -1 $-1 $591 $497 $488 $609 forward $617 $-1 #
edge $-1 -1 $-1 $362 -0.03664079999999980686 $466 0.2833592000000000333 $488 $696 forward @7 tangent #
straight-curve $-1 -1 $-1 33.11599999999999966 -21.79999999999987281 100.0000000000000142 -10 4.034559369077151902e-16 -3.108624468950438708e-15 F -4.810000999999997973 F 4.810001000000001525 #
DXID-attrib $-1 -1 $-1 $-1 $494 @10 ASM ENTITY @36 c1b96ffb-2a8b-4732-841f-41763c8cea5c #
face $697 -1 $-1 $447 $629 $5 $-1 $613 reversed single #
plane-surface $-1 -1 $-1 34.71600000000003661 -53.79999999999998295 -20.38119784648295507 -2.584925069071878204e-16 0.500000000000000222 0.8660254037844385966 -1.226740098779151441e-15 -8.660254037844385522 5.000000000000001776 reverse_v I I I I #
coedge $-1 -1 $-1 $698 $699 $496 $615 forward $700 $-1 #
edge $-1 -1 $-1 $621 0 $618 20 $614 $701 forward @7 tangent #
coedge $-1 -1 $-1 $497 $591 $702 $703 reversed $617 $-1 #
loop $-1 -1 $-1 $-1 $608 $565 #
vertex $-1 -1 $-1 $703 $704 #
ellipse-curve $-1 -1 $-1 29.99999999999999645 -1.51599999999999957 100 -3.108624468950438609e-16 0 1 1.516000000000001791 0 0 1 I I #
coedge $-1 -1 $-1 $503 $499 $705 $706 forward $504 $-1 #
vertex $-1 -1 $-1 $500 $707 #
ellipse-curve $-1 -1 $-1 30.00000000000005684 -1.51599999999999957 -100 -3.108624468950438609e-16 0 1 1.516000000000001791 2.775557561562891351e-15 0 1 I I #
DXID-attrib $-1 -1 $-1 $-1 $501 @10 ASM ENTITY @36 6e17888e-d20c-4960-953c-d2e3195569b8 #
face $708 -1 $-1 $709 $710 $5 $-1 $711 forward single #
cone-surface $-1 -1 $-1 30.00000000000002842 -1.51599999999999957 1.776356839400250465e-14 3.108624468950438609e-16 0 -1 0 1.516000000000000458 0 1 I I -0 1 2.248816000000001925 reversed I I I I #
face $712 -1 $-1 $501 $504 $5 $-1 $713 forward single #
coedge $-1 -1 $-1 $714 $509 $512 $632 forward $629 $-1 #
coedge $-1 -1 $-1 $509 $714 $519 $637 reversed $629 $-1 #
loop $-1 -1 $-1 $-1 $509 $612 #
straight-curve $-1 -1 $-1 -31.51600000000011903 -53.93457779007061959 -20.30349932315874639 -1.659945204646470328e-14 -8.660254037844385522 5.000000000000001776 I I #
coedge $-1 -1 $-1 $512 $511 $561 $668 forward $513 $-1 #
edge $715 -1 $-1 $514 6.62320000000001663 $716 6.943200000000016914 $627 $579 forward @7 unknown #
point $-1 -1 $-1 -31.51600000000012969 -61.79999999999996163 -15.76239569296596876 #
DXID-attrib $-1 -1 $-1 $-1 $517 @10 ASM ENTITY @36 14e446ee-c5e5-4e54-a382-bfc51da6c7d3 #
vertex $-1 -1 $-1 $517 $717 #
coedge $-1 -1 $-1 $520 $519 $559 $666 forward $521 $-1 #
edge $718 -1 $-1 $522 6.623200000000014853 $719 6.943200000000015137 $519 $571 forward @7 unknown #
point $-1 -1 $-1 -31.51600000000011192 -53.79999999999998295 -20.38119784648297639 #
DXID-attrib $-1 -1 $-1 $-1 $525 @10 ASM ENTITY @36 0207cac0-1565-4dbe-b7a1-da34d6811b4a #
vertex $-1 -1 $-1 $666 $720 #
DXID-attrib $-1 -1 $-1 $-1 $526 @10 ASM ENTITY @36 3332c2c0-c037-407f-9d29-ee9f9786733f #
face $721 -1 $-1 $280 $537 $5 $-1 $722 forward single #
point $-1 -1 $-1 -34.71600000000012187 -61.79999999999999716 -34.23760430703398328 #
point $-1 -1 $-1 -34.71600000000013608 -69.79999999999998295 -29.61880215351697743 #
coedge $-1 -1 $-1 $723 $599 $532 $646 forward $473 $-1 #
edge $-1 -1 $-1 $655 -12.16145021419051098 $649 -3.141592653589792672 $532 $724 forward @7 unknown #
coedge $-1 -1 $-1 $725 $533 $726 $727 forward $429 $-1 #
coedge $-1 -1 $-1 $533 $725 $728 $729 reversed $429 $-1 #
vertex $-1 -1 $-1 $534 $730 #
straight-curve $-1 -1 $-1 -31.51600000000002311 -1.515999999999992909 -4.096761006311037669e-15 1.772371007991204616e-15 0 -10 I I #
coedge $-1 -1 $-1 $691 $726 $536 $652 forward $597 $-1 #
edge $-1 -1 $-1 $538 -0.03664080000000025095 $556 0.2833591999999995892 $536 $731 forward @7 tangent #
point $-1 -1 $-1 -31.51600000000000534 -1.51599999999999735 -99.99999999999998579 #
straight-curve $-1 -1 $-1 1.600000000000026734 -17.11435283193015167 -100 10 2.787865893704196595e-15 1.776356839400250465e-15 F -8.281601000000005541 F 1.338400999999993068 #
vertex $-1 -1 $-1 $646 $732 #
ellipse-curve $-1 -1 $-1 -31.51600000000010837 -21.79999999999987281 85 -1 1.814411733628575095e-15 -1.772371007991204616e-16 -3.803402924291422752e-15 -4.743416490252561957 14.23024947075770896 1 I I #
point $-1 -1 $-1 -31.51600000000009771 -30.79999999999986926 97 #
straight-curve $-1 -1 $-1 1.600000000000021627 -80.80000000000001137 59.49999999999995026 -10 1.837589179357617723e-14 1.03707024235508876e-14 F -1.338400999999978636 F 8.281601000000019752 #
coedge $-1 -1 $-1 $599 $723 $551 $660 reversed $473 $-1 #
edge $-1 -1 $-1 $606 -12.16145021419051275 $662 -3.141592653589792672 $659 $733 forward @7 unknown #
point $-1 -1 $-1 -34.71600000000009345 -30.79999999999986926 97 #
vertex $-1 -1 $-1 $555 $734 #
straight-curve $-1 -1 $-1 -34.7160000000000295 -1.515999999999988468 -5.775763864466738603e-15 -1.780342670809296708e-15 0 10 I I #
point $-1 -1 $-1 -34.71600000000000819 -1.515999999999992909 -100.0000000000000142 #
coedge $-1 -1 $-1 $561 $559 $714 $735 reversed $188 $-1 #
edge $-1 -1 $-1 $719 0.5571796769724497445 $640 1.480940107675849493 $559 $736 forward @7 unknown #
straight-curve $-1 -1 $-1 -34.71600000000010056 -47.10926024276515989 -25.75590175359970857 -1.482309520706445282e-14 -8.660254037844387298 -4.999999999999999112 I I #
edge $-1 -1 $-1 $635 -2.15822072603855375 $716 -1.234460295335152447 $561 $737 forward @7 unknown #
straight-curve $-1 -1 $-1 -34.71600000000015029 -69.79999999999995453 -10.19059892324147043 -1.780342670809281325e-15 8.360120394759408252e-15 10 I I #
DXID-attrib $-1 -1 $-1 $-1 $565 @10 ASM ENTITY @36 e04395b6-d772-419f-a043-117fb1766f84 #
plane-surface $-1 -1 $-1 31.51599999999999824 -1.51599999999999957 100.0000000000000142 -3.108624468950438609e-16 0 1 -10 0 -3.108624468950438708e-15 reverse_v I I I I #
edge $-1 -1 $-1 $570 -0.01553970466485103848 $578 0.9082207260385486425 $594 $738 forward @7 unknown #
straight-curve $-1 -1 $-1 34.71600000000003661 -53.79999999999996874 -14.80940107675847273 -3.112610300359484951e-15 1.316752711071833608e-14 10 I I #
point $-1 -1 $-1 34.71600000000003661 -53.79999999999998295 -20.38119784648295507 #
straight-curve $-1 -1 $-1 34.71600000000003661 -51.1092602427651741 -9.590094216290252049 1.885870201580327397e-15 -8.660254037844401509 -4.999999999999976907 I I #
point $-1 -1 $-1 34.71600000000003661 -61.79999999999996163 -15.76239569296594922 #
DXID-attrib $-1 -1 $-1 $-1 $581 @10 ASM ENTITY @36 d768e297-91af-443e-a25c-839dc58440f3 #
point $-1 -1 $-1 34.71599999999999397 -21.79999999999987281 99.99999999999998579 #
coedge $-1 -1 $-1 $739 $740 $589 $680 forward $741 $-1 #
edge $-1 -1 $-1 $683 -20 $681 0 $679 $742 forward @7 tangent #
vertex $-1 -1 $-1 $590 $743 #
ellipse-curve $-1 -1 $-1 30.00000000000005684 -1.51599999999999957 -100 -3.108624468950438609e-16 0 1 4.716000000000000192 8.604228440844963188e-15 0 1 I I #
vertex $-1 -1 $-1 $680 $744 #
ellipse-curve $-1 -1 $-1 29.99999999999999645 -1.51599999999999957 99.99999999999998579 3.108624468950438609e-16 0 -1 -1.332267629550187849e-13 4.716000000000000192 0 1 I I #
DXID-attrib $-1 -1 $-1 $-1 $596 @10 ASM ENTITY @36 efa1f510-ddbe-47f4-9ef5-3e6e0102d31a #
loop $-1 -1 $-1 $-1 $745 $596 #
plane-surface $-1 -1 $-1 -34.71600000000003661 -1.515999999999999348 100 -1.776356839400250563e-16 0 1 -10 0 -1.776356839400250465e-15 reverse_v I I I I #
coedge $-1 -1 $-1 $601 $600 $746 $747 reversed $335 $-1 #
coedge $-1 -1 $-1 $745 $748 $600 $690 reversed $686 $-1 #
edge $-1 -1 $-1 $662 1.35364342485043337e-15 $749 1.570796326794896558 $689 $750 forward @7 unknown #
coedge $-1 -1 $-1 $751 $651 $601 $692 reversed $597 $-1 #
edge $-1 -1 $-1 $752 1.506663985920484225e-14 $556 1.570796326794923425 $691 $753 forward @7 unknown #
straight-curve $-1 -1 $-1 1.599999999999986322 -30.79999999999987281 97.00000000000001421 10 -2.179812776307961858e-15 1.776356839400255592e-15 F -8.281601000000007318 F 1.338400999999991958 #
straight-curve $-1 -1 $-1 1.599999999999987876 -21.79999999999988702 100 -10 2.179812776307961858e-15 -1.776356839400255592e-15 F -1.338400999999991958 F 8.281601000000007318 #
point $-1 -1 $-1 -34.71600000000007924 -21.79999999999987637 100.0000000000000142 #
straight-curve $-1 -1 $-1 31.88240799999999453 -1.516000000000001791 100.0000000000000142 10 6.123233995736766282e-16 3.108624468950438708e-15 I I #
DXID-attrib $-1 -1 $-1 $-1 $612 @10 ASM ENTITY @36 abeb6129-5c4e-49bc-9a2e-fe3313bf180d #
coedge $-1 -1 $-1 $754 $614 $755 $756 forward $700 $-1 #
coedge $-1 -1 $-1 $614 $754 $757 $758 forward $700 $-1 #
loop $-1 -1 $-1 $-1 $698 $759 #
straight-curve $-1 -1 $-1 30.00000000000002842 0 -100 -3.108624468950438708e-15 0 10 F 0 F 20 #
coedge $-1 -1 $-1 $760 $755 $616 $703 forward $761 $-1 #
edge $-1 -1 $-1 $618 0 $683 0.3200000000000000622 $702 $762 forward @7 tangent #
point $-1 -1 $-1 29.99999999999996447 0 99.99999999999998579 #
coedge $-1 -1 $-1 $757 $763 $620 $706 reversed $710 $-1 #
edge $-1 -1 $-1 $621 0 $681 0.3200000000000000622 $620 $764 forward @7 tangent #
point $-1 -1 $-1 30.00000000000002842 0 -100 #
DXID-attrib $-1 -1 $-1 $-1 $624 @10 ASM ENTITY @36 015d64d0-7221-49c0-a4af-1d5337c7d68e #
face $765 -1 $-1 $759 $761 $5 $-1 $766 forward single #
loop $-1 -1 $-1 $-1 $763 $624 #
plane-surface $-1 -1 $-1 30.00000000000002842 0 -100 2.96059473233375061e-16 0 -1 10 0 2.960594732333750512e-15 reverse_v I I I I #
DXID-attrib $-1 -1 $-1 $-1 $626 @10 ASM ENTITY @36 e28b908f-1c36-41e9-9f88-9404f84ccbbf #
plane-surface $-1 -1 $-1 34.71600000000005792 -1.51599999999999091 -99.99999999999998579 3.108624468950438609e-16 0 -1 10 0 3.108624468950438708e-15 reverse_v I I I I #
coedge $-1 -1 $-1 $628 $627 $665 $735 forward $629 $-1 #
DXID-attrib $-1 -1 $-1 $-1 $632 @10 ASM ENTITY @36 89cd6703-1851-47be-b92d-93a552df135c #
vertex $-1 -1 $-1 $632 $767 #
point $-1 -1 $-1 -34.71600000000015029 -69.79999999999996874 -20.38119784648296218 #
DXID-attrib $-1 -1 $-1 $-1 $637 @10 ASM ENTITY @36 bd4811e5-98c9-4ca3-895d-832bbb5b5607 #
vertex $-1 -1 $-1 $735 $768 #
point $-1 -1 $-1 -34.71600000000010056 -53.79999999999999005 -29.61880215351697743 #
DXID-attrib $-1 -1 $-1 $-1 $642 @10 ASM ENTITY @36 b0bbc11f-f202-4649-aaba-bff4df8cfca1 #
plane-surface $-1 -1 $-1 -31.51600000000000534 -1.515999999999935177 -100 1.776356839400250563e-16 2.465190328815661892e-32 -1 1.837589179357618039e-14 10 3.451266460341926649e-30 reverse_v I I I I #
coedge $-1 -1 $-1 $659 $645 $745 $769 reversed $473 $-1 #
straight-curve $-1 -1 $-1 -31.51600000000002666 5.54886382487519203 100.0000000000000142 3.994699682152716279e-15 2.248816000000001925 6.990724443767262165e-16 F -41.06554908221708899 F -1.570796326794896558 #
coedge $-1 -1 $-1 $648 $647 $754 $770 reversed $429 $-1 #
coedge $-1 -1 $-1 $651 $751 $647 $727 reversed $597 $-1 #
edge $-1 -1 $-1 $538 -3.661685437418058138e-16 $771 1.57079632679493586 $647 $772 forward @7 unknown #
coedge $-1 -1 $-1 $748 $745 $648 $729 forward $686 $-1 #
edge $-1 -1 $-1 $649 1.464674174967223255e-15 $773 1.570796326794896558 $648 $774 forward @7 unknown #
point $-1 -1 $-1 -31.51600000000004087 -1.51599999999999735 100.0000000000000142 #
straight-curve $-1 -1 $-1 -31.88240800000000874 -1.51599999999999735 -100 -10 1.837589179357618039e-14 -1.776356839400250465e-15 I I #
point $-1 -1 $-1 -31.5160000000000764 -21.79999999999987637 100.0000000000000142 #
straight-curve $-1 -1 $-1 -34.7160000000000295 5.548863824875196471 100.0000000000000142 3.994699682152716279e-15 2.248816000000001925 6.990724443767262165e-16 F -41.06554908221708899 F -1.570796326794896558 #
point $-1 -1 $-1 -34.71600000000004371 -1.515999999999992909 100.0000000000000142 #
edge $-1 -1 $-1 $716 -0.9082207260385539715 $719 0.01553970466484586033 $665 $775 forward @7 unknown #
straight-curve $-1 -1 $-1 -34.71600000000011477 -53.79999999999996874 -14.80940107675848161 1.780342670809273042e-15 -1.316752711071833608e-14 -10 I I #
straight-curve $-1 -1 $-1 -34.71600000000011477 -51.10926024276511725 -9.590094216290239615 1.482309520706448437e-14 8.660254037844401509 4.999999999999976907 I I #
straight-curve $-1 -1 $-1 34.71600000000003661 -53.93457779007066222 -20.30349932315870021 -1.226740098779151441e-15 -8.660254037844385522 5.000000000000001776 I I #
coedge $-1 -1 $-1 $746 $679 $763 $776 forward $741 $-1 #
coedge $-1 -1 $-1 $679 $746 $760 $777 forward $741 $-1 #
loop $-1 -1 $-1 $-1 $679 $778 #
straight-curve $-1 -1 $-1 30.00000000000002842 3.200000000000000622 -100 3.108624468950438708e-15 0 -10 F -20 F -0 #
point $-1 -1 $-1 30.00000000000002842 3.200000000000000622 -100 #
point $-1 -1 $-1 29.99999999999996447 3.200000000000000622 99.99999999999998579 #
coedge $-1 -1 $-1 $728 $689 $723 $769 forward $686 $-1 #
coedge $-1 -1 $-1 $740 $739 $688 $747 forward $741 $-1 #
edge $-1 -1 $-1 $752 -20 $749 -0 $746 $779 forward @7 tangent #
coedge $-1 -1 $-1 $689 $728 $780 $781 forward $686 $-1 #
vertex $-1 -1 $-1 $690 $782 #
ellipse-curve $-1 -1 $-1 -30.00000000000003908 -1.51599999999999957 100.0000000000000142 1.776356839400250563e-16 0 -1 -4.716000000000000192 2.775557561562891351e-16 0 1 I I #
coedge $-1 -1 $-1 $726 $691 $783 $784 reversed $597 $-1 #
vertex $-1 -1 $-1 $747 $785 #
ellipse-curve $-1 -1 $-1 -30.00000000000000355 -1.51599999999999957 -100.0000000000000142 -1.776356839400250563e-16 0 1 1.332267629550187849e-13 4.716000000000000192 0 1 I I #
coedge $-1 -1 $-1 $699 $698 $725 $770 forward $700 $-1 #
coedge $-1 -1 $-1 $702 $780 $698 $756 reversed $761 $-1 #
edge $786 -1 $-1 $618 0 $773 5.999999999999997335 $755 $787 forward @7 unknown #
coedge $-1 -1 $-1 $783 $705 $699 $758 reversed $710 $-1 #
edge $788 -1 $-1 $771 0 $621 6 $757 $789 forward @7 unknown #
face $790 -1 $-1 $778 $700 $5 $-1 $791 reversed single #
coedge $-1 -1 $-1 $780 $702 $740 $777 reversed $761 $-1 #
loop $-1 -1 $-1 $-1 $760 $709 #
straight-curve $-1 -1 $-1 29.99999999999996447 0 99.99999999999998579 0 10 0 I I #
coedge $-1 -1 $-1 $705 $783 $739 $776 reversed $710 $-1 #
straight-curve $-1 -1 $-1 30.00000000000002842 0 -100 0 10 0 I I #
DXID-attrib $-1 -1 $-1 $-1 $709 @10 ASM ENTITY @36 c0d8cd7f-69ee-4688-bac8-58ec91292d78 #
plane-surface $-1 -1 $-1 -2.220446049250313081e-14 0 99.99999999999998579 0 0 1 -10 0 0 reverse_v I I I I #
point $-1 -1 $-1 -34.71600000000013608 -61.79999999999996163 -15.76239569296596876 #
point $-1 -1 $-1 -34.71600000000011477 -53.79999999999998295 -20.38119784648297994 #
edge $-1 -1 $-1 $662 -0.2833592000000000333 $649 0.03664080000000025095 $723 $792 forward @7 tangent #
edge $-1 -1 $-1 $773 0 $771 20 $754 $793 forward @7 tangent #
vertex $-1 -1 $-1 $784 $794 #
ellipse-curve $-1 -1 $-1 -30.00000000000000355 -1.51599999999999957 -99.99999999999998579 1.776356839400250563e-16 0 -1 -1.516000000000001791 2.775557561562891351e-15 0 1 I I #
vertex $-1 -1 $-1 $729 $795 #
ellipse-curve $-1 -1 $-1 -30.00000000000003908 -1.51599999999999957 100.0000000000000142 1.776356839400250563e-16 0 -1 -1.516000000000001791 0 0 1 I I #
straight-curve $-1 -1 $-1 -34.71600000000012187 -53.93457779007061959 -20.30349932315874995 1.660343787787374795e-14 8.660254037844385522 -5.000000000000001776 I I #
edge $796 -1 $-1 $681 -6 $752 0 $763 $797 forward @7 unknown #
edge $798 -1 $-1 $749 -5.999999999999997335 $683 0 $760 $799 forward @7 unknown #
face $800 -1 $-1 $-1 $741 $5 $-1 $801 forward single #
straight-curve $-1 -1 $-1 -30.00000000000000711 3.200000000000000622 99.99999999999998579 -1.776356839400250465e-15 0 10 F -20 F -0 #
coedge $-1 -1 $-1 $755 $760 $748 $781 reversed $761 $-1 #
edge $-1 -1 $-1 $773 0 $749 0.3200000000000000622 $748 $802 forward @7 tangent #
point $-1 -1 $-1 -30.00000000000000711 3.200000000000000622 99.99999999999998579 #
coedge $-1 -1 $-1 $763 $757 $751 $784 forward $710 $-1 #
edge $-1 -1 $-1 $771 0 $752 0.3200000000000000622 $783 $803 forward @7 tangent #
point $-1 -1 $-1 -29.99999999999997158 3.200000000000000622 -100.0000000000000142 #
DXID-attrib $-1 -1 $-1 $-1 $756 @10 ASM ENTITY @36 5a7b50ba-f5f2-4a19-978e-a622deeb6cbd #
straight-curve $-1 -1 $-1 29.99999999999996447 0 99.99999999999998579 -10 0 0 F 0 F 5.999999999999997335 #
DXID-attrib $-1 -1 $-1 $-1 $758 @10 ASM ENTITY @36 f300d5c3-60a9-4e3f-b2b7-e5b2cc7fcc7f #
straight-curve $-1 -1 $-1 -29.99999999999997158 0 -100.0000000000000142 10 0 2.960594732333750512e-15 F 0 F 6 #
DXID-attrib $-1 -1 $-1 $-1 $759 @10 ASM ENTITY @36 e42b8d38-5853-4923-9abc-1e260ec8dc34 #
plane-surface $-1 -1 $-1 4.996003610813204432e-15 0 -1.665334536937734811e-14 0 1 0 0 0 -10 reverse_v I I I I #
straight-curve $-1 -1 $-1 -31.88240800000004427 -1.51599999999999735 100 10 -1.837589179357618039e-14 1.776356839400250465e-15 I I #
straight-curve $-1 -1 $-1 -30.00000000000000711 0 99.99999999999998579 1.776356839400250465e-15 0 -10 F 0 F 20 #
point $-1 -1 $-1 -29.99999999999997158 0 -100.0000000000000142 #
point $-1 -1 $-1 -30.00000000000000711 0 99.99999999999998579 #
DXID-attrib $-1 -1 $-1 $-1 $776 @10 ASM ENTITY @36 717b23b4-234e-4e1d-9115-2c6f60228ae6 #
straight-curve $-1 -1 $-1 -29.99999999999997158 3.200000000000000622 -100.0000000000000142 -10 0 -2.960594732333750512e-15 F -6 F -0 #
DXID-attrib $-1 -1 $-1 $-1 $777 @10 ASM ENTITY @36 816fb94d-711c-4229-add8-702c44347cf9 #
straight-curve $-1 -1 $-1 29.99999999999996447 3.200000000000000622 99.99999999999998579 10 0 0 F -5.999999999999997335 F -0 #
DXID-attrib $-1 -1 $-1 $-1 $778 @10 ASM ENTITY @36 d51ed0b0-90e7-40d3-8689-c1d74ee2a227 #
plane-surface $-1 -1 $-1 4.440892098500626162e-15 3.200000000000000622 -1.554312234475219157e-14 0 1 0 0 0 -10 reverse_v I I I I #
straight-curve $-1 -1 $-1 -30.00000000000000711 0 99.99999999999998579 0 10 0 I I #
straight-curve $-1 -1 $-1 -29.99999999999997158 0 -100.0000000000000142 0 10 0 I I #
End-of-ACIS-data 