700 0 1 0           
30 Autodesk Translation Framework 20 ASM 226.6.1.65535 NT 24 Wed Jul 29 14:38:21 2026 
1 9.999999999999999547e-07 1.000000000000000036e-10 
body $1 -1 $-1 $2 $-1 $3 #
rgb_color-st-attrib $-1 -1 $4 $-1 $0 0.7490196078431372584 0.7490196078431372584 0.7490196078431372584 #
lump $-1 -1 $-1 $-1 $5 $0 #
transform $-1 -1 1 0 0 0 1 0 0 0 1 0 0 0 1 no_rotate no_reflect no_shear #
DXID-attrib $-1 -1 $-1 $1 $0 @10 ASM ENTITY @112 SP15V1 PEDAL IZQUIERDO.IPT|:|B05ACE12F89908F90E26FF4DB8BAAEEB3459F66F|:|DA4B9237BACCCDF19C0760CAB7AEC4A8359010B0 #
shell $-1 -1 $-1 $-1 $-1 $6 $-1 $2 #
face $7 -1 $-1 $8 $9 $5 $-1 $10 forward single #
DXID-attrib $-1 -1 $-1 $-1 $6 @10 ASM ENTITY @36 1af9b94a-fb82-4d78-aa7a-5613abaa7ed8 #
face $11 -1 $-1 $12 $13 $5 $-1 $14 reversed single #
loop $-1 -1 $-1 $-1 $15 $6 #
cone-surface $-1 -1 $-1 33.1160000000000494 -71.79999999999998295 47.14070580672084532 -1 -6.123233995736766036e-17 3.282501643029073125e-16 0 -13.28668967871266204 6.961600202653867697 1 I I 0 1 14.99999999999999822 forward I I I I #
DXID-attrib $-1 -1 $-1 $-1 $8 @10 ASM ENTITY @36 15db415a-c9df-4396-8fd7-277fc700d9fd #
face $16 -1 $-1 $17 $18 $5 $-1 $19 forward single #
loop $-1 -1 $-1 $-1 $20 $8 #
plane-surface $-1 -1 $-1 34.71600000000005792 -21.79999999999996874 100 -3.047387809265013269e-16 0.5692099788303084384 -0.8221921916437786582 -1.458844474291035754e-15 -8.221921916437786138 -5.69209978830308394 forward_v I I I I #
coedge $-1 -1 $-1 $21 $22 $23 $24 forward $9 $-1 #
DXID-attrib $-1 -1 $-1 $-1 $12 @10 ASM ENTITY @36 7182b139-53ea-4d00-b7f4-f0915ca94158 #
face $25 -1 $-1 $26 $27 $5 $-1 $28 forward single #
loop $-1 -1 $-1 $29 $30 $12 #
plane-surface $-1 -1 $-1 34.7160000000000295 -42.39178404378118614 -5.424749019165831482e-15 1 3.805489422832487656e-17 -3.112610300359484557e-16 3.112610300359484557e-15 3.108624468950438708e-15 10 forward_v I I I I #
coedge $-1 -1 $-1 $31 $32 $22 $33 reversed $13 $-1 #
coedge $-1 -1 $-1 $34 $15 $35 $36 forward $9 $-1 #
coedge $-1 -1 $-1 $15 $34 $20 $33 forward $9 $-1 #
coedge $-1 -1 $-1 $37 $38 $15 $24 reversed $39 $-1 #
edge $-1 -1 $-1 $40 -0.4826258315949628064 $41 0.4826258315949636946 $23 $42 forward @7 unknown #
DXID-attrib $-1 -1 $-1 $-1 $17 @10 ASM ENTITY @36 a81aff66-6a59-4fa5-8436-3bda516b3bfa #
face $43 -1 $-1 $44 $45 $5 $-1 $46 forward single #
loop $-1 -1 $-1 $-1 $47 $17 #
cone-surface $-1 -1 $-1 33.1160000000000565 -17.11435283193015167 84.99999999999998579 1 8.634793176872594376e-17 -3.108624468950438609e-16 4.652518710121738939e-15 -4.472513660132849012 14.31770308254522739 1 I I 0 1 15.00000000000000178 forward I I I I #
loop $-1 -1 $-1 $-1 $48 $12 #
coedge $-1 -1 $-1 $49 $50 $51 $52 forward $18 $-1 #
coedge $-1 -1 $-1 $53 $20 $54 $55 reversed $13 $-1 #
coedge $-1 -1 $-1 $20 $53 $37 $56 reversed $13 $-1 #
edge $-1 -1 $-1 $57 -0.1600000000000001421 $40 0.1600000000000001421 $20 $58 forward @7 tangent #
coedge $-1 -1 $-1 $22 $21 $48 $59 forward $9 $-1 #
coedge $-1 -1 $-1 $60 $61 $21 $36 reversed $62 $-1 #
edge $-1 -1 $-1 $41 -0.1600000000000001421 $63 0.159999999999999698 $35 $64 forward @7 tangent #
coedge $-1 -1 $-1 $65 $23 $32 $56 forward $39 $-1 #
coedge $-1 -1 $-1 $23 $66 $60 $67 forward $39 $-1 #
loop $-1 -1 $-1 $68 $23 $69 #
vertex $-1 -1 $-1 $24 $70 #
vertex $-1 -1 $-1 $24 $71 #
ellipse-curve $-1 -1 $-1 31.51600000000004798 -71.79999999999998295 47.14070580672084532 1 3.805489422832487656e-17 -3.104638637541392661e-16 0 -13.28668967871266204 6.961600202653867697 1 I I #
DXID-attrib $-1 -1 $-1 $-1 $26 @10 ASM ENTITY @36 45821963-d16d-406e-8d22-314b01a26434 #
face $72 -1 $-1 $73 $74 $5 $-1 $75 forward single #
loop $-1 -1 $-1 $-1 $76 $26 #
plane-surface $-1 -1 $-1 31.51600000000005863 -1.516000000000001791 99.99999999999998579 3.108624468950439102e-16 -3.108624468950438609e-16 1 6.123233995736756422e-16 -10 -3.108624468950438708e-15 forward_v I I I I #
coedge $-1 -1 $-1 $77 $78 $79 $80 forward $27 $-1 #
coedge $-1 -1 $-1 $81 $54 $34 $59 reversed $29 $-1 #
coedge $-1 -1 $-1 $82 $30 $83 $84 forward $18 $-1 #
coedge $-1 -1 $-1 $30 $85 $86 $87 forward $18 $-1 #
coedge $-1 -1 $-1 $88 $89 $30 $52 reversed $90 $-1 #
edge $-1 -1 $-1 $91 -0.4463405106868439387 $92 0.4774199200165535339 $30 $93 forward @7 unknown #
coedge $-1 -1 $-1 $32 $31 $78 $94 reversed $13 $-1 #
coedge $-1 -1 $-1 $48 $79 $31 $55 forward $29 $-1 #
edge $-1 -1 $-1 $95 -3.224005379985150466 $57 3.427194634300906095 $54 $96 forward @7 unknown #
edge $-1 -1 $-1 $40 -3.427194634300906095 $97 3.224005379985150466 $37 $98 forward @7 unknown #
vertex $-1 -1 $-1 $59 $99 #
straight-curve $-1 -1 $-1 33.1160000000000494 -80.33814968245462751 59.47358868137754229 -10 -6.123233995736768255e-16 3.282501643029073717e-15 F -4.810000999999998861 F 4.810000999999999749 #
edge $-1 -1 $-1 $63 -0.4826258315949636946 $57 0.4826258315949628064 $48 $100 forward @7 unknown #
coedge $-1 -1 $-1 $101 $35 $38 $67 reversed $62 $-1 #
coedge $-1 -1 $-1 $35 $101 $81 $102 forward $62 $-1 #
loop $-1 -1 $-1 $-1 $35 $103 #
vertex $-1 -1 $-1 $36 $104 #
straight-curve $-1 -1 $-1 33.1160000000000494 -86.79999999999998295 47.14070580672083111 10 6.123233995736766282e-16 -3.282501643029073322e-15 F -4.810000999999999749 F 4.810000999999998861 #
coedge $-1 -1 $-1 $105 $37 $106 $107 reversed $39 $-1 #
coedge $-1 -1 $-1 $38 $108 $109 $110 reversed $39 $-1 #
edge $-1 -1 $-1 $111 5.250000000000000888 $41 14.71407058067208595 $38 $112 forward @7 unknown #
loop $-1 -1 $-1 $-1 $113 $69 #
face $114 -1 $-1 $115 $39 $5 $-1 $116 reversed single #
point $-1 -1 $-1 31.51600000000005153 -80.33814968245462751 59.47358868137754229 #
point $-1 -1 $-1 31.51600000000004798 -86.79999999999998295 47.14070580672084532 #
DXID-attrib $-1 -1 $-1 $-1 $44 @10 ASM ENTITY @36 91cfde4f-92b0-4587-9b5b-804b91faa0b2 #
face $117 -1 $-1 $118 $119 $5 $-1 $14 reversed single #
loop $-1 -1 $-1 $-1 $120 $44 #
cone-surface $-1 -1 $-1 1.600000000000023848 -17.11435283193014101 85 1 2.78786589370419837e-16 -1.776356839400250563e-16 3.78017145197391279e-15 -4.472513660132849012 14.31770308254522739 1 I I 0 1 15.00000000000000178 forward I I I I #
coedge $-1 -1 $-1 $121 $122 $77 $123 reversed $45 $-1 #
coedge $-1 -1 $-1 $106 $47 $76 $123 forward $27 $-1 #
coedge $-1 -1 $-1 $47 $106 $53 $94 forward $27 $-1 #
coedge $-1 -1 $-1 $54 $124 $47 $80 reversed $29 $-1 #
edge $-1 -1 $-1 $95 -0.302772331802485084 $125 0.302772331802484862 $79 $126 forward @7 unknown #
coedge $-1 -1 $-1 $127 $48 $61 $102 reversed $29 $-1 #
coedge $-1 -1 $-1 $128 $49 $129 $130 forward $18 $-1 #
coedge $-1 -1 $-1 $131 $132 $49 $84 reversed $133 $-1 #
edge $-1 -1 $-1 $92 -1.696340510686846326 $134 -0.7725800799834469101 $49 $135 forward @7 unknown #
coedge $-1 -1 $-1 $50 $128 $136 $137 forward $18 $-1 #
coedge $-1 -1 $-1 $138 $139 $50 $87 reversed $140 $-1 #
edge $-1 -1 $-1 $141 1.019059892324150063 $91 1.942820323027548923 $50 $142 forward @7 unknown #
coedge $-1 -1 $-1 $143 $51 $139 $144 forward $90 $-1 #
coedge $-1 -1 $-1 $51 $143 $131 $145 reversed $90 $-1 #
loop $-1 -1 $-1 $-1 $143 $146 #
vertex $-1 -1 $-1 $52 $147 #
vertex $-1 -1 $-1 $52 $148 #
straight-curve $-1 -1 $-1 34.71600000000003661 -65.93457779007070485 31.85050470695118818 1.226740098779158738e-15 8.660254037844373087 5.000000000000025757 I I #
edge $-1 -1 $-1 $97 -0.1600000000000001421 $95 0.1600000000000001421 $53 $149 forward @7 tangent #
vertex $-1 -1 $-1 $55 $150 #
straight-curve $-1 -1 $-1 34.71600000000005792 -52.16002300679802772 78.98152253375519649 -1.458844474291035952e-15 -8.221921916437786138 -5.69209978830308394 I I #
vertex $-1 -1 $-1 $94 $151 #
straight-curve $-1 -1 $-1 31.51600000000005508 -52.16002300679802772 78.98152253375519649 1.454306924267107515e-15 8.221921916437786138 5.69209978830308394 I I #
point $-1 -1 $-1 34.71600000000005082 -80.33814968245462751 59.47358868137754229 #
ellipse-curve $-1 -1 $-1 34.71600000000005082 -71.79999999999998295 47.14070580672084532 -1 -3.805489422832487656e-17 3.112610300359484557e-16 0 -13.28668967871266204 6.961600202653867697 1 I I #
coedge $-1 -1 $-1 $61 $60 $152 $153 reversed $62 $-1 #
edge $-1 -1 $-1 $154 5.250000000000000888 $63 14.71407058067208595 $61 $155 forward @7 unknown #
face $156 -1 $-1 $157 $62 $5 $-1 $158 forward single #
point $-1 -1 $-1 34.71600000000004371 -86.79999999999998295 47.14070580672084532 #
coedge $-1 -1 $-1 $159 $65 $122 $160 forward $39 $-1 #
coedge $-1 -1 $-1 $78 $77 $65 $107 forward $27 $-1 #
edge $-1 -1 $-1 $161 -0.302772331802484862 $97 0.302772331802485084 $65 $162 forward @7 unknown #
coedge $-1 -1 $-1 $66 $163 $164 $165 forward $39 $-1 #
coedge $-1 -1 $-1 $166 $152 $66 $110 forward $167 $-1 #
edge $-1 -1 $-1 $111 -0.4636476090008062045 $168 0.4636476090008055939 $66 $169 forward @7 unknown #
vertex $-1 -1 $-1 $153 $170 #
straight-curve $-1 -1 $-1 31.51600000000000179 -86.7999999999999261 -100.0000000000000142 3.108624468950439102e-15 -3.108624468950437524e-15 10 I I #
coedge $-1 -1 $-1 $171 $172 $143 $173 forward $68 $-1 #
DXID-attrib $-1 -1 $-1 $-1 $69 @10 ASM ENTITY @36 639491d7-ab23-4caa-94b2-528519f62f96 #
face $174 -1 $-1 $175 $176 $5 $-1 $177 forward single #
plane-surface $-1 -1 $-1 31.51600000000002666 -42.39178404378118614 -4.429989189101690339e-15 1 3.805489422832487656e-17 -3.104638637541392661e-16 3.104638637541392858e-15 3.108624468950438708e-15 10 forward_v I I I I #
DXID-attrib $-1 -1 $-1 $-1 $73 @10 ASM ENTITY @36 5224f3c3-9c36-4060-a293-0cea45b22940 #
face $178 -1 $-1 $179 $180 $5 $-1 $181 forward single #
loop $-1 -1 $-1 $-1 $182 $73 #
coedge $-1 -1 $-1 $183 $184 $185 $186 forward $74 $-1 #
coedge $-1 -1 $-1 $187 $76 $124 $188 forward $45 $-1 #
coedge $-1 -1 $-1 $76 $187 $105 $160 reversed $45 $-1 #
edge $-1 -1 $-1 $125 -0.159999999999999698 $161 0.1600000000000001421 $76 $189 forward @7 tangent #
coedge $-1 -1 $-1 $79 $190 $121 $188 reversed $29 $-1 #
vertex $-1 -1 $-1 $188 $191 #
ellipse-curve $-1 -1 $-1 34.71600000000005082 -17.11435283193015167 84.99999999999998579 -1 -3.805489422832487656e-17 3.112610300359484557e-16 4.652518710121738939e-15 -4.472513660132849012 14.31770308254522739 1 I I #
coedge $-1 -1 $-1 $192 $81 $193 $194 reversed $29 $-1 #
coedge $-1 -1 $-1 $85 $82 $195 $196 forward $18 $-1 #
coedge $-1 -1 $-1 $197 $198 $82 $130 reversed $199 $-1 #
edge $-1 -1 $-1 $134 -1.480940107675852158 $200 -0.5571796769724532972 $82 $201 forward @7 unknown #
coedge $-1 -1 $-1 $202 $83 $89 $145 forward $133 $-1 #
coedge $-1 -1 $-1 $83 $202 $197 $203 reversed $133 $-1 #
loop $-1 -1 $-1 $-1 $202 $204 #
vertex $-1 -1 $-1 $84 $205 #
straight-curve $-1 -1 $-1 34.71600000000003661 -47.10926024276521673 25.75590175359977607 -1.885870201580326608e-15 8.660254037844401509 -4.999999999999975131 I I #
coedge $-1 -1 $-1 $206 $207 $85 $137 reversed $208 $-1 #
edge $-1 -1 $-1 $209 1.234460295335146673 $141 2.158220726038546644 $85 $210 forward @7 unknown #
coedge $-1 -1 $-1 $211 $86 $207 $212 forward $140 $-1 #
coedge $-1 -1 $-1 $86 $211 $88 $144 reversed $140 $-1 #
loop $-1 -1 $-1 $-1 $211 $213 #
vertex $-1 -1 $-1 $137 $214 #
straight-curve $-1 -1 $-1 34.71600000000003661 -69.7999999999999261 10.1905989232414651 3.112610300359484951e-15 -1.076382375273888321e-14 10 I I #
coedge $-1 -1 $-1 $89 $88 $113 $173 reversed $90 $-1 #
edge $215 -1 $-1 $91 0 $216 0.3200000000000002842 $139 $217 forward @7 unknown #
edge $218 -1 $-1 $92 0 $219 0.3200000000000002842 $131 $220 forward @7 unknown #
face $221 -1 $-1 $222 $90 $5 $-1 $223 reversed single #
point $-1 -1 $-1 34.71600000000003661 -69.79999999999996874 29.61880215351695256 #
point $-1 -1 $-1 34.71600000000003661 -61.80000000000001137 34.23760430703396196 #
straight-curve $-1 -1 $-1 33.11600000000006361 -25.65250251438478202 97.33288287465667565 10 8.634793176872597087e-16 -3.108624468950439102e-15 F -4.810000999999999749 F 4.810000999999999749 #
point $-1 -1 $-1 34.71600000000006503 -25.65250251438478557 97.33288287465667565 #
point $-1 -1 $-1 31.51600000000005863 -25.65250251438478557 97.33288287465667565 #
coedge $-1 -1 $-1 $109 $193 $101 $153 forward $167 $-1 #
edge $-1 -1 $-1 $154 -0.159999999999999698 $111 0.1600000000000001421 $101 $224 forward @7 tangent #
vertex $-1 -1 $-1 $102 $225 #
straight-curve $-1 -1 $-1 34.71600000000000108 -86.7999999999999261 -100.0000000000000142 3.108624468950439102e-15 -3.108624468950437524e-15 10 I I #
DXID-attrib $-1 -1 $-1 $-1 $103 @10 ASM ENTITY @36 8a79088c-9623-42e9-b3e3-bacd23701106 #
face $226 -1 $-1 $227 $228 $5 $-1 $229 forward single #
plane-surface $-1 -1 $-1 31.51600000000000179 -86.7999999999999261 -100.0000000000000142 6.123233995736756175e-17 -1 -3.108624468950437623e-16 -3.108624468950439102e-15 3.108624468950437524e-15 -10 forward_v I I I I #
coedge $-1 -1 $-1 $230 $105 $231 $232 forward $39 $-1 #
edge $-1 -1 $-1 $161 -10.07784392178164978 $233 -3.141592653589792672 $105 $234 forward @7 unknown #
vertex $-1 -1 $-1 $123 $235 #
ellipse-curve $-1 -1 $-1 31.51600000000005153 -17.11435283193015167 84.99999999999998579 1 3.805489422832487656e-17 -3.104638637541392661e-16 4.652518710121738939e-15 -4.472513660132849012 14.31770308254522739 1 I I #
coedge $-1 -1 $-1 $108 $230 $236 $237 reversed $39 $-1 #
coedge $-1 -1 $-1 $238 $239 $108 $165 reversed $240 $-1 #
edge $-1 -1 $-1 $241 -6.873671361751251929 $168 -0.623671361751250708 $108 $242 forward @7 unknown #
coedge $-1 -1 $-1 $193 $109 $239 $243 forward $167 $-1 #
loop $-1 -1 $-1 $-1 $193 $244 #
vertex $-1 -1 $-1 $110 $245 #
ellipse-curve $-1 -1 $-1 31.51600000000001245 -71.79999999999994031 -47.5 1 3.805489422832487656e-17 -3.104638637541392661e-16 0 -13.4164078649987335 -6.708203932499376521 1 I I #
point $-1 -1 $-1 31.51600000000001955 -86.79999999999994031 -47.50000000000000711 #
coedge $-1 -1 $-1 $246 $113 $211 $247 forward $68 $-1 #
coedge $-1 -1 $-1 $113 $248 $202 $249 forward $68 $-1 #
edge $-1 -1 $-1 $219 -0.4774199200165535339 $216 0.4463405106868439387 $113 $250 forward @7 unknown #
DXID-attrib $-1 -1 $-1 $-1 $115 @10 ASM ENTITY @36 e8670155-bdf9-499b-9acf-850216372c23 #
face $251 -1 $-1 $252 $253 $5 $-1 $254 forward single #
loop $-1 -1 $-1 $-1 $255 $115 #
plane-surface $-1 -1 $-1 31.51599999999999824 -1.51599999999999957 -100.0000000000000142 -3.108624468950438609e-16 0 -1 -10 0 3.108624468950438708e-15 forward_v I I I I #
DXID-attrib $-1 -1 $-1 $-1 $118 @10 ASM ENTITY @36 ada8989f-870e-4e10-8db1-0c0831c39eaa #
face $256 -1 $-1 $257 $258 $5 $-1 $259 forward single #
loop $-1 -1 $-1 $260 $261 $118 #
plane-surface $-1 -1 $-1 -34.71600000000010056 -42.39178404378117193 -4.83030787922777122e-15 -1 1.814411733628575095e-15 1.780342670809296758e-16 1.780342670809293553e-15 -1.776356839400250465e-15 10 forward_v I I I I #
coedge $-1 -1 $-1 $262 $263 $184 $264 reversed $119 $-1 #
coedge $-1 -1 $-1 $265 $120 $266 $267 forward $74 $-1 #
coedge $-1 -1 $-1 $120 $265 $182 $264 forward $74 $-1 #
coedge $-1 -1 $-1 $268 $269 $120 $186 reversed $270 $-1 #
edge $-1 -1 $-1 $271 -0.302772331802485084 $272 0.3027723318024851951 $185 $273 forward @7 unknown #
coedge $-1 -1 $-1 $122 $121 $274 $275 forward $45 $-1 #
edge $-1 -1 $-1 $125 -10.07784392178164978 $276 -3.141592653589792672 $121 $277 forward @7 unknown #
straight-curve $-1 -1 $-1 33.11600000000006361 -17.11435283193015522 99.99999999999998579 -10 -8.634793176872594129e-16 3.108624468950438708e-15 F -4.810000999999999749 F 4.810000999999999749 #
coedge $-1 -1 $-1 $124 $278 $279 $280 forward $29 $-1 #
point $-1 -1 $-1 34.71600000000005792 -17.11435283193015522 99.99999999999998579 #
coedge $-1 -1 $-1 $281 $127 $282 $283 forward $29 $-1 #
coedge $-1 -1 $-1 $152 $166 $127 $194 forward $167 $-1 #
edge $-1 -1 $-1 $284 -0.4636476090008057604 $154 0.4636476090008062045 $127 $285 forward @7 unknown #
coedge $-1 -1 $-1 $286 $287 $128 $196 reversed $288 $-1 #
edge $-1 -1 $-1 $200 -0.01553970466485500405 $209 0.908220726038546089 $128 $289 forward @7 unknown #
coedge $-1 -1 $-1 $290 $129 $132 $203 forward $199 $-1 #
coedge $-1 -1 $-1 $129 $290 $286 $291 reversed $199 $-1 #
loop $-1 -1 $-1 $-1 $290 $292 #
vertex $-1 -1 $-1 $130 $293 #
straight-curve $-1 -1 $-1 34.71600000000003661 -53.79999999999995453 14.80940107675846917 -3.112610300359486134e-15 4.201196740647187941e-14 -10 I I #
coedge $-1 -1 $-1 $132 $131 $172 $249 reversed $133 $-1 #
edge $294 -1 $-1 $134 0 $295 0.3200000000000002842 $132 $296 forward @7 unknown #
face $297 -1 $-1 $146 $133 $5 $-1 $298 reversed single #
point $-1 -1 $-1 34.71600000000003661 -53.80000000000001847 29.61880215351698808 #
coedge $-1 -1 $-1 $299 $136 $287 $300 forward $208 $-1 #
coedge $-1 -1 $-1 $136 $299 $138 $212 reversed $208 $-1 #
loop $-1 -1 $-1 $-1 $299 $301 #
vertex $-1 -1 $-1 $196 $302 #
straight-curve $-1 -1 $-1 34.71600000000003661 -51.1092602427651741 9.59009421629024672 1.885870201580330947e-15 -8.660254037844392627 4.99999999999999023 I I #
coedge $-1 -1 $-1 $139 $138 $171 $247 reversed $140 $-1 #
edge $303 -1 $-1 $141 0 $304 0.3199999999999998401 $207 $305 forward @7 unknown #
face $306 -1 $-1 $307 $140 $5 $-1 $308 reversed single #
point $-1 -1 $-1 34.71600000000003661 -69.79999999999995453 20.38119784648296573 #
DXID-attrib $-1 -1 $-1 $-1 $144 @10 ASM ENTITY @36 d808e271-207d-402e-89fe-6ed895ca3635 #
vertex $-1 -1 $-1 $247 $309 #
straight-curve $-1 -1 $-1 34.71600000000003661 -69.79999999999996874 29.61880215351695256 -10 0 2.984814368927321616e-15 I I #
DXID-attrib $-1 -1 $-1 $-1 $145 @10 ASM ENTITY @36 70db66b9-bb79-40e1-8954-d01d8d10de82 #
vertex $-1 -1 $-1 $249 $310 #
straight-curve $-1 -1 $-1 34.71600000000003661 -61.80000000000001137 34.23760430703396196 -10 0 2.984814368927321616e-15 I I #
DXID-attrib $-1 -1 $-1 $-1 $146 @10 ASM ENTITY @36 869fc42d-eb8c-41cf-9dff-a7315fd20914 #
face $311 -1 $-1 $312 $313 $5 $-1 $223 reversed single #
plane-surface $-1 -1 $-1 34.71600000000003661 -69.79999999999996874 29.61880215351695256 2.58492506907187426e-16 -0.5000000000000024425 0.8660254037844373753 1.226740098779158541e-15 8.660254037844373087 5.000000000000024869 forward_v I I I I #
straight-curve $-1 -1 $-1 33.11600000000002098 -86.79999999999994031 -47.50000000000000711 -10 -6.123233995736768255e-16 3.870458971311482411e-15 F -4.810000999999997973 F 4.810001000000001525 #
point $-1 -1 $-1 34.71600000000001529 -86.79999999999994031 -47.50000000000000711 #
DXID-attrib $-1 -1 $-1 $-1 $157 @10 ASM ENTITY @36 f25d1650-2092-4c16-b950-dbdce18d41dd #
face $314 -1 $-1 $315 $316 $5 $-1 $317 forward single #
loop $-1 -1 $-1 $-1 $318 $157 #
cone-surface $-1 -1 $-1 1.599999999999990541 -21.79999999999994387 -85 -1 2.179812776307958358e-16 1.776356839400255494e-16 -3.803402924291421964e-15 -4.743416490252566398 -14.23024947075770719 1 I I 0 1 15 forward I I I I #
coedge $-1 -1 $-1 $163 $159 $319 $320 reversed $39 $-1 #
coedge $-1 -1 $-1 $321 $322 $159 $232 reversed $323 $-1 #
edge $-1 -1 $-1 $233 -10.00000000000000178 $324 9.999999999999998224 $159 $325 forward @7 tangent #
vertex $-1 -1 $-1 $275 $326 #
straight-curve $-1 -1 $-1 31.51600000000005863 5.548863824875187589 99.99999999999998579 2.189265874603262188e-31 2.248816000000001925 6.990724443767254277e-16 F -41.06554908221708899 F -1.570796326794896558 #
point $-1 -1 $-1 31.51600000000005863 -17.11435283193015522 99.99999999999998579 #
coedge $-1 -1 $-1 $327 $328 $163 $237 forward $316 $-1 #
edge $-1 -1 $-1 $241 -0.3217505543966427406 $329 0.32175055439664213 $163 $330 forward @7 unknown #
coedge $-1 -1 $-1 $282 $164 $328 $331 reversed $240 $-1 #
coedge $-1 -1 $-1 $164 $282 $166 $243 reversed $240 $-1 #
loop $-1 -1 $-1 $-1 $239 $332 #
vertex $-1 -1 $-1 $237 $333 #
straight-curve $-1 -1 $-1 31.51600000000001245 -85.78937089400996285 -55.75797182949251862 2.167222336351434806e-15 -8 6.000000000000000888 I I #
edge $-1 -1 $-1 $168 -0.1600000000000005862 $284 0.159999999999999698 $239 $334 forward @7 tangent #
face $335 -1 $-1 $103 $167 $5 $-1 $336 forward single #
point $-1 -1 $-1 31.51600000000001245 -80.79999999999996874 -59.50000000000002842 #
coedge $-1 -1 $-1 $337 $171 $299 $338 forward $68 $-1 #
edge $-1 -1 $-1 $216 -1.942820323027548923 $304 -1.019059892324150063 $171 $339 forward @7 unknown #
coedge $-1 -1 $-1 $172 $337 $290 $340 forward $68 $-1 #
edge $-1 -1 $-1 $295 0.7725800799834469101 $219 1.696340510686846326 $172 $341 forward @7 unknown #
straight-curve $-1 -1 $-1 31.51600000000003732 -65.93457779007070485 31.85050470695118818 -1.222754267370112889e-15 -8.660254037844373087 -5.000000000000025757 I I #
DXID-attrib $-1 -1 $-1 $-1 $175 @10 ASM ENTITY @36 2a7ca3e0-8755-46b0-8337-99fc6826af1f #
face $342 -1 $-1 $343 $323 $5 $-1 $344 reversed single #
loop $-1 -1 $-1 $-1 $274 $175 #
plane-surface $-1 -1 $-1 34.71600000000005792 -1.51599999999999091 99.99999999999998579 3.108624468950438609e-16 0 1 10 0 -3.108624468950438708e-15 forward_v I I I I #
coedge $-1 -1 $-1 $345 $346 $347 $348 reversed $176 $-1 #
DXID-attrib $-1 -1 $-1 $-1 $179 @10 ASM ENTITY @36 58c5e488-da05-4a4c-b460-e953bd174382 #
face $349 -1 $-1 $350 $351 $5 $-1 $352 forward single #
loop $-1 -1 $-1 $-1 $353 $179 #
cone-surface $-1 -1 $-1 1.59999999999982867 -71.79999999999999716 47.14070580672085953 -1 1.837589179357618433e-15 1.642818908444051873e-15 -1.316054868494558978e-14 -13.28668967871266204 6.961600202653867697 1 I I 0 1 14.99999999999999822 forward I I I I #
loop $-1 -1 $-1 $-1 $354 $118 #
coedge $-1 -1 $-1 $355 $356 $265 $357 reversed $180 $-1 #
coedge $-1 -1 $-1 $358 $182 $356 $359 reversed $119 $-1 #
coedge $-1 -1 $-1 $182 $358 $268 $360 reversed $119 $-1 #
edge $-1 -1 $-1 $361 -3.631600000000007267 $271 -3.311600000000007871 $182 $362 forward @7 tangent #
coedge $-1 -1 $-1 $184 $183 $261 $357 forward $74 $-1 #
coedge $-1 -1 $-1 $363 $364 $183 $267 reversed $365 $-1 #
edge $-1 -1 $-1 $272 3.311600000000006094 $366 3.631600000000005934 $266 $367 forward @7 tangent #
coedge $-1 -1 $-1 $368 $185 $263 $360 forward $270 $-1 #
coedge $-1 -1 $-1 $185 $369 $363 $370 reversed $270 $-1 #
loop $-1 -1 $-1 $371 $185 $372 #
vertex $-1 -1 $-1 $186 $373 #
vertex $-1 -1 $-1 $186 $374 #
ellipse-curve $-1 -1 $-1 -31.51600000000009416 -17.11435283193015167 85 -1 1.814411733628575095e-15 1.772371007991204616e-16 3.78017145197391279e-15 -4.472513660132849012 14.31770308254522739 1 I I #
coedge $-1 -1 $-1 $375 $376 $187 $275 reversed $253 $-1 #
edge $-1 -1 $-1 $276 -0.2833592000000000333 $233 0.03664079999999980686 $187 $377 forward @7 tangent #
vertex $-1 -1 $-1 $280 $378 #
straight-curve $-1 -1 $-1 34.71600000000005792 5.548863824875187589 99.99999999999998579 2.189265874603262188e-31 2.248816000000001925 6.990724443767254277e-16 F -41.06554908221708899 F -1.570796326794896558 #
coedge $-1 -1 $-1 $190 $281 $379 $380 reversed $29 $-1 #
coedge $-1 -1 $-1 $381 $382 $190 $280 reversed $383 $-1 #
edge $-1 -1 $-1 $384 -9.999999999999998224 $276 10.00000000000000178 $190 $385 forward @7 tangent #
coedge $-1 -1 $-1 $278 $192 $386 $387 reversed $29 $-1 #
coedge $-1 -1 $-1 $239 $238 $192 $283 reversed $240 $-1 #
edge $-1 -1 $-1 $284 0.6236713617512501528 $388 6.873671361751252817 $192 $389 forward @7 unknown #
vertex $-1 -1 $-1 $194 $390 #
ellipse-curve $-1 -1 $-1 34.71600000000001529 -71.79999999999994031 -47.5 -1 -3.805489422832487656e-17 3.112610300359484557e-16 0 -13.4164078649987335 -6.708203932499376521 1 I I #
coedge $-1 -1 $-1 $391 $195 $198 $291 forward $288 $-1 #
coedge $-1 -1 $-1 $195 $391 $206 $300 reversed $288 $-1 #
loop $-1 -1 $-1 $-1 $391 $392 #
straight-curve $-1 -1 $-1 34.71600000000003661 -53.93457779007070485 20.30349932315872508 -1.226740098779158738e-15 -8.660254037844373087 -5.000000000000025757 I I #
coedge $-1 -1 $-1 $198 $197 $248 $340 reversed $199 $-1 #
edge $393 -1 $-1 $200 0 $394 0.3199999999999998401 $198 $395 forward @7 unknown #
face $396 -1 $-1 $213 $199 $5 $-1 $397 reversed single #
point $-1 -1 $-1 34.71600000000003661 -53.79999999999998295 20.38119784648300126 #
DXID-attrib $-1 -1 $-1 $-1 $203 @10 ASM ENTITY @36 820a1dda-79d9-4021-9b9d-3a30d0309e86 #
vertex $-1 -1 $-1 $340 $398 #
straight-curve $-1 -1 $-1 34.71600000000003661 -53.80000000000001847 29.61880215351698808 -10 0 2.984814368927321616e-15 I I #
DXID-attrib $-1 -1 $-1 $-1 $204 @10 ASM ENTITY @36 c5a64450-18d0-4ec8-b0d7-7a5c7dd6bafe #
plane-surface $-1 -1 $-1 34.71600000000003661 -61.80000000000001137 34.23760430703396196 2.584925069071882641e-16 0.499999999999997502 0.8660254037844401509 -1.885870201580326608e-15 8.660254037844401509 -4.999999999999975131 forward_v I I I I #
coedge $-1 -1 $-1 $207 $206 $246 $338 reversed $208 $-1 #
edge $399 -1 $-1 $209 0 $400 0.3200000000000002842 $287 $401 forward @7 unknown #
face $402 -1 $-1 $403 $208 $5 $-1 $404 reversed single #
point $-1 -1 $-1 34.71600000000003661 -61.79999999999996163 15.76239569296596699 #
DXID-attrib $-1 -1 $-1 $-1 $212 @10 ASM ENTITY @36 aef114ef-dba6-4770-932a-6a3532b2ca4f #
vertex $-1 -1 $-1 $338 $405 #
straight-curve $-1 -1 $-1 34.71600000000003661 -69.79999999999995453 20.38119784648296573 -10 0 2.984814368927321616e-15 I I #
DXID-attrib $-1 -1 $-1 $-1 $213 @10 ASM ENTITY @36 fcd4dd7c-64d3-4ef9-82ac-18ba296af9b3 #
face $406 -1 $-1 $204 $407 $5 $-1 $308 reversed single #
plane-surface $-1 -1 $-1 34.71600000000003661 -69.79999999999995453 20.38119784648296573 -3.212801580177622546e-31 -1 -1.076382375273888282e-15 3.112610300359485346e-15 -1.076382375273888321e-14 10 forward_v I I I I #
point $-1 -1 $-1 31.51600000000003732 -69.79999999999996874 29.61880215351695256 #
point $-1 -1 $-1 31.51600000000003732 -61.80000000000001137 34.23760430703396196 #
DXID-attrib $-1 -1 $-1 $-1 $222 @10 ASM ENTITY @36 7a4c058f-4109-4a03-ad87-509756777866 #
face $408 -1 $-1 $409 $410 $5 $-1 $397 reversed single #
loop $-1 -1 $-1 $-1 $411 $222 #
DXID-attrib $-1 -1 $-1 $-1 $227 @10 ASM ENTITY @36 8a2f8728-dbd1-44fb-b04b-949c4aa8fbb5 #
face $412 -1 $-1 $332 $413 $5 $-1 $414 forward single #
loop $-1 -1 $-1 $-1 $236 $227 #
cone-surface $-1 -1 $-1 33.11600000000000676 -21.79999999999994031 -85.00000000000001421 -1 4.034559369077146972e-17 3.108624468950438609e-16 -4.681111291435602816e-15 -4.743416490252567286 -14.23024947075770541 1 I I 0 1 14.99999999999999822 forward I I I I #
coedge $-1 -1 $-1 $415 $416 $417 $418 forward $228 $-1 #
coedge $-1 -1 $-1 $347 $419 $230 $320 forward $413 $-1 #
edge $-1 -1 $-1 $329 -12.16145021419056427 $324 -3.14159265358982065 $230 $420 forward @7 unknown #
coedge $-1 -1 $-1 $421 $231 $376 $422 forward $323 $-1 #
coedge $-1 -1 $-1 $231 $421 $345 $423 reversed $323 $-1 #
loop $-1 -1 $-1 $-1 $231 $252 #
vertex $-1 -1 $-1 $320 $424 #
straight-curve $-1 -1 $-1 31.51600000000002666 -1.516000000000006231 -1.133255857035003252e-14 -3.104638637541392858e-15 0 -10 I I #
point $-1 -1 $-1 31.51600000000005863 -1.516000000000001791 100 #
coedge $-1 -1 $-1 $386 $236 $419 $425 forward $316 $-1 #
coedge $-1 -1 $-1 $236 $386 $238 $331 forward $316 $-1 #
vertex $-1 -1 $-1 $237 $426 #
ellipse-curve $-1 -1 $-1 31.51600000000000179 -21.79999999999994031 -85.00000000000001421 1 3.805489422832487656e-17 -3.104638637541392661e-16 -4.681111291435602816e-15 -4.743416490252567286 -14.23024947075770541 1 I I #
edge $-1 -1 $-1 $388 -0.159999999999999698 $241 0.1600000000000005862 $238 $427 forward @7 tangent #
face $428 -1 $-1 $392 $240 $5 $-1 $429 reversed single #
point $-1 -1 $-1 31.51599999999999824 -30.79999999999995453 -97.00000000000002842 #
straight-curve $-1 -1 $-1 33.11600000000001387 -80.79999999999995453 -59.50000000000001421 10 6.123233995736768255e-16 -3.870458971311482411e-15 F -4.810001000000001525 F 4.810000999999997973 #
DXID-attrib $-1 -1 $-1 $-1 $244 @10 ASM ENTITY @36 e3756154-fe87-4da0-a136-0bd4b06a7916 #
cone-surface $-1 -1 $-1 33.11600000000002098 -71.79999999999994031 -47.5 1 6.123233995736768501e-17 -3.870458971311482115e-16 0 -13.4164078649987335 -6.708203932499376521 1 I I 0 1 15 forward I I I I #
coedge $-1 -1 $-1 $248 $246 $391 $430 forward $68 $-1 #
edge $-1 -1 $-1 $304 -2.158220726038546644 $400 -1.234460295335146673 $246 $431 forward @7 unknown #
straight-curve $-1 -1 $-1 31.51600000000003376 -69.7999999999999261 10.1905989232414651 -3.104638637541393253e-15 1.076382375273888321e-14 -10 I I #
edge $-1 -1 $-1 $394 0.5571796769724532972 $295 1.480940107675852158 $248 $432 forward @7 unknown #
straight-curve $-1 -1 $-1 31.51600000000003732 -47.10926024276521673 25.75590175359977607 1.881884370171280759e-15 -8.660254037844401509 4.999999999999975131 I I #
DXID-attrib $-1 -1 $-1 $-1 $252 @10 ASM ENTITY @36 a19604d1-b026-4275-9875-952409f11c15 #
face $433 -1 $-1 $434 $435 $5 $-1 $436 forward single #
cone-surface $-1 -1 $-1 30.00000000000002842 -1.51599999999999957 -1.776356839400250465e-14 -3.108624468950438609e-16 0 -1 0 1.516000000000000458 0 1 I I 0 1 2.248816000000001925 forward I I I I #
coedge $-1 -1 $-1 $437 $255 $322 $423 forward $176 $-1 #
coedge $-1 -1 $-1 $255 $437 $381 $438 forward $176 $-1 #
coedge $-1 -1 $-1 $379 $319 $255 $348 forward $413 $-1 #
edge $-1 -1 $-1 $324 -0.03664079999999980686 $384 0.2833592000000000333 $347 $439 forward @7 tangent #
DXID-attrib $-1 -1 $-1 $-1 $257 @10 ASM ENTITY @36 8a33c160-9b70-44bb-83d6-cca355a3a45e #
face $440 -1 $-1 $441 $442 $5 $-1 $443 forward single #
loop $-1 -1 $-1 $-1 $444 $257 #
plane-surface $-1 -1 $-1 -31.51600000000016166 -86.7999999999999261 100 -1.837589179357618039e-15 -1 2.66453525910037905e-16 1.776356839400255592e-15 2.664535259100375697e-15 10 forward_v I I I I #
coedge $-1 -1 $-1 $445 $446 $447 $448 forward $258 $-1 #
coedge $-1 -1 $-1 $449 $450 $451 $452 forward $260 $-1 #
coedge $-1 -1 $-1 $453 $261 $364 $454 reversed $180 $-1 #
coedge $-1 -1 $-1 $261 $447 $262 $359 forward $180 $-1 #
edge $-1 -1 $-1 $366 -0.3027723318024851396 $361 0.30277233180248464 $261 $455 forward @7 unknown #
coedge $-1 -1 $-1 $263 $262 $446 $456 reversed $119 $-1 #
edge $-1 -1 $-1 $457 -3.427194634300903431 $361 3.224005379985145581 $356 $458 forward @7 unknown #
edge $-1 -1 $-1 $271 -3.224005379985146469 $459 3.427194634300903431 $268 $460 forward @7 unknown #
vertex $-1 -1 $-1 $357 $461 #
straight-curve $-1 -1 $-1 1.600000000000028288 -25.65250251438477846 97.33288287465668986 10 2.787865893704198172e-15 -1.776356839400250267e-15 F -8.281601000000005541 F 1.338400999999993068 #
coedge $-1 -1 $-1 $462 $266 $269 $370 forward $365 $-1 #
coedge $-1 -1 $-1 $266 $462 $355 $454 forward $365 $-1 #
loop $-1 -1 $-1 $-1 $266 $463 #
vertex $-1 -1 $-1 $267 $464 #
straight-curve $-1 -1 $-1 1.600000000000026734 -17.11435283193014101 100 -10 -2.787865893704198172e-15 1.776356839400250465e-15 F -1.338400999999993068 F 8.281601000000005541 #
coedge $-1 -1 $-1 $465 $268 $466 $467 reversed $270 $-1 #
coedge $-1 -1 $-1 $269 $468 $469 $470 forward $270 $-1 #
edge $-1 -1 $-1 $272 -10.0778439217816782 $471 -3.14159265358982065 $269 $472 forward @7 unknown #
loop $-1 -1 $-1 $-1 $473 $372 #
face $474 -1 $-1 $475 $270 $5 $-1 $476 reversed single #
point $-1 -1 $-1 -31.51600000000005153 -25.65250251438478557 97.33288287465668986 #
point $-1 -1 $-1 -31.51600000000003376 -17.11435283193015167 99.99999999999998579 #
coedge $-1 -1 $-1 $477 $274 $382 $478 forward $253 $-1 #
coedge $-1 -1 $-1 $274 $477 $321 $422 reversed $253 $-1 #
straight-curve $-1 -1 $-1 31.88240800000005848 -1.516000000000006231 99.99999999999998579 -10 -6.123233995736766282e-16 3.108624468950438708e-15 I I #
point $-1 -1 $-1 34.71600000000005792 -1.516000000000001791 100 #
coedge $-1 -1 $-1 $419 $347 $278 $380 forward $413 $-1 #
edge $-1 -1 $-1 $384 6.217248937900876626e-15 $479 2.028399999999999981 $379 $480 forward @7 unknown #
coedge $-1 -1 $-1 $481 $279 $346 $438 reversed $383 $-1 #
coedge $-1 -1 $-1 $279 $481 $375 $478 reversed $383 $-1 #
loop $-1 -1 $-1 $-1 $279 $482 #
vertex $-1 -1 $-1 $380 $483 #
straight-curve $-1 -1 $-1 34.7160000000000295 -1.516000000000006231 -1.232766404533663662e-14 3.112610300359484951e-15 0 10 I I #
coedge $-1 -1 $-1 $328 $327 $281 $387 forward $316 $-1 #
edge $-1 -1 $-1 $479 -0.32175055439664213 $388 0.3217505543966417414 $281 $484 forward @7 unknown #
vertex $-1 -1 $-1 $283 $485 #
straight-curve $-1 -1 $-1 34.71600000000001529 -85.78937089400994864 -55.75797182949251152 -2.172005334042290141e-15 8 -6.000000000000000888 I I #
point $-1 -1 $-1 34.71600000000001529 -80.79999999999995453 -59.50000000000001421 #
coedge $-1 -1 $-1 $287 $286 $337 $430 reversed $288 $-1 #
face $486 -1 $-1 $487 $288 $5 $-1 $488 reversed single #
DXID-attrib $-1 -1 $-1 $-1 $291 @10 ASM ENTITY @36 82e1a113-904a-4bb7-b4af-4d8df89fcc95 #
vertex $-1 -1 $-1 $430 $489 #
straight-curve $-1 -1 $-1 34.71600000000003661 -53.79999999999998295 20.38119784648300126 -10 0 2.984814368927321616e-15 I I #
DXID-attrib $-1 -1 $-1 $-1 $292 @10 ASM ENTITY @36 b3ced732-f2e5-498f-a993-b935ba1d7650 #
plane-surface $-1 -1 $-1 34.71600000000003661 -53.80000000000001847 29.61880215351698808 1.253979239817435778e-30 1 4.201196740647188099e-15 -3.112610300359486529e-15 4.201196740647187941e-14 -10 forward_v I I I I #
point $-1 -1 $-1 31.51600000000003732 -53.80000000000001847 29.61880215351698808 #
DXID-attrib $-1 -1 $-1 $-1 $300 @10 ASM ENTITY @36 5ce980c4-292d-4304-9bc7-1d75702ccbaf #
vertex $-1 -1 $-1 $430 $490 #
straight-curve $-1 -1 $-1 34.71600000000003661 -61.79999999999996163 15.76239569296596699 -10 0 2.984814368927321616e-15 I I #
DXID-attrib $-1 -1 $-1 $-1 $301 @10 ASM ENTITY @36 8e0ce355-a4d2-4453-b938-93d105c55c2a #
face $491 -1 $-1 $292 $492 $5 $-1 $404 reversed single #
plane-surface $-1 -1 $-1 34.71600000000003661 -61.79999999999996163 15.76239569296596699 -2.584925069071880176e-16 -0.4999999999999990008 -0.8660254037844392627 1.885870201580331341e-15 -8.660254037844392627 4.99999999999999023 forward_v I I I I #
point $-1 -1 $-1 31.51600000000003732 -69.79999999999995453 20.38119784648296573 #
DXID-attrib $-1 -1 $-1 $-1 $307 @10 ASM ENTITY @36 23691cd5-9afc-48e2-8a22-d9e15ba4bec7 #
loop $-1 -1 $-1 $-1 $493 $307 #
DXID-attrib $-1 -1 $-1 $-1 $312 @10 ASM ENTITY @36 5947642b-aff5-49d9-9fd9-2fdd8cf14d2d #
face $494 -1 $-1 $463 $495 $5 $-1 $298 reversed single #
loop $-1 -1 $-1 $-1 $496 $312 #
coedge $-1 -1 $-1 $497 $498 $473 $499 reversed $313 $-1 #
DXID-attrib $-1 -1 $-1 $-1 $315 @10 ASM ENTITY @36 499fe3da-89a1-47b7-acd7-1b716dd2a018 #
loop $-1 -1 $-1 $-1 $419 $315 #
plane-surface $-1 -1 $-1 31.51599999999999824 -1.515999999999939618 -100.0000000000000142 -3.108624468950438609e-16 0 -1 -6.123233995736766282e-16 10 0 forward_v I I I I #
coedge $-1 -1 $-1 $500 $318 $501 $502 forward $228 $-1 #
coedge $-1 -1 $-1 $318 $500 $503 $504 forward $228 $-1 #
coedge $-1 -1 $-1 $505 $506 $318 $418 reversed $180 $-1 #
edge $-1 -1 $-1 $507 -0.3217505543966432957 $508 0.3217505543966417969 $417 $509 forward @7 unknown #
coedge $-1 -1 $-1 $319 $379 $327 $425 reversed $413 $-1 #
straight-curve $-1 -1 $-1 31.51599999999999824 5.548863824875249762 -100.0000000000000142 2.189265874603262188e-31 2.248816000000001925 6.990724443767254277e-16 F -41.06554908221708899 F -1.570796326794896558 #
coedge $-1 -1 $-1 $322 $321 $510 $511 forward $323 $-1 #
edge $-1 -1 $-1 $233 -3.295516893676252472e-15 $512 1.570796326794894782 $321 $513 forward @7 unknown #
edge $-1 -1 $-1 $324 -1.464674174967223255e-15 $514 1.570796326794937636 $322 $515 forward @7 unknown #
point $-1 -1 $-1 31.51599999999999824 -1.516000000000001791 -100 #
edge $-1 -1 $-1 $329 -0.1600000000000005862 $479 0.1599999999999992539 $419 $516 forward @7 tangent #
point $-1 -1 $-1 31.51599999999999824 -21.79999999999994031 -100.0000000000000142 #
straight-curve $-1 -1 $-1 33.11599999999999966 -30.79999999999994031 -97.00000000000002842 -10 4.034559369077146972e-16 3.108624468950438708e-15 F -4.810000999999997973 F 4.810001000000001525 #
DXID-attrib $-1 -1 $-1 $-1 $332 @10 ASM ENTITY @36 dc04f3bc-8ab0-4573-b59e-8dd32d0894a3 #
plane-surface $-1 -1 $-1 34.71600000000001529 -86.79999999999995453 -55 2.728973137304979755e-16 0.6000000000000000888 0.8000000000000000444 -2.172005334042289747e-15 8 -6.000000000000000888 forward_v I I I I #
edge $-1 -1 $-1 $400 -0.908220726038546089 $394 0.01553970466485500405 $337 $517 forward @7 unknown #
straight-curve $-1 -1 $-1 31.51600000000003376 -51.1092602427651741 9.59009421629024672 -1.881884370171285097e-15 8.660254037844392627 -4.99999999999999023 I I #
straight-curve $-1 -1 $-1 31.51600000000003376 -53.79999999999995453 14.80940107675846917 3.104638637541394042e-15 -4.201196740647187941e-14 10 I I #
DXID-attrib $-1 -1 $-1 $-1 $343 @10 ASM ENTITY @36 bfe97bdc-b361-4fba-a6fa-b4d8c8aad638 #
face $518 -1 $-1 $519 $520 $5 $-1 $521 forward single #
loop $-1 -1 $-1 $-1 $522 $343 #
plane-surface $-1 -1 $-1 30.00000000000002842 0 100.0000000000000142 -2.96059473233375061e-16 0 1 10 0 2.960594732333750512e-15 forward_v I I I I #
coedge $-1 -1 $-1 $346 $345 $523 $524 forward $176 $-1 #
edge $-1 -1 $-1 $525 1.506663985920484541e-14 $384 1.570796326794925424 $346 $526 forward @7 unknown #
straight-curve $-1 -1 $-1 31.88240799999999453 -1.516000000000001791 -100.0000000000000142 10 6.123233995736766282e-16 -3.108624468950438708e-15 I I #
DXID-attrib $-1 -1 $-1 $-1 $350 @10 ASM ENTITY @36 a39b8071-6bc0-4331-a083-296afe41a7c1 #
face $527 -1 $-1 $244 $528 $5 $-1 $429 reversed single #
loop $-1 -1 $-1 $-1 $529 $350 #
cone-surface $-1 -1 $-1 1.600000000000025846 -71.80000000000002558 -47.49999999999992895 1 -1.837589179357617644e-15 1.03707024235509085e-15 -1.768805584188681455e-14 -13.41640786499873528 -6.708203932499372968 1 I I 0 1 15 forward I I I I #
coedge $-1 -1 $-1 $530 $531 $445 $532 reversed $351 $-1 #
coedge $-1 -1 $-1 $466 $353 $444 $532 forward $258 $-1 #
coedge $-1 -1 $-1 $353 $466 $358 $456 forward $258 $-1 #
coedge $-1 -1 $-1 $356 $533 $353 $448 reversed $180 $-1 #
edge $-1 -1 $-1 $457 -0.4826258315949628064 $534 0.482625831594963639 $447 $535 forward @7 unknown #
coedge $-1 -1 $-1 $536 $354 $537 $538 forward $260 $-1 #
coedge $-1 -1 $-1 $354 $539 $540 $541 forward $260 $-1 #
coedge $-1 -1 $-1 $498 $497 $354 $452 reversed $313 $-1 #
edge $-1 -1 $-1 $542 -0.4774199200165485379 $543 0.4463405106868488792 $354 $544 forward @7 unknown #
coedge $-1 -1 $-1 $506 $355 $545 $546 forward $180 $-1 #
edge $-1 -1 $-1 $547 6.217248937900876626e-15 $366 1.559835283193022226 $364 $548 forward @7 unknown #
ellipse-curve $-1 -1 $-1 -34.71600000000009345 -17.11435283193015167 85 1 -1.814411733628575095e-15 -1.780342670809296758e-16 3.78017145197391279e-15 -4.472513660132849012 14.31770308254522739 1 I I #
edge $-1 -1 $-1 $459 3.311599999999998989 $457 3.631599999999998385 $358 $549 forward @7 tangent #
vertex $-1 -1 $-1 $359 $550 #
straight-curve $-1 -1 $-1 -34.71600000000010056 -52.16002300679798509 78.98152253375525333 1.593134041212471616e-14 8.221921916437786138 5.69209978830308394 I I #
vertex $-1 -1 $-1 $456 $551 #
straight-curve $-1 -1 $-1 -31.51600000000010482 -52.16002300679798509 78.98152253375523912 -1.592680286210078654e-14 -8.221921916437786138 -5.69209978830308394 I I #
point $-1 -1 $-1 -34.71600000000004371 -25.65250251438479268 97.33288287465670408 #
coedge $-1 -1 $-1 $364 $363 $552 $553 forward $365 $-1 #
face $554 -1 $-1 $372 $365 $5 $-1 $555 forward single #
point $-1 -1 $-1 -34.7160000000000295 -17.11435283193015167 100 #
coedge $-1 -1 $-1 $556 $368 $531 $557 forward $270 $-1 #
coedge $-1 -1 $-1 $446 $445 $368 $467 forward $258 $-1 #
edge $-1 -1 $-1 $558 -0.482625831594963639 $459 0.4826258315949628064 $368 $559 forward @7 unknown #
coedge $-1 -1 $-1 $369 $560 $561 $562 forward $270 $-1 #
coedge $-1 -1 $-1 $563 $564 $369 $470 reversed $565 $-1 #
edge $-1 -1 $-1 $566 -10.00000000000000178 $471 9.999999999999998224 $369 $567 forward @7 tangent #
vertex $-1 -1 $-1 $370 $568 #
straight-curve $-1 -1 $-1 -31.51599999999999113 5.548863824875254203 99.99999999999998579 3.994699682152716279e-15 2.248816000000001925 -6.990724443767262165e-16 F -41.06554908221708899 F -1.570796326794896558 #
coedge $-1 -1 $-1 $569 $570 $411 $499 forward $371 $-1 #
DXID-attrib $-1 -1 $-1 $-1 $372 @10 ASM ENTITY @36 d0ef0594-08c6-43cc-8ca1-761d689fa9e2 #
face $571 -1 $-1 $572 $573 $5 $-1 $574 forward single #
plane-surface $-1 -1 $-1 -31.51600000000009771 -42.39178404378118614 -3.178296018585538793e-15 -1 1.814411733628575095e-15 1.772371007991204616e-16 1.77237100799120146e-15 -1.776356839400250465e-15 10 forward_v I I I I #
coedge $-1 -1 $-1 $376 $375 $575 $576 reversed $253 $-1 #
edge $-1 -1 $-1 $276 -2.295308416050737194e-15 $577 1.570796326794894782 $375 $578 forward @7 unknown #
vertex $-1 -1 $-1 $387 $579 #
straight-curve $-1 -1 $-1 34.71599999999999397 -1.515999999999939618 -100 6.123233995736766282e-16 -10 0 F -0.3532431912437594135 F 8.528399999999999537 #
coedge $-1 -1 $-1 $382 $381 $580 $581 forward $383 $-1 #
face $582 -1 $-1 $69 $383 $5 $-1 $583 forward single #
point $-1 -1 $-1 34.71599999999999397 -1.516000000000001791 -100 #
ellipse-curve $-1 -1 $-1 34.71600000000000819 -21.79999999999994031 -85.00000000000001421 -1 -3.805489422832487656e-17 3.112610300359484557e-16 -4.681111291435602816e-15 -4.743416490252567286 -14.23024947075770541 1 I I #
point $-1 -1 $-1 34.71600000000000108 -30.79999999999994031 -97.00000000000002842 #
DXID-attrib $-1 -1 $-1 $-1 $392 @10 ASM ENTITY @36 e0e9ab96-62f9-46dd-bda3-a00abffdcd4b #
face $584 -1 $-1 $301 $585 $5 $-1 $488 reversed single #
plane-surface $-1 -1 $-1 34.71600000000003661 -53.79999999999998295 20.38119784648300126 -2.58492506907187426e-16 0.5000000000000024425 -0.8660254037844373753 -1.226740098779158541e-15 -8.660254037844373087 -5.000000000000024869 forward_v I I I I #
point $-1 -1 $-1 31.51600000000003732 -53.79999999999998295 20.38119784648300126 #
point $-1 -1 $-1 31.51600000000003376 -61.79999999999996163 15.76239569296596699 #
DXID-attrib $-1 -1 $-1 $-1 $403 @10 ASM ENTITY @36 9daa7bf3-9f7d-4c04-ab4f-2b20ae40ce0b #
loop $-1 -1 $-1 $-1 $586 $403 #
coedge $-1 -1 $-1 $587 $588 $570 $589 reversed $407 $-1 #
DXID-attrib $-1 -1 $-1 $-1 $409 @10 ASM ENTITY @36 996c5a6c-09f3-4bc8-82a8-8c747886a121 #
loop $-1 -1 $-1 $-1 $590 $409 #
coedge $-1 -1 $-1 $591 $592 $593 $594 reversed $410 $-1 #
coedge $-1 -1 $-1 $451 $411 $588 $595 forward $313 $-1 #
coedge $-1 -1 $-1 $411 $451 $596 $597 reversed $313 $-1 #
edge $-1 -1 $-1 $598 -0.4463405106868483241 $599 0.4774199200165490931 $473 $600 forward @7 unknown #
coedge $-1 -1 $-1 $416 $415 $560 $601 forward $228 $-1 #
coedge $-1 -1 $-1 $602 $561 $415 $502 reversed $603 $-1 #
edge $-1 -1 $-1 $508 -3.631600000000006823 $604 -3.311600000000006538 $501 $605 forward @7 tangent #
coedge $-1 -1 $-1 $606 $607 $416 $504 reversed $528 $-1 #
edge $-1 -1 $-1 $608 3.311600000000007871 $507 3.631600000000007711 $503 $609 forward @7 tangent #
coedge $-1 -1 $-1 $610 $417 $607 $611 forward $180 $-1 #
coedge $-1 -1 $-1 $417 $453 $602 $612 reversed $180 $-1 #
vertex $-1 -1 $-1 $418 $613 #
vertex $-1 -1 $-1 $612 $614 #
ellipse-curve $-1 -1 $-1 -34.71600000000010766 -21.79999999999993321 -85 1 -1.814411733628575095e-15 -1.780342670809296758e-16 -3.803402924291421964e-15 -4.743416490252566398 -14.23024947075770719 1 I I #
coedge $-1 -1 $-1 $615 $616 $421 $511 reversed $617 $-1 #
edge $-1 -1 $-1 $512 0 $514 20 $510 $618 forward @7 tangent #
vertex $-1 -1 $-1 $576 $619 #
ellipse-curve $-1 -1 $-1 30.00000000000005684 -1.51599999999999957 100 3.108624468950438609e-16 0 1 1.516000000000001791 2.775557561562891351e-15 0 1 I I #
vertex $-1 -1 $-1 $423 $620 #
ellipse-curve $-1 -1 $-1 29.99999999999999645 -1.51599999999999957 -100 3.108624468950438609e-16 0 1 1.516000000000001791 0 0 1 I I #
straight-curve $-1 -1 $-1 33.11599999999999966 -21.79999999999994031 -100.0000000000000142 10 -4.034559369077146972e-16 -3.108624468950438708e-15 F -4.810001000000001525 F 4.810000999999997973 #
straight-curve $-1 -1 $-1 31.51600000000003732 -53.93457779007070485 20.30349932315872508 1.222754267370112889e-15 8.660254037844373087 5.000000000000025757 I I #
DXID-attrib $-1 -1 $-1 $-1 $434 @10 ASM ENTITY @36 0ed515f6-f369-4591-af81-ac6ccf616e5c #
face $621 -1 $-1 $622 $617 $5 $-1 $623 reversed single #
loop $-1 -1 $-1 $-1 $624 $434 #
plane-surface $-1 -1 $-1 -2.220446049250313081e-14 0 -100 0 0 -1 -10 0 0 forward_v I I I I #
coedge $-1 -1 $-1 $625 $575 $626 $627 forward $435 $-1 #
coedge $-1 -1 $-1 $628 $624 $437 $524 reversed $520 $-1 #
edge $-1 -1 $-1 $514 0 $525 0.3200000000000000622 $523 $629 forward @7 tangent #
vertex $-1 -1 $-1 $438 $630 #
ellipse-curve $-1 -1 $-1 29.99999999999999645 -1.51599999999999957 -100 -3.108624468950438609e-16 0 -1 -1.332267629550187849e-13 4.716000000000000192 0 1 I I #
DXID-attrib $-1 -1 $-1 $-1 $441 @10 ASM ENTITY @36 4aa8f559-c41a-4f15-b6e7-4e9f36ea0aab #
loop $-1 -1 $-1 $-1 $631 $441 #
coedge $-1 -1 $-1 $632 $633 $556 $634 forward $442 $-1 #
coedge $-1 -1 $-1 $635 $444 $533 $636 forward $351 $-1 #
coedge $-1 -1 $-1 $444 $635 $465 $557 reversed $351 $-1 #
edge $-1 -1 $-1 $534 -3.631599999999997497 $558 -3.311599999999997213 $444 $637 forward @7 tangent #
coedge $-1 -1 $-1 $447 $610 $530 $636 reversed $180 $-1 #
vertex $-1 -1 $-1 $636 $638 #
ellipse-curve $-1 -1 $-1 -34.71600000000007924 -71.7999999999999261 47.14070580672092348 1 -1.814411733628575095e-15 -1.780342670809296758e-16 -1.316054868494558978e-14 -13.28668967871266204 6.961600202653867697 1 I I #
coedge $-1 -1 $-1 $639 $449 $640 $641 forward $260 $-1 #
coedge $-1 -1 $-1 $588 $587 $449 $538 reversed $407 $-1 #
edge $-1 -1 $-1 $543 -1.942820323027550478 $642 -1.019059892324151617 $449 $643 forward @7 unknown #
coedge $-1 -1 $-1 $450 $639 $644 $645 forward $260 $-1 #
coedge $-1 -1 $-1 $646 $596 $450 $541 reversed $495 $-1 #
edge $-1 -1 $-1 $647 0.7725800799834541266 $542 1.696340510686853431 $450 $648 forward @7 unknown #
vertex $-1 -1 $-1 $452 $649 #
vertex $-1 -1 $-1 $452 $650 #
straight-curve $-1 -1 $-1 -34.71600000000013608 -65.93457779007066222 31.85050470695123437 -1.660343787787373217e-14 -8.660254037844373087 -5.000000000000025757 I I #
coedge $-1 -1 $-1 $651 $652 $453 $546 reversed $573 $-1 #
edge $-1 -1 $-1 $547 -10 $653 10.00000000000000178 $453 $654 forward @7 tangent #
vertex $-1 -1 $-1 $454 $655 #
straight-curve $-1 -1 $-1 -34.71600000000000819 -1.515999999999930736 100 -1.837589179357618039e-14 -10 3.204747427460360459e-30 F -0.3532431912437594135 F 8.528399999999999537 #
straight-curve $-1 -1 $-1 1.599999999999833111 -80.33814968245462751 59.47358868137754939 -10 1.837589179357618354e-14 1.642818908444052031e-14 F -1.338401000000000174 F 8.281600999999998436 #
point $-1 -1 $-1 -34.71600000000015029 -80.33814968245457067 59.47358868137762045 #
point $-1 -1 $-1 -31.51600000000015811 -80.33814968245457067 59.47358868137760624 #
coedge $-1 -1 $-1 $656 $657 $462 $553 reversed $658 $-1 #
edge $-1 -1 $-1 $471 -0.03664080000000025095 $547 0.2833591999999995892 $462 $659 forward @7 tangent #
DXID-attrib $-1 -1 $-1 $-1 $463 @10 ASM ENTITY @36 4b6649f2-ba37-484d-953e-523ed6473112 #
plane-surface $-1 -1 $-1 -31.51600000000000534 -1.515999999999935177 100 1.776356839400250563e-16 0 1 1.837589179357618039e-14 10 -3.204747427460360459e-30 forward_v I I I I #
coedge $-1 -1 $-1 $660 $465 $529 $634 reversed $270 $-1 #
edge $-1 -1 $-1 $558 5.285929419327908718 $661 14.74999999999999645 $465 $662 forward @7 unknown #
vertex $-1 -1 $-1 $532 $663 #
ellipse-curve $-1 -1 $-1 -31.5160000000000764 -71.79999999999994031 47.14070580672091637 -1 1.814411733628575095e-15 1.772371007991204616e-16 -1.316054868494558978e-14 -13.28668967871266204 6.961600202653867697 1 I I #
coedge $-1 -1 $-1 $468 $660 $500 $601 reversed $270 $-1 #
coedge $-1 -1 $-1 $501 $664 $468 $562 reversed $603 $-1 #
edge $-1 -1 $-1 $604 -12.16145021419053762 $566 -3.141592653589792672 $468 $665 forward @7 unknown #
coedge $-1 -1 $-1 $666 $469 $667 $668 forward $565 $-1 #
coedge $-1 -1 $-1 $469 $666 $656 $669 reversed $565 $-1 #
loop $-1 -1 $-1 $-1 $469 $670 #
vertex $-1 -1 $-1 $562 $671 #
straight-curve $-1 -1 $-1 -31.51600000000002311 -1.515999999999992909 -1.454354116814744639e-15 1.772371007991204616e-15 0 10 I I #
point $-1 -1 $-1 -31.51600000000000534 -1.51599999999999735 99.99999999999998579 #
coedge $-1 -1 $-1 $593 $473 $590 $672 forward $371 $-1 #
coedge $-1 -1 $-1 $473 $673 $493 $589 forward $371 $-1 #
DXID-attrib $-1 -1 $-1 $-1 $475 @10 ASM ENTITY @36 0ea78a2d-4be0-45ed-aadd-805797a2cba3 #
face $674 -1 $-1 $675 $603 $5 $-1 $676 forward single #
loop $-1 -1 $-1 $-1 $545 $475 #
cone-surface $-1 -1 $-1 -30.00000000000002132 -1.51599999999999957 0 1.776356839400250563e-16 0 1 0 4.71600000000000108 0 1 I I 0 1 2.248816000000001925 forward I I I I #
coedge $-1 -1 $-1 $522 $677 $477 $576 forward $435 $-1 #
edge $-1 -1 $-1 $512 0 $577 0.3200000000000000622 $477 $678 forward @7 tangent #
vertex $-1 -1 $-1 $581 $679 #
ellipse-curve $-1 -1 $-1 30.00000000000005684 -1.51599999999999957 100 3.108624468950438609e-16 0 1 4.716000000000000192 8.604228440844963188e-15 0 1 I I #
point $-1 -1 $-1 34.71599999999999397 -21.79999999999994031 -100 #
coedge $-1 -1 $-1 $680 $626 $481 $581 reversed $681 $-1 #
edge $-1 -1 $-1 $525 -20 $577 0 $580 $682 forward @7 tangent #
DXID-attrib $-1 -1 $-1 $-1 $482 @10 ASM ENTITY @36 ef78bc73-db1f-4146-9f19-1a6c723871b8 #
cone-surface $-1 -1 $-1 30.00000000000002842 -1.51599999999999957 -1.776356839400250465e-14 -3.108624468950438609e-16 0 -1 0 4.71600000000000108 0 1 I I 0 1 2.248816000000001925 forward I I I I #
DXID-attrib $-1 -1 $-1 $-1 $487 @10 ASM ENTITY @36 03979983-2c47-4d28-9c31-a3d7aba36a58 #
loop $-1 -1 $-1 $-1 $683 $487 #
coedge $-1 -1 $-1 $684 $685 $673 $686 reversed $492 $-1 #
coedge $-1 -1 $-1 $537 $493 $685 $687 forward $407 $-1 #
coedge $-1 -1 $-1 $493 $537 $497 $595 reversed $407 $-1 #
edge $-1 -1 $-1 $688 1.019059892324151173 $598 1.942820323027550034 $570 $689 forward @7 unknown #
coedge $-1 -1 $-1 $596 $646 $569 $672 reversed $495 $-1 #
coedge $-1 -1 $-1 $644 $496 $646 $690 forward $410 $-1 #
coedge $-1 -1 $-1 $496 $644 $691 $692 reversed $410 $-1 #
coedge $-1 -1 $-1 $693 $569 $496 $594 forward $371 $-1 #
edge $-1 -1 $-1 $694 -1.480940107675853268 $695 -0.5571796769724544074 $593 $696 forward @7 unknown #
edge $697 -1 $-1 $598 6.623200000000018406 $543 6.943200000000017802 $588 $217 forward @7 unknown #
coedge $-1 -1 $-1 $540 $590 $498 $597 forward $495 $-1 #
edge $698 -1 $-1 $599 6.62320000000001663 $542 6.943200000000016026 $596 $220 forward @7 unknown #
vertex $-1 -1 $-1 $589 $699 #
vertex $-1 -1 $-1 $499 $700 #
straight-curve $-1 -1 $-1 -31.51600000000013324 -65.93457779007067643 31.85050470695123437 1.65994520464646875e-14 8.660254037844373087 5.000000000000025757 I I #
edge $-1 -1 $-1 $604 -0.3217505543966417969 $608 0.3217505543966432957 $560 $701 forward @7 unknown #
coedge $-1 -1 $-1 $664 $501 $506 $612 forward $603 $-1 #
loop $-1 -1 $-1 $-1 $501 $572 #
vertex $-1 -1 $-1 $502 $702 #
straight-curve $-1 -1 $-1 1.599999999999987876 -21.79999999999994742 -100 10 -2.179812776307958309e-15 -1.776356839400255592e-15 F -8.281601000000007318 F 1.338400999999991958 #
coedge $-1 -1 $-1 $631 $503 $660 $703 reversed $528 $-1 #
coedge $-1 -1 $-1 $503 $631 $505 $611 reversed $528 $-1 #
vertex $-1 -1 $-1 $504 $704 #
straight-curve $-1 -1 $-1 1.599999999999986322 -30.79999999999994742 -97.00000000000001421 -10 2.179812776307958309e-15 1.776356839400255592e-15 F -1.338400999999991958 F 8.281601000000007318 #
coedge $-1 -1 $-1 $533 $505 $705 $706 reversed $180 $-1 #
edge $-1 -1 $-1 $507 -6.8736713617512466 $707 -0.6236713617512432695 $505 $708 forward @7 unknown #
edge $-1 -1 $-1 $508 -12.1614502141905394 $653 -3.141592653589792672 $602 $709 forward @7 unknown #
point $-1 -1 $-1 -34.71600000000008635 -30.79999999999994742 -97 #
point $-1 -1 $-1 -34.71600000000007924 -21.79999999999994031 -100.0000000000000142 #
coedge $-1 -1 $-1 $710 $510 $677 $711 reversed $617 $-1 #
coedge $-1 -1 $-1 $510 $710 $628 $712 reversed $617 $-1 #
loop $-1 -1 $-1 $-1 $616 $519 #
straight-curve $-1 -1 $-1 30.00000000000002842 0 100.0000000000000142 -3.108624468950438708e-15 0 -10 F 0 F 20 #
point $-1 -1 $-1 30.00000000000002842 0 100.0000000000000142 #
point $-1 -1 $-1 29.99999999999996447 0 -100 #
DXID-attrib $-1 -1 $-1 $-1 $519 @10 ASM ENTITY @36 684de79e-5524-4699-b253-7090dc9ba010 #
face $713 -1 $-1 $-1 $681 $5 $-1 $714 forward single #
plane-surface $-1 -1 $-1 4.440892098500626162e-15 0 1.443289932012703503e-14 0 1 0 0 0 10 forward_v I I I I #
coedge $-1 -1 $-1 $523 $715 $680 $716 forward $520 $-1 #
coedge $-1 -1 $-1 $677 $522 $717 $718 reversed $435 $-1 #
coedge $-1 -1 $-1 $580 $719 $522 $627 reversed $681 $-1 #
edge $720 -1 $-1 $577 -6 $721 -0 $522 $722 forward @7 unknown #
coedge $-1 -1 $-1 $715 $523 $616 $712 forward $520 $-1 #
straight-curve $-1 -1 $-1 29.99999999999996447 0 -100 0 10 0 I I #
point $-1 -1 $-1 29.99999999999996447 3.200000000000000622 -100 #
coedge $-1 -1 $-1 $607 $606 $633 $723 reversed $528 $-1 #
coedge $-1 -1 $-1 $705 $529 $635 $724 forward $442 $-1 #
coedge $-1 -1 $-1 $529 $705 $631 $723 forward $442 $-1 #
edge $-1 -1 $-1 $725 -0.4636476090008051498 $661 0.4636476090008063156 $556 $726 forward @7 unknown #
coedge $-1 -1 $-1 $531 $530 $632 $724 reversed $351 $-1 #
edge $-1 -1 $-1 $534 5.28592941932790783 $727 14.74999999999999645 $530 $728 forward @7 unknown #
straight-curve $-1 -1 $-1 1.599999999999801359 -86.79999999999999716 47.14070580672085953 10 -1.837589179357618354e-14 -1.642818908444052031e-14 F -8.281600999999998436 F 1.338401000000000174 #
point $-1 -1 $-1 -34.71600000000017161 -86.79999999999994031 47.14070580672092348 #
coedge $-1 -1 $-1 $539 $536 $729 $730 forward $260 $-1 #
coedge $-1 -1 $-1 $685 $684 $536 $641 reversed $492 $-1 #
edge $-1 -1 $-1 $642 -2.15822072603855375 $731 -1.234460295335153557 $536 $732 forward @7 unknown #
vertex $-1 -1 $-1 $538 $733 #
straight-curve $-1 -1 $-1 -34.71600000000015029 -69.79999999999994031 10.19059892324147221 -1.780342670809277381e-15 1.076382375273888321e-14 -10 I I #
coedge $-1 -1 $-1 $592 $591 $539 $645 reversed $410 $-1 #
edge $-1 -1 $-1 $734 0.5571796769724548515 $647 1.480940107675853712 $539 $735 forward @7 unknown #
coedge $-1 -1 $-1 $590 $540 $591 $690 reversed $495 $-1 #
vertex $-1 -1 $-1 $645 $736 #
straight-curve $-1 -1 $-1 -34.71600000000010766 -47.10926024276515989 25.75590175359976541 -1.482309520706448437e-14 -8.660254037844401509 4.999999999999975131 I I #
point $-1 -1 $-1 -34.71600000000012187 -61.80000000000001137 34.23760430703398328 #
point $-1 -1 $-1 -34.71600000000013608 -69.79999999999996874 29.61880215351697743 #
coedge $-1 -1 $-1 $737 $545 $657 $738 reversed $573 $-1 #
coedge $-1 -1 $-1 $545 $737 $739 $740 reversed $573 $-1 #
vertex $-1 -1 $-1 $546 $741 #
straight-curve $-1 -1 $-1 -34.7160000000000295 -1.515999999999988468 -1.995797307909358363e-15 -1.780342670809296708e-15 0 -10 I I #
point $-1 -1 $-1 -34.71600000000000819 -1.515999999999992909 100 #
coedge $-1 -1 $-1 $717 $552 $564 $669 forward $658 $-1 #
coedge $-1 -1 $-1 $552 $717 $651 $738 forward $658 $-1 #
loop $-1 -1 $-1 $-1 $552 $675 #
straight-curve $-1 -1 $-1 -31.88240800000000874 -1.51599999999999735 100 -10 1.837589179357618039e-14 1.776356839400250465e-15 I I #
coedge $-1 -1 $-1 $560 $556 $606 $703 forward $270 $-1 #
vertex $-1 -1 $-1 $724 $742 #
straight-curve $-1 -1 $-1 -31.51600000000016166 -86.7999999999999261 100 -1.776356839400255592e-15 -2.664535259100375697e-15 -10 I I #
point $-1 -1 $-1 -31.51600000000016877 -86.79999999999994031 47.14070580672091637 #
coedge $-1 -1 $-1 $561 $602 $743 $744 forward $603 $-1 #
straight-curve $-1 -1 $-1 -31.51600000000002666 5.54886382487519203 -100.0000000000000142 3.994699682152716279e-15 2.248816000000001925 -6.990724443767262165e-16 F -41.06554908221708899 F -1.570796326794896558 #
coedge $-1 -1 $-1 $564 $563 $710 $745 forward $565 $-1 #
coedge $-1 -1 $-1 $743 $746 $563 $668 reversed $747 $-1 #
edge $-1 -1 $-1 $566 1.464674174967223255e-15 $748 1.570796326794896558 $563 $749 forward @7 unknown #
edge $-1 -1 $-1 $471 -3.661685437418058138e-16 $750 1.57079632679493586 $564 $751 forward @7 unknown #
face $752 -1 $-1 $482 $565 $5 $-1 $753 reversed single #
point $-1 -1 $-1 -31.51600000000004087 -1.51599999999999735 -100.0000000000000142 #
edge $-1 -1 $-1 $599 -1.696340510686852543 $694 -0.7725800799834531274 $569 $754 forward @7 unknown #
coedge $-1 -1 $-1 $570 $693 $586 $686 forward $371 $-1 #
DXID-attrib $-1 -1 $-1 $-1 $572 @10 ASM ENTITY @36 dcd67c1b-7bf6-40b9-a68b-68db897ce211 #
face $755 -1 $-1 $756 $658 $5 $-1 $757 forward single #
plane-surface $-1 -1 $-1 -31.51600000000004087 -1.51599999999999735 -100 -1.776356839400256233e-16 -3.108624468950438609e-16 -1 -1.837589179357618039e-14 -10 3.108624468950442257e-15 forward_v I I I I #
coedge $-1 -1 $-1 $575 $625 $615 $711 forward $435 $-1 #
straight-curve $-1 -1 $-1 30.00000000000002842 0 100.0000000000000142 0 10 0 I I #
point $-1 -1 $-1 30.00000000000002842 3.200000000000000622 100.0000000000000142 #
coedge $-1 -1 $-1 $719 $580 $624 $716 reversed $681 $-1 #
loop $-1 -1 $-1 $-1 $580 $622 #
straight-curve $-1 -1 $-1 30.00000000000002842 3.200000000000000622 100.0000000000000142 3.108624468950438708e-15 0 10 F -20 F -0 #
coedge $-1 -1 $-1 $691 $758 $693 $759 reversed $585 $-1 #
coedge $-1 -1 $-1 $640 $586 $758 $760 forward $492 $-1 #
coedge $-1 -1 $-1 $586 $640 $587 $687 reversed $492 $-1 #
edge $-1 -1 $-1 $761 1.234460295335152002 $688 2.158220726038551973 $673 $762 forward @7 unknown #
edge $763 -1 $-1 $688 6.623200000000018406 $642 6.94320000000001869 $685 $305 forward @7 unknown #
vertex $-1 -1 $-1 $686 $764 #
straight-curve $-1 -1 $-1 -31.5160000000001439 -69.7999999999999261 10.19059892324147221 1.772371007991185091e-15 -1.076382375273888321e-14 10 I I #
edge $765 -1 $-1 $694 6.623200000000014853 $647 6.943200000000014249 $646 $296 forward @7 unknown #
coedge $-1 -1 $-1 $729 $683 $592 $692 forward $585 $-1 #
edge $766 -1 $-1 $695 6.623200000000014853 $734 6.943200000000015137 $592 $395 forward @7 unknown #
coedge $-1 -1 $-1 $673 $593 $683 $759 forward $371 $-1 #
vertex $-1 -1 $-1 $594 $767 #
vertex $-1 -1 $-1 $759 $768 #
straight-curve $-1 -1 $-1 -31.51600000000011903 -53.79999999999995453 14.8094010767584745 -1.77237100799112849e-15 4.201196740647187941e-14 -10 I I #
DXID-attrib $-1 -1 $-1 $-1 $595 @10 ASM ENTITY @36 624351eb-e9a0-4d3f-b954-5429737f3456 #
DXID-attrib $-1 -1 $-1 $-1 $597 @10 ASM ENTITY @36 442cdd55-8217-407e-9d7e-5ce2fb9878fb #
point $-1 -1 $-1 -31.5160000000001439 -69.79999999999996874 29.61880215351697387 #
point $-1 -1 $-1 -31.51600000000012614 -61.80000000000001137 34.23760430703397617 #
ellipse-curve $-1 -1 $-1 -31.51600000000010837 -21.79999999999993321 -85 -1 1.814411733628575095e-15 1.772371007991204616e-16 -3.803402924291421964e-15 -4.743416490252566398 -14.23024947075770719 1 I I #
point $-1 -1 $-1 -31.5160000000000764 -21.79999999999994031 -100.0000000000000142 #
edge $-1 -1 $-1 $725 0.6236713617512419372 $608 6.8736713617512466 $660 $769 forward @7 unknown #
point $-1 -1 $-1 -31.51600000000009061 -30.79999999999994742 -97 #
coedge $-1 -1 $-1 $633 $632 $610 $706 forward $442 $-1 #
edge $-1 -1 $-1 $727 -0.4636476090008063711 $707 0.4636476090008055939 $610 $770 forward @7 unknown #
vertex $-1 -1 $-1 $611 $771 #
straight-curve $-1 -1 $-1 -34.71600000000017872 -85.78937089400992022 -55.75797182949251862 -1.344708826654302305e-14 -8 6.000000000000000888 I I #
straight-curve $-1 -1 $-1 -34.7160000000000295 5.548863824875196471 -100.0000000000000142 3.994699682152716279e-15 2.248816000000001925 -6.990724443767262165e-16 F -41.06554908221708899 F -1.570796326794896558 #
coedge $-1 -1 $-1 $616 $615 $666 $745 reversed $617 $-1 #
edge $772 -1 $-1 $750 0 $512 6 $677 $773 forward @7 unknown #
edge $774 -1 $-1 $514 0 $748 5.999999999999997335 $628 $775 forward @7 unknown #
DXID-attrib $-1 -1 $-1 $-1 $622 @10 ASM ENTITY @36 98b06f61-ef31-4ad4-a38d-2ac62b713273 #
plane-surface $-1 -1 $-1 4.440892098500626162e-15 3.200000000000000622 1.482885298625209167e-14 0 1 0 0 0 10 forward_v I I I I #
coedge $-1 -1 $-1 $624 $628 $746 $776 forward $520 $-1 #
edge $777 -1 $-1 $778 -5.999999999999997335 $525 0 $624 $779 forward @7 unknown #
coedge $-1 -1 $-1 $657 $656 $625 $718 forward $658 $-1 #
edge $-1 -1 $-1 $750 0 $721 0.3200000000000000622 $625 $780 forward @7 tangent #
coedge $-1 -1 $-1 $626 $680 $737 $781 reversed $681 $-1 #
DXID-attrib $-1 -1 $-1 $-1 $627 @10 ASM ENTITY @36 ae6c21d1-68a7-46e9-9db9-3dc060ff1ed0 #
vertex $-1 -1 $-1 $738 $782 #
straight-curve $-1 -1 $-1 -29.99999999999997158 3.200000000000000622 100 -10 -0 -2.960594732333750512e-15 F -6 F -0 #
edge $-1 -1 $-1 $707 -3.631600000000019701 $725 -3.311600000000019861 $631 $783 forward @7 tangent #
edge $-1 -1 $-1 $661 3.311600000000018529 $727 3.631600000000018813 $635 $784 forward @7 tangent #
vertex $-1 -1 $-1 $634 $785 #
ellipse-curve $-1 -1 $-1 -31.51600000000010837 -71.79999999999995453 -47.49999999999996447 -1 1.814411733628575095e-15 1.772371007991204616e-16 -1.768805584188681455e-14 -13.41640786499873528 -6.708203932499372968 1 I I #
vertex $-1 -1 $-1 $706 $786 #
straight-curve $-1 -1 $-1 -34.7160000000001645 -86.7999999999999261 100 -1.776356839400255592e-15 -2.664535259100375697e-15 -10 I I #
coedge $-1 -1 $-1 $758 $691 $639 $730 reversed $585 $-1 #
edge $-1 -1 $-1 $731 -0.908220726038551085 $734 0.01553970466485004795 $639 $787 forward @7 unknown #
vertex $-1 -1 $-1 $641 $788 #
straight-curve $-1 -1 $-1 -34.71600000000011477 -51.10926024276511725 9.590094216290234286 1.482309520706446544e-14 8.660254037844392627 -4.99999999999999023 I I #
point $-1 -1 $-1 -34.71600000000015029 -69.79999999999995453 20.38119784648298705 #
vertex $-1 -1 $-1 $730 $789 #
straight-curve $-1 -1 $-1 -34.71600000000011477 -53.79999999999995453 14.8094010767584745 1.780342670809220583e-15 -4.201196740647187941e-14 10 I I #
point $-1 -1 $-1 -34.71600000000010056 -53.80000000000001847 29.61880215351701295 #
coedge $-1 -1 $-1 $652 $651 $719 $781 forward $573 $-1 #
edge $-1 -1 $-1 $721 1.506663985920484225e-14 $547 1.570796326794923425 $657 $790 forward @7 unknown #
coedge $-1 -1 $-1 $746 $743 $652 $740 forward $747 $-1 #
edge $-1 -1 $-1 $653 1.35364342485043337e-15 $778 1.570796326794896558 $739 $791 forward @7 unknown #
point $-1 -1 $-1 -34.71600000000004371 -1.515999999999992909 -100.0000000000000142 #
point $-1 -1 $-1 -31.51600000000019008 -86.79999999999995453 -47.49999999999996447 #
coedge $-1 -1 $-1 $739 $667 $664 $744 reversed $747 $-1 #
edge $-1 -1 $-1 $653 -0.2833592000000000333 $566 0.03664080000000025095 $664 $792 forward @7 tangent #
edge $-1 -1 $-1 $748 0 $750 20 $710 $793 forward @7 tangent #
coedge $-1 -1 $-1 $667 $739 $715 $776 reversed $747 $-1 #
loop $-1 -1 $-1 $-1 $743 $756 #
vertex $-1 -1 $-1 $776 $794 #
ellipse-curve $-1 -1 $-1 -30.00000000000003908 -1.51599999999999957 -100.0000000000000142 -1.776356839400250563e-16 0 -1 -1.516000000000001791 0 0 1 I I #
vertex $-1 -1 $-1 $669 $795 #
ellipse-curve $-1 -1 $-1 -30.00000000000000355 -1.51599999999999957 99.99999999999998579 -1.776356839400250563e-16 0 -1 -1.516000000000001791 2.775557561562891351e-15 0 1 I I #
DXID-attrib $-1 -1 $-1 $-1 $670 @10 ASM ENTITY @36 380c642e-9202-478e-9298-743e380039cd #
cone-surface $-1 -1 $-1 -30.00000000000002132 -1.51599999999999957 0 1.776356839400250563e-16 0 1 0 1.516000000000000458 0 1 I I 0 1 2.248816000000001925 forward I I I I #
straight-curve $-1 -1 $-1 -31.51600000000010837 -47.10926024276516699 25.75590175359976541 1.482708103847352904e-14 8.660254037844401509 -4.999999999999975131 I I #
DXID-attrib $-1 -1 $-1 $-1 $675 @10 ASM ENTITY @36 efab8c08-d62d-46ea-b3b9-04d27ab21c49 #
face $796 -1 $-1 $670 $747 $5 $-1 $797 forward single #
plane-surface $-1 -1 $-1 -31.51600000000000534 -1.515999999999996906 100 1.776356839400250563e-16 0 1 10 0 -1.776356839400250465e-15 forward_v I I I I #
coedge $-1 -1 $-1 $683 $729 $684 $760 reversed $585 $-1 #
edge $-1 -1 $-1 $695 -0.01553970466485059439 $761 0.9082207260385503078 $693 $798 forward @7 unknown #
edge $799 -1 $-1 $761 6.62320000000001663 $731 6.943200000000016914 $758 $401 forward @7 unknown #
vertex $-1 -1 $-1 $759 $800 #
straight-curve $-1 -1 $-1 -31.51600000000011903 -51.10926024276513147 9.590094216290236062 -1.48270810384735101e-14 -8.660254037844392627 4.99999999999999023 I I #
DXID-attrib $-1 -1 $-1 $-1 $687 @10 ASM ENTITY @36 dc9aaf7e-c4ff-40f7-9d7c-0a978fd2a44e #
point $-1 -1 $-1 -31.51600000000014745 -69.79999999999995453 20.38119784648298349 #
DXID-attrib $-1 -1 $-1 $-1 $690 @10 ASM ENTITY @36 48945305-174d-4ed2-9ee9-b86e63bd1365 #
DXID-attrib $-1 -1 $-1 $-1 $692 @10 ASM ENTITY @36 6ef993fc-05b0-4cac-92ca-c1caa9043d0c #
point $-1 -1 $-1 -31.51600000000010837 -53.80000000000001847 29.6188021535170094 #
point $-1 -1 $-1 -31.51600000000011192 -53.79999999999998295 20.38119784648301902 #
straight-curve $-1 -1 $-1 -31.51600000000018298 -85.78937089400992022 -55.75797182949251862 1.345187126423387917e-14 8 -6.000000000000000888 I I #
ellipse-curve $-1 -1 $-1 -34.71600000000010056 -71.79999999999995453 -47.49999999999996447 1 -1.814411733628575095e-15 -1.780342670809296758e-16 -1.768805584188681455e-14 -13.41640786499873528 -6.708203932499372968 1 I I #
point $-1 -1 $-1 -34.71600000000017161 -80.79999999999996874 -59.49999999999997158 #
DXID-attrib $-1 -1 $-1 $-1 $711 @10 ASM ENTITY @36 4c4ce632-4e57-4a01-851d-1d2109283c1a #
straight-curve $-1 -1 $-1 -29.99999999999997158 0 100 10 0 2.960594732333750512e-15 F 0 F 6 #
DXID-attrib $-1 -1 $-1 $-1 $712 @10 ASM ENTITY @36 24a4cf3d-953a-4a7a-bac1-a7b33ede47ea #
straight-curve $-1 -1 $-1 29.99999999999996447 0 -100 -10 0 0 F 0 F 5.999999999999997335 #
edge $-1 -1 $-1 $748 0 $778 0.3200000000000000622 $746 $801 forward @7 tangent #
DXID-attrib $-1 -1 $-1 $-1 $716 @10 ASM ENTITY @36 206e4c3e-b862-4755-b473-7a460898a619 #
vertex $-1 -1 $-1 $781 $802 #
straight-curve $-1 -1 $-1 29.99999999999996447 3.200000000000000622 -100 10 0 0 F -5.999999999999997335 F -0 #
straight-curve $-1 -1 $-1 -29.99999999999997158 0 100 0 10 0 I I #
edge $-1 -1 $-1 $721 -20 $778 -0 $719 $803 forward @7 tangent #
point $-1 -1 $-1 -29.99999999999997158 3.200000000000000622 100 #
straight-curve $-1 -1 $-1 1.600000000000021627 -80.80000000000003979 -59.49999999999994316 10 -1.837589179357617723e-14 1.037070242355090811e-14 F -8.281601000000019752 F 1.338400999999978636 #
straight-curve $-1 -1 $-1 1.599999999999998312 -86.80000000000003979 -47.49999999999992895 -10 1.837589179357617723e-14 -1.037070242355090811e-14 F -1.338400999999978636 F 8.281601000000019752 #
point $-1 -1 $-1 -31.51600000000017587 -80.79999999999998295 -59.49999999999997158 #
point $-1 -1 $-1 -34.71600000000019293 -86.79999999999995453 -47.49999999999996447 #
straight-curve $-1 -1 $-1 -34.71600000000011477 -53.93457779007065511 20.30349932315877126 1.660343787787373217e-14 8.660254037844373087 5.000000000000025757 I I #
point $-1 -1 $-1 -34.71600000000013608 -61.79999999999996163 15.76239569296598653 #
point $-1 -1 $-1 -34.71600000000011477 -53.79999999999998295 20.38119784648302257 #
ellipse-curve $-1 -1 $-1 -30.00000000000000355 -1.51599999999999957 100 1.776356839400250563e-16 0 1 1.332267629550187849e-13 4.716000000000000192 0 1 I I #
ellipse-curve $-1 -1 $-1 -30.00000000000003908 -1.51599999999999957 -100.0000000000000142 -1.776356839400250563e-16 0 -1 -4.716000000000000192 2.775557561562891351e-16 0 1 I I #
straight-curve $-1 -1 $-1 -31.88240800000004427 -1.51599999999999735 -100 10 -1.837589179357618039e-14 -1.776356839400250465e-15 I I #
straight-curve $-1 -1 $-1 -30.00000000000000711 0 -100 1.776356839400250465e-15 0 10 F 0 F 20 #
point $-1 -1 $-1 -30.00000000000000711 0 -100 #
point $-1 -1 $-1 -29.99999999999997158 0 100 #
DXID-attrib $-1 -1 $-1 $-1 $756 @10 ASM ENTITY @36 4459a9fc-3dcc-4d3e-a430-1f512fa49688 #
plane-surface $-1 -1 $-1 -34.71600000000003661 -1.515999999999999348 -100 -1.776356839400250563e-16 0 -1 -10 0 1.776356839400250465e-15 forward_v I I I I #
straight-curve $-1 -1 $-1 -31.51600000000011903 -53.93457779007066222 20.30349932315877126 -1.65994520464646875e-14 -8.660254037844373087 -5.000000000000025757 I I #
DXID-attrib $-1 -1 $-1 $-1 $760 @10 ASM ENTITY @36 1eee243c-8baf-4c3c-8c32-5ccf2a90869a #
point $-1 -1 $-1 -31.51600000000012969 -61.79999999999996163 15.76239569296598653 #
straight-curve $-1 -1 $-1 -30.00000000000000711 0 -100 0 10 0 I I #
point $-1 -1 $-1 -30.00000000000000711 3.200000000000000622 -100 #
straight-curve $-1 -1 $-1 -30.00000000000000711 3.200000000000000622 -100 -1.776356839400250465e-15 -0 -10 F -20 F -0 #
End-of-ACIS-data 