700 0 1 0           
30 Autodesk Translation Framework 20 ASM 226.6.1.65535 NT 24 Wed Jul 29 14:38:35 2026 
1 9.999999999999999547e-07 1.000000000000000036e-10 
body $1 -1 $-1 $2 $-1 $3 #
rgb_color-st-attrib $-1 -1 $4 $-1 $0 0.9607843137254902244 0.9607843137254902244 0.9607843137254902244 #
lump $-1 -1 $-1 $-1 $5 $0 #
transform $-1 -1 1 0 0 0 1 0 0 0 1 0 0 0 1 no_rotate no_reflect no_shear #
DXID-attrib $-1 -1 $-1 $1 $0 @10 ASM ENTITY @114 SP23V1 COBERTORA DERECHA.IPT|:|5852E3041CA920B0CDA728B7BEF4EEFAAF0603F3|:|DA4B9237BACCCDF19C0760CAB7AEC4A8359010B0 #
shell $-1 -1 $-1 $-1 $-1 $6 $-1 $2 #
face $7 -1 $-1 $8 $9 $5 $-1 $10 reversed single #
DXID-attrib $-1 -1 $-1 $-1 $6 @10 ASM ENTITY @36 0fb7303f-2f79-4949-92fc-79a90b4af4a5 #
face $11 -1 $-1 $12 $13 $5 $-1 $14 reversed single #
loop $-1 -1 $-1 $-1 $15 $6 #
plane-surface $-1 -1 $-1 43.5680000000473342 693.4266573618139091 3.200000000000000622 1 0 0 -0 -10 -0 forward_v I I I I #
DXID-attrib $-1 -1 $-1 $-1 $8 @10 ASM ENTITY @36 a35d867d-64ee-4cc1-8881-3ff0a0abf742 #
face $16 -1 $-1 $17 $18 $5 $-1 $19 reversed single #
loop $-1 -1 $-1 $-1 $20 $8 #
plane-surface $-1 -1 $-1 30.5680000000473342 693.4266573618139091 3.200000000000000622 0 1 0 10 0 0 forward_v I I I I #
coedge $-1 -1 $-1 $21 $22 $23 $24 reversed $9 $-1 #
DXID-attrib $-1 -1 $-1 $-1 $12 @10 ASM ENTITY @36 0f268aae-95fd-4cbd-8886-db213c996ddf #
face $25 -1 $-1 $26 $27 $5 $-1 $28 reversed single #
loop $-1 -1 $-1 $-1 $29 $12 #
plane-surface $-1 -1 $-1 30.5680000000473342 468.4266573618060647 3.200000000000000622 -1 -0 -0 0 10 0 forward_v I I I I #
coedge $-1 -1 $-1 $30 $31 $32 $33 reversed $13 $-1 #
coedge $-1 -1 $-1 $34 $15 $31 $35 forward $9 $-1 #
coedge $-1 -1 $-1 $15 $34 $36 $37 reversed $9 $-1 #
coedge $-1 -1 $-1 $38 $32 $15 $24 forward $39 $-1 #
edge $-1 -1 $-1 $40 -15.19197650725641324 $41 7.308023492744368355 $23 $42 forward @7 unknown #
DXID-attrib $-1 -1 $-1 $-1 $17 @10 ASM ENTITY @36 42da8fd8-6a4a-4081-9acd-11c6ce26389c #
face $43 -1 $-1 $44 $45 $5 $-1 $46 reversed single #
loop $-1 -1 $-1 $-1 $47 $17 #
plane-surface $-1 -1 $-1 37.0680000000473342 468.4266573618060647 3.200000000000000622 0 -1 0 -10 -0 -0 forward_v I I I I #
coedge $-1 -1 $-1 $48 $49 $50 $51 reversed $18 $-1 #
coedge $-1 -1 $-1 $52 $20 $49 $53 forward $13 $-1 #
coedge $-1 -1 $-1 $20 $52 $21 $35 reversed $13 $-1 #
coedge $-1 -1 $-1 $23 $50 $20 $33 forward $39 $-1 #
edge $-1 -1 $-1 $54 0.4482639465492295194 $40 1.748263946549229786 $32 $55 forward @7 unknown #
coedge $-1 -1 $-1 $22 $21 $56 $57 reversed $9 $-1 #
edge $58 -1 $-1 $40 0 $59 0.3200000000000000622 $31 $60 forward @7 unknown #
coedge $-1 -1 $-1 $61 $47 $22 $37 forward $27 $-1 #
edge $62 -1 $-1 $41 0 $63 0.3200000000000000622 $36 $64 forward @7 unknown #
coedge $-1 -1 $-1 $50 $23 $47 $65 forward $39 $-1 #
loop $-1 -1 $-1 $66 $23 $67 #
vertex $-1 -1 $-1 $24 $68 #
vertex $-1 -1 $-1 $24 $69 #
straight-curve $-1 -1 $-1 43.5680000000473342 541.5068922892497767 3.200000000000000622 0 -10 0 F -15.19197650725641324 F 7.308023492744368355 #
DXID-attrib $-1 -1 $-1 $-1 $26 @10 ASM ENTITY @36 ab1daa7d-9082-4204-b544-c04771cf2f4a #
face $70 -1 $-1 $71 $72 $5 $-1 $46 reversed single #
loop $-1 -1 $-1 $73 $74 $26 #
cone-surface $-1 -1 $-1 -23.69999999999999574 602.9973334017353181 -23.54139335643981923 1 0 3.546632988080666964e-16 3.940309249757619788e-15 2.596753221807470206e-16 -11.10999999999999588 1 I I 0 1 11.10999999999999588 forward I I I I #
coedge $-1 -1 $-1 $36 $75 $38 $65 reversed $27 $-1 #
coedge $-1 -1 $-1 $76 $29 $75 $77 forward $18 $-1 #
coedge $-1 -1 $-1 $29 $76 $30 $53 reversed $18 $-1 #
coedge $-1 -1 $-1 $32 $38 $29 $51 forward $39 $-1 #
edge $-1 -1 $-1 $78 3.941976507256015338 $54 26.44197650725679694 $50 $79 forward @7 unknown #
coedge $-1 -1 $-1 $31 $30 $80 $81 reversed $13 $-1 #
edge $82 -1 $-1 $54 0 $83 0.3200000000000000622 $49 $84 forward @7 unknown #
vertex $-1 -1 $-1 $33 $85 #
straight-curve $-1 -1 $-1 26.08536053455503989 693.4266573618139091 3.200000000000000622 10 0 0 F 0.4482639465492295194 F 1.748263946549229786 #
coedge $-1 -1 $-1 $80 $86 $34 $57 forward $87 $-1 #
edge $-1 -1 $-1 $63 -7.30802349274437546 $59 15.19197650725640614 $56 $88 forward @7 unknown #
DXID-attrib $-1 -1 $-1 $-1 $35 @10 ASM ENTITY @36 253b2dd3-b167-4b2e-bb54-07273e241a89 #
vertex $-1 -1 $-1 $35 $89 #
straight-curve $-1 -1 $-1 43.5680000000473342 693.4266573618139091 3.200000000000000622 0 0 -10 F 0 F 0.3200000000000000622 #
coedge $-1 -1 $-1 $75 $36 $86 $90 reversed $27 $-1 #
DXID-attrib $-1 -1 $-1 $-1 $37 @10 ASM ENTITY @36 d4458c4c-86de-4b56-80ad-3f75b5505e04 #
vertex $-1 -1 $-1 $57 $91 #
straight-curve $-1 -1 $-1 43.5680000000473342 468.4266573618060647 3.200000000000000622 0 0 -10 F 0 F 0.3200000000000000622 #
edge $-1 -1 $-1 $41 -1.423263946549229608 $78 -0.1232639465492293418 $38 $92 forward @7 unknown #
loop $-1 -1 $-1 $93 $94 $67 #
face $95 -1 $-1 $96 $39 $5 $-1 $97 forward single #
point $-1 -1 $-1 43.5680000000473342 693.4266573618139091 3.200000000000000622 #
point $-1 -1 $-1 43.5680000000473342 468.4266573618060647 3.200000000000000622 #
DXID-attrib $-1 -1 $-1 $-1 $44 @10 ASM ENTITY @36 23d6c1f0-b507-41eb-8b7d-716130a6a63f #
face $98 -1 $-1 $99 $100 $5 $-1 $101 reversed single #
loop $-1 -1 $-1 $102 $103 $44 #
loop $-1 -1 $-1 $-1 $104 $26 #
coedge $-1 -1 $-1 $74 $74 $105 $106 reversed $45 $-1 #
coedge $-1 -1 $-1 $47 $61 $48 $77 reversed $27 $-1 #
coedge $-1 -1 $-1 $49 $48 $107 $108 reversed $18 $-1 #
edge $109 -1 $-1 $78 0 $110 0.3200000000000000622 $75 $111 forward @7 unknown #
vertex $-1 -1 $-1 $51 $112 #
straight-curve $-1 -1 $-1 30.56800000004733064 429.0068922892459113 3.200000000000000622 0 10 0 F 3.941976507256015338 F 26.44197650725679694 #
coedge $-1 -1 $-1 $107 $56 $52 $81 forward $87 $-1 #
edge $-1 -1 $-1 $59 -1.748263946549229786 $83 -0.4482639465492295194 $80 $113 forward @7 unknown #
DXID-attrib $-1 -1 $-1 $-1 $53 @10 ASM ENTITY @36 d6b3f1c0-7b11-4a52-b40d-c335ddc71a6f #
vertex $-1 -1 $-1 $53 $114 #
straight-curve $-1 -1 $-1 30.5680000000473342 693.4266573618139091 3.200000000000000622 0 0 -10 F 0 F 0.3200000000000000622 #
point $-1 -1 $-1 30.5680000000473342 693.4266573618139091 3.200000000000000622 #
coedge $-1 -1 $-1 $56 $107 $61 $90 forward $87 $-1 #
loop $-1 -1 $-1 $115 $56 $116 #
straight-curve $-1 -1 $-1 43.5680000000473342 541.5068922892497767 0 0 10 0 F -7.30802349274437546 F 15.19197650725640614 #
point $-1 -1 $-1 43.5680000000473342 693.4266573618139091 0 #
edge $-1 -1 $-1 $110 0.1232639465492293418 $63 1.423263946549229608 $86 $117 forward @7 unknown #
point $-1 -1 $-1 43.5680000000473342 468.4266573618060647 0 #
straight-curve $-1 -1 $-1 29.33536053455504344 468.4266573618060647 3.200000000000000622 -10 0 0 F -1.423263946549229608 F -0.1232639465492293418 #
loop $-1 -1 $-1 $118 $119 $67 #
coedge $-1 -1 $-1 $94 $94 $120 $121 forward $66 $-1 #
DXID-attrib $-1 -1 $-1 $-1 $67 @10 ASM ENTITY @36 bf140b64-9e17-491a-8667-f3453cb3cf49 #
face $122 -1 $-1 $123 $124 $5 $-1 $125 reversed single #
plane-surface $-1 -1 $-1 21.60272106906274914 389.5871272166857011 3.200000000000000622 0 0 1 10 0 0 forward_v I I I I #
DXID-attrib $-1 -1 $-1 $-1 $71 @10 ASM ENTITY @36 b55e553c-5202-472c-9fc6-aac8476464c5 #
face $126 -1 $-1 $127 $128 $5 $-1 $129 reversed single #
loop $-1 -1 $-1 $130 $131 $71 #
cone-surface $-1 -1 $-1 -0.4999999999954241048 72.68190385257639718 3.200000000000000622 0 0 -1 -4.499999999998539835 0 0 1 I I 0 1 4.499999999998539835 forward I I I I #
loop $-1 -1 $-1 $-1 $132 $44 #
coedge $-1 -1 $-1 $103 $103 $133 $134 reversed $72 $-1 #
coedge $-1 -1 $-1 $104 $104 $135 $136 reversed $73 $-1 #
coedge $-1 -1 $-1 $105 $105 $74 $106 forward $137 $-1 #
edge $-1 -1 $-1 $138 -3.141592653589793116 $138 3.141592653589793116 $105 $139 forward @7 unknown #
coedge $-1 -1 $-1 $86 $80 $76 $108 forward $87 $-1 #
edge $-1 -1 $-1 $83 -26.44197650725679694 $110 -3.941976507256015338 $107 $140 forward @7 unknown #
DXID-attrib $-1 -1 $-1 $-1 $77 @10 ASM ENTITY @36 351e6a8e-067b-486b-917f-125b9bc9d0fc #
vertex $-1 -1 $-1 $77 $141 #
straight-curve $-1 -1 $-1 30.5680000000473342 468.4266573618060647 3.200000000000000622 0 0 -10 F 0 F 0.3200000000000000622 #
point $-1 -1 $-1 30.5680000000473342 468.4266573618060647 3.200000000000000622 #
straight-curve $-1 -1 $-1 26.08536053455503989 693.4266573618139091 0 -10 0 0 F -1.748263946549229786 F -0.4482639465492295194 #
point $-1 -1 $-1 30.5680000000473342 693.4266573618139091 0 #
loop $-1 -1 $-1 $142 $143 $116 #
face $144 -1 $-1 $-1 $87 $5 $-1 $145 reversed single #
straight-curve $-1 -1 $-1 29.33536053455504344 468.4266573618060647 0 10 0 0 F 0.1232639465492293418 F 1.423263946549229608 #
loop $-1 -1 $-1 $-1 $146 $67 #
coedge $-1 -1 $-1 $119 $119 $147 $148 forward $93 $-1 #
coedge $-1 -1 $-1 $120 $120 $94 $121 reversed $130 $-1 #
edge $-1 -1 $-1 $149 -3.141592653589793116 $149 3.141592653589793116 $94 $150 forward @7 unknown #
DXID-attrib $-1 -1 $-1 $-1 $96 @10 ASM ENTITY @36 253800c6-178d-46f6-ab51-bc0ceeafe3f9 #
face $151 -1 $-1 $152 $153 $5 $-1 $154 reversed single #
loop $-1 -1 $-1 $155 $133 $96 #
plane-surface $-1 -1 $-1 -20.49999999999999289 371.1319038524055145 -36.38088526306454895 -1 2.771861098480289183e-18 -3.554582855540882328e-16 -3.554582855540882229e-15 5.843279076974510248e-17 10 forward_v I I I I #
DXID-attrib $-1 -1 $-1 $-1 $99 @10 ASM ENTITY @36 fa216212-c698-40c9-8128-022ea34a38a6 #
face $156 -1 $-1 $157 $158 $5 $-1 $159 reversed single #
loop $-1 -1 $-1 $160 $161 $99 #
cone-surface $-1 -1 $-1 -0.4999999999965609732 130.1819038525536598 3.200000000000000622 0 0 -1 -4.499999999998539835 0 0 1 I I 0 1 4.499999999998539835 forward I I I I #
loop $-1 -1 $-1 $-1 $120 $71 #
coedge $-1 -1 $-1 $131 $131 $143 $162 reversed $100 $-1 #
coedge $-1 -1 $-1 $132 $132 $163 $164 reversed $102 $-1 #
coedge $-1 -1 $-1 $133 $133 $103 $134 forward $124 $-1 #
edge $-1 -1 $-1 $165 -3.141592653589793116 $165 3.141592653589793116 $133 $166 forward @7 unknown #
coedge $-1 -1 $-1 $135 $135 $104 $136 forward $167 $-1 #
edge $-1 -1 $-1 $168 -3.141592653589793116 $168 3.141592653589793116 $135 $169 forward @7 unknown #
loop $-1 -1 $-1 $170 $105 $171 #
vertex $-1 -1 $-1 $106 $172 #
ellipse-curve $-1 -1 $-1 89.7356316483275549 602.9973334017353181 -23.54139335643978015 -0.9942296945700516142 0.1072721512562423291 9.731477712670573947e-16 1.198710526315788005 11.10999999999999588 6.848139517598582146e-16 0.9942296945700515032 I I #
straight-curve $-1 -1 $-1 30.56800000004733064 429.0068922892459113 0 0 -10 0 F -26.44197650725679694 F -3.941976507256015338 #
point $-1 -1 $-1 30.5680000000473342 468.4266573618060647 0 #
loop $-1 -1 $-1 $173 $174 $116 #
coedge $-1 -1 $-1 $143 $143 $131 $162 forward $115 $-1 #
DXID-attrib $-1 -1 $-1 $-1 $116 @10 ASM ENTITY @36 23ea5a0a-0af0-41d6-b41f-0c0490379e83 #
plane-surface $-1 -1 $-1 21.60272106906274914 389.587127216685758 0 0 0 1 10 0 0 forward_v I I I I #
coedge $-1 -1 $-1 $175 $176 $177 $178 forward $118 $-1 #
coedge $-1 -1 $-1 $147 $147 $119 $148 reversed $160 $-1 #
edge $-1 -1 $-1 $179 -3.141592653589793116 $179 3.141592653589793116 $119 $180 forward @7 unknown #
vertex $-1 -1 $-1 $121 $181 #
ellipse-curve $-1 -1 $-1 -0.4999999999954241048 72.68190385257639718 3.200000000000000622 -0 -0 -1 -4.499999999998539835 0 0 1 I I #
DXID-attrib $-1 -1 $-1 $-1 $123 @10 ASM ENTITY @36 41761dad-566d-49d5-995b-e7e736aad6a6 #
face $182 -1 $-1 $183 $184 $5 $-1 $154 reversed single #
loop $-1 -1 $-1 $-1 $185 $123 #
cone-surface $-1 -1 $-1 -17.30000000000000071 371.1319038524055713 -3.200000000000000622 -5.843279076974507783e-18 -1 0 0 0 3.200000000000001954 1 I I 0 1 4.60800000000000054 forward I I I I #
loop $-1 -1 $-1 $-1 $186 $96 #
DXID-attrib $-1 -1 $-1 $-1 $127 @10 ASM ENTITY @36 663a2216-b13c-469f-ada8-31dc01df5da7 #
face $187 -1 $-1 $188 $189 $5 $-1 $190 reversed single #
loop $-1 -1 $-1 $-1 $191 $127 #
cone-surface $-1 -1 $-1 15.5000000000144933 627.1319038523834024 3.200000000000000622 0 0 -1 4.500000000000296652 4.007461029686978619e-11 0 1 I I 0 1 4.500000000000296652 forward I I I I #
loop $-1 -1 $-1 $-1 $147 $99 #
coedge $-1 -1 $-1 $161 $161 $174 $192 reversed $128 $-1 #
edge $-1 -1 $-1 $193 -3.141592653589793116 $193 3.141592653589793116 $143 $194 forward @7 unknown #
coedge $-1 -1 $-1 $163 $163 $132 $164 forward $195 $-1 #
edge $-1 -1 $-1 $196 -3.141592653589793116 $196 3.141592653589793116 $163 $197 forward @7 unknown #
vertex $-1 -1 $-1 $134 $198 #
ellipse-curve $-1 -1 $-1 -20.5 602.9973334017353181 -23.54139335643981923 -1 2.771861098480289183e-18 -3.554582855540882328e-16 3.940309249757619788e-15 2.596753221807470206e-16 -11.10999999999999588 1 I I #
loop $-1 -1 $-1 $199 $135 $200 #
vertex $-1 -1 $-1 $136 $201 #
ellipse-curve $-1 -1 $-1 86.51705950400652512 602.9973334017353181 -23.54139335643978015 0.9942296945700516142 -0.1072721512562423291 -9.794916119448262918e-16 1.198710526315788005 11.10999999999999588 6.848139517598582146e-16 0.9942296945700515032 I I #
loop $-1 -1 $-1 $-1 $202 $171 #
face $203 -1 $-1 $204 $137 $5 $-1 $205 forward single #
point $-1 -1 $-1 88.53692112201176201 591.8873334017353045 -23.54139335643978015 #
loop $-1 -1 $-1 $-1 $206 $116 #
coedge $-1 -1 $-1 $174 $174 $161 $192 forward $142 $-1 #
coedge $-1 -1 $-1 $207 $146 $208 $209 forward $118 $-1 #
coedge $-1 -1 $-1 $146 $210 $211 $212 forward $118 $-1 #
coedge $-1 -1 $-1 $213 $214 $146 $178 reversed $189 $-1 #
edge $-1 -1 $-1 $215 -1.625136053453225093 $216 1.654863946549685716 $146 $217 forward @7 unknown #
vertex $-1 -1 $-1 $148 $218 #
ellipse-curve $-1 -1 $-1 -0.4999999999965609732 130.1819038525536598 3.200000000000000622 -0 -0 -1 -4.499999999998539835 0 0 1 I I #
point $-1 -1 $-1 4.00000000000311573 72.68190385257639718 3.200000000000000622 #
DXID-attrib $-1 -1 $-1 $-1 $152 @10 ASM ENTITY @36 c6bfe55b-fd55-428a-99d8-9718b9d7a95f #
face $219 -1 $-1 $200 $220 $5 $-1 $221 forward single #
loop $-1 -1 $-1 $-1 $222 $152 #
coedge $-1 -1 $-1 $223 $224 $225 $226 forward $153 $-1 #
coedge $-1 -1 $-1 $227 $228 $229 $230 forward $155 $-1 #
DXID-attrib $-1 -1 $-1 $-1 $157 @10 ASM ENTITY @36 3bd4e754-08f7-4191-b7ea-f5cfdbe44db8 #
face $231 -1 $-1 $232 $233 $5 $-1 $234 forward single #
loop $-1 -1 $-1 $-1 $213 $157 #
plane-surface $-1 -1 $-1 -23.70000000000000995 631.6319038523838572 3.200000000000000622 7.250436079179311171e-15 1 0 10 -7.250436079179311171e-14 0 forward_v I I I I #
coedge $-1 -1 $-1 $235 $236 $237 $238 reversed $158 $-1 #
edge $-1 -1 $-1 $239 -3.141592653589793116 $239 3.141592653589793116 $174 $240 forward @7 unknown #
vertex $-1 -1 $-1 $162 $241 #
ellipse-curve $-1 -1 $-1 -0.4999999999954241048 72.68190385257639718 0 0 0 1 -4.499999999998539835 0 0 1 I I #
loop $-1 -1 $-1 $242 $163 $243 #
vertex $-1 -1 $-1 $164 $244 #
ellipse-curve $-1 -1 $-1 -23.69999999999999574 602.9973334017353181 -23.54139335643981923 1 -3.071417978494215518e-18 3.538733093890315331e-16 3.940309249757619788e-15 2.596753221807470206e-16 -11.10999999999999588 1 I I #
point $-1 -1 $-1 -20.50000000000000355 602.9973334017353181 -12.43139335643982335 #
loop $-1 -1 $-1 $-1 $245 $200 #
face $246 -1 $-1 $247 $167 $5 $-1 $248 reversed single #
point $-1 -1 $-1 85.31834897769073223 591.8873334017353045 -23.54139335643978015 #
coedge $-1 -1 $-1 $249 $250 $251 $252 forward $170 $-1 #
DXID-attrib $-1 -1 $-1 $-1 $171 @10 ASM ENTITY @36 8a8005de-fada-41ec-9509-611f0fe7f8d9 #
face $253 -1 $-1 $254 $255 $5 $-1 $256 reversed single #
plane-surface $-1 -1 $-1 64.66462894830284824 370.6319425234574396 -36.38052696028928068 0.9942296945700516142 -0.1072721512562423291 -9.731477712670573947e-16 0.1150731443514117491 1.066531581793663364 -9.94229694570051592 forward_v I I I I #
coedge $-1 -1 $-1 $257 $237 $258 $259 forward $173 $-1 #
coedge $-1 -1 $-1 $260 $175 $261 $262 forward $118 $-1 #
coedge $-1 -1 $-1 $236 $235 $175 $209 reversed $158 $-1 #
edge $-1 -1 $-1 $216 -1.570796326782744279 $263 9.972760085755707522e-28 $175 $264 forward @7 unknown #
coedge $-1 -1 $-1 $176 $265 $266 $267 reversed $118 $-1 #
coedge $-1 -1 $-1 $268 $269 $176 $212 reversed $270 $-1 #
edge $-1 -1 $-1 $271 -18.07723883178599067 $215 -6.127238831783813566 $211 $272 forward @7 tangent #
coedge $-1 -1 $-1 $273 $177 $269 $274 reversed $189 $-1 #
coedge $-1 -1 $-1 $177 $258 $236 $275 reversed $189 $-1 #
vertex $-1 -1 $-1 $274 $276 #
vertex $-1 -1 $-1 $209 $277 #
straight-curve $-1 -1 $-1 -1.048639465467752885 631.6319038523837435 3.200000000000000622 10 -7.250436079179311171e-14 0 F -1.625136053453225093 F 1.654863946549685716 #
point $-1 -1 $-1 4.000000000001978862 130.1819038525536598 3.200000000000000622 #
DXID-attrib $-1 -1 $-1 $-1 $183 @10 ASM ENTITY @36 081d0225-95e1-4cb3-90c6-cfd62b8c1b91 #
loop $-1 -1 $-1 $-1 $251 $183 #
cone-surface $-1 -1 $-1 58.28142785567887785 371.1319038524055713 -3.200000000000017053 0.1072721512562423846 0.9942296945700515032 0 0 0 6.399999999999979039 1 I I 0 1 4.608000000000003205 forward I I I I #
coedge $-1 -1 $-1 $278 $279 $280 $281 forward $184 $-1 #
coedge $-1 -1 $-1 $282 $185 $283 $284 reversed $153 $-1 #
coedge $-1 -1 $-1 $185 $282 $285 $286 reversed $153 $-1 #
coedge $-1 -1 $-1 $287 $288 $185 $226 reversed $289 $-1 #
edge $-1 -1 $-1 $290 -1.570796326794895892 $291 -1.387778780785430212e-15 $185 $292 forward @7 unknown #
coedge $-1 -1 $-1 $293 $186 $294 $295 forward $155 $-1 #
coedge $-1 -1 $-1 $186 $296 $278 $297 forward $155 $-1 #
coedge $-1 -1 $-1 $280 $298 $186 $230 reversed $189 $-1 #
edge $-1 -1 $-1 $299 -1.339044263153227554 $300 -0.9790442631532274564 $186 $301 forward @7 unknown #
DXID-attrib $-1 -1 $-1 $-1 $188 @10 ASM ENTITY @36 8fa9b5e3-9beb-4669-89fa-d71683be8d85 #
face $302 -1 $-1 $303 $304 $5 $-1 $305 reversed single #
loop $-1 -1 $-1 $-1 $294 $188 #
plane-surface $-1 -1 $-1 -1.849999999992610888 591.1319038523804466 -6.799999999999998934 0 0 1 10 0 0 forward_v I I I I #
coedge $-1 -1 $-1 $208 $191 $306 $307 reversed $158 $-1 #
coedge $-1 -1 $-1 $191 $208 $214 $275 forward $158 $-1 #
coedge $-1 -1 $-1 $206 $308 $191 $238 forward $173 $-1 #
edge $-1 -1 $-1 $309 -9.972760085755707522e-28 $310 1.570796326782744279 $237 $311 forward @7 unknown #
vertex $-1 -1 $-1 $192 $312 #
ellipse-curve $-1 -1 $-1 -0.4999999999965609732 130.1819038525536598 0 0 0 1 -4.499999999998539835 0 0 1 I I #
point $-1 -1 $-1 4.00000000000311573 72.68190385257639718 0 #
loop $-1 -1 $-1 $-1 $313 $243 #
face $314 -1 $-1 $315 $195 $5 $-1 $316 forward single #
point $-1 -1 $-1 -23.70000000000000284 602.9973334017353181 -12.43139335643982335 #
coedge $-1 -1 $-1 $317 $318 $319 $320 forward $199 $-1 #
DXID-attrib $-1 -1 $-1 $-1 $200 @10 ASM ENTITY @36 8f1c0e1b-7f23-400c-92a9-aff3ab629257 #
face $321 -1 $-1 $322 $323 $5 $-1 $324 forward single #
plane-surface $-1 -1 $-1 61.48309392567868059 370.9752134074773835 -36.38052696028929489 0.9942296945700516142 -0.1072721512562423291 -9.794916119448262918e-16 0.1150731443514116659 1.066531581793663364 -9.94229694570051592 forward_v I I I I #
coedge $-1 -1 $-1 $325 $202 $326 $327 reversed $170 $-1 #
coedge $-1 -1 $-1 $202 $325 $328 $329 reversed $170 $-1 #
coedge $-1 -1 $-1 $330 $331 $202 $252 reversed $220 $-1 #
edge $-1 -1 $-1 $332 -38.24568736391545087 $333 38.1954010637095962 $202 $334 forward @7 tangent #
DXID-attrib $-1 -1 $-1 $-1 $204 @10 ASM ENTITY @36 64ec75fc-f988-4b5f-a8e5-c5a12d2762f4 #
face $335 -1 $-1 $336 $337 $5 $-1 $338 forward single #
loop $-1 -1 $-1 $-1 $319 $204 #
cone-surface $-1 -1 $-1 58.28142785567887785 371.1319038524055713 -3.200000000000017053 0.1072721512562423846 0.9942296945700515032 0 0 0 3.199999999999978417 1 I I 0 1 4.608000000000003205 forward I I I I #
coedge $-1 -1 $-1 $339 $206 $279 $340 forward $173 $-1 #
coedge $-1 -1 $-1 $214 $280 $206 $259 reversed $189 $-1 #
edge $-1 -1 $-1 $310 -1.654863946549685716 $341 1.625136053453225093 $206 $342 forward @7 unknown #
coedge $-1 -1 $-1 $343 $207 $344 $345 forward $118 $-1 #
coedge $-1 -1 $-1 $306 $346 $207 $262 reversed $304 $-1 #
edge $-1 -1 $-1 $263 -11.87723883178688311 $347 -4.677238831775241579 $207 $348 forward @7 unknown #
vertex $-1 -1 $-1 $307 $349 #
ellipse-curve $-1 -1 $-1 15.5000000000144933 627.1319038523834024 3.200000000000000622 -0 -0 -1 4.500000000000296652 4.007461029686978619e-11 0 1 F -1.570796326782744279 F 9.972760085755707522e-28 #
coedge $-1 -1 $-1 $210 $350 $351 $352 forward $118 $-1 #
coedge $-1 -1 $-1 $353 $354 $210 $267 forward $355 $-1 #
edge $356 -1 $-1 $271 0.3200000000000000622 $357 11.97814278556789525 $266 $358 forward @7 unknown #
coedge $-1 -1 $-1 $359 $211 $360 $361 reversed $270 $-1 #
coedge $-1 -1 $-1 $211 $359 $213 $274 forward $270 $-1 #
loop $-1 -1 $-1 $-1 $269 $362 #
vertex $-1 -1 $-1 $212 $363 #
straight-curve $-1 -1 $-1 -17.30000000000000426 570.3595155345456078 3.200000000000000622 -5.843279076974507783e-17 -10 0 F -18.07723883178599067 F -6.127238831783813566 #
coedge $-1 -1 $-1 $298 $213 $313 $364 reversed $189 $-1 #
edge $-1 -1 $-1 $365 -1.570796326794896558 $215 -1.040834085586003596e-15 $269 $366 forward @7 unknown #
edge $367 -1 $-1 $216 0 $310 0.3200000000000000622 $214 $368 forward @7 tangent #
point $-1 -1 $-1 -17.30000000000000426 631.6319038523838572 3.200000000000000622 #
point $-1 -1 $-1 15.50000000002910383 631.6319038523836298 3.200000000000000622 #
coedge $-1 -1 $-1 $369 $222 $228 $297 reversed $184 $-1 #
coedge $-1 -1 $-1 $222 $369 $257 $340 reversed $184 $-1 #
coedge $-1 -1 $-1 $258 $229 $222 $281 reversed $189 $-1 #
edge $-1 -1 $-1 $341 2.081668171172007191e-15 $299 1.570796326794895892 $222 $370 forward @7 unknown #
coedge $-1 -1 $-1 $224 $223 $371 $372 forward $153 $-1 #
coedge $-1 -1 $-1 $373 $374 $223 $284 forward $173 $-1 #
edge $-1 -1 $-1 $375 -57.92276116821400933 $291 -1.972761168216841554 $223 $376 forward @7 tangent #
coedge $-1 -1 $-1 $377 $293 $224 $286 forward $155 $-1 #
edge $-1 -1 $-1 $290 -17.94999999999716067 $378 38 $285 $379 forward @7 tangent #
coedge $-1 -1 $-1 $380 $225 $293 $381 reversed $289 $-1 #
coedge $-1 -1 $-1 $225 $382 $373 $383 reversed $289 $-1 #
loop $-1 -1 $-1 $-1 $384 $303 #
vertex $-1 -1 $-1 $226 $385 #
vertex $-1 -1 $-1 $383 $386 #
ellipse-curve $-1 -1 $-1 -17.30000000000000071 550.6319038523779454 -3.200000000000000622 -1.993869921774310572e-14 1 0 0 0 3.200000000000001954 1 F -1.570796326794895892 F -1.387778780785430212e-15 #
coedge $-1 -1 $-1 $285 $227 $287 $381 forward $155 $-1 #
coedge $-1 -1 $-1 $387 $388 $227 $295 reversed $233 $-1 #
edge $-1 -1 $-1 $300 -15.04999999999908766 $389 -6.949999999998418332 $227 $390 forward @7 unknown #
coedge $-1 -1 $-1 $228 $391 $392 $393 reversed $155 $-1 #
edge $-1 -1 $-1 $394 -38 $299 -26.0499999999978229 $228 $395 forward @7 tangent #
coedge $-1 -1 $-1 $229 $273 $387 $396 forward $189 $-1 #
vertex $-1 -1 $-1 $230 $397 #
vertex $-1 -1 $-1 $396 $398 #
straight-curve $-1 -1 $-1 -20.5 631.6319038523838572 -16.59044263153227305 3.554582855540882229e-15 -2.577227578224583547e-29 -10 F -1.339044263153227554 F -0.9790442631532274564 #
DXID-attrib $-1 -1 $-1 $-1 $232 @10 ASM ENTITY @36 bd28491a-b5f8-41f1-8874-f75f8cfac995 #
face $399 -1 $-1 $400 $289 $5 $-1 $401 reversed single #
loop $-1 -1 $-1 $-1 $402 $232 #
plane-surface $-1 -1 $-1 20.00000000001477574 627.1319038524234202 3.200000000000000622 1 -1.184237892931585481e-14 0 -1.184237892931585418e-13 -10 -0 forward_v I I I I #
coedge $-1 -1 $-1 $402 $261 $235 $307 forward $304 $-1 #
edge $403 -1 $-1 $263 0 $309 0.3200000000000000622 $235 $404 forward @7 tangent #
coedge $-1 -1 $-1 $237 $405 $402 $406 forward $173 $-1 #
vertex $-1 -1 $-1 $238 $407 #
vertex $-1 -1 $-1 $238 $408 #
ellipse-curve $-1 -1 $-1 15.5000000000144933 627.1319038523834024 0 0 0 1 4.500000000000296652 4.007461029686978619e-11 0 1 F -9.972760085755707522e-28 F 1.570796326782744279 #
point $-1 -1 $-1 4.000000000001978862 130.1819038525536598 0 #
coedge $-1 -1 $-1 $409 $410 $273 $364 forward $242 $-1 #
DXID-attrib $-1 -1 $-1 $-1 $243 @10 ASM ENTITY @36 777320b7-d98c-4a9c-b5de-7f07191a9fc4 #
face $411 -1 $-1 $116 $355 $5 $-1 $412 forward single #
plane-surface $-1 -1 $-1 -23.69999999999999218 371.1319038524055145 -36.38088526306454895 -1 3.071417978494215518e-18 -3.538733093890315331e-16 -3.538733093890315331e-15 5.843279076974510248e-17 10 forward_v I I I I #
coedge $-1 -1 $-1 $413 $245 $414 $415 forward $199 $-1 #
coedge $-1 -1 $-1 $245 $413 $416 $417 reversed $199 $-1 #
coedge $-1 -1 $-1 $418 $419 $245 $320 reversed $255 $-1 #
edge $-1 -1 $-1 $420 -38.1954010637095962 $421 38.24568736391545087 $245 $422 forward @7 tangent #
DXID-attrib $-1 -1 $-1 $-1 $247 @10 ASM ENTITY @36 98381abe-cf81-4f33-918c-e6754b0a4d54 #
face $423 -1 $-1 $424 $425 $5 $-1 $426 forward single #
loop $-1 -1 $-1 $-1 $326 $247 #
plane-surface $-1 -1 $-1 20.499999999999865 -8.868096147594553003 -76.80000000000002558 -0.1072721512562423707 -0.9942296945700516142 0 -9.94229694570051592 1.072721512562423873 8.232330296306032738e-15 forward_v I I I I #
coedge $-1 -1 $-1 $250 $249 $427 $428 reversed $170 $-1 #
coedge $-1 -1 $-1 $429 $430 $249 $327 forward $323 $-1 #
edge $-1 -1 $-1 $431 -7.359999999999997655 $333 -0 $326 $432 forward @7 unknown #
coedge $-1 -1 $-1 $433 $434 $250 $329 forward $435 $-1 #
edge $-1 -1 $-1 $332 0 $436 7.359999999999999432 $328 $437 forward @7 unknown #
tcoedge-coedge $-1 -1 $-1 $351 $251 $438 $439 reversed $220 $440 -1.570796326796527476 -3.467742431485541537e-14 #
tcoedge-coedge $-1 -1 $-1 $251 $351 $441 $442 reversed $220 $443 -1.570796326794879905 -3.657944861431382049e-13 #
tvertex-vertex $-1 -1 $-1 $252 $444 1.758416883964276162e-11 #
tvertex-vertex $-1 -1 $-1 $252 $445 1.235054971472966691e-11 #
straight-curve $-1 -1 $-1 64.65456342461504846 370.53865230391159 -3.200000000000011724 -1.072721512562423207 -9.942296945700517696 1.387778780781440992e-16 F -38.24568736391545087 F 38.1954010637095962 #
DXID-attrib $-1 -1 $-1 $-1 $254 @10 ASM ENTITY @36 5f22647f-a861-417b-8976-c91768d02bb9 #
face $446 -1 $-1 $447 $448 $5 $-1 $449 forward single #
loop $-1 -1 $-1 $-1 $450 $254 #
plane-surface $-1 -1 $-1 20.5 -8.868096147594428658 0 0 -1 0 0 0 -10 forward_v I I I I #
coedge $-1 -1 $-1 $451 $257 $452 $453 forward $173 $-1 #
edge $-1 -1 $-1 $341 6.127238831783813566 $454 18.07723883178599067 $279 $455 forward @7 tangent #
vertex $-1 -1 $-1 $281 $456 #
straight-curve $-1 -1 $-1 -1.048639465467752885 631.6319038523836298 0 -10 7.250436079179311171e-14 0 F -1.654863946549685716 F 1.625136053453225093 #
coedge $-1 -1 $-1 $457 $260 $458 $459 forward $118 $-1 #
coedge $-1 -1 $-1 $460 $461 $260 $345 reversed $462 $-1 #
edge $-1 -1 $-1 $347 -1.570796326775659724 $463 0 $260 $464 forward @7 unknown #
coedge $-1 -1 $-1 $261 $402 $460 $465 reversed $304 $-1 #
vertex $-1 -1 $-1 $465 $466 #
straight-curve $-1 -1 $-1 20.00000000001337241 508.3595155345545891 3.200000000000000622 -1.184237892931585418e-13 -10 0 F -11.87723883178688311 F -4.677238831775241579 #
point $-1 -1 $-1 20.00000000001477574 627.1319038524234202 3.200000000000000622 #
coedge $-1 -1 $-1 $265 $457 $467 $468 reversed $118 $-1 #
coedge $-1 -1 $-1 $331 $330 $265 $352 reversed $220 $-1 #
edge $-1 -1 $-1 $469 -19.83097847222592947 $357 56.61010995539917445 $351 $470 forward @7 tangent #
coedge $-1 -1 $-1 $452 $266 $471 $472 forward $355 $-1 #
coedge $-1 -1 $-1 $266 $452 $473 $474 forward $355 $-1 #
loop $-1 -1 $-1 $-1 $353 $315 #
DXID-attrib $-1 -1 $-1 $-1 $267 @10 ASM ENTITY @36 a89d53ad-2b28-426b-b741-006f09119230 #
tvertex-vertex $-1 -1 $-1 $352 $475 1.028257511928989146e-11 #
straight-curve $-1 -1 $-1 -20.50000000000000355 751.1319038524055713 3.200000000000000622 10 0 0 F 0.3200000000000000622 F 11.97814278556789525 #
coedge $-1 -1 $-1 $269 $268 $409 $476 reversed $270 $-1 #
coedge $-1 -1 $-1 $473 $477 $268 $361 forward $478 $-1 #
edge $-1 -1 $-1 $479 -6.938893903907224433e-16 $271 1.570796326794896336 $360 $480 forward @7 unknown #
face $481 -1 $-1 $67 $270 $5 $-1 $482 forward single #
point $-1 -1 $-1 -17.30000000000000071 751.1319038524055713 3.200000000000000622 #
edge $-1 -1 $-1 $483 0.9790442631532274564 $365 1.339044263153227332 $313 $484 forward @7 unknown #
vertex $-1 -1 $-1 $274 $485 #
ellipse-curve $-1 -1 $-1 -17.29999999999999716 631.6319038523838572 -3.200000000000000622 7.250436079179311171e-15 1 0 0 0 6.400000000000002132 1 F -1.570796326794896558 F -1.040834085586003596e-15 #
DXID-attrib $-1 -1 $-1 $-1 $275 @10 ASM ENTITY @36 5b364acc-8674-42d9-844c-a2c1ce660b76 #
straight-curve $-1 -1 $-1 15.50000000002910383 631.6319038523836298 3.200000000000000622 0 0 -10 F 0 F 0.3200000000000000622 #
coedge $-1 -1 $-1 $279 $278 $486 $487 reversed $184 $-1 #
ellipse-curve $-1 -1 $-1 -17.29999999999999716 631.6319038523838572 -3.200000000000000622 -7.250436079179311171e-15 -1 -0 0 0 3.200000000000001954 1 F 2.081668171172007191e-15 F 1.570796326794895892 #
coedge $-1 -1 $-1 $488 $489 $282 $372 reversed $490 $-1 #
edge $-1 -1 $-1 $375 6.938893903907226405e-16 $378 1.570796326794896558 $282 $491 forward @7 unknown #
coedge $-1 -1 $-1 $405 $283 $288 $383 forward $173 $-1 #
coedge $-1 -1 $-1 $283 $451 $492 $493 forward $173 $-1 #
vertex $-1 -1 $-1 $284 $494 #
straight-curve $-1 -1 $-1 -17.30000000000000426 570.3595155345456078 0 5.843279076974507783e-17 10 0 F -57.92276116821400933 F -1.972761168216841554 #
coedge $-1 -1 $-1 $391 $285 $495 $496 forward $155 $-1 #
vertex $-1 -1 $-1 $286 $497 #
straight-curve $-1 -1 $-1 -20.50000000000000355 371.1319038524055713 -3.199999999999998401 -2.77186109848028926e-17 -10 1.17591347337844494e-32 F -17.94999999999716067 F 38 #
coedge $-1 -1 $-1 $498 $287 $388 $499 forward $289 $-1 #
edge $-1 -1 $-1 $389 0.9790442631532281226 $290 1.33904426315322822 $293 $500 forward @7 unknown #
coedge $-1 -1 $-1 $288 $458 $461 $501 forward $289 $-1 #
edge $-1 -1 $-1 $291 -3.585136053454432314 $502 -0.3051360534515217271 $373 $503 forward @7 unknown #
coedge $-1 -1 $-1 $458 $498 $504 $505 reversed $289 $-1 #
point $-1 -1 $-1 -20.50000000000000355 550.6319038523771496 -3.199999999999998401 #
point $-1 -1 $-1 -17.30000000000000426 550.6319038523772633 0 #
coedge $-1 -1 $-1 $506 $294 $298 $396 reversed $233 $-1 #
coedge $-1 -1 $-1 $294 $506 $380 $499 reversed $233 $-1 #
vertex $-1 -1 $-1 $295 $507 #
straight-curve $-1 -1 $-1 -20.50000000000000355 481.1319038523930089 -6.799999999999997158 -2.77186109848028926e-17 -10 0 F -15.04999999999908766 F -6.949999999998418332 #
coedge $-1 -1 $-1 $296 $377 $508 $509 forward $155 $-1 #
coedge $-1 -1 $-1 $510 $511 $296 $393 forward $448 $-1 #
edge $-1 -1 $-1 $394 0.7238229473870883002 $512 8.08382294738708751 $296 $513 forward @7 unknown #
vertex $-1 -1 $-1 $393 $514 #
straight-curve $-1 -1 $-1 -20.50000000000000355 371.1319038524055713 -3.199999999999998401 -2.77186109848028926e-17 -10 1.17591347337844494e-32 F -38 F -26.0499999999978229 #
edge $515 -1 $-1 $483 -3.920000000002911378 $300 -3.600000000002910649 $298 $516 forward @7 unknown #
point $-1 -1 $-1 -20.50000000000000355 631.6319038523838572 -3.199999999999998401 #
point $-1 -1 $-1 -20.50000000000000355 631.6319038523838572 -6.799999999999998934 #
DXID-attrib $-1 -1 $-1 $-1 $303 @10 ASM ENTITY @36 05b9d9d6-6e30-40ef-b54a-98bc25a68165 #
face $517 -1 $-1 $518 $462 $5 $-1 $519 reversed single #
plane-surface $-1 -1 $-1 15.50000000002910383 550.6319038523779454 3.200000000000000622 1.993869921774310572e-14 -1 0 -10 -1.993869921774310572e-13 -0 forward_v I I I I #
coedge $-1 -1 $-1 $346 $306 $308 $406 reversed $304 $-1 #
DXID-attrib $-1 -1 $-1 $-1 $307 @10 ASM ENTITY @36 6f6031ae-edf2-4742-822f-f32a07a2bb2b #
straight-curve $-1 -1 $-1 20.00000000001477574 627.1319038524234202 3.200000000000000622 0 0 -10 F 0 F 0.3200000000000000622 #
coedge $-1 -1 $-1 $308 $373 $520 $521 forward $173 $-1 #
edge $-1 -1 $-1 $522 4.677238831775241579 $309 11.87723883178688311 $308 $523 forward @7 unknown #
point $-1 -1 $-1 20.00000000001477574 627.1319038524234202 0 #
point $-1 -1 $-1 15.50000000002910383 631.6319038523836298 0 #
coedge $-1 -1 $-1 $524 $313 $359 $476 forward $242 $-1 #
coedge $-1 -1 $-1 $313 $525 $506 $526 forward $242 $-1 #
DXID-attrib $-1 -1 $-1 $-1 $315 @10 ASM ENTITY @36 d376f3b0-d5a7-4486-b68c-adfe4f9ba1a2 #
plane-surface $-1 -1 $-1 -20.50000000000000355 751.1319038524055713 0 0 1 0 0 0 10 forward_v I I I I #
coedge $-1 -1 $-1 $318 $317 $527 $528 forward $199 $-1 #
coedge $-1 -1 $-1 $434 $433 $317 $415 reversed $435 $-1 #
edge $-1 -1 $-1 $421 0 $529 7.359999999999999432 $317 $530 forward @7 unknown #
coedge $-1 -1 $-1 $430 $429 $318 $417 forward $323 $-1 #
edge $-1 -1 $-1 $420 0 $531 7.359999999999997655 $318 $532 forward @7 unknown #
tcoedge-coedge $-1 -1 $-1 $533 $319 $534 $535 reversed $255 $536 -1.5707963267943712 -0 #
tcoedge-coedge $-1 -1 $-1 $319 $533 $537 $538 forward $255 $539 3.467742431485541537e-14 1.570796326796527476 #
tvertex-vertex $-1 -1 $-1 $320 $540 1.163033036137288159e-11 #
tvertex-vertex $-1 -1 $-1 $320 $541 1.75752870710557959e-11 #
straight-curve $-1 -1 $-1 61.4730284019908737 370.8819231879315339 -3.200000000000016165 1.072721512562423207 9.942296945700517696 -1.387778780781440992e-16 F -38.1954010637095962 F 38.24568736391545087 #
DXID-attrib $-1 -1 $-1 $-1 $322 @10 ASM ENTITY @36 3a6b7e99-2272-4d28-b410-84afbf708ac8 #
face $542 -1 $-1 $543 $544 $5 $-1 $545 forward single #
loop $-1 -1 $-1 $-1 $441 $322 #
spline-surface $-1 -1 $-1 forward { exactsur full nubs 3 3 open open none none 2 4 
	-0.3200000000000005618 3 0 3 
	-0.7246459312285655763 3 -0.4140833892734660515 1 -0.2070416946367330535 1 0 3 
	17.28142785567897732 -8.868096147594357603 3.199999999999990408 
	17.28142785567896311 -8.868096147594355827 2.133333333333322201 
	17.2814278556789489 -8.86809614759435938 1.066666666666653107 
	17.28142785567893469 -8.868096147594357603 -1.554312234475219157e-14 
	18.71458845223776279 -8.973117062367013119 3.19999999999996998 
	18.47661018904216235 -8.947440460285383423 2.133333333333305326 
	18.2386319258465619 -8.921763858203755504 1.06666666666663934 
	18.00065366265096145 -8.896087256122125808 -2.574762903606877324e-14 
	21.09453452572634191 -9.147218099921957446 2.360852213482008466 
	20.46136831066743866 -9.078902797770867394 1.434043511235003399 
	19.82820209560854252 -9.010587495619761356 0.5072348089879982203 
	19.19503588054963572 -8.942272193468667751 -0.419573893259006292 
	23.23556379691614993 -9.262468224868653621 -0.3310603493561051214 
	22.24761698786432618 -9.155873963892009471 -0.8092169577967578409 
	21.25967017881249888 -9.04927970291534578 -1.287373566237408617 
	20.27172336976068223 -8.942685441938703406 -1.765530174678061615 
	23.67800767770059167 -9.244059496759259531 -2.24256223890597628 
	22.61749600349253342 -9.129635868752600913 -2.402135199088315964 
	21.55698432928447517 -9.015212240745904992 -2.561708159270657426 
	20.49647265507641691 -8.900788612739244599 -2.721281119452996666 
	23.6815350226241037 -9.211367031614514644 -3.200000000000000178 
	22.62102334841604545 -9.096943403607856027 -3.200000000000002842 
	21.5605116742079872 -8.982519775601158329 -3.200000000000005507 
	20.4999999999999325 -8.868096147594499712 -3.200000000000008171 
	0 
	
	0 
	0 
	0 
	0 
	0 
	2 -0.4140833892734660515 -0.2070416946367330535 
	F 1 F 0 F 1 F 0 } I I I I #
coedge $-1 -1 $-1 $546 $547 $325 $428 forward $548 $-1 #
edge $-1 -1 $-1 $436 0 $431 76.44108842762511813 $427 $549 forward @7 unknown #
coedge $-1 -1 $-1 $416 $326 $550 $551 reversed $323 $-1 #
coedge $-1 -1 $-1 $326 $416 $546 $552 forward $323 $-1 #
vertex $-1 -1 $-1 $327 $553 #
straight-curve $-1 -1 $-1 23.68153502262409305 -9.211367031614534184 -3.200000000000029488 8.187794707767599774e-15 -8.345281436598947425e-16 10.00000000000000178 F -7.359999999999999432 F -0 #
coedge $-1 -1 $-1 $414 $328 $547 $554 reversed $435 $-1 #
coedge $-1 -1 $-1 $328 $414 $555 $556 forward $435 $-1 #
loop $-1 -1 $-1 $-1 $328 $543 #
vertex $-1 -1 $-1 $329 $557 #
straight-curve $-1 -1 $-1 105.6815350226240469 750.7886329683857412 -3.200000000007601209 -8.187794707767599774e-15 8.345281436598947425e-16 -10.00000000000000178 F 0 F 7.359999999999999432 #
tcoedge-coedge $-1 -1 $-1 $555 $471 $330 $439 forward $544 $558 3.467742431485541537e-14 1.570796326796527476 #
tedge-edge $-1 -1 $-1 $357 3.467742431485541537e-14 $332 1.570796326796527476 $438 $559 forward @7 unknown 0.004881285875444741837 #
pcurve $-1 -1 $-1 0 forward { exppc nubs 3 open 4 
	-1.570796326796527476 3 -1.121997376283235814 3 -0.6731984257699414886 3 -0 3 
	83.01881625347643023 1.570796326796543241 
	83.01168035818264457 1.421196676625446242 
	83.00454446288884469 1.271757208558553565 
	82.99740856759507324 1.122176006898205625 
	82.99027267230130178 0.9725948052378567965 
	82.98313677700758717 0.8227884789291486367 
	82.9760008817138015 0.6732641180689180604 
	82.96529703877313011 0.4489775767785723071 
	82.95459319583241609 0.2243994752566635942 
	82.9438893528917589 1.66533453693774049e-14 
	1.645972047692920138e-05 
	cone 58.28142785567887785 371.1319038524055713 -3.200000000000017053 0.1072721512562423846 0.9942296945700515032 0 0 0 6.399999999999979039 1 I I 0 1 4.608000000000003205 forward I I I I 
	} 0 0 #
tcoedge-coedge $-1 -1 $-1 $560 $550 $331 $442 forward $425 $561 3.657944861431382049e-13 1.570796326794879905 #
tedge-edge $-1 -1 $-1 $333 3.657944861431382049e-13 $469 1.570796326794879905 $441 $562 forward @7 unknown 0.004542058204192241967 #
pcurve $-1 -1 $-1 0 forward { exppc nubs 3 open 4 
	-1.570796326794879905 3 -0.8975979010256459611 3 -0.4487989505128231471 3 -0 3 
	-82.94388935289174469 1.526556658859595292e-14 
	-82.93318550995105909 0.2243994752564264228 
	-82.92248166701040191 0.448976540760032572 
	-82.9117778240697163 0.6732386015748251795 
	-82.90464192877593064 0.8227466421180203993 
	-82.89750603348214497 0.9725457811338605874 
	-82.89037013818835931 1.122137024513659487 
	-82.88323424289457364 1.271728267893458275 
	-82.87609834760077376 1.421196676623952992 
	-82.8689624523069881 1.570796326794893893 
	1.506060426424226547e-05 
	cone 58.28142785567887785 371.1319038524055713 -3.200000000000017053 0.1072721512562423846 0.9942296945700515032 0 0 0 6.399999999999979039 1 I I 0 1 4.608000000000003205 forward I I I I 
	} 0 0 #
point $-1 -1 $-1 105.6815350226239758 750.788632968385059 -3.200000000007601209 #
point $-1 -1 $-1 23.68153502262409305 -9.211367031614587475 -3.200000000000007283 #
DXID-attrib $-1 -1 $-1 $-1 $336 @10 ASM ENTITY @36 96e446f9-56ce-4131-9c4c-f5de324e118d #
face $563 -1 $-1 $564 $490 $5 $-1 $565 forward single #
loop $-1 -1 $-1 $-1 $511 $336 #
plane-surface $-1 -1 $-1 -20.50000000000000355 751.1319038524055713 -3.200000000000002842 5.843279076974510094e-18 1 -5.843279076974507783e-18 -10 5.843279076974507783e-17 -3.828568698926948843e-15 forward_v I I I I #
coedge $-1 -1 $-1 $467 $492 $560 $566 forward $337 $-1 #
coedge $-1 -1 $-1 $374 $339 $533 $567 forward $173 $-1 #
coedge $-1 -1 $-1 $354 $353 $339 $453 reversed $355 $-1 #
edge $568 -1 $-1 $454 0.3200000000000000622 $569 11.97814278556789525 $339 $570 forward @7 unknown #
vertex $-1 -1 $-1 $487 $571 #
straight-curve $-1 -1 $-1 -17.30000000000000426 570.3595155345456078 0 5.843279076974507783e-17 10 0 F 6.127238831783813566 F 18.07723883178599067 #
point $-1 -1 $-1 -17.30000000000000426 631.6319038523838572 0 #
coedge $-1 -1 $-1 $350 $343 $572 $573 forward $118 $-1 #
coedge $-1 -1 $-1 $382 $384 $343 $459 reversed $289 $-1 #
edge $-1 -1 $-1 $463 0.3051360534515217271 $574 3.585136053454432314 $343 $575 forward @7 unknown #
coedge $-1 -1 $-1 $520 $344 $346 $465 forward $462 $-1 #
coedge $-1 -1 $-1 $344 $520 $382 $501 reversed $462 $-1 #
loop $-1 -1 $-1 $-1 $520 $400 #
vertex $-1 -1 $-1 $459 $576 #
ellipse-curve $-1 -1 $-1 15.50000000001366374 555.1319038523781728 3.200000000000000622 -0 -0 -1 1.544098182648670624e-11 -4.500000000000250466 0 1 F -1.570796326775659724 F 0 #
edge $577 -1 $-1 $347 0 $522 0.3200000000000000622 $460 $578 forward @7 tangent #
point $-1 -1 $-1 20.00000000001392308 555.1319038523070049 3.200000000000000622 #
coedge $-1 -1 $-1 $579 $450 $350 $468 forward $337 $-1 #
edge $580 -1 $-1 $469 0.3218572144321063533 $581 3.780000000000000249 $467 $582 forward @7 unknown #
tvertex-vertex $-1 -1 $-1 $468 $583 1.00891912023883233e-11 #
straight-curve $-1 -1 $-1 38.55454507799800012 188.2973805470700768 3.200000000000000622 1.072721512562424095 9.94229694570051592 0 F -19.83097847222592947 F 56.61010995539917445 #
coedge $-1 -1 $-1 $438 $537 $353 $472 reversed $544 $584 #
edge $-1 -1 $-1 $357 -0.3200000000000000622 $569 0 $471 $585 forward @7 unknown #
coedge $-1 -1 $-1 $486 $360 $354 $474 reversed $478 $-1 #
edge $-1 -1 $-1 $454 0 $271 0.3200000000000000622 $473 $586 forward @7 tangent #
point $-1 -1 $-1 99.2814278556789418 751.1319038524055713 3.200000000000000622 #
edge $-1 -1 $-1 $365 26.04999999999783 $479 38 $409 $587 forward @7 tangent #
coedge $-1 -1 $-1 $360 $486 $511 $588 reversed $478 $-1 #
loop $-1 -1 $-1 $-1 $477 $564 #
vertex $-1 -1 $-1 $361 $589 #
ellipse-curve $-1 -1 $-1 -17.29999999999999716 751.1319038524055713 -3.200000000000000622 5.843279076974507783e-18 1 0 -6.400000000000003908 0 -2.220446049250313081e-15 1 F -6.938893903907224433e-16 F 1.570796326794896336 #
DXID-attrib $-1 -1 $-1 $-1 $362 @10 ASM ENTITY @36 eba414b5-610d-47c5-aba9-2acc3134f8ab #
cone-surface $-1 -1 $-1 -17.30000000000000071 371.1319038524055713 -3.200000000000000622 -5.843279076974507783e-18 -1 0 0 0 6.400000000000002132 1 I I 0 1 4.60800000000000054 forward I I I I #
vertex $-1 -1 $-1 $364 $590 #
straight-curve $-1 -1 $-1 -23.69999999999999574 631.6319038523838572 -16.59044263153227305 -3.538733093890315331e-15 2.565735809852816951e-29 10 F 0.9790442631532274564 F 1.339044263153227332 #
point $-1 -1 $-1 -23.70000000000000995 631.6319038523838572 -3.200000000000000622 #
coedge $-1 -1 $-1 $477 $473 $369 $487 forward $478 $-1 #
edge $-1 -1 $-1 $454 6.938893903907225419e-16 $394 1.570796326794898112 $369 $591 forward @7 unknown #
coedge $-1 -1 $-1 $592 $371 $579 $593 reversed $490 $-1 #
coedge $-1 -1 $-1 $371 $592 $594 $595 reversed $490 $-1 #
loop $-1 -1 $-1 $-1 $489 $447 #
ellipse-curve $-1 -1 $-1 -17.30000000000000071 -8.868096147594428658 -3.200000000000000622 -5.843279076974507783e-18 -1 0 -2.220446049250313081e-15 0 3.200000000000000622 1 F 6.938893903907226405e-16 F 1.570796326794896558 #
coedge $-1 -1 $-1 $450 $579 $374 $493 reversed $337 $-1 #
edge $596 -1 $-1 $597 0.3218572144321063533 $375 3.780000000000000249 $374 $598 forward @7 unknown #
point $-1 -1 $-1 -17.30000000000000782 -8.868096147594428658 0 #
coedge $-1 -1 $-1 $594 $599 $377 $496 reversed $600 $-1 #
edge $-1 -1 $-1 $378 0.7238229473870878561 $601 8.08382294738708751 $377 $602 forward @7 unknown #
point $-1 -1 $-1 -20.50000000000000711 -8.868096147594428658 -3.200000000000002842 #
coedge $-1 -1 $-1 $384 $380 $525 $603 reversed $289 $-1 #
edge $604 -1 $-1 $389 -0.3200000000000007283 $605 -0 $380 $606 forward @7 unknown #
straight-curve $-1 -1 $-1 -20.5 550.6319038523772633 -16.59044263153228016 -3.554582855540882229e-15 -7.087375840117605175e-29 10 F 0.9790442631532281226 F 1.33904426315322822 #
edge $607 -1 $-1 $463 0 $502 0.3200000000000000622 $461 $608 forward @7 tangent #
vertex $-1 -1 $-1 $501 $609 #
straight-curve $-1 -1 $-1 18.55136053454432243 550.6319038523779454 0 10 1.993869921774310572e-13 0 F -3.585136053454432314 F -0.3051360534515217271 #
coedge $-1 -1 $-1 $610 $572 $384 $505 forward $611 $-1 #
edge $-1 -1 $-1 $574 6.93889390392715106e-16 $612 1.570796326794896558 $504 $613 forward @7 unknown #
coedge $-1 -1 $-1 $388 $387 $410 $526 reversed $233 $-1 #
point $-1 -1 $-1 -20.50000000000000355 550.6319038523771496 -6.799999999999998934 #
coedge $-1 -1 $-1 $614 $615 $391 $509 reversed $616 $-1 #
edge $-1 -1 $-1 $601 0 $512 76 $391 $617 forward @7 unknown #
coedge $-1 -1 $-1 $618 $392 $615 $619 forward $448 $-1 #
coedge $-1 -1 $-1 $392 $618 $477 $588 forward $448 $-1 #
vertex $-1 -1 $-1 $509 $620 #
straight-curve $-1 -1 $-1 -20.50000000000000711 751.1319038524055713 4.038229473870876163 4.824350176416269946e-15 -5.843279076974511481e-17 -10 F 0.7238229473870883002 F 8.08382294738708751 #
point $-1 -1 $-1 -20.50000000000000355 751.1319038524055713 -3.200000000000007283 #
DXID-attrib $-1 -1 $-1 $-1 $396 @10 ASM ENTITY @36 6bf8c7cb-e6f1-4396-a498-d04bdc6205c3 #
straight-curve $-1 -1 $-1 15.50000000002910383 631.6319038523836298 -6.799999999999998934 10 -7.250436079179311171e-14 0 F -3.920000000002911378 F -3.600000000002910649 #
DXID-attrib $-1 -1 $-1 $-1 $400 @10 ASM ENTITY @36 ede6da16-a40f-46f3-be1a-aed2c83d0498 #
face $621 -1 $-1 $362 $611 $5 $-1 $482 forward single #
cone-surface $-1 -1 $-1 15.50000000001366374 555.1319038523781728 3.200000000000000622 0 0 -1 1.544098182648670624e-11 -4.500000000000250466 0 1 I I 0 1 4.500000000000250466 forward I I I I #
coedge $-1 -1 $-1 $461 $460 $405 $521 reversed $462 $-1 #
edge $-1 -1 $-1 $502 0 $522 1.570796326775659724 $405 $622 forward @7 unknown #
vertex $-1 -1 $-1 $406 $623 #
straight-curve $-1 -1 $-1 20.00000000001337241 508.3595155345545891 0 1.184237892931585418e-13 10 0 F 4.677238831775241579 F 11.87723883178688311 #
coedge $-1 -1 $-1 $624 $409 $618 $625 reversed $242 $-1 #
coedge $-1 -1 $-1 $410 $626 $498 $603 forward $242 $-1 #
edge $-1 -1 $-1 $605 6.949999999998411226 $483 15.04999999999908766 $410 $627 forward @7 unknown #
coedge $-1 -1 $-1 $547 $546 $413 $528 reversed $548 $-1 #
edge $-1 -1 $-1 $529 0 $531 76.44108842762511813 $413 $628 forward @7 unknown #
vertex $-1 -1 $-1 $415 $629 #
straight-curve $-1 -1 $-1 102.4999999999998579 751.131903852405685 -3.200000000007596768 -8.187794707767599774e-15 8.345281436598947425e-16 -10.00000000000000178 F 0 F 7.359999999999999432 #
vertex $-1 -1 $-1 $528 $630 #
straight-curve $-1 -1 $-1 20.49999999999992895 -8.868096147594556555 -3.200000000000025047 -8.187794707767599774e-15 8.345281436598947425e-16 -10.00000000000000178 F 0 F 7.359999999999999432 #
coedge $-1 -1 $-1 $419 $418 $451 $567 reversed $255 $-1 #
tcoedge-coedge $-1 -1 $-1 $550 $560 $418 $535 forward $425 $631 0 1.5707963267943712 #
tedge-edge $-1 -1 $-1 $597 0 $420 1.5707963267943712 $418 $632 forward @7 unknown 0.002271037121745114913 #
pcurve $-1 -1 $-1 0 forward { exppc nubs 3 open 4 
	-1.570796326794879905 3 -1.121997376282057202 3 -0.6731984257692342766 3 -0 3 
	-82.8689624523069881 1.570796326794893449 
	-82.87609834760077376 1.421196676623952548 
	-82.88323424289455943 1.271728267893457831 
	-82.89037013818834509 1.122137024513658599 
	-82.89750603348213076 0.9725457811338591441 
	-82.90464192877591643 0.8227466421180187339 
	-82.91177782406970209 0.6732386015748238473 
	-82.9224816670103877 0.4489765407600315728 
	-82.93318550995105909 0.2243994752564253126 
	-82.94388935289174469 1.387778780781454984e-14 
	1.503404206316942203e-05 
	cone 58.28142785567887785 371.1319038524055713 -3.200000000000017053 0.1072721512562423846 0.9942296945700515032 0 0 0 3.199999999999978417 1 I I -0 -1 4.608000000000003205 forward I I I I 
	} 0 0 #
tcoedge-coedge $-1 -1 $-1 $471 $555 $419 $538 reversed $544 $633 -1.570796326796527476 -3.467742431485541537e-14 #
tedge-edge $-1 -1 $-1 $569 3.467742431485541537e-14 $421 1.570796326796527476 $419 $634 forward @7 unknown 0.002440651341714651645 #
pcurve $-1 -1 $-1 0 forward { exppc nubs 3 open 4 
	0 3 0.6731984257699410445 3 1.121997376283235148 3 1.570796326796527476 3 
	82.9438893528917589 1.665334536937746486e-14 
	82.9545931958324303 0.2243994752566630113 
	82.96529703877314432 0.448977576778572085 
	82.97600088171381572 0.6732641180689162841 
	82.98313677700758717 0.8227884789291458612 
	82.99027267230131599 0.9725948052378565745 
	82.99740856759508745 1.122176006898204514 
	83.0045444628888589 1.27175720855855201 
	83.01168035818267299 1.421196676625446464 
	83.01881625347644444 1.570796326796544351 
	1.643069004513780408e-05 
	cone 58.28142785567887785 371.1319038524055713 -3.200000000000017053 0.1072721512562423846 0.9942296945700515032 0 0 0 3.199999999999978417 1 I I -0 -1 4.608000000000003205 forward I I I I 
	} 0 0 #
point $-1 -1 $-1 20.49999999999992184 -8.868096147594611622 -3.200000000000002842 #
point $-1 -1 $-1 102.4999999999998295 751.1319038524050029 -3.200000000007596768 #
DXID-attrib $-1 -1 $-1 $-1 $424 @10 ASM ENTITY @36 8151a91d-424a-4115-868a-8721ee39085e #
face $635 -1 $-1 $636 $435 $5 $-1 $637 forward single #
loop $-1 -1 $-1 $-1 $438 $424 #
spline-surface $-1 -1 $-1 forward { exactsur full nubs 3 3 open open none none 2 4 
	-7.207694839897833141e-17 3 0.3200000000000000622 3 
	0 3 0.3105625419554240429 1 0.5176042365923734234 1 0.7246459312293227484 3 
	99.28142785567892759 751.1319038524055713 -5.107025913275720086e-14 
	99.2814278556789418 751.1319038524055713 1.066666666666616026 
	99.28142785567897022 751.1319038524055713 2.13333333333328401 
	99.28142785567898443 751.1319038524055713 3.19999999999995044 
	100.0006536626516862 751.1039127438776859 -6.318811082870823181e-14 
	100.2386319258475424 751.0782361417959692 1.066666666666599816 
	100.4766101890433845 751.0525595397143661 2.133333333333263582 
	100.7145884522392407 751.0268829376326494 3.199999999999926459 
	101.1948552321155148 751.057747297546598 -0.4200058664539546016 
	101.8279612310297182 750.989438492400609 0.5066588447280759855 
	102.4610672299439074 750.92112968725462 1.433323555910108738 
	103.094173228858125 750.8528208821085173 2.359988267092139491 
	102.2715939962725713 751.0573285167794211 -1.765739737617667782 
	103.2594976808284315 750.9507389087088995 -1.287652983490212844 
	104.2474013653842349 750.8441493006386054 -0.8095662293627571282 
	105.235305049940024 750.7375596925679702 -0.3314794752353025231 
	102.4964726550771132 751.0992113872601976 -2.721281119457785724 
	103.5569843292854273 750.9847877592535497 -2.561708159277040764 
	104.6174960034937698 750.8703641312469017 -2.402135199096294027 
	105.6780076777020696 750.7559405032401401 -2.242562238915549511 
	102.4999999999998437 751.1319038524050029 -3.200000000005294609 
	103.5605116742078877 751.0174802243983549 -3.200000000007054091 
	104.6210233484159602 750.903056596391707 -3.200000000008813572 
	105.6815350226240184 750.788632968385059 -3.200000000010572609 
	0 
	
	0 
	0 
	0 
	0 
	0 
	2 0.3105625419554240429 0.5176042365923734234 
	F 1 F 0 F 1 F 0 } I I I I #
coedge $-1 -1 $-1 $527 $427 $430 $552 reversed $548 $-1 #
coedge $-1 -1 $-1 $427 $527 $433 $554 forward $548 $-1 #
loop $-1 -1 $-1 $-1 $427 $636 #
straight-curve $-1 -1 $-1 105.6815350226239758 750.7886329683857412 -76.80000000000765681 -1.072721512562423207 -9.942296945700517696 9.950373858202965494e-14 F 0 F 76.44108842762511813 #
coedge $-1 -1 $-1 $441 $534 $429 $551 forward $425 $638 #
edge $-1 -1 $-1 $420 0 $333 0.3200000000000006728 $550 $639 forward @7 unknown #
edge $-1 -1 $-1 $531 0 $431 0.3199999999999997846 $430 $640 forward @7 unknown #
point $-1 -1 $-1 23.68153502262402554 -9.211367031614528855 -76.80000000000002558 #
edge $-1 -1 $-1 $529 0 $436 0.3199999999999986189 $547 $641 forward @7 unknown #
coedge $-1 -1 $-1 $537 $438 $434 $556 reversed $544 $642 #
edge $-1 -1 $-1 $421 0 $332 0.3199999999999986189 $434 $643 forward @7 unknown #
point $-1 -1 $-1 105.6815350226239758 750.7886329683857412 -76.80000000000765681 #
pcurve $-1 -1 $-1 0 forward { exppc nubs 1 open 2 
	0 1 1.570796326796527476 1 
	0.3200000000000000622 0 
	0.3199999999999982858 0.7246459312293215271 
	0.01000000000000000021 
	spline forward { ref 5 } I I I I 
	} 0 0 #
intcurve-curve $-1 -1 $-1 forward { parcur full nubs 3 open 4 
	0 3 0.6731984257699414886 3 1.121997376283235814 3 1.570796326796527476 3 
	99.28142785567898443 751.1319038524055713 3.199999999999949996 
	100.7145884522392407 751.0268829376326494 3.199999999999922906 
	102.1423393182105599 750.9224457043181928 2.695992960255249038 
	103.2640164185916092 750.8510322193961883 1.802298439187465462 
	104.0118011521789469 750.803423229448299 1.206502091808943744 
	104.6235531010594713 750.7704914610080777 0.4375113082868171688 
	105.0401047324402413 750.7586207794560096 -0.4247547743943069776 
	105.4566563638210255 750.7467500979039414 -1.287020857075425351 
	105.6780076777020554 750.7559405032401401 -2.242562238915541073 
	105.68153502262399 750.788632968385059 -3.200000000010556178 
	0 
	
	spline forward { ref 5 } I I I I 
	null_surface 
	nubs 1 open 2 
	0 1 1.570796326796527476 1 
	0.3200000000000000622 0 
	0.3199999999999982858 0.7246459312293215271 
	
	nullbs 
	I I 
	0 
	0 
	2 0.6731984257699414886 1.121997376283235814 
	surf1 } I I #
coedge $-1 -1 $-1 $534 $441 $450 $566 reversed $425 $644 #
pcurve $-1 -1 $-1 0 forward { exppc nubs 1 open 2 
	0 1 1.570796326794879905 1 
	-0.3200000000000001177 -1.177935888916577878e-18 
	-0.3200000000000003397 -0.7246459312285652432 
	0.01000000000000000021 
	spline forward { ref 0 } I I I I 
	} 0 0 #
intcurve-curve $-1 -1 $-1 forward { parcur full nubs 3 open 4 
	0 3 0.4487989505128231471 3 0.8975979010256459611 3 1.570796326794879905 3 
	23.6815350226240966 -9.211367031614514644 -3.200000000000000178 
	23.67800767770058457 -9.244059496759259531 -2.242562238905977168 
	23.45678573730836547 -9.253263860813957464 -1.28681129413104145 
	23.040313442656565 -9.241401739277492311 -0.424376884195271975 
	22.62384114800477164 -9.229539617741027158 0.4380575257404971667 
	22.01211849909340401 -9.196611010613398918 1.207175400837099843 
	21.26429353798840793 -9.148997680328031734 1.802909771737935873 
	20.14255609633091026 -9.077577684899978294 2.696511328089189696 
	18.71458845223776635 -8.973117062367013119 3.199999999999966427 
	17.28142785567898443 -8.868096147594357603 3.199999999999988631 
	0 
	
	spline forward { ref 0 } I I I I 
	null_surface 
	nubs 1 open 2 
	0 1 1.570796326794879905 1 
	-0.3200000000000001177 -1.177935888916577878e-18 
	-0.3200000000000003397 -0.7246459312285652432 
	
	nullbs 
	I I 
	0 
	0 
	2 0.4487989505128231471 0.8975979010256459611 
	surf1 } I I #
DXID-attrib $-1 -1 $-1 $-1 $447 @10 ASM ENTITY @36 56721fe4-05f3-4377-a58d-98e18d1828b6 #
face $645 -1 $-1 $646 $478 $5 $-1 $647 forward single #
plane-surface $-1 -1 $-1 -20.50000000000000355 -8.868096147594428658 -3.199999999999998845 -5.843279076974507783e-18 -1 0 0 0 -10 forward_v I I I I #
edge $-1 -1 $-1 $597 0 $469 0.3200000000000000622 $560 $648 forward @7 unknown #
edge $-1 -1 $-1 $569 -56.61010995539917445 $597 19.83097847222593302 $533 $649 forward @7 tangent #
DXID-attrib $-1 -1 $-1 $-1 $453 @10 ASM ENTITY @36 f055f0b7-6821-4ad8-a307-8576d0949dce #
tvertex-vertex $-1 -1 $-1 $538 $650 1.012091057650504328e-11 #
straight-curve $-1 -1 $-1 -20.50000000000000355 751.1319038524055713 0 10 0 0 F 0.3200000000000000622 F 11.97814278556789525 #
point $-1 -1 $-1 -17.30000000000000071 751.1319038524055713 0 #
coedge $-1 -1 $-1 $504 $651 $457 $573 reversed $611 $-1 #
edge $-1 -1 $-1 $574 1.972761168216841554 $581 57.92276116821400933 $572 $652 forward @7 tangent #
vertex $-1 -1 $-1 $505 $653 #
straight-curve $-1 -1 $-1 18.55136053454432243 550.6319038523779454 3.200000000000000622 -10 -1.993869921774310572e-13 0 F 0.3051360534515217271 F 3.585136053454432314 #
point $-1 -1 $-1 15.50000000002910383 550.6319038523779454 3.200000000000000622 #
DXID-attrib $-1 -1 $-1 $-1 $465 @10 ASM ENTITY @36 7687108e-3e8d-4512-811a-d176a657dc5d #
straight-curve $-1 -1 $-1 20.00000000001392308 555.1319038523070049 3.200000000000000622 0 0 -10 F 0 F 0.3200000000000000622 #
coedge $-1 -1 $-1 $492 $467 $488 $593 forward $337 $-1 #
DXID-attrib $-1 -1 $-1 $-1 $468 @10 ASM ENTITY @36 5dc03e37-c20a-4d95-80fc-a5f776b6acb4 #
vertex $-1 -1 $-1 $654 $655 #
straight-curve $-1 -1 $-1 20.5 -8.868096147594428658 3.200000000000000622 -10 -0 -0 F 0.3218572144321063533 F 3.780000000000000249 #
point $-1 -1 $-1 17.28142785567893469 -8.868096147594428658 3.200000000000000622 #
pcurve $-1 -1 $-1 0 forward { exppc nubs 1 open 2 
	0 1 0.3200000000000000622 1 
	1.118977844790145728e-17 2.552909772539057632e-15 
	0.3199999999999995626 0 
	1.810734687380264803e-14 
	spline forward { ref 5 } I I I I 
	} 0 0 #
straight-curve $-1 -1 $-1 99.2814278556789418 751.1319038524055713 0 0 0 -10 F -0.3200000000000000622 F 0 #
straight-curve $-1 -1 $-1 -17.30000000000000071 751.1319038524055713 0 0 0 10 F 0 F 0.3200000000000000622 #
straight-curve $-1 -1 $-1 -23.70000000000000639 371.1319038524055713 -3.199999999999998401 3.071417978494215441e-17 10 -1.061226063941491705e-32 F 26.04999999999783 F 38 #
edge $-1 -1 $-1 $479 -0.2496000000000000441 $394 0.07039999999999979607 $511 $656 forward @7 tangent #
point $-1 -1 $-1 -23.70000000000000284 751.1319038524055713 -3.200000000000007283 #
point $-1 -1 $-1 -23.70000000000000995 631.6319038523838572 -6.799999999999998934 #
ellipse-curve $-1 -1 $-1 -17.29999999999999716 751.1319038524055713 -3.200000000000000622 -5.843279076974507783e-18 -1 0 -2.220446049250313081e-15 0 3.200000000000001066 1 F 6.938893903907225419e-16 F 1.570796326794898112 #
coedge $-1 -1 $-1 $489 $488 $651 $654 forward $490 $-1 #
edge $-1 -1 $-1 $581 -0.3200000000000000622 $375 0 $488 $657 forward @7 tangent #
coedge $-1 -1 $-1 $658 $495 $489 $595 forward $600 $-1 #
edge $-1 -1 $-1 $378 -0.07039999999999979607 $659 0.2496000000000000441 $594 $660 forward @7 tangent #
DXID-attrib $-1 -1 $-1 $-1 $493 @10 ASM ENTITY @36 1befdc0b-3f85-4fc6-bc02-631761ea8a71 #
tvertex-vertex $-1 -1 $-1 $566 $661 1.007478124736263592e-11 #
straight-curve $-1 -1 $-1 20.5 -8.868096147594428658 0 -10 -0 -0 F 0.3218572144321063533 F 3.780000000000000249 #
coedge $-1 -1 $-1 $495 $658 $614 $662 reversed $600 $-1 #
loop $-1 -1 $-1 $-1 $594 $646 #
vertex $-1 -1 $-1 $496 $663 #
straight-curve $-1 -1 $-1 -20.50000000000001066 -8.868096147594428658 4.038229473870876163 4.824350176416269946e-15 -5.843279076974511481e-17 -10 F 0.7238229473870878561 F 8.08382294738708751 #
edge $-1 -1 $-1 $612 -1.339044263153227998 $605 -0.9790442631532281226 $525 $664 forward @7 unknown #
DXID-attrib $-1 -1 $-1 $-1 $499 @10 ASM ENTITY @36 3bd00860-9e3f-4bf7-88b7-03343a40168e #
vertex $-1 -1 $-1 $526 $665 #
straight-curve $-1 -1 $-1 -23.70000000000000995 550.6319038523771496 -6.799999999999998934 -10 -1.993869921774310572e-13 -0 F -0.3200000000000007283 F -0 #
DXID-attrib $-1 -1 $-1 $-1 $501 @10 ASM ENTITY @36 bdebfe57-4c49-4c58-9ded-e4deda6eff9e #
straight-curve $-1 -1 $-1 15.50000000002910383 550.6319038523779454 3.200000000000000622 0 0 -10 F 0 F 0.3200000000000000622 #
point $-1 -1 $-1 15.50000000002910383 550.6319038523779454 0 #
coedge $-1 -1 $-1 $651 $504 $626 $666 reversed $611 $-1 #
loop $-1 -1 $-1 $-1 $504 $518 #
vertex $-1 -1 $-1 $505 $667 #
ellipse-curve $-1 -1 $-1 -17.30000000000000071 550.6319038523779454 -3.200000000000000622 1.993869921774310572e-14 -1 0 0 0 6.400000000000002132 1 F 6.93889390392715106e-16 F 1.570796326794896558 #
coedge $-1 -1 $-1 $668 $508 $599 $662 forward $616 $-1 #
coedge $-1 -1 $-1 $508 $668 $510 $619 reversed $616 $-1 #
loop $-1 -1 $-1 $-1 $668 $669 #
straight-curve $-1 -1 $-1 -20.49999999999997868 -8.868096147594430434 -76.80000000000001137 -6.933347799794049071e-32 10 1.752983723092351965e-16 F 0 F 76 #
coedge $-1 -1 $-1 $511 $510 $524 $625 forward $448 $-1 #
edge $-1 -1 $-1 $512 0 $670 0.3199999999999998401 $510 $671 forward @7 unknown #
point $-1 -1 $-1 -20.49999999999997868 751.1319038524055713 -76.79999999999999716 #
DXID-attrib $-1 -1 $-1 $-1 $518 @10 ASM ENTITY @36 3158f11a-65b2-4bef-8e61-88d3861b47d9 #
ellipse-curve $-1 -1 $-1 15.50000000001366374 555.1319038523781728 0 0 0 1 1.544098182648670624e-11 -4.500000000000250466 0 1 F 0 F 1.570796326775659724 #
point $-1 -1 $-1 20.00000000001392308 555.1319038523070049 0 #
coedge $-1 -1 $-1 $672 $524 $668 $673 reversed $242 $-1 #
edge $-1 -1 $-1 $670 -8.08382294738708751 $479 -0.7238229473870880781 $618 $674 forward @7 unknown #
coedge $-1 -1 $-1 $525 $672 $610 $666 forward $242 $-1 #
straight-curve $-1 -1 $-1 -23.70000000000000284 481.1319038523930089 -6.799999999999997158 3.071417978494215441e-17 10 0 F 6.949999999998411226 F 15.04999999999908766 #
straight-curve $-1 -1 $-1 102.4999999999998295 751.131903852405685 -76.80000000000765681 -1.072721512562423207 -9.942296945700517696 9.950373858202965494e-14 F 0 F 76.44108842762511813 #
point $-1 -1 $-1 102.4999999999998295 751.131903852405685 -76.80000000000765681 #
point $-1 -1 $-1 20.499999999999865 -8.868096147594553003 -76.80000000000002558 #
pcurve $-1 -1 $-1 0 forward { exppc nubs 1 open 2 
	0 1 1.570796326794879905 1 
	-1.11022302462515654e-16 -0.7246459312285655763 
	-3.185477426784127577e-18 -9.992045098528566568e-17 
	0.01000000000000000021 
	spline forward { ref 0 } I I I I 
	} 0 0 #
intcurve-curve $-1 -1 $-1 forward { parcur full nubs 3 open 4 
	0 3 0.6731984257692342766 3 1.121997376282057202 3 1.570796326794879905 3 
	17.28142785567893469 -8.868096147594357603 -1.443289932012703503e-14 
	18.00065366265096145 -8.896087256122125808 -2.485651490510364014e-14 
	18.71728299339016388 -8.923798218530050619 -0.2517443359554138449 
	19.28079722291154496 -8.934988867385515121 -0.6985451141310405898 
	19.65647337592579902 -8.942449299955825381 -0.9964122995814583827 
	19.96409837284323885 -8.942567370947262617 -1.380971237129759777 
	20.17409819263089332 -8.93215219914311831 -1.812188442097644181 
	20.3840980124185478 -8.921737027338974002 -2.243405647065528363 
	20.49647265507641691 -8.900788612739244599 -2.721281119452996222 
	20.4999999999999325 -8.868096147594499712 -3.200000000000007283 
	0 
	
	spline forward { ref 0 } I I I I 
	null_surface 
	nubs 1 open 2 
	0 1 1.570796326794879905 1 
	-1.11022302462515654e-16 -0.7246459312285655763 
	-3.185477426784127577e-18 -9.992045098528566568e-17 
	
	nullbs 
	I I 
	0 
	0 
	2 0.6731984257692342766 1.121997376282057202 
	surf1 } I I #
pcurve $-1 -1 $-1 0 forward { exppc nubs 1 open 2 
	-1.570796326796527476 1 -0 1 
	-7.207694839897833141e-17 0.7246459312293219712 
	-5.715376355809387125e-18 5.645405587977079274e-29 
	0.01000000000000000021 
	spline forward { ref 5 } I I I I 
	} 0 0 #
intcurve-curve $-1 -1 $-1 forward { parcur full nubs 3 open 4 
	0 3 0.6731984257699410445 3 1.121997376283235148 3 1.570796326796527476 3 
	99.28142785567892759 751.1319038524055713 -5.040664341232551142e-14 
	100.0006536626516862 751.1039127438776859 -6.261929735405259718e-14 
	100.7171746043299976 751.0762134760790332 -0.2520035198723973857 
	101.2806586632131314 751.0650260824764928 -0.6988507804062862316 
	101.656314702468535 751.0575678200748371 -0.9967489540955454252 
	101.9639543493705673 751.0574481684271859 -1.381244345856606826 
	102.173993837522687 751.0678590602233271 -1.812377387197167122 
	102.3840333256748352 751.0782699520198094 -2.243510428537724977 
	102.4964726550771132 751.0992113872601976 -2.721281119457782616 
	102.4999999999998437 751.1319038524050029 -3.200000000005289724 
	0 
	
	spline forward { ref 5 } I I I I 
	null_surface 
	nubs 1 open 2 
	0 1 1.570796326796527476 1 
	-5.715376355809387125e-18 5.645405587977079274e-29 
	-7.207694839897833141e-17 0.7246459312293219712 
	
	nullbs 
	I I 
	0 
	0 
	2 0.6731984257699410445 1.121997376283235148 
	surf1 } I I #
DXID-attrib $-1 -1 $-1 $-1 $543 @10 ASM ENTITY @36 5376c683-c4a6-4f6a-820a-b640d464d166 #
face $675 -1 $-1 $171 $548 $5 $-1 $676 forward single #
plane-surface $-1 -1 $-1 102.4999999999998295 751.1319038524050029 -3.200000000007596768 0.1072721512562423707 0.9942296945700516142 0 9.94229694570051592 -1.072721512562423873 -8.232330296306032738e-15 forward_v I I I I #
pcurve $-1 -1 $-1 0 forward { exppc nubs 1 open 2 
	0 1 0.3200000000000006728 1 
	-3.198163645379395178e-16 -1.904681217193599124e-15 
	-0.3200000000000005618 0 
	5.302508794276459611e-15 
	spline forward { ref 0 } I I I I 
	} 0 0 #
straight-curve $-1 -1 $-1 20.49999999999992184 -8.868096147594611622 -3.200000000000002842 9.94229694570051592 -1.072721512562423873 -8.232330296306032738e-15 F 0 F 0.3200000000000006728 #
straight-curve $-1 -1 $-1 20.499999999999865 -8.868096147594553003 -76.80000000000002558 9.94229694570051592 -1.072721512562423873 -8.232330296306032738e-15 F 0 F 0.3199999999999997846 #
straight-curve $-1 -1 $-1 102.4999999999998295 751.131903852405685 -76.80000000000765681 9.94229694570051592 -1.072721512562423873 -8.232330296306032738e-15 F 0 F 0.3199999999999986189 #
pcurve $-1 -1 $-1 0 forward { exppc nubs 1 open 2 
	-0.3199999999999986189 1 -0 1 
	0.3199999999999965095 0.7246459312291086974 
	-7.207694839897833141e-17 0.7246459312293227484 
	1.142377644348717789e-13 
	spline forward { ref 5 } I I I I 
	} 0 0 #
straight-curve $-1 -1 $-1 102.4999999999998295 751.1319038524050029 -3.200000000007596768 9.94229694570051592 -1.072721512562423873 -8.232330296306032738e-15 F 0 F 0.3199999999999986189 #
pcurve $-1 -1 $-1 0 forward { exppc nubs 1 open 2 
	-0.3200000000000000622 1 0 1 
	-0.3200000000000005063 -0.7246459312285655763 
	-2.775557561562891351e-17 -0.7246459312285631338 
	5.147348322532204673e-15 
	spline forward { ref 0 } I I I I 
	} 0 0 #
DXID-attrib $-1 -1 $-1 $-1 $564 @10 ASM ENTITY @36 7c753f92-272c-41c8-b8d8-610f822b9c41 #
face $677 -1 $-1 $669 $600 $5 $-1 $678 forward single #
plane-surface $-1 -1 $-1 -23.70000000000000284 751.1319038524055713 -3.200000000000002842 5.843279076974507783e-18 1 0 0 0 10 forward_v I I I I #
straight-curve $-1 -1 $-1 17.28142785567893469 -8.868096147594428658 0 0 0 10 F 0 F 0.3200000000000000622 #
straight-curve $-1 -1 $-1 38.55454507799800012 188.2973805470701052 0 -1.072721512562424095 -9.94229694570051592 0 F -56.61010995539917445 F 19.83097847222593302 #
point $-1 -1 $-1 99.2814278556789418 751.1319038524055713 0 #
coedge $-1 -1 $-1 $572 $610 $592 $654 reversed $611 $-1 #
straight-curve $-1 -1 $-1 -17.30000000000000426 570.3595155345456078 3.200000000000000622 -5.843279076974507783e-17 -10 0 F 1.972761168216841554 F 57.92276116821400933 #
point $-1 -1 $-1 -17.30000000000000426 550.6319038523772633 3.200000000000000622 #
edge $-1 -1 $-1 $581 -3.469446951953611724e-16 $659 1.570796326794895892 $592 $679 forward @7 unknown #
point $-1 -1 $-1 -17.30000000000000782 -8.868096147594428658 3.200000000000000622 #
straight-curve $-1 -1 $-1 -21.20400000000000063 751.1319038524055713 -3.200000000000007283 10 -5.843279076974507783e-17 3.828568698926948843e-15 F -0.2496000000000000441 F 0.07039999999999979607 #
straight-curve $-1 -1 $-1 -17.30000000000000782 -8.868096147594428658 0 0 0 -10 F -0.3200000000000000622 F 0 #
coedge $-1 -1 $-1 $599 $594 $672 $680 forward $600 $-1 #
vertex $-1 -1 $-1 $666 $681 #
straight-curve $-1 -1 $-1 -21.20400000000000418 -8.868096147594428658 -3.200000000000002842 -10 5.843279076974507783e-17 -3.828568698926948843e-15 F -0.07039999999999979607 F 0.2496000000000000441 #
point $-1 -1 $-1 17.28142785567893469 -8.868096147594428658 0 #
edge $-1 -1 $-1 $601 0 $682 0.3199999999999998401 $614 $683 forward @7 unknown #
point $-1 -1 $-1 -20.49999999999997868 -8.868096147594430434 -76.80000000000001137 #
straight-curve $-1 -1 $-1 -23.70000000000000284 550.6319038523771496 -16.59044263153228016 3.538733093890315331e-15 7.055773477095247035e-29 -10 F -1.339044263153227998 F -0.9790442631532281226 #
point $-1 -1 $-1 -23.70000000000000995 550.6319038523771496 -6.799999999999998934 #
edge $-1 -1 $-1 $659 -38 $612 17.94999999999715357 $626 $684 forward @7 tangent #
point $-1 -1 $-1 -23.70000000000000995 550.6319038523771496 -3.200000000000000622 #
coedge $-1 -1 $-1 $615 $614 $624 $673 forward $616 $-1 #
face $685 -1 $-1 $243 $616 $5 $-1 $686 forward single #
vertex $-1 -1 $-1 $619 $687 #
straight-curve $-1 -1 $-1 -20.49999999999997868 751.1319038524055713 -76.79999999999999716 -10 5.843279076974507783e-17 -3.828568698926948843e-15 F 0 F 0.3199999999999998401 #
coedge $-1 -1 $-1 $626 $624 $658 $680 reversed $242 $-1 #
edge $-1 -1 $-1 $682 0 $670 76 $668 $688 forward @7 unknown #
straight-curve $-1 -1 $-1 -23.70000000000000639 751.1319038524055713 4.038229473870873498 -4.824350176416269946e-15 5.843279076974511481e-17 10 F -8.08382294738708751 F -0.7238229473870880781 #
DXID-attrib $-1 -1 $-1 $-1 $636 @10 ASM ENTITY @36 814960eb-adb1-4338-bc9d-4aae8163981b #
plane-surface $-1 -1 $-1 102.4999999999998295 751.131903852405685 -76.80000000000765681 -1.887379141862765724e-15 -9.825473767932633805e-15 -1 -9.94229694570051592 1.072721512562423873 8.232330296306032738e-15 forward_v I I I I #
DXID-attrib $-1 -1 $-1 $-1 $646 @10 ASM ENTITY @36 a06a6bc1-3320-4b04-aa88-a7173797e49f #
plane-surface $-1 -1 $-1 -20.50000000000000711 -8.868096147594428658 -3.200000000000011724 -5.843279076974507783e-18 -1 0 10 -5.843279076974507783e-17 3.828568698926948843e-15 forward_v I I I I #
ellipse-curve $-1 -1 $-1 -17.30000000000000071 -8.868096147594428658 -3.200000000000000622 -5.843279076974507783e-18 -1 0 -6.661338147750939243e-15 0 6.400000000000001243 1 F -3.469446951953611724e-16 F 1.570796326794895892 #
edge $-1 -1 $-1 $659 -8.881784197001252323e-16 $682 7.359999999999999432 $658 $689 forward @7 unknown #
point $-1 -1 $-1 -23.70000000000000639 -8.868096147594428658 -3.200000000000002842 #
vertex $-1 -1 $-1 $680 $690 #
straight-curve $-1 -1 $-1 -20.49999999999997868 -8.868096147594430434 -76.80000000000001137 -10 5.843279076974507783e-17 -3.828568698926948843e-15 F 0 F 0.3199999999999998401 #
straight-curve $-1 -1 $-1 -23.70000000000000639 371.1319038524055713 -3.199999999999998401 3.071417978494215441e-17 10 -1.061226063941491705e-32 F -38 F 17.94999999999715357 #
DXID-attrib $-1 -1 $-1 $-1 $669 @10 ASM ENTITY @36 1e4c608e-4aa8-4d2b-93bb-048b36c06165 #
plane-surface $-1 -1 $-1 -20.49999999999997868 -8.868096147594430434 -76.80000000000001137 3.828568698926948942e-16 1.752983723092352027e-17 -1 -10 5.843279076974507783e-17 -3.828568698926948843e-15 forward_v I I I I #
point $-1 -1 $-1 -23.69999999999997797 751.1319038524055713 -76.79999999999999716 #
straight-curve $-1 -1 $-1 -23.69999999999997797 -8.868096147594430434 -76.80000000000001137 -6.933347799794049071e-32 10 1.752983723092351965e-16 F 0 F 76 #
straight-curve $-1 -1 $-1 -23.70000000000000639 -8.868096147594428658 -3.200000000000011724 3.828568698926948843e-15 -2.311115933264683024e-32 -10 F -8.881784197001252323e-16 F 7.359999999999999432 #
point $-1 -1 $-1 -23.69999999999997797 -8.868096147594430434 -76.80000000000001137 #
End-of-ACIS-data 