700 0 1 0           
30 Autodesk Translation Framework 20 ASM 226.6.1.65535 NT 24 Wed Jul 29 14:38:53 2026 
1 9.999999999999999547e-07 1.000000000000000036e-10 
body $1 -1 $-1 $2 $-1 $3 #
rgb_color-st-attrib $-1 -1 $4 $-1 $0 0.9607843137254902244 0.9607843137254902244 0.9607843137254902244 #
lump $-1 -1 $-1 $-1 $5 $0 #
transform $-1 -1 1 0 0 0 1 0 0 0 1 0 0 0 1 no_rotate no_reflect no_shear #
DXID-attrib $-1 -1 $-1 $1 $0 @10 ASM ENTITY @116 SP24V1 COBERTORA IZQUIERDA.IPT|:|5852E3041CA920B0CDA728B7BEF4EEFAAF0603F3|:|DA4B9237BACCCDF19C0760CAB7AEC4A8359010B0 #
shell $-1 -1 $-1 $-1 $-1 $6 $-1 $2 #
face $7 -1 $-1 $8 $9 $5 $-1 $10 reversed single #
DXID-attrib $-1 -1 $-1 $-1 $6 @10 ASM ENTITY @36 b0371fe1-5e55-4744-b5a0-8baaf2d364fd #
face $11 -1 $-1 $12 $13 $5 $-1 $14 reversed single #
loop $-1 -1 $-1 $-1 $15 $6 #
plane-surface $-1 -1 $-1 -33.68042625898806364 690.2576881487926812 3.200000000000000622 1 3.94745964311166785e-17 0 3.947459643111667973e-16 -10 0 forward_v I I I I #
DXID-attrib $-1 -1 $-1 $-1 $8 @10 ASM ENTITY @36 37b8d40b-6003-4ca6-8a52-008f2de10a95 #
face $16 -1 $-1 $17 $18 $5 $-1 $19 reversed single #
loop $-1 -1 $-1 $-1 $20 $8 #
plane-surface $-1 -1 $-1 -46.68042625898806364 465.2576881487926812 3.200000000000000622 -1 -0 -0 0 10 0 forward_v I I I I #
coedge $-1 -1 $-1 $21 $22 $23 $24 reversed $9 $-1 #
DXID-attrib $-1 -1 $-1 $-1 $12 @10 ASM ENTITY @36 598603e9-b6c1-415d-95a7-a2489ae5cce1 #
face $25 -1 $-1 $26 $27 $5 $-1 $28 reversed single #
loop $-1 -1 $-1 $-1 $29 $12 #
plane-surface $-1 -1 $-1 -40.18042625898806364 465.2576881487926812 3.200000000000000622 0 -1 0 -10 -0 -0 forward_v I I I I #
coedge $-1 -1 $-1 $30 $31 $32 $33 reversed $13 $-1 #
coedge $-1 -1 $-1 $34 $15 $35 $36 forward $9 $-1 #
coedge $-1 -1 $-1 $15 $34 $37 $38 reversed $9 $-1 #
coedge $-1 -1 $-1 $39 $40 $15 $24 forward $41 $-1 #
edge $-1 -1 $-1 $42 -15.21330192214547594 $43 7.286698077854524058 $23 $44 forward @7 unknown #
DXID-attrib $-1 -1 $-1 $-1 $17 @10 ASM ENTITY @36 7ae8112c-5f94-4881-b442-4efc62187f06 #
face $45 -1 $-1 $46 $47 $5 $-1 $48 reversed single #
loop $-1 -1 $-1 $-1 $49 $17 #
plane-surface $-1 -1 $-1 -46.68042625898806364 690.2576881487926812 3.200000000000000622 0 1 0 10 0 0 forward_v I I I I #
coedge $-1 -1 $-1 $37 $50 $39 $51 reversed $18 $-1 #
coedge $-1 -1 $-1 $52 $20 $50 $53 forward $13 $-1 #
coedge $-1 -1 $-1 $20 $52 $54 $55 reversed $13 $-1 #
coedge $-1 -1 $-1 $40 $39 $20 $33 forward $41 $-1 #
edge $-1 -1 $-1 $56 3.963301922145475942 $57 26.46330192214547594 $32 $58 forward @7 unknown #
coedge $-1 -1 $-1 $22 $21 $59 $60 reversed $9 $-1 #
coedge $-1 -1 $-1 $49 $61 $21 $36 reversed $27 $-1 #
edge $62 -1 $-1 $42 0 $63 0.3200000000000000622 $35 $64 forward @7 unknown #
coedge $-1 -1 $-1 $65 $29 $22 $38 forward $18 $-1 #
edge $66 -1 $-1 $43 0 $67 0.3200000000000000622 $22 $68 forward @7 unknown #
coedge $-1 -1 $-1 $32 $23 $29 $51 forward $41 $-1 #
coedge $-1 -1 $-1 $23 $32 $49 $69 forward $41 $-1 #
loop $-1 -1 $-1 $70 $32 $71 #
vertex $-1 -1 $-1 $24 $72 #
vertex $-1 -1 $-1 $24 $73 #
straight-curve $-1 -1 $-1 -33.68042625898806364 538.1246689273380071 3.200000000000000622 3.947459643111667973e-16 -10 0 F -15.21330192214547594 F 7.286698077854524058 #
DXID-attrib $-1 -1 $-1 $-1 $26 @10 ASM ENTITY @36 4a1d3ac0-a4e5-4468-93c8-95cfccd7f207 #
face $74 -1 $-1 $75 $76 $5 $-1 $48 reversed single #
loop $-1 -1 $-1 $77 $78 $26 #
cone-surface $-1 -1 $-1 23.69999999999999218 599.8283641886916939 -23.54139335644113373 -1 0 3.95089909682761503e-16 4.38944889657537945e-15 0 11.10999999999974364 1 I I 0 1 11.10999999999974364 forward I I I I #
coedge $-1 -1 $-1 $54 $35 $40 $69 reversed $27 $-1 #
coedge $-1 -1 $-1 $29 $65 $30 $53 reversed $18 $-1 #
edge $-1 -1 $-1 $43 0.3065347256780026619 $56 1.606534725678003372 $39 $79 forward @7 unknown #
coedge $-1 -1 $-1 $31 $30 $80 $81 reversed $13 $-1 #
edge $82 -1 $-1 $56 0 $83 0.3200000000000000622 $50 $84 forward @7 unknown #
coedge $-1 -1 $-1 $61 $49 $31 $55 forward $27 $-1 #
edge $85 -1 $-1 $57 0 $86 0.3200000000000000622 $54 $87 forward @7 unknown #
vertex $-1 -1 $-1 $33 $88 #
vertex $-1 -1 $-1 $33 $89 #
straight-curve $-1 -1 $-1 -46.68042625898806364 425.6246689273379502 3.200000000000000622 0 10 0 F 3.963301922145475942 F 26.46330192214547594 #
coedge $-1 -1 $-1 $90 $91 $34 $60 forward $92 $-1 #
edge $-1 -1 $-1 $67 -7.286698077854531164 $63 15.21330192214546884 $59 $93 forward @7 unknown #
coedge $-1 -1 $-1 $35 $54 $90 $94 reversed $27 $-1 #
DXID-attrib $-1 -1 $-1 $-1 $36 @10 ASM ENTITY @36 d3d106d1-084d-4cb2-baec-8e28908b2e66 #
vertex $-1 -1 $-1 $36 $95 #
straight-curve $-1 -1 $-1 -33.68042625898806364 690.2576881487926812 3.200000000000000622 0 0 -10 F 0 F 0.3200000000000000622 #
coedge $-1 -1 $-1 $50 $37 $91 $96 reversed $18 $-1 #
DXID-attrib $-1 -1 $-1 $-1 $38 @10 ASM ENTITY @36 f0999747-dee5-46fa-bd01-d97bf1f16b57 #
vertex $-1 -1 $-1 $60 $97 #
straight-curve $-1 -1 $-1 -33.68042625898805653 465.2576881487926812 3.200000000000000622 0 0 -10 F 0 F 0.3200000000000000622 #
edge $-1 -1 $-1 $57 -1.281534725678003195 $42 0.01846527432199662755 $40 $98 forward @7 unknown #
loop $-1 -1 $-1 $99 $100 $71 #
face $101 -1 $-1 $102 $41 $5 $-1 $103 forward single #
point $-1 -1 $-1 -33.68042625898806364 690.2576881487926812 3.200000000000000622 #
point $-1 -1 $-1 -33.68042625898805653 465.2576881487926812 3.200000000000000622 #
DXID-attrib $-1 -1 $-1 $-1 $46 @10 ASM ENTITY @36 2ec0e604-2757-4fd5-afbe-e8d1456bdd93 #
face $104 -1 $-1 $105 $106 $5 $-1 $107 reversed single #
loop $-1 -1 $-1 $108 $109 $46 #
loop $-1 -1 $-1 $-1 $110 $26 #
coedge $-1 -1 $-1 $78 $78 $111 $112 reversed $47 $-1 #
straight-curve $-1 -1 $-1 -30.6150790022080308 465.2576881487926812 3.200000000000000622 -10 0 0 F 0.3065347256780026619 F 1.606534725678003372 #
coedge $-1 -1 $-1 $91 $90 $52 $81 forward $92 $-1 #
edge $-1 -1 $-1 $86 -26.46330192214546884 $83 -3.963301922145468836 $80 $113 forward @7 unknown #
DXID-attrib $-1 -1 $-1 $-1 $53 @10 ASM ENTITY @36 db770616-de1c-4a41-8916-0dfcdd63560b #
vertex $-1 -1 $-1 $53 $114 #
straight-curve $-1 -1 $-1 -46.68042625898806364 465.2576881487926812 3.200000000000000622 0 0 -10 F 0 F 0.3200000000000000622 #
DXID-attrib $-1 -1 $-1 $-1 $55 @10 ASM ENTITY @36 82b751e5-6210-4ef1-a9f5-ca338ae924f0 #
vertex $-1 -1 $-1 $81 $115 #
straight-curve $-1 -1 $-1 -46.68042625898806364 690.2576881487926812 3.200000000000000622 0 0 -10 F 0 F 0.3200000000000000622 #
point $-1 -1 $-1 -46.68042625898806364 465.2576881487926812 3.200000000000000622 #
point $-1 -1 $-1 -46.68042625898806364 690.2576881487926812 3.200000000000000622 #
coedge $-1 -1 $-1 $80 $59 $61 $94 forward $92 $-1 #
coedge $-1 -1 $-1 $59 $80 $65 $96 forward $92 $-1 #
loop $-1 -1 $-1 $116 $80 $102 #
straight-curve $-1 -1 $-1 -33.68042625898805653 538.1246689273380071 0 -3.947459643111667973e-16 10 0 F -7.286698077854531164 F 15.21330192214546884 #
edge $-1 -1 $-1 $63 -0.01846527432199707164 $86 1.281534725678002751 $90 $117 forward @7 unknown #
point $-1 -1 $-1 -33.68042625898806364 690.2576881487926812 0 #
edge $-1 -1 $-1 $83 -1.606534725678002928 $67 -0.3065347256780022178 $91 $118 forward @7 unknown #
point $-1 -1 $-1 -33.68042625898805653 465.2576881487926812 0 #
straight-curve $-1 -1 $-1 -33.86507900220803435 690.2576881487926812 3.200000000000000622 10 0 0 F -1.281534725678003195 F 0.01846527432199662755 #
loop $-1 -1 $-1 $119 $120 $71 #
coedge $-1 -1 $-1 $100 $100 $121 $122 forward $70 $-1 #
DXID-attrib $-1 -1 $-1 $-1 $71 @10 ASM ENTITY @36 9a8a699e-044d-4de7-bdfe-89f3e8800903 #
face $123 -1 $-1 $124 $92 $5 $-1 $125 reversed single #
plane-surface $-1 -1 $-1 -21.04973174542799796 385.9916497058832761 3.200000000000000622 0 0 1 10 0 0 forward_v I I I I #
DXID-attrib $-1 -1 $-1 $-1 $75 @10 ASM ENTITY @36 3ba77674-22ca-4068-9b60-14b8bc698574 #
face $126 -1 $-1 $127 $128 $5 $-1 $129 reversed single #
loop $-1 -1 $-1 $130 $131 $75 #
cone-surface $-1 -1 $-1 0.5000000000000426326 69.51293463956972118 3.200000000000000622 0 0 -1 -4.499999999998927969 0 0 1 I I 0 1 4.499999999998927969 forward I I I I #
loop $-1 -1 $-1 $-1 $132 $46 #
coedge $-1 -1 $-1 $109 $109 $133 $134 reversed $76 $-1 #
coedge $-1 -1 $-1 $110 $110 $135 $136 reversed $77 $-1 #
coedge $-1 -1 $-1 $111 $111 $78 $112 forward $137 $-1 #
edge $-1 -1 $-1 $138 -3.141592653589793116 $138 3.141592653589793116 $111 $139 forward @7 unknown #
straight-curve $-1 -1 $-1 -46.68042625898806364 425.6246689273380071 0 0 -10 0 F -26.46330192214546884 F -3.963301922145468836 #
point $-1 -1 $-1 -46.68042625898806364 465.2576881487926812 0 #
point $-1 -1 $-1 -46.68042625898806364 690.2576881487926812 0 #
loop $-1 -1 $-1 $140 $141 $102 #
straight-curve $-1 -1 $-1 -33.86507900220803435 690.2576881487926812 0 -10 0 0 F -0.01846527432199707164 F 1.281534725678002751 #
straight-curve $-1 -1 $-1 -30.61507900220803435 465.2576881487926812 0 10 0 0 F -1.606534725678002928 F -0.3065347256780022178 #
loop $-1 -1 $-1 $-1 $142 $71 #
coedge $-1 -1 $-1 $120 $120 $143 $144 forward $99 $-1 #
coedge $-1 -1 $-1 $121 $121 $100 $122 reversed $130 $-1 #
edge $-1 -1 $-1 $145 -3.141592653589793116 $145 3.141592653589793116 $100 $146 forward @7 unknown #
DXID-attrib $-1 -1 $-1 $-1 $102 @10 ASM ENTITY @36 07e86bc5-5ef0-4768-845f-f5aaf12d8e2d #
face $147 -1 $-1 $148 $149 $5 $-1 $150 reversed single #
plane-surface $-1 -1 $-1 -21.04973174542800507 385.9916497058833329 0 0 0 1 10 0 0 forward_v I I I I #
DXID-attrib $-1 -1 $-1 $-1 $105 @10 ASM ENTITY @36 02d1d552-3006-44a5-b7bc-00f5d5b73342 #
face $151 -1 $-1 $152 $153 $5 $-1 $154 reversed single #
loop $-1 -1 $-1 $155 $156 $105 #
cone-surface $-1 -1 $-1 0.499999999999900524 127.0129346395515313 3.200000000000000622 0 0 -1 -4.499999999998927969 0 0 1 I I 0 1 4.499999999998927969 forward I I I I #
loop $-1 -1 $-1 $-1 $121 $75 #
coedge $-1 -1 $-1 $131 $131 $141 $157 reversed $106 $-1 #
coedge $-1 -1 $-1 $132 $132 $158 $159 reversed $108 $-1 #
coedge $-1 -1 $-1 $133 $133 $109 $134 forward $160 $-1 #
edge $-1 -1 $-1 $161 -3.141592653589793116 $161 3.141592653589793116 $133 $162 forward @7 unknown #
coedge $-1 -1 $-1 $135 $135 $110 $136 forward $163 $-1 #
edge $-1 -1 $-1 $164 -3.141592653589793116 $164 3.141592653589793116 $135 $165 forward @7 unknown #
loop $-1 -1 $-1 $166 $111 $167 #
vertex $-1 -1 $-1 $112 $168 #
ellipse-curve $-1 -1 $-1 23.69999999999998863 599.8283641886916939 -23.54139335644113373 -1 2.492204947331884609e-20 3.836267487675370952e-16 4.38944889657537945e-15 0 11.10999999999974364 1 I I #
loop $-1 -1 $-1 $169 $170 $102 #
coedge $-1 -1 $-1 $141 $141 $131 $157 forward $116 $-1 #
coedge $-1 -1 $-1 $171 $172 $173 $174 forward $119 $-1 #
coedge $-1 -1 $-1 $143 $143 $120 $144 reversed $155 $-1 #
edge $-1 -1 $-1 $175 -3.141592653589793116 $175 3.141592653589793116 $120 $176 forward @7 unknown #
vertex $-1 -1 $-1 $122 $177 #
ellipse-curve $-1 -1 $-1 0.5000000000000426326 69.51293463956972118 3.200000000000000622 -0 -0 -1 -4.499999999998927969 0 0 1 I I #
DXID-attrib $-1 -1 $-1 $-1 $124 @10 ASM ENTITY @36 1d5fdf20-458a-4453-9ac7-7e36c82bb4f4 #
face $178 -1 $-1 $179 $180 $5 $-1 $181 forward single #
loop $-1 -1 $-1 $-1 $182 $124 #
cone-surface $-1 -1 $-1 17.29999999999999716 367.9629346393781475 -3.200000000000000622 0 1 0 0 0 3.200000000000000622 1 I I 0 1 4.60800000000000054 forward I I I I #
DXID-attrib $-1 -1 $-1 $-1 $127 @10 ASM ENTITY @36 e84487e7-8960-4641-a975-dd7c7b236914 #
face $183 -1 $-1 $184 $185 $5 $-1 $186 reversed single #
loop $-1 -1 $-1 $-1 $187 $127 #
cone-surface $-1 -1 $-1 -15.49999999999756639 623.962934639357286 3.200000000000000622 0 0 -1 -3.153699523750235825e-11 4.500000000000051514 0 1 I I 0 1 4.500000000000051514 forward I I I I #
loop $-1 -1 $-1 $-1 $143 $105 #
coedge $-1 -1 $-1 $156 $156 $170 $188 reversed $128 $-1 #
edge $-1 -1 $-1 $189 -3.141592653589793116 $189 3.141592653589793116 $141 $190 forward @7 unknown #
coedge $-1 -1 $-1 $158 $158 $132 $159 forward $191 $-1 #
edge $-1 -1 $-1 $192 -3.141592653589793116 $192 3.141592653589793116 $158 $193 forward @7 unknown #
loop $-1 -1 $-1 $194 $133 $179 #
vertex $-1 -1 $-1 $134 $195 #
ellipse-curve $-1 -1 $-1 -84.90688732098020353 599.8283641886916939 -23.5413933564410911 -0.9945054529214061301 -0.1046847845180427505 -1.884953596957803411e-15 -1.169473684210499353 11.10999999999974364 4.620472522710925685e-16 0.9945054529214060191 I I #
loop $-1 -1 $-1 $196 $135 $197 #
vertex $-1 -1 $-1 $136 $198 #
ellipse-curve $-1 -1 $-1 20.49999999999998934 599.8283641886916939 -23.54139335644113373 1 2.49220494733186535e-20 -3.836267487675370952e-16 4.38944889657537945e-15 0 11.10999999999974364 1 I I #
loop $-1 -1 $-1 $-1 $199 $167 #
face $200 -1 $-1 $201 $137 $5 $-1 $202 forward single #
point $-1 -1 $-1 23.69999999999998863 599.8283641886916939 -34.65139335644087737 #
loop $-1 -1 $-1 $-1 $203 $102 #
coedge $-1 -1 $-1 $170 $170 $156 $188 forward $140 $-1 #
coedge $-1 -1 $-1 $204 $142 $205 $206 forward $119 $-1 #
coedge $-1 -1 $-1 $142 $207 $208 $209 forward $119 $-1 #
coedge $-1 -1 $-1 $210 $211 $142 $174 reversed $212 $-1 #
edge $-1 -1 $-1 $213 -1.597486587271472303 $214 1.682513412731437619 $142 $215 forward @7 unknown #
vertex $-1 -1 $-1 $144 $216 #
ellipse-curve $-1 -1 $-1 0.499999999999900524 127.0129346395515313 3.200000000000000622 -0 -0 -1 -4.499999999998927969 0 0 1 I I #
point $-1 -1 $-1 4.999999999998970601 69.51293463956972118 3.200000000000000622 #
DXID-attrib $-1 -1 $-1 $-1 $148 @10 ASM ENTITY @36 b26288ea-c05c-4ee4-9d02-6dc3aff281be #
face $217 -1 $-1 $218 $160 $5 $-1 $219 reversed single #
loop $-1 -1 $-1 $-1 $220 $148 #
cone-surface $-1 -1 $-1 -57.28232030744531755 367.9629346393781475 -3.200000000000036149 0.1046847845180427505 -0.9945054529214061301 0 0 0 6.399999999999971045 1 I I 0 1 4.608000000000001428 forward I I I I #
coedge $-1 -1 $-1 $221 $222 $223 $224 forward $149 $-1 #
DXID-attrib $-1 -1 $-1 $-1 $152 @10 ASM ENTITY @36 c9da2c27-3507-4639-82ba-1cc223015d2b #
face $225 -1 $-1 $226 $227 $5 $-1 $228 reversed single #
loop $-1 -1 $-1 $-1 $229 $152 #
plane-surface $-1 -1 $-1 -19.99999999999774403 551.9629346393048763 3.200000000000000622 -1 1.017704439238081396e-15 0 1.017704439238081475e-14 10 0 forward_v I I I I #
coedge $-1 -1 $-1 $230 $231 $232 $233 reversed $153 $-1 #
edge $-1 -1 $-1 $234 -3.141592653589793116 $234 3.141592653589793116 $170 $235 forward @7 unknown #
vertex $-1 -1 $-1 $157 $236 #
ellipse-curve $-1 -1 $-1 0.5000000000000426326 69.51293463956972118 0 0 0 1 -4.499999999998927969 0 0 1 I I #
loop $-1 -1 $-1 $237 $158 $238 #
vertex $-1 -1 $-1 $159 $239 #
ellipse-curve $-1 -1 $-1 -88.12456701353475808 599.8283641886916939 -23.5413933564410911 0.9945054529214061301 0.1046847845180427505 1.891493183949353349e-15 -1.169473684210499353 11.10999999999974364 4.620472522710925685e-16 0.9945054529214060191 I I #
loop $-1 -1 $-1 $-1 $240 $179 #
point $-1 -1 $-1 -83.73741363676970195 588.7183641886919077 -23.5413933564410911 #
loop $-1 -1 $-1 $-1 $241 $197 #
face $242 -1 $-1 $243 $163 $5 $-1 $244 reversed single #
point $-1 -1 $-1 20.49999999999998579 599.8283641886916939 -34.65139335644087737 #
coedge $-1 -1 $-1 $245 $246 $247 $248 forward $166 $-1 #
DXID-attrib $-1 -1 $-1 $-1 $167 @10 ASM ENTITY @36 7fee959a-83cb-4bc6-8f19-248ee33ed1f3 #
face $249 -1 $-1 $250 $251 $5 $-1 $150 reversed single #
plane-surface $-1 -1 $-1 23.69999999999998153 367.9629346393781475 -36.38088526306454895 1 -2.492204947331884609e-20 -3.836267487675370952e-16 -3.836267487675371248e-15 0 -10 forward_v I I I I #
coedge $-1 -1 $-1 $232 $252 $253 $254 forward $169 $-1 #
coedge $-1 -1 $-1 $255 $171 $256 $257 forward $119 $-1 #
coedge $-1 -1 $-1 $258 $259 $171 $206 reversed $227 $-1 #
edge $-1 -1 $-1 $214 -1.570796326776583873 $260 1.994552017151255581e-27 $171 $261 forward @7 unknown #
coedge $-1 -1 $-1 $172 $262 $263 $264 reversed $119 $-1 #
coedge $-1 -1 $-1 $265 $266 $172 $209 reversed $267 $-1 #
edge $-1 -1 $-1 $268 -19.90143575332525572 $213 36.04856424667252668 $208 $269 forward @7 tangent #
coedge $-1 -1 $-1 $247 $173 $266 $270 reversed $212 $-1 #
coedge $-1 -1 $-1 $173 $271 $258 $272 reversed $212 $-1 #
loop $-1 -1 $-1 $-1 $210 $226 #
vertex $-1 -1 $-1 $270 $273 #
vertex $-1 -1 $-1 $206 $274 #
straight-curve $-1 -1 $-1 1.325134127285273467 547.462934639355808 3.200000000000000622 -10 -9.063045098974138963e-14 0 F -1.597486587271472303 F 1.682513412731437619 #
point $-1 -1 $-1 4.999999999998828493 127.0129346395515313 3.200000000000000622 #
DXID-attrib $-1 -1 $-1 $-1 $179 @10 ASM ENTITY @36 5f4df160-7c4c-457a-9794-a7376eb6d04b #
face $275 -1 $-1 $276 $277 $5 $-1 $278 forward single #
plane-surface $-1 -1 $-1 -60.48390447776179002 367.810027178117025 -36.38054413028847023 -0.9945054529214061301 -0.1046847845180427505 -1.884953596957803411e-15 0.1095890410958717809 -1.041095890410961067 9.945054529214061745 forward_v I I I I #
coedge $-1 -1 $-1 $279 $280 $281 $282 reversed $180 $-1 #
coedge $-1 -1 $-1 $283 $182 $284 $285 reversed $149 $-1 #
coedge $-1 -1 $-1 $182 $283 $286 $287 reversed $149 $-1 #
coedge $-1 -1 $-1 $271 $288 $182 $224 reversed $212 $-1 #
edge $-1 -1 $-1 $289 6.938893903905213824e-16 $290 1.570796326794895892 $182 $291 forward @7 unknown #
DXID-attrib $-1 -1 $-1 $-1 $184 @10 ASM ENTITY @36 0ca4121b-ea72-4ad1-95ba-529a4682e335 #
face $292 -1 $-1 $293 $212 $5 $-1 $294 reversed single #
loop $-1 -1 $-1 $-1 $295 $184 #
cone-surface $-1 -1 $-1 -15.49999999999757172 551.962934639355808 3.200000000000000622 0 0 -1 -4.500000000000147438 -5.087485988042290189e-11 0 1 I I 0 1 4.500000000000147438 forward I I I I #
coedge $-1 -1 $-1 $296 $297 $298 $299 reversed $185 $-1 #
coedge $-1 -1 $-1 $300 $187 $301 $302 reversed $153 $-1 #
coedge $-1 -1 $-1 $187 $300 $296 $303 forward $153 $-1 #
coedge $-1 -1 $-1 $298 $203 $187 $233 forward $169 $-1 #
edge $-1 -1 $-1 $304 0 $305 1.570796326773661766 $232 $306 forward @7 unknown #
vertex $-1 -1 $-1 $188 $307 #
ellipse-curve $-1 -1 $-1 0.499999999999900524 127.0129346395515313 0 0 0 1 -4.499999999998927969 0 0 1 I I #
point $-1 -1 $-1 4.999999999998970601 69.51293463956972118 0 #
loop $-1 -1 $-1 $-1 $281 $238 #
face $308 -1 $-1 $309 $191 $5 $-1 $310 forward single #
point $-1 -1 $-1 -86.9550933293242565 588.7183641886919077 -23.5413933564410911 #
coedge $-1 -1 $-1 $311 $312 $313 $314 forward $194 $-1 #
coedge $-1 -1 $-1 $315 $316 $317 $318 forward $196 $-1 #
DXID-attrib $-1 -1 $-1 $-1 $197 @10 ASM ENTITY @36 e38b0aa6-a45d-41c5-afb1-fbdc4e5be3f9 #
face $319 -1 $-1 $320 $321 $5 $-1 $322 forward single #
plane-surface $-1 -1 $-1 20.49999999999998579 367.9629346393781475 -36.38088526306454895 1 2.49220494733186535e-20 -3.836267487675370952e-16 -3.836267487675371248e-15 0 -10 forward_v I I I I #
coedge $-1 -1 $-1 $323 $199 $324 $325 forward $166 $-1 #
coedge $-1 -1 $-1 $199 $326 $327 $328 forward $166 $-1 #
coedge $-1 -1 $-1 $329 $210 $199 $248 reversed $212 $-1 #
edge $-1 -1 $-1 $330 0.9790442631532274564 $331 1.339044263153227332 $199 $332 forward @7 unknown #
DXID-attrib $-1 -1 $-1 $-1 $201 @10 ASM ENTITY @36 6b43cd31-c4bc-44a8-9154-dc2a5e087963 #
face $333 -1 $-1 $-1 $334 $5 $-1 $335 forward single #
loop $-1 -1 $-1 $-1 $336 $201 #
coedge $-1 -1 $-1 $203 $337 $338 $339 forward $169 $-1 #
coedge $-1 -1 $-1 $340 $301 $203 $254 reversed $341 $-1 #
edge $-1 -1 $-1 $342 -3.557486587273250844 $304 -0.277486587270340479 $203 $343 forward @7 unknown #
coedge $-1 -1 $-1 $344 $204 $300 $345 forward $119 $-1 #
coedge $-1 -1 $-1 $297 $296 $204 $257 reversed $185 $-1 #
edge $-1 -1 $-1 $260 8.298564246671077171 $346 15.4985642466827187 $204 $347 forward @7 unknown #
coedge $-1 -1 $-1 $295 $205 $211 $272 forward $227 $-1 #
coedge $-1 -1 $-1 $205 $295 $297 $348 reversed $227 $-1 #
vertex $-1 -1 $-1 $257 $349 #
ellipse-curve $-1 -1 $-1 -15.49999999999757172 551.962934639355808 3.200000000000000622 -0 -0 -1 -4.500000000000147438 -5.087485988042290189e-11 0 1 F -1.570796326776583873 F 1.994552017151255581e-27 #
coedge $-1 -1 $-1 $207 $350 $351 $352 forward $119 $-1 #
coedge $-1 -1 $-1 $353 $354 $207 $264 forward $334 $-1 #
edge $355 -1 $-1 $268 -3.780000000000000249 $356 -0.3217679692554571425 $263 $357 forward @7 unknown #
coedge $-1 -1 $-1 $324 $208 $358 $359 reversed $267 $-1 #
coedge $-1 -1 $-1 $208 $324 $210 $270 forward $267 $-1 #
loop $-1 -1 $-1 $-1 $266 $360 #
vertex $-1 -1 $-1 $209 $361 #
straight-curve $-1 -1 $-1 17.29999999999999716 186.9772921726307118 3.200000000000000622 0 10 0 F -19.90143575332525572 F 36.04856424667252668 #
edge $-1 -1 $-1 $331 -1.570796326794896558 $213 3.469446951954619493e-16 $266 $362 forward @7 unknown #
coedge $-1 -1 $-1 $211 $223 $363 $364 reversed $212 $-1 #
edge $365 -1 $-1 $214 0 $366 0.3200000000000000622 $211 $367 forward @7 tangent #
point $-1 -1 $-1 17.29999999999999716 547.4629346393560354 3.200000000000000622 #
point $-1 -1 $-1 -15.50000000002910383 547.4629346393556943 3.200000000000000622 #
DXID-attrib $-1 -1 $-1 $-1 $218 @10 ASM ENTITY @36 a3440bc6-775d-4129-85dd-aa2aaa48ad33 #
face $368 -1 $-1 $369 $370 $5 $-1 $371 forward single #
loop $-1 -1 $-1 $-1 $372 $218 #
plane-surface $-1 -1 $-1 -100.4999999999997158 747.9629346393784317 -76.80000000000013927 -0.1046847845180427505 0.9945054529214061301 -1.387778780781445367e-17 -9.945054529214063521 -1.046847845180427727 -1.714750004856051685e-14 forward_v I I I I #
tcoedge-coedge $-1 -1 $-1 $351 $220 $373 $374 reversed $180 $375 -1.570796326794897002 -7.056645188948122718e-13 #
tcoedge-coedge $-1 -1 $-1 $220 $351 $376 $377 reversed $180 $378 -1.570796326794875908 -5.639731865963150675e-13 #
coedge $-1 -1 $-1 $379 $380 $220 $282 forward $237 $-1 #
edge $-1 -1 $-1 $381 -38.18541663080776516 $382 38.23447606736346671 $281 $383 forward @7 tangent #
coedge $-1 -1 $-1 $222 $221 $384 $385 reversed $149 $-1 #
coedge $-1 -1 $-1 $386 $387 $221 $285 forward $196 $-1 #
edge $-1 -1 $-1 $388 -38.00000000000002842 $290 17.94999999999778595 $284 $389 forward @7 tangent #
coedge $-1 -1 $-1 $390 $363 $222 $287 forward $169 $-1 #
edge $-1 -1 $-1 $289 -36.04856424667252668 $391 19.90143575332525927 $222 $392 forward @7 tangent #
coedge $-1 -1 $-1 $223 $329 $386 $393 reversed $212 $-1 #
vertex $-1 -1 $-1 $224 $394 #
vertex $-1 -1 $-1 $393 $395 #
ellipse-curve $-1 -1 $-1 17.29999999999999716 547.4629346393560354 -3.200000000000000622 -9.063045098974138963e-15 1 0 0 0 3.200000000000000622 1 F 6.938893903905213824e-16 F 1.570796326794895892 #
DXID-attrib $-1 -1 $-1 $-1 $226 @10 ASM ENTITY @36 558fb690-ca57-4459-9ebf-13981d20c753 #
face $396 -1 $-1 $397 $341 $5 $-1 $398 reversed single #
plane-surface $-1 -1 $-1 23.70000000000000995 547.4629346393560354 3.200000000000000622 9.063045098974138963e-15 -1 0 -10 -9.063045098974138963e-14 -0 forward_v I I I I #
coedge $-1 -1 $-1 $259 $258 $399 $400 reversed $227 $-1 #
coedge $-1 -1 $-1 $256 $229 $231 $303 reversed $185 $-1 #
coedge $-1 -1 $-1 $229 $256 $259 $348 forward $185 $-1 #
coedge $-1 -1 $-1 $399 $232 $229 $299 forward $169 $-1 #
edge $-1 -1 $-1 $305 -15.4985642466827187 $401 -8.298564246671077171 $298 $402 forward @7 unknown #
coedge $-1 -1 $-1 $231 $230 $255 $345 reversed $153 $-1 #
coedge $-1 -1 $-1 $253 $403 $230 $302 forward $341 $-1 #
edge $404 -1 $-1 $405 0 $304 0.3200000000000000622 $230 $406 forward @7 tangent #
edge $407 -1 $-1 $346 0 $305 0.3200000000000000622 $296 $408 forward @7 tangent #
vertex $-1 -1 $-1 $233 $409 #
vertex $-1 -1 $-1 $233 $410 #
ellipse-curve $-1 -1 $-1 -15.49999999999756639 623.962934639357286 0 0 0 1 -3.153699523750235825e-11 4.500000000000051514 0 1 F 0 F 1.570796326773661766 #
point $-1 -1 $-1 4.999999999998828493 127.0129346395515313 0 #
DXID-attrib $-1 -1 $-1 $-1 $238 @10 ASM ENTITY @36 eead05e1-a66d-4aa4-966f-c505c9922878 #
face $411 -1 $-1 $412 $413 $5 $-1 $414 reversed single #
plane-surface $-1 -1 $-1 -63.66632192711029603 367.4750358676593009 -36.38054413028846312 -0.9945054529214061301 -0.1046847845180427505 -1.891493183949353349e-15 0.1095890410958717115 -1.041095890410961067 9.945054529214061745 forward_v I I I I #
coedge $-1 -1 $-1 $415 $240 $416 $417 forward $194 $-1 #
coedge $-1 -1 $-1 $240 $415 $418 $419 reversed $194 $-1 #
coedge $-1 -1 $-1 $420 $421 $240 $314 reversed $413 $-1 #
edge $-1 -1 $-1 $422 -38.23447606736346671 $423 38.18541663080775805 $240 $424 forward @7 tangent #
coedge $-1 -1 $-1 $425 $241 $426 $427 forward $196 $-1 #
coedge $-1 -1 $-1 $241 $386 $428 $429 forward $196 $-1 #
coedge $-1 -1 $-1 $430 $340 $241 $318 reversed $341 $-1 #
edge $-1 -1 $-1 $431 0.9790442631532281226 $432 1.33904426315322822 $241 $433 forward @7 unknown #
DXID-attrib $-1 -1 $-1 $-1 $243 @10 ASM ENTITY @36 d5b95583-033d-4f35-b2f3-56fb131e5fb5 #
face $434 -1 $-1 $435 $436 $5 $-1 $437 forward single #
loop $-1 -1 $-1 $-1 $438 $243 #
plane-surface $-1 -1 $-1 20.5 747.9629346393778633 -3.200000000000001954 0 1 0 0 0 10 forward_v I I I I #
coedge $-1 -1 $-1 $439 $245 $440 $441 reversed $166 $-1 #
coedge $-1 -1 $-1 $266 $265 $245 $325 reversed $267 $-1 #
edge $-1 -1 $-1 $331 -17.94999999999779305 $442 38.00000000000002842 $245 $443 forward @7 tangent #
coedge $-1 -1 $-1 $246 $444 $445 $446 forward $166 $-1 #
coedge $-1 -1 $-1 $447 $448 $246 $328 reversed $449 $-1 #
edge $-1 -1 $-1 $450 -15.04999999999909477 $330 -6.949999999998844658 $246 $451 forward @7 unknown #
coedge $-1 -1 $-1 $288 $247 $448 $452 forward $212 $-1 #
vertex $-1 -1 $-1 $248 $453 #
vertex $-1 -1 $-1 $270 $454 #
straight-curve $-1 -1 $-1 23.69999999999999218 547.4629346393561491 -16.59044263153227305 3.836267487675371248e-15 3.476826525253010645e-29 10 F 0.9790442631532274564 F 1.339044263153227332 #
DXID-attrib $-1 -1 $-1 $-1 $250 @10 ASM ENTITY @36 f365ca89-eee8-42fe-a939-66917aea2c3e #
loop $-1 -1 $-1 $-1 $353 $250 #
plane-surface $-1 -1 $-1 20.5 -12.03706536062185251 0 1.083144414268445258e-16 -1 0 0 0 -10 forward_v I I I I #
coedge $-1 -1 $-1 $338 $426 $340 $455 forward $251 $-1 #
coedge $-1 -1 $-1 $252 $456 $457 $458 reversed $169 $-1 #
coedge $-1 -1 $-1 $459 $336 $252 $339 reversed $251 $-1 #
edge $-1 -1 $-1 $460 -56.09856424667474073 $342 -44.14856424667276258 $338 $461 forward @7 tangent #
coedge $-1 -1 $-1 $317 $253 $336 $455 reversed $341 $-1 #
loop $-1 -1 $-1 $-1 $462 $293 #
vertex $-1 -1 $-1 $254 $463 #
straight-curve $-1 -1 $-1 -18.27486587273250862 628.4629346393571723 0 -10 -3.262696235630690027e-13 0 F -3.557486587273250844 F -0.277486587270340479 #
coedge $-1 -1 $-1 $464 $255 $403 $465 forward $119 $-1 #
edge $-1 -1 $-1 $346 -1.570796326773661766 $405 0 $255 $466 forward @7 unknown #
vertex $-1 -1 $-1 $345 $467 #
straight-curve $-1 -1 $-1 -19.99999999999782929 468.9772921725941046 3.200000000000000622 1.017704439238081475e-14 10 0 F 8.298564246671077171 F 15.4985642466827187 #
edge $468 -1 $-1 $260 0 $401 0.3200000000000000622 $259 $469 forward @7 tangent #
point $-1 -1 $-1 -19.99999999999774403 551.9629346393048763 3.200000000000000622 #
coedge $-1 -1 $-1 $262 $464 $470 $471 reversed $119 $-1 #
coedge $-1 -1 $-1 $280 $279 $262 $352 reversed $180 $-1 #
edge $-1 -1 $-1 $472 -18.39814043870979887 $356 58.02175225946140813 $351 $473 forward @7 tangent #
coedge $-1 -1 $-1 $474 $263 $475 $476 forward $334 $-1 #
coedge $-1 -1 $-1 $263 $474 $477 $478 forward $334 $-1 #
DXID-attrib $-1 -1 $-1 $-1 $264 @10 ASM ENTITY @36 3d67425d-c465-4b17-8f16-df277c7afc35 #
tvertex-vertex $-1 -1 $-1 $352 $479 1.458247769216528306e-11 #
straight-curve $-1 -1 $-1 -20.50000000000000711 -12.03706536062185606 3.200000000000000622 -10 -1.083144414268445184e-15 0 F -3.780000000000000249 F -0.3217679692554571425 #
coedge $-1 -1 $-1 $477 $480 $265 $359 forward $436 $-1 #
edge $-1 -1 $-1 $442 -2.407412430484043941e-31 $268 1.570796326794897002 $358 $481 forward @7 unknown #
face $482 -1 $-1 $71 $267 $5 $-1 $483 forward single #
point $-1 -1 $-1 17.29999999999999716 -12.03706536062185251 3.200000000000000622 #
ellipse-curve $-1 -1 $-1 17.29999999999999716 547.4629346393560354 -3.200000000000000622 9.063045098974138963e-15 -1 0 0 0 6.400000000000001243 1 F -1.570796326794896558 F 3.469446951954619493e-16 #
coedge $-1 -1 $-1 $286 $399 $271 $364 forward $169 $-1 #
edge $-1 -1 $-1 $366 -1.682513412731437619 $289 1.597486587271472747 $363 $484 forward @7 unknown #
DXID-attrib $-1 -1 $-1 $-1 $272 @10 ASM ENTITY @36 d00459f4-f22d-47b9-8769-b439fce601d0 #
vertex $-1 -1 $-1 $400 $485 #
straight-curve $-1 -1 $-1 -15.50000000002910383 547.4629346393556943 3.200000000000000622 0 0 -10 F 0 F 0.3200000000000000622 #
DXID-attrib $-1 -1 $-1 $-1 $276 @10 ASM ENTITY @36 5c938b8b-b80e-4ad1-b7f0-6e455c73134b #
face $486 -1 $-1 $487 $488 $5 $-1 $489 forward single #
loop $-1 -1 $-1 $-1 $376 $276 #
spline-surface $-1 -1 $-1 forward { exactsur full nubs 3 3 open open none none 2 4 
	0 3 0.320000000000004281 3 
	0 3 0.3105455557243166353 1 0.5175759262071943922 1 0.7246062966900721491 3 
	-100.4999999999998863 747.9629346393784317 -3.200000000000064571 
	-101.5608058164494025 747.8512708692258002 -3.200000000000073896 
	-102.6216116328989045 747.7396070990732824 -3.200000000000083222 
	-103.6824174493484207 747.6279433289207645 -3.200000000000092548 
	-100.4949625366847243 747.9150787378844143 -2.481921679179558637 
	-101.5557683531342548 747.8034149677318965 -2.242562238906060212 
	-102.616574169583771 747.6917511975793786 -2.003202798632560899 
	-103.6773799860332872 747.5800874274267471 -1.763843358359062474 
	-100.0688687699197885 747.8792871120161863 -1.28965869434347602 
	-100.9904419215116036 747.7822794118486627 -0.6528782591246051759 
	-101.9120150731034471 747.6852717116812528 -0.01609782390573725672 
	-102.8335882246952622 747.5882640115135018 0.6206826113131338474 
	-98.71877495324120844 747.9085012087698487 -0.2190881347127208167 
	-99.19423485962973075 747.8584527975713172 0.7745491537164083118 
	-99.66969476601826727 747.8084043863724446 1.76818644214554177 
	-100.1451546724067896 747.7583559751734583 2.761823730574670677 
	-97.76176715344263357 747.9447239908528218 -9.024681419917271179e-14 
	-97.92046333248281087 747.9280191299012586 1.066666666666585828 
	-98.07915951152298817 747.9113142689495817 2.133333333333261805 
	-98.23785569056317968 747.8946094079980185 3.199999999999938005 
	-97.28232030744543124 747.962934639378318 -7.494005416219806648e-14 
	-97.28232030744547387 747.962934639378318 1.066666666666606256 
	-97.28232030744550229 747.962934639378318 2.133333333333287118 
	-97.28232030744553072 747.962934639378318 3.199999999999968203 
	0 
	
	0 
	0 
	0 
	0 
	0 
	2 0.3105455557243166353 0.5175759262071943922 
	F 1 F 0 F 1 F 0 } I I I I #
coedge $-1 -1 $-1 $490 $491 $379 $492 forward $277 $-1 #
tcoedge-coedge $-1 -1 $-1 $493 $475 $279 $374 forward $488 $494 7.056645188948122718e-13 1.570796326794897002 #
tedge-edge $-1 -1 $-1 $356 7.056645188948122718e-13 $381 1.570796326794897002 $373 $495 forward @7 unknown 0.00456407219852727683 #
pcurve $-1 -1 $-1 0 forward { exppc nubs 3 open 4 
	-1.570796326794897002 3 -0.8975979010256555091 3 -0.44879895051282781 3 -0 3 
	82.84779109930403251 1.570796326794923869 
	82.85823387290470521 1.346396851538510075 
	82.86867664650534948 1.121819638317838486 
	82.87911942010600796 0.8975560149719127301 
	82.88608126917313257 0.7480469327412955227 
	82.89304311824025717 0.5982474389157259598 
	82.90000496730735335 0.4486568615721095998 
	82.90696681637447796 0.2990662842284933509 
	82.91392866544158835 0.1495996501709687954 
	82.92089051450869874 2.636779683484758774e-14 
	1.478495577480775919e-05 
	cone -57.28232030744531755 367.9629346393781475 -3.200000000000036149 0.1046847845180427505 -0.9945054529214061301 0 0 0 6.399999999999971045 1 I I 0 1 4.608000000000001428 forward I I I I 
	} 0 0 #
tcoedge-coedge $-1 -1 $-1 $496 $497 $280 $377 forward $370 $498 5.639731865963150675e-13 1.570796326794875908 #
tedge-edge $-1 -1 $-1 $382 5.639731865963150675e-13 $472 1.570796326794875908 $376 $499 forward @7 unknown 0.004881180131963059991 #
pcurve $-1 -1 $-1 0 forward { exppc nubs 3 open 4 
	-1.570796326794875908 3 -1.121997376282054093 3 -0.6731984257692326112 3 -0 3 
	-82.92089051450874138 3.261280134836411853e-14 
	-82.92785236357583756 0.1495996501709744297 
	-82.93481421264294795 0.2990391276344985805 
	-82.94177606171005834 0.4486203323464772463 
	-82.94873791077716874 0.5982015370584558012 
	-82.95569975984426492 0.748007860676499936 
	-82.96266160891138952 0.8975322164073096243 
	-82.97310438251209064 1.121818750003524601 
	-82.98354715611276333 1.346396851538494532 
	-82.99398992971343603 1.57079632679490544 
	1.60583085669059551e-05 
	cone -57.28232030744531755 367.9629346393781475 -3.200000000000036149 0.1046847845180427505 -0.9945054529214061301 0 0 0 6.399999999999971045 1 I I 0 1 4.608000000000001428 forward I I I I 
	} 0 0 #
coedge $-1 -1 $-1 $500 $281 $372 $492 reversed $237 $-1 #
coedge $-1 -1 $-1 $281 $500 $501 $502 reversed $237 $-1 #
tvertex-vertex $-1 -1 $-1 $282 $503 1.017672741994243611e-11 #
tvertex-vertex $-1 -1 $-1 $282 $504 1.359714321423790666e-11 #
straight-curve $-1 -1 $-1 -63.65673856662632346 367.3839939430610002 -3.200000000000047251 -1.046847845180427727 9.945054529214063521 1.060923018878325483e-31 F -38.18541663080776516 F 38.23447606736346671 #
coedge $-1 -1 $-1 $480 $477 $283 $385 forward $436 $-1 #
edge $-1 -1 $-1 $391 0 $388 1.570796326794897224 $283 $505 forward @7 unknown #
coedge $-1 -1 $-1 $316 $284 $288 $393 forward $196 $-1 #
coedge $-1 -1 $-1 $284 $506 $507 $508 reversed $196 $-1 #
vertex $-1 -1 $-1 $285 $509 #
straight-curve $-1 -1 $-1 20.5 367.9629346393781475 -3.199999999999998401 -2.49220494733186535e-19 10 9.541577852665664886e-35 F -38.00000000000002842 F 17.94999999999778595 #
coedge $-1 -1 $-1 $456 $286 $474 $510 reversed $169 $-1 #
vertex $-1 -1 $-1 $287 $511 #
straight-curve $-1 -1 $-1 17.30000000000000071 186.9772921726307402 0 0 -10 0 F -36.04856424667252668 F 19.90143575332525927 #
edge $-1 -1 $-1 $290 -1.339044263153227554 $512 -0.9790442631532274564 $386 $513 forward @7 unknown #
point $-1 -1 $-1 17.30000000000000071 547.4629346393560354 0 #
point $-1 -1 $-1 20.5 547.4629346393560354 -3.199999999999998401 #
DXID-attrib $-1 -1 $-1 $-1 $293 @10 ASM ENTITY @36 6b369685-c94d-4a30-bf45-286d11db1098 #
face $514 -1 $-1 $515 $449 $5 $-1 $516 forward single #
plane-surface $-1 -1 $-1 -15.50000000002910383 628.462934639357286 3.200000000000000622 -3.262696235630690027e-14 1 0 10 3.262696235630690027e-13 0 forward_v I I I I #
coedge $-1 -1 $-1 $363 $298 $295 $400 forward $169 $-1 #
edge $-1 -1 $-1 $401 -1.994552017151255581e-27 $366 1.570796326776583873 $399 $517 forward @7 unknown #
vertex $-1 -1 $-1 $299 $518 #
straight-curve $-1 -1 $-1 -19.99999999999782929 468.9772921725941046 0 -1.017704439238081475e-14 -10 0 F -15.4985642466827187 F -8.298564246671077171 #
coedge $-1 -1 $-1 $301 $462 $344 $465 reversed $341 $-1 #
DXID-attrib $-1 -1 $-1 $-1 $302 @10 ASM ENTITY @36 4d37cbe9-edee-452d-a4ff-9febe6821f8e #
vertex $-1 -1 $-1 $302 $519 #
straight-curve $-1 -1 $-1 -15.50000000002910383 628.462934639357286 3.200000000000000622 0 0 -10 F 0 F 0.3200000000000000622 #
DXID-attrib $-1 -1 $-1 $-1 $303 @10 ASM ENTITY @36 1f3f4d26-0d72-4cd9-8863-6cd3270a7c84 #
straight-curve $-1 -1 $-1 -19.99999999999766942 623.9629346394212916 3.200000000000000622 0 0 -10 F 0 F 0.3200000000000000622 #
point $-1 -1 $-1 -15.50000000002910383 628.462934639357286 0 #
point $-1 -1 $-1 -19.99999999999766942 623.9629346394212916 0 #
DXID-attrib $-1 -1 $-1 $-1 $309 @10 ASM ENTITY @36 ffad155f-3306-424d-8b54-576fcc9d044f #
face $520 -1 $-1 $521 $522 $5 $-1 $523 forward single #
loop $-1 -1 $-1 $-1 $313 $309 #
cone-surface $-1 -1 $-1 -57.28232030744531755 367.9629346393781475 -3.200000000000036149 0.1046847845180427505 -0.9945054529214061301 0 0 0 3.199999999999970868 1 I I 0 1 4.608000000000001428 forward I I I I #
coedge $-1 -1 $-1 $312 $311 $524 $525 forward $194 $-1 #
coedge $-1 -1 $-1 $526 $527 $311 $417 reversed $528 $-1 #
edge $-1 -1 $-1 $423 0 $529 7.360000000000004761 $311 $530 forward @7 unknown #
coedge $-1 -1 $-1 $491 $490 $312 $419 forward $277 $-1 #
edge $-1 -1 $-1 $422 0 $531 7.360000000000003872 $312 $532 forward @7 unknown #
tcoedge-coedge $-1 -1 $-1 $533 $313 $534 $535 reversed $413 $536 -1.570796326793895581 -0 #
tcoedge-coedge $-1 -1 $-1 $313 $533 $537 $538 forward $413 $539 7.056645188948122718e-13 1.570796326794897002 #
tvertex-vertex $-1 -1 $-1 $314 $540 1.315457697267878675e-11 #
tvertex-vertex $-1 -1 $-1 $314 $541 1.029836450095877698e-11 #
straight-curve $-1 -1 $-1 -60.47432111727782456 367.7189852535187242 -3.200000000000033928 1.046847845180427727 -9.945054529214063521 -1.148320214270784269e-31 F -38.23447606736346671 F 38.18541663080775805 #
coedge $-1 -1 $-1 $506 $315 $542 $543 forward $196 $-1 #
coedge $-1 -1 $-1 $336 $459 $315 $427 reversed $251 $-1 #
edge $-1 -1 $-1 $432 26.04999999999803606 $544 37.99999999999997158 $315 $545 forward @7 tangent #
coedge $-1 -1 $-1 $448 $447 $316 $429 reversed $449 $-1 #
edge $-1 -1 $-1 $512 6.949999999998844658 $431 15.04999999999908766 $316 $546 forward @7 unknown #
coedge $-1 -1 $-1 $445 $317 $447 $547 forward $341 $-1 #
vertex $-1 -1 $-1 $318 $548 #
vertex $-1 -1 $-1 $455 $549 #
straight-curve $-1 -1 $-1 20.49999999999999289 628.4629346393584228 -16.59044263153228016 3.836267487675371248e-15 1.25165754909108381e-28 10 F 0.9790442631532281226 F 1.33904426315322822 #
DXID-attrib $-1 -1 $-1 $-1 $320 @10 ASM ENTITY @36 0804e0bf-4b57-4555-8e6b-323053f554a2 #
face $550 -1 $-1 $551 $552 $5 $-1 $553 forward single #
loop $-1 -1 $-1 $-1 $480 $320 #
plane-surface $-1 -1 $-1 23.70000000000000284 -12.03706536062213672 -3.200000000000002842 0 -1 0 0 0 -10 forward_v I I I I #
coedge $-1 -1 $-1 $554 $555 $556 $557 reversed $321 $-1 #
coedge $-1 -1 $-1 $558 $323 $559 $560 reversed $166 $-1 #
coedge $-1 -1 $-1 $561 $562 $323 $441 forward $563 $-1 #
edge $-1 -1 $-1 $564 -8.08382294738708751 $442 -0.7238229473870885222 $440 $565 forward @7 unknown #
vertex $-1 -1 $-1 $359 $566 #
straight-curve $-1 -1 $-1 23.69999999999999574 367.9629346393781475 -3.199999999999998401 -2.492204947331884609e-19 -10 9.541577852665738654e-35 F -17.94999999999779305 F 38.00000000000002842 #
coedge $-1 -1 $-1 $326 $558 $567 $568 forward $166 $-1 #
coedge $-1 -1 $-1 $462 $430 $326 $446 reversed $341 $-1 #
edge $-1 -1 $-1 $569 -1.339044263153227998 $450 -0.9790442631532281226 $326 $570 forward @7 unknown #
coedge $-1 -1 $-1 $428 $327 $430 $547 reversed $449 $-1 #
coedge $-1 -1 $-1 $327 $428 $329 $452 reversed $449 $-1 #
loop $-1 -1 $-1 $-1 $428 $397 #
vertex $-1 -1 $-1 $547 $571 #
straight-curve $-1 -1 $-1 23.69999999999999218 477.9629346393676315 -6.799999999999997158 -2.492204947331884609e-19 -10 0 F -15.04999999999909477 F -6.949999999998844658 #
edge $572 -1 $-1 $330 -3.920000000002911378 $512 -3.600000000002910205 $329 $573 forward @7 unknown #
point $-1 -1 $-1 23.70000000000000995 547.4629346393560354 -6.799999999999998934 #
point $-1 -1 $-1 23.70000000000000995 547.4629346393560354 -3.200000000000000622 #
edge $-1 -1 $-1 $432 -1.570796326794895892 $342 -6.938893904015896926e-16 $336 $574 forward @7 unknown #
coedge $-1 -1 $-1 $337 $390 $533 $575 forward $169 $-1 #
coedge $-1 -1 $-1 $576 $577 $337 $458 forward $522 $-1 #
edge $578 -1 $-1 $460 0.3200000000000000622 $579 11.77823203074454383 $457 $580 forward @7 unknown #
coedge $-1 -1 $-1 $426 $338 $554 $581 forward $251 $-1 #
vertex $-1 -1 $-1 $458 $582 #
straight-curve $-1 -1 $-1 17.30000000000000071 186.9772921726307402 0 0 -10 0 F -56.09856424667474073 F -44.14856424667276258 #
coedge $-1 -1 $-1 $403 $445 $583 $584 reversed $341 $-1 #
point $-1 -1 $-1 17.30000000000000071 628.4629346393583091 0 #
coedge $-1 -1 $-1 $350 $344 $585 $586 forward $119 $-1 #
edge $-1 -1 $-1 $405 0.2774865872703402569 $587 3.5574865872732504 $344 $588 forward @7 unknown #
ellipse-curve $-1 -1 $-1 -15.49999999999756639 623.962934639357286 3.200000000000000622 -0 -0 -1 -3.153699523750235825e-11 4.500000000000051514 0 1 F -1.570796326773661766 F 0 #
point $-1 -1 $-1 -19.99999999999766942 623.9629346394212916 3.200000000000000622 #
DXID-attrib $-1 -1 $-1 $-1 $348 @10 ASM ENTITY @36 fbc6a31a-b016-4d76-92f5-351a844c1cf5 #
straight-curve $-1 -1 $-1 -19.99999999999774403 551.9629346393048763 3.200000000000000622 0 0 -10 F 0 F 0.3200000000000000622 #
coedge $-1 -1 $-1 $577 $576 $350 $471 forward $522 $-1 #
edge $589 -1 $-1 $472 -11.77823203074454383 $590 -0.3200000000000000622 $470 $591 forward @7 unknown #
tvertex-vertex $-1 -1 $-1 $471 $592 1.047332827142099626e-11 #
straight-curve $-1 -1 $-1 -78.02226663385522443 564.9924247402709625 3.200000000000000622 1.046847845180427727 -9.945054529214061745 0 F -18.39814043870979887 F 58.02175225946140813 #
coedge $-1 -1 $-1 $354 $353 $390 $510 forward $334 $-1 #
coedge $-1 -1 $-1 $373 $537 $353 $476 reversed $488 $593 #
edge $-1 -1 $-1 $356 -0.3200000000000000622 $594 0 $475 $595 forward @7 unknown #
coedge $-1 -1 $-1 $384 $358 $354 $478 reversed $436 $-1 #
edge $-1 -1 $-1 $391 0 $268 0.3200000000000000622 $477 $596 forward @7 tangent #
point $-1 -1 $-1 -17.28232030744543479 -12.03706536062185606 3.200000000000000622 #
coedge $-1 -1 $-1 $358 $384 $561 $597 reversed $436 $-1 #
ellipse-curve $-1 -1 $-1 17.29999999999999716 -12.03706536062213672 -3.200000000000000622 0 -1 0 6.400000000000003908 0 -2.220446049250313081e-15 1 F -2.407412430484043941e-31 F 1.570796326794897002 #
DXID-attrib $-1 -1 $-1 $-1 $360 @10 ASM ENTITY @36 eea1fe0b-8fa8-4443-a3c8-59b2f0e5e334 #
cone-surface $-1 -1 $-1 17.29999999999999716 367.9629346393781475 -3.200000000000000622 0 1 0 0 0 6.400000000000001243 1 I I 0 1 4.60800000000000054 forward I I I I #
straight-curve $-1 -1 $-1 1.325134127285271246 547.4629346393559217 0 10 9.063045098974138963e-14 0 F -1.682513412731437619 F 1.597486587271472747 #
point $-1 -1 $-1 -15.50000000002910383 547.4629346393556943 0 #
DXID-attrib $-1 -1 $-1 $-1 $369 @10 ASM ENTITY @36 19523fbd-c45a-42df-bb53-cbb845c8dba1 #
face $598 -1 $-1 $599 $528 $5 $-1 $600 forward single #
loop $-1 -1 $-1 $-1 $373 $369 #
spline-surface $-1 -1 $-1 forward { exactsur full nubs 3 3 open open none none 2 4 
	-0.3200000000000023936 3 0 3 
	-0.7246062966900803648 3 -0.4140607409657601767 1 -0.2070303704828800884 1 0 3 
	-23.6824174493483568 -12.37205667107971863 -3.200000000000212008 
	-22.62161163289885124 -12.2603929009271404 -3.200000000000182698 
	-21.56080581644934568 -12.14872913077457284 -3.200000000000153388 
	-20.49999999999983658 -12.03706536062199461 -3.200000000000123634 
	-23.67737998603324456 -12.41991257257367565 -1.763843358359167501 
	-22.6165741695837319 -12.30824880242109387 -2.003202798632649717 
	-21.55576835313421924 -12.19658503226852808 -2.24256223890612727 
	-20.49496253668470658 -12.08492126211594808 -2.481921679179609264 
	-22.83438984779576941 -12.41182036986582204 0.6210223744478577945 
	-21.91268309235384493 -12.31479860613509558 -0.01581468796013194705 
	-20.99097633691192755 -12.21777684240436201 -0.6526517503681196208 
	-20.06926958147000306 -12.12075507867363555 -1.289488812776109272 
	-20.1455456298396598 -12.24168517824075764 2.762066823287766759 
	-19.67002056387898179 -12.19162990813963177 1.768389019406454432 
	-19.19449549791830378 -12.14157463803851655 0.774711215525146546 
	-18.71897043195762578 -12.09151936793739424 -0.2189665883561659199 
	-18.23785569056312283 -12.10539059200218759 3.199999999999918909 
	-18.07915951152294554 -12.08868573105059241 2.133333333333248483 
	-17.92046333248277534 -12.07198087009900078 1.066666666666577834 
	-17.76176715344259449 -12.05527600914740383 -9.256176740364924785e-14 
	-17.28232030744548098 -12.03706536062192356 3.199999999999945111 
	-17.28232030744545256 -12.03706536062192178 2.133333333333270243 
	-17.28232030744542413 -12.03706536062192534 1.066666666666595598 
	-17.28232030744539571 -12.03706536062192356 -7.938094626069869264e-14 
	0 
	
	0 
	0 
	0 
	0 
	0 
	2 -0.4140607409657601767 -0.2070303704828800884 
	F 1 F 0 F 1 F 0 } I I I I #
coedge $-1 -1 $-1 $418 $372 $497 $601 reversed $277 $-1 #
coedge $-1 -1 $-1 $372 $418 $602 $603 forward $277 $-1 #
edge $-1 -1 $-1 $604 -7.360000000000002984 $382 -0 $372 $605 forward @7 unknown #
coedge $-1 -1 $-1 $537 $373 $526 $606 reversed $488 $607 #
pcurve $-1 -1 $-1 0 forward { exppc nubs 1 open 2 
	0 1 1.570796326794897002 1 
	-0.3200000000000000622 -4.621749371931008569e-29 
	-0.3199999999999996736 -0.7246062966900802538 
	0.01000000000000000021 
	spline forward { ref 3 } I I I I 
	} 0 0 #
intcurve-curve $-1 -1 $-1 forward { parcur full nubs 3 open 4 
	0 3 0.44879895051282781 3 0.8975979010256555091 3 1.570796326794897002 3 
	-17.28232030744548098 -12.03706536062192356 3.199999999999922018 
	-18.23785569056311928 -12.10539059200218759 3.199999999999895373 
	-19.19170066020138776 -12.17353788512147261 2.98103341164381952 
	-20.05274374758567646 -12.23191655905612407 2.56568662477436682 
	-20.91378683496996516 -12.29029523299077553 2.15033983790491412 
	-21.68202804010028473 -12.33890528774079343 1.538612852522086349 
	-22.27785118529646269 -12.36936607302406088 0.7899981440432667368 
	-23.17158590309073674 -12.41505725094896029 -0.3329239186749619051 
	-23.67737998603321614 -12.41991257257367209 -1.763843358359172608 
	-23.68241744934833193 -12.37205667107971685 -3.200000000000210676 
	0 
	
	spline forward { ref 3 } I I I I 
	null_surface 
	nubs 1 open 2 
	0 1 1.570796326794897002 1 
	-0.3200000000000000622 -4.621749371931008569e-29 
	-0.3199999999999996736 -0.7246062966900802538 
	
	nullbs 
	I I 
	0 
	0 
	2 0.44879895051282781 0.8975979010256555091 
	surf1 } I I #
coedge $-1 -1 $-1 $534 $376 $576 $608 reversed $370 $609 #
coedge $-1 -1 $-1 $376 $534 $490 $601 forward $370 $610 #
pcurve $-1 -1 $-1 0 forward { exppc nubs 1 open 2 
	0 1 1.570796326794875908 1 
	0.3200000000000007283 8.971917042248891172e-18 
	0.3200000000000005063 0.7246062966900721491 
	0.01000000000000000021 
	spline forward { ref 0 } I I I I 
	} 0 0 #
intcurve-curve $-1 -1 $-1 forward { parcur full nubs 3 open 4 
	0 3 0.6731984257692326112 3 1.121997376282054093 3 1.570796326794875908 3 
	-103.6824174493483781 747.6279433289207645 -3.200000000000092548 
	-103.6773799860332446 747.5800874274267471 -1.763843358359070024 
	-103.1711049292304239 747.5849933778788454 -0.3331277765557615345 
	-102.2772834216351328 747.6306936915721053 0.789737601118525312 
	-101.6814024165715864 747.6611605673678014 1.53831451956805032 
	-100.913278544489188 747.7097582712706298 2.150069125071342846 
	-100.0523918629870792 747.7681204814281273 2.565490495179305164 
	-99.19150518148497042 747.8264826915857384 2.980911865287267482 
	-98.23785569056317968 747.8946094079980185 3.199999999999900702 
	-97.28232030744553072 747.962934639378318 3.199999999999931344 
	0 
	
	spline forward { ref 0 } I I I I 
	null_surface 
	nubs 1 open 2 
	0 1 1.570796326794875908 1 
	0.3200000000000007283 8.971917042248891172e-18 
	0.3200000000000005063 0.7246062966900721491 
	
	nullbs 
	I I 
	0 
	0 
	2 0.6731984257692326112 1.121997376282054093 
	surf1 } I I #
coedge $-1 -1 $-1 $380 $379 $611 $612 reversed $237 $-1 #
coedge $-1 -1 $-1 $527 $526 $380 $502 forward $528 $-1 #
edge $-1 -1 $-1 $381 0 $613 7.360000000000004761 $501 $614 forward @7 unknown #
point $-1 -1 $-1 -23.6824174493483568 -12.37205667107969198 -3.200000000000162714 #
point $-1 -1 $-1 -103.6824174493483781 747.6279433289207645 -3.200000000000078337 #
ellipse-curve $-1 -1 $-1 17.29999999999999716 -12.03706536062185251 -3.200000000000000622 0 1 0 0 0 3.200000000000000622 1 F 0 F 1.570796326794897224 #
coedge $-1 -1 $-1 $387 $425 $615 $616 forward $196 $-1 #
coedge $-1 -1 $-1 $562 $561 $387 $508 forward $563 $-1 #
edge $-1 -1 $-1 $388 0.7238229473870887443 $617 8.08382294738708751 $387 $618 forward @7 unknown #
point $-1 -1 $-1 20.5 -12.03706536062213672 -3.200000000000002842 #
edge $619 -1 $-1 $594 0.3217679692554571425 $391 3.780000000000000249 $474 $620 forward @7 unknown #
point $-1 -1 $-1 17.29999999999999716 -12.03706536062185251 0 #
vertex $-1 -1 $-1 $452 $621 #
straight-curve $-1 -1 $-1 20.49999999999999289 547.4629346393560354 -16.59044263153227305 -3.836267487675371248e-15 -3.476826525253010645e-29 -10 F -1.339044263153227554 F -0.9790442631532274564 #
DXID-attrib $-1 -1 $-1 $-1 $397 @10 ASM ENTITY @36 4d23a3f5-3594-4449-a50c-f2e0be274a1a #
face $622 -1 $-1 $360 $623 $5 $-1 $483 forward single #
plane-surface $-1 -1 $-1 1.85000000000113296 587.9629346393571723 -6.799999999999998934 0 0 1 10 0 0 forward_v I I I I #
ellipse-curve $-1 -1 $-1 -15.49999999999757172 551.962934639355808 0 0 0 1 -4.500000000000147438 -5.087485988042290189e-11 0 1 F -1.994552017151255581e-27 F 1.570796326776583873 #
point $-1 -1 $-1 -19.99999999999774403 551.9629346393048763 0 #
point $-1 -1 $-1 -15.50000000002910383 628.462934639357286 3.200000000000000622 #
DXID-attrib $-1 -1 $-1 $-1 $412 @10 ASM ENTITY @36 7b3164e2-42f3-4258-8bbe-5e86f2884155 #
face $624 -1 $-1 $197 $563 $5 $-1 $625 forward single #
loop $-1 -1 $-1 $-1 $576 $412 #
plane-surface $-1 -1 $-1 -100.5 747.9629346393780907 0 0 1 0 0 0 10 forward_v I I I I #
coedge $-1 -1 $-1 $626 $602 $415 $525 reversed $627 $-1 #
edge $-1 -1 $-1 $529 0 $531 76.41989269817121055 $415 $628 forward @7 unknown #
coedge $-1 -1 $-1 $501 $416 $493 $606 forward $528 $-1 #
coedge $-1 -1 $-1 $416 $501 $626 $629 reversed $528 $-1 #
loop $-1 -1 $-1 $-1 $501 $487 #
vertex $-1 -1 $-1 $417 $630 #
straight-curve $-1 -1 $-1 -20.49999999999986144 -12.03706536062192356 -3.200000000000167155 1.703517516448838518e-14 1.661702553872114383e-15 -10.00000000000000178 F 0 F 7.360000000000004761 #
vertex $-1 -1 $-1 $525 $631 #
straight-curve $-1 -1 $-1 -100.4999999999998437 747.9629346393784317 -3.200000000000082778 1.703517516448838518e-14 1.661702553872114383e-15 -10.00000000000000178 F 0 F 7.360000000000004761 #
coedge $-1 -1 $-1 $421 $420 $456 $575 reversed $413 $-1 #
tcoedge-coedge $-1 -1 $-1 $497 $496 $420 $535 forward $370 $632 0 1.570796326793895581 #
tedge-edge $-1 -1 $-1 $579 0 $422 1.570796326793895581 $420 $633 forward @7 unknown 0.002440598074908021178 #
pcurve $-1 -1 $-1 0 forward { exppc nubs 3 open 4 
	-1.570796326794875908 3 -0.8975979010256432966 3 -0.4487989505128217038 3 -0 3 
	-82.99398992971343603 1.57079632679490544 
	-82.98354715611276333 1.346396851538494976 
	-82.97310438251203379 1.121818750003531484 
	-82.96266160891133268 0.8975322164073213926 
	-82.95569975984420807 0.748007860676514591 
	-82.94873791077716874 0.5982015370584627956 
	-82.94177606171004413 0.4486203323464810211 
	-82.93481421264294795 0.2990391276344993576 
	-82.92785236357583756 0.1495996501709752347 
	-82.92089051450872716 3.191891195797354084e-14 
	1.60313457899623134e-05 
	cone -57.28232030744531755 367.9629346393781475 -3.200000000000036149 0.1046847845180427505 -0.9945054529214061301 0 0 0 3.199999999999970868 1 I I -0 -1 4.608000000000001428 forward I I I I 
	} 0 0 #
tcoedge-coedge $-1 -1 $-1 $475 $493 $421 $538 reversed $488 $634 -1.570796326794897002 -7.056645188948122718e-13 #
tedge-edge $-1 -1 $-1 $594 7.056645188948122718e-13 $423 1.570796326794897002 $421 $635 forward @7 unknown 0.002282043767958291669 #
pcurve $-1 -1 $-1 0 forward { exppc nubs 3 open 4 
	0 3 0.44879895051282781 3 0.8975979010256555091 3 1.570796326794897002 3 
	82.92089051450869874 2.63677968348477108e-14 
	82.91392866544158835 0.1495996501709686843 
	82.90696681637446375 0.2990662842284931289 
	82.90000496730735335 0.4486568615721091557 
	82.89304311824024296 0.5982474389157250716 
	82.88608126917313257 0.7480469327412948566 
	82.87911942010600796 0.897556014971912397 
	82.86867664650534948 1.121819638317838486 
	82.85823387290473363 1.346396851538510298 
	82.84779109930406094 1.570796326794923647 
	1.476013154555582462e-05 
	cone -57.28232030744531755 367.9629346393781475 -3.200000000000036149 0.1046847845180427505 -0.9945054529214061301 0 0 0 3.199999999999970868 1 I I -0 -1 4.608000000000001428 forward I I I I 
	} 0 0 #
point $-1 -1 $-1 -100.4999999999998863 747.9629346393784317 -3.200000000000073896 #
point $-1 -1 $-1 -20.49999999999985079 -12.03706536062195553 -3.200000000000158273 #
coedge $-1 -1 $-1 $556 $636 $425 $543 reversed $552 $-1 #
edge $-1 -1 $-1 $544 0.7238229473870887443 $637 8.08382294738708751 $425 $638 forward @7 unknown #
vertex $-1 -1 $-1 $427 $639 #
straight-curve $-1 -1 $-1 20.5 367.9629346393781475 -3.199999999999998401 -2.49220494733186535e-19 10 9.541577852665664886e-35 F 26.04999999999803606 F 37.99999999999997158 #
straight-curve $-1 -1 $-1 20.5 477.9629346393676315 -6.799999999999997158 -2.49220494733186535e-19 10 0 F 6.949999999998844658 F 15.04999999999908766 #
edge $640 -1 $-1 $431 -0.3200000000000011724 $450 -0 $430 $641 forward @7 unknown #
point $-1 -1 $-1 20.5 628.4629346393585365 -6.799999999999998934 #
point $-1 -1 $-1 20.5 628.4629346393585365 -3.199999999999998401 #
DXID-attrib $-1 -1 $-1 $-1 $435 @10 ASM ENTITY @36 e279355a-be23-4ec7-ba92-25014ab79c11 #
face $642 -1 $-1 $167 $643 $5 $-1 $644 forward single #
loop $-1 -1 $-1 $-1 $556 $435 #
plane-surface $-1 -1 $-1 20.5 747.9629346393778633 -3.200000000000002842 0 1 0 10 0 -3.828568698926948843e-15 forward_v I I I I #
coedge $-1 -1 $-1 $645 $438 $459 $581 reversed $321 $-1 #
coedge $-1 -1 $-1 $438 $645 $646 $647 forward $321 $-1 #
coedge $-1 -1 $-1 $648 $542 $438 $557 forward $552 $-1 #
edge $-1 -1 $-1 $544 -0.07039999999999979607 $649 0.2496000000000000441 $556 $650 forward @7 tangent #
coedge $-1 -1 $-1 $444 $439 $648 $651 reversed $166 $-1 #
coedge $-1 -1 $-1 $652 $653 $439 $560 forward $643 $-1 #
edge $-1 -1 $-1 $654 0 $564 76 $559 $655 forward @7 unknown #
coedge $-1 -1 $-1 $507 $440 $480 $597 forward $563 $-1 #
coedge $-1 -1 $-1 $440 $507 $652 $656 forward $563 $-1 #
loop $-1 -1 $-1 $-1 $561 $521 #
vertex $-1 -1 $-1 $656 $657 #
straight-curve $-1 -1 $-1 23.70000000000000284 -12.03706536062185251 4.03822947387088238 4.824350176416269946e-15 3.92661071785619134e-13 10 F -8.08382294738708751 F -0.7238229473870885222 #
point $-1 -1 $-1 23.69999999999999574 -12.03706536062213672 -3.200000000000002842 #
coedge $-1 -1 $-1 $646 $583 $444 $568 reversed $623 $-1 #
edge $-1 -1 $-1 $649 -38 $569 -26.04999999999805027 $444 $658 forward @7 tangent #
vertex $-1 -1 $-1 $584 $659 #
straight-curve $-1 -1 $-1 23.69999999999999218 628.4629346393585365 -16.59044263153228016 -3.836267487675371248e-15 -1.25165754909108381e-28 -10 F -1.339044263153227998 F -0.9790442631532281226 #
point $-1 -1 $-1 23.70000000000000995 628.4629346393585365 -6.799999999999998934 #
DXID-attrib $-1 -1 $-1 $-1 $452 @10 ASM ENTITY @36 6c79ef57-779f-4f5e-b7cb-1189f05446b6 #
straight-curve $-1 -1 $-1 -15.50000000002910383 547.4629346393556943 -6.799999999999998934 -10 -9.063045098974138963e-14 -0 F -3.920000000002911378 F -3.600000000002910205 #
ellipse-curve $-1 -1 $-1 17.29999999999999716 628.462934639357286 -3.200000000000000622 3.262696235630690027e-14 -1 0 0 0 3.200000000000000622 1 F -1.570796326794895892 F -6.938893904015896926e-16 #
edge $-1 -1 $-1 $594 -58.02175225946140813 $579 18.39814043870979887 $533 $660 forward @7 tangent #
coedge $-1 -1 $-1 $470 $457 $496 $608 forward $522 $-1 #
coedge $-1 -1 $-1 $457 $470 $645 $661 forward $522 $-1 #
DXID-attrib $-1 -1 $-1 $-1 $458 @10 ASM ENTITY @36 7c5321c6-fa06-4cb4-9e7a-cbaefc92b3fe #
tvertex-vertex $-1 -1 $-1 $575 $662 1.04596288996083939e-11 #
straight-curve $-1 -1 $-1 20.5 747.9629346393780907 0 -10 0 0 F 0.3200000000000000622 F 11.77823203074454383 #
edge $-1 -1 $-1 $460 0 $544 1.570796326794897224 $459 $663 forward @7 unknown #
point $-1 -1 $-1 17.29999999999999716 747.9629346393780907 0 #
coedge $-1 -1 $-1 $567 $585 $462 $584 forward $623 $-1 #
edge $-1 -1 $-1 $587 -3.469446951899278436e-16 $569 1.570796326794896558 $583 $664 forward @7 unknown #
coedge $-1 -1 $-1 $583 $646 $464 $586 reversed $623 $-1 #
edge $-1 -1 $-1 $587 44.14856424667276258 $590 56.09856424667474073 $585 $665 forward @7 tangent #
vertex $-1 -1 $-1 $584 $666 #
straight-curve $-1 -1 $-1 -18.27486587273250507 628.4629346393571723 3.200000000000000622 10 3.262696235630690027e-13 0 F 0.2774865872703402569 F 3.5574865872732504 #
DXID-attrib $-1 -1 $-1 $-1 $471 @10 ASM ENTITY @36 7e238580-935b-4e60-8815-99a936542fdf #
vertex $-1 -1 $-1 $647 $667 #
straight-curve $-1 -1 $-1 20.5 747.9629346393780907 3.200000000000000622 10 0 0 F -11.77823203074454383 F -0.3200000000000000622 #
point $-1 -1 $-1 -97.28232030744544545 747.9629346393780907 3.200000000000000622 #
pcurve $-1 -1 $-1 0 forward { exppc nubs 1 open 2 
	0 1 0.3200000000000000622 1 
	-1.284724083348313573e-28 -5.380931539707896021e-15 
	-0.3200000000000023381 0 
	5.721331448647774038e-15 
	spline forward { ref 3 } I I I I 
	} 0 0 #
tvertex-vertex $-1 -1 $-1 $510 $668 1.223893030950788942e-11 #
straight-curve $-1 -1 $-1 -17.28232030744543479 -12.03706536062185251 0 0 0 -10 F -0.3200000000000000622 F 0 #
straight-curve $-1 -1 $-1 17.29999999999999716 -12.03706536062185251 0 0 0 10 F 0 F 0.3200000000000000622 #
edge $-1 -1 $-1 $442 -0.2496000000000000441 $388 0.07039999999999979607 $561 $669 forward @7 tangent #
DXID-attrib $-1 -1 $-1 $-1 $487 @10 ASM ENTITY @36 dda45845-cb69-4077-9e35-3ac91947ed3a #
face $670 -1 $-1 $238 $627 $5 $-1 $671 forward single #
plane-surface $-1 -1 $-1 -20.49999999999985079 -12.03706536062195553 -3.200000000000158273 0.1046847845180427505 -0.9945054529214061301 1.387778780781445367e-17 9.945054529214063521 1.046847845180427727 1.714750004856051685e-14 forward_v I I I I #
edge $-1 -1 $-1 $422 -0 $382 0.3200000000000001177 $497 $672 forward @7 unknown #
coedge $-1 -1 $-1 $524 $611 $491 $603 reversed $627 $-1 #
edge $-1 -1 $-1 $531 -0 $604 0.320000000000001894 $491 $673 forward @7 unknown #
vertex $-1 -1 $-1 $492 $674 #
straight-curve $-1 -1 $-1 -103.6824174493483497 747.6279433289207645 -3.200000000000087219 -1.703517516448838518e-14 -1.661702553872114383e-15 10.00000000000000178 F -7.360000000000004761 F -0 #
edge $-1 -1 $-1 $423 -0 $381 0.3200000000000007283 $526 $675 forward @7 unknown #
pcurve $-1 -1 $-1 0 forward { exppc nubs 1 open 2 
	-0.3200000000000007283 1 0 1 
	-0.3200000000000021161 -0.7246062966900770341 
	-1.105712140629632668e-15 -0.7246062966900803648 
	1.008381635873332496e-14 
	spline forward { ref 3 } I I I I 
	} 0 0 #
edge $-1 -1 $-1 $579 0 $472 0.3200000000000000622 $496 $676 forward @7 unknown #
pcurve $-1 -1 $-1 0 forward { exppc nubs 1 open 2 
	-0.3200000000000000622 1 0 1 
	0.32000000000000145 0.7246062966900721491 
	4.218847493575723438e-15 0.7246062966900685964 
	1.260732186227331765e-14 
	spline forward { ref 0 } I I I I 
	} 0 0 #
pcurve $-1 -1 $-1 0 forward { exppc nubs 1 open 2 
	-0 1 0.3200000000000001177 1 
	1.109385968104466491e-29 0 
	0.3199999999999998401 9.461424442822584364e-16 
	9.620234952203084615e-15 
	spline forward { ref 0 } I I I I 
	} 0 0 #
coedge $-1 -1 $-1 $602 $626 $500 $612 forward $627 $-1 #
edge $-1 -1 $-1 $613 -1.394681497198249207e-16 $604 76.41989269817121055 $611 $677 forward @7 unknown #
vertex $-1 -1 $-1 $502 $678 #
straight-curve $-1 -1 $-1 -23.6824174493483568 -12.37205667107965823 -3.200000000000171596 1.703517516448838518e-14 1.661702553872114383e-15 -10.00000000000000178 F 0 F 7.360000000000004761 #
coedge $-1 -1 $-1 $653 $652 $506 $616 reversed $643 $-1 #
edge $-1 -1 $-1 $637 0 $617 76 $506 $679 forward @7 unknown #
vertex $-1 -1 $-1 $508 $680 #
straight-curve $-1 -1 $-1 20.50000000000000355 -12.03706536062185251 4.038229473870885045 -4.824350176416269946e-15 -3.92661071785619134e-13 -10 F 0.7238229473870887443 F 8.08382294738708751 #
DXID-attrib $-1 -1 $-1 $-1 $510 @10 ASM ENTITY @36 1586ad90-f727-4128-95c1-830925a07c21 #
straight-curve $-1 -1 $-1 -20.50000000000000711 -12.03706536062185606 0 10 1.083144414268445184e-15 0 F 0.3217679692554571425 F 3.780000000000000249 #
point $-1 -1 $-1 20.5 547.4629346393560354 -6.799999999999998934 #
DXID-attrib $-1 -1 $-1 $-1 $515 @10 ASM ENTITY @36 8225577a-7bce-4daa-9f12-88bb2fafa208 #
loop $-1 -1 $-1 $-1 $583 $515 #
DXID-attrib $-1 -1 $-1 $-1 $521 @10 ASM ENTITY @36 873b55fe-19fd-41dd-8c0b-95a5d49dd10c #
plane-surface $-1 -1 $-1 20.5 -12.03706536062213672 -3.200000000000002842 1.503329888725529367e-29 -1 3.926610717856191593e-14 -10 0 3.828568698926948843e-15 forward_v I I I I #
coedge $-1 -1 $-1 $611 $524 $527 $629 forward $627 $-1 #
loop $-1 -1 $-1 $-1 $611 $599 #
straight-curve $-1 -1 $-1 -20.49999999999972999 -12.0370653606219058 -76.80000000000023874 -1.046847845180427283 9.945054529214061745 1.110223024625157329e-15 F 0 F 76.41989269817121055 #
edge $-1 -1 $-1 $529 -0 $613 0.3199999999999989519 $626 $681 forward @7 unknown #
point $-1 -1 $-1 -20.49999999999972999 -12.0370653606219058 -76.80000000000023874 #
point $-1 -1 $-1 -100.4999999999997158 747.9629346393784317 -76.80000000000013927 #
pcurve $-1 -1 $-1 0 forward { exppc nubs 1 open 2 
	0 1 1.570796326794875908 1 
	4.218847493575594065e-15 0.7246062966900721491 
	3.408604666984313498e-15 0 
	0.01000000000000000021 
	spline forward { ref 0 } I I I I 
	} 0 0 #
intcurve-curve $-1 -1 $-1 forward { parcur full nubs 3 open 4 
	0 3 0.4487989505128217038 3 0.8975979010256432966 3 1.570796326794875908 3 
	-97.28232030744543124 747.962934639378318 -3.275157922644211163e-14 
	-97.76176715344263357 747.9447239908528218 -4.888132423527248015e-14 
	-98.24027105334194232 747.9266125998112784 -0.1095440673563663481 
	-98.67239354853138877 747.9133834618971832 -0.3172547524103493943 
	-99.10451604372083523 747.900154323983088 -0.5249654374643324406 
	-99.49025713420044781 747.8918074391963273 -0.8308427402159813679 
	-99.78987679117057041 747.8925259684632465 -1.205131199440745871 
	-100.239306276625797 747.8936037623634547 -1.766563888277893124 
	-100.494962536684767 747.9150787378844143 -2.481921679179550644 
	-100.4999999999999147 747.9629346393784317 -3.200000000000064571 
	0 
	
	spline forward { ref 0 } I I I I 
	null_surface 
	nubs 1 open 2 
	0 1 1.570796326794875908 1 
	4.218847493575594065e-15 0.7246062966900721491 
	3.408604666984313498e-15 0 
	
	nullbs 
	I I 
	0 
	0 
	2 0.4487989505128217038 0.8975979010256432966 
	surf1 } I I #
pcurve $-1 -1 $-1 0 forward { exppc nubs 1 open 2 
	-1.570796326794897002 1 -0 1 
	0 -0.7246062966900802538 
	0 0 
	0.01000000000000000021 
	spline forward { ref 3 } I I I I 
	} 0 0 #
intcurve-curve $-1 -1 $-1 forward { parcur full nubs 3 open 4 
	0 3 0.44879895051282781 3 0.8975979010256555091 3 1.570796326794897002 3 
	-17.28232030744539571 -12.03706536062192356 -7.993605777301127091e-14 
	-17.76176715344259449 -12.05527600914740383 -9.311995619043500483e-14 
	-18.24036879270011013 -12.07339768854239992 -0.1094832941781294089 
	-18.67256949083063589 -12.0866350583450739 -0.3171566876128539825 
	-19.10477018896116164 -12.09987242814774788 -0.5248300810475785561 
	-19.4905699459646975 -12.10822548835810508 -0.8306935737389903318 
	-19.79016067300117498 -12.10750391383508706 -1.205000927978397751 
	-20.23954676355588234 -12.10642155205056092 -1.766461959337508159 
	-20.49496253668470658 -12.08492126211594808 -2.481921679179608375 
	-20.49999999999983658 -12.03706536062199461 -3.200000000000122746 
	0 
	
	spline forward { ref 3 } I I I I 
	null_surface 
	nubs 1 open 2 
	0 1 1.570796326794897002 1 
	0 0 
	0 -0.7246062966900802538 
	
	nullbs 
	I I 
	0 
	0 
	2 0.44879895051282781 0.8975979010256555091 
	surf1 } I I #
coedge $-1 -1 $-1 $542 $648 $653 $682 reversed $552 $-1 #
vertex $-1 -1 $-1 $543 $683 #
straight-curve $-1 -1 $-1 20.50000000000000355 747.9629346393780907 4.038229473870885045 -4.824350176416269946e-15 -3.92661071785619134e-13 -10 F 0.7238229473870887443 F 8.08382294738708751 #
point $-1 -1 $-1 20.5 747.9629346393778633 -3.200000000000002842 #
DXID-attrib $-1 -1 $-1 $-1 $547 @10 ASM ENTITY @36 e82fc2ff-bb58-42f9-a7d3-03825f2a3fba #
straight-curve $-1 -1 $-1 23.70000000000000995 628.4629346393585365 -6.799999999999998934 10 3.262696235630690027e-13 0 F -0.3200000000000011724 F -0 #
DXID-attrib $-1 -1 $-1 $-1 $551 @10 ASM ENTITY @36 23632673-9972-4a0e-86a1-dec9fdc36f77 #
loop $-1 -1 $-1 $-1 $559 $551 #
plane-surface $-1 -1 $-1 20.49999999999997158 747.9629346393780907 -76.79999999999999716 -3.828568698926948942e-16 0 -1 -10 0 3.828568698926948843e-15 forward_v I I I I #
coedge $-1 -1 $-1 $555 $554 $577 $661 reversed $321 $-1 #
coedge $-1 -1 $-1 $585 $567 $555 $647 reversed $623 $-1 #
edge $-1 -1 $-1 $590 0 $649 1.570796326794897002 $555 $684 forward @7 unknown #
coedge $-1 -1 $-1 $636 $556 $558 $651 forward $552 $-1 #
vertex $-1 -1 $-1 $568 $685 #
straight-curve $-1 -1 $-1 21.20399999999999707 747.9629346393778633 -3.200000000000002842 10 0 -3.828568698926948843e-15 F -0.07039999999999979607 F 0.2496000000000000441 #
edge $-1 -1 $-1 $649 0 $654 7.359999999999999432 $648 $686 forward @7 unknown #
coedge $-1 -1 $-1 $615 $559 $562 $656 reversed $643 $-1 #
coedge $-1 -1 $-1 $559 $615 $636 $682 forward $643 $-1 #
vertex $-1 -1 $-1 $651 $687 #
straight-curve $-1 -1 $-1 23.69999999999997087 747.9629346393780907 -76.79999999999999716 0 -10 0 F 0 F 76 #
edge $-1 -1 $-1 $617 0 $564 0.3199999999999998401 $562 $688 forward @7 unknown #
point $-1 -1 $-1 23.69999999999997087 -12.03706536062185251 -76.79999999999999716 #
straight-curve $-1 -1 $-1 23.69999999999999574 367.9629346393781475 -3.199999999999998401 -2.492204947331884609e-19 -10 9.541577852665738654e-35 F -38 F -26.04999999999805027 #
point $-1 -1 $-1 23.70000000000000995 628.4629346393586502 -3.200000000000000622 #
straight-curve $-1 -1 $-1 -78.02226663385521022 564.9924247402709625 0 -1.046847845180427727 9.945054529214061745 0 F -58.02175225946140813 F 18.39814043870979887 #
edge $-1 -1 $-1 $590 -0.3200000000000000622 $460 0 $645 $689 forward @7 tangent #
point $-1 -1 $-1 -97.28232030744544545 747.9629346393780907 0 #
ellipse-curve $-1 -1 $-1 17.29999999999999716 747.9629346393780907 -3.200000000000000622 0 1 0 0 0 3.200000000000000622 1 F 0 F 1.570796326794897224 #
ellipse-curve $-1 -1 $-1 17.29999999999999716 628.462934639357286 -3.200000000000000622 -3.262696235630690027e-14 1 0 0 0 6.400000000000001243 1 F -3.469446951899278436e-16 F 1.570796326794896558 #
straight-curve $-1 -1 $-1 17.29999999999999716 186.9772921726307118 3.200000000000000622 0 10 0 F 44.14856424667276258 F 56.09856424667474073 #
point $-1 -1 $-1 17.29999999999999716 628.4629346393583091 3.200000000000000622 #
point $-1 -1 $-1 17.29999999999999716 747.9629346393780907 3.200000000000000622 #
point $-1 -1 $-1 -17.28232030744543479 -12.03706536062185606 0 #
straight-curve $-1 -1 $-1 21.20399999999999707 -12.03706536062213672 -3.200000000000002842 -10 0 3.828568698926948843e-15 F -0.2496000000000000441 F 0.07039999999999979607 #
DXID-attrib $-1 -1 $-1 $-1 $599 @10 ASM ENTITY @36 f6af3f77-3903-4373-82cb-b9ab7cfc0d1b #
plane-surface $-1 -1 $-1 -20.49999999999972999 -12.0370653606219058 -76.80000000000023874 1.694824836029340137e-15 2.914335439641035426e-16 -1 -9.945054529214063521 -1.046847845180427727 -1.714750004856051685e-14 forward_v I I I I #
straight-curve $-1 -1 $-1 -100.4999999999998863 747.9629346393784317 -3.200000000000073896 -9.945054529214063521 -1.046847845180427727 -1.714750004856051685e-14 F -0 F 0.3200000000000001177 #
straight-curve $-1 -1 $-1 -100.4999999999997158 747.9629346393784317 -76.80000000000013927 -9.945054529214063521 -1.046847845180427727 -1.714750004856051685e-14 F -0 F 0.320000000000001894 #
point $-1 -1 $-1 -103.682417449348236 747.6279433289207645 -76.80000000000013927 #
straight-curve $-1 -1 $-1 -20.49999999999985079 -12.03706536062195553 -3.200000000000158273 -9.945054529214063521 -1.046847845180427727 -1.714750004856051685e-14 F -0 F 0.3200000000000007283 #
straight-curve $-1 -1 $-1 -97.28232030744544545 747.9629346393780907 0 0 0 10 F 0 F 0.3200000000000000622 #
straight-curve $-1 -1 $-1 -23.682417449348236 -12.37205667107964402 -76.80000000000023874 -1.046847845180427283 9.945054529214061745 1.110223024625157329e-15 F -1.394681497198249207e-16 F 76.41989269817121055 #
point $-1 -1 $-1 -23.68241744934822179 -12.37205667107964402 -76.80000000000023874 #
straight-curve $-1 -1 $-1 20.49999999999997158 747.9629346393780907 -76.79999999999999716 0 -10 0 F 0 F 76 #
point $-1 -1 $-1 20.49999999999997158 -12.03706536062185251 -76.79999999999999716 #
straight-curve $-1 -1 $-1 -20.49999999999972999 -12.0370653606219058 -76.80000000000023874 -9.945054529214063521 -1.046847845180427727 -1.714750004856051685e-14 F -0 F 0.3199999999999989519 #
edge $-1 -1 $-1 $637 0 $654 0.3199999999999998401 $653 $690 forward @7 unknown #
point $-1 -1 $-1 20.49999999999997158 747.9629346393780907 -76.79999999999999716 #
ellipse-curve $-1 -1 $-1 17.29999999999999716 747.9629346393780907 -3.200000000000000622 0 1 0 0 0 6.400000000000001243 1 F 0 F 1.570796326794897002 #
point $-1 -1 $-1 23.69999999999999574 747.9629346393780907 -3.200000000000002842 #
straight-curve $-1 -1 $-1 23.69999999999999574 747.9629346393780907 -3.200000000000002842 -3.828568698926948843e-15 0 -10 F 0 F 7.359999999999999432 #
point $-1 -1 $-1 23.69999999999997087 747.9629346393780907 -76.79999999999999716 #
straight-curve $-1 -1 $-1 20.49999999999997158 -12.03706536062185251 -76.79999999999999716 10 0 -3.828568698926948843e-15 F 0 F 0.3199999999999998401 #
straight-curve $-1 -1 $-1 17.30000000000000426 747.9629346393780907 0 0 0 -10 F -0.3200000000000000622 F 0 #
straight-curve $-1 -1 $-1 20.49999999999997158 747.9629346393780907 -76.79999999999999716 10 0 -3.828568698926948843e-15 F 0 F 0.3199999999999998401 #
End-of-ACIS-data 