700 0 1 0           
30 Autodesk Translation Framework 20 ASM 226.6.1.65535 NT 24 Wed Jul 29 14:36:29 2026 
1 9.999999999999999547e-07 1.000000000000000036e-10 
body $1 -1 $-1 $2 $-1 $3 #
rgb_color-st-attrib $-1 -1 $4 $-1 $0 0.7450980392156862919 0.737254901960784359 0.7294117647058823151 #
lump $-1 -1 $-1 $-1 $5 $0 #
transform $-1 -1 1 0 0 0 1 0 0 0 1 0 0 0 1 no_rotate no_reflect no_shear #
DXID-attrib $-1 -1 $-1 $1 $0 @10 ASM ENTITY @107 SP7V1 VIELA FRENO.IPT|:|8807535F527C3424D4A3450F379877C3807080DD|:|DA4B9237BACCCDF19C0760CAB7AEC4A8359010B0 #
shell $-1 -1 $-1 $-1 $-1 $6 $-1 $2 #
face $7 -1 $-1 $8 $9 $5 $-1 $10 reversed single #
DXID-attrib $-1 -1 $-1 $-1 $6 @10 ASM ENTITY @36 4fa1bc29-47ba-4dab-b414-ad2fe5184c24 #
face $11 -1 $-1 $12 $13 $5 $-1 $14 reversed single #
loop $-1 -1 $-1 $15 $16 $6 #
cone-surface $-1 -1 $-1 -6.661338147750939243e-15 -2.039862457849324962 17 0 -1 -6.938893903907227392e-16 -3.000000000000000444 0 -1.423193684741993249e-31 1 I I 0 1 3.000000000000000444 forward I I I I #
DXID-attrib $-1 -1 $-1 $-1 $8 @10 ASM ENTITY @36 c6bad5ba-4811-4ff1-9bea-d051ab7dc01d #
face $17 -1 $-1 $18 $19 $5 $-1 $20 forward single #
loop $-1 -1 $-1 $21 $22 $8 #
cone-surface $-1 -1 $-1 -6.661338147750939243e-15 -2.039862457849308086 -17 0 -1 -6.938893903907227392e-16 -3 0 -1.42319368474199303e-31 1 I I 0 1 3 forward I I I I #
loop $-1 -1 $-1 $-1 $23 $6 #
coedge $-1 -1 $-1 $16 $16 $24 $25 reversed $9 $-1 #
DXID-attrib $-1 -1 $-1 $-1 $12 @10 ASM ENTITY @36 636dcb1c-ad0c-419f-b0b3-3ad0e102f251 #
face $26 -1 $-1 $27 $28 $5 $-1 $29 forward single #
loop $-1 -1 $-1 $30 $31 $12 #
plane-surface $-1 -1 $-1 -2.220446049250313081e-15 -2.039862457849324962 16.86966072695814489 6.266287038612700323e-18 1 4.996003610813204432e-16 10.00000000000000355 -6.266287038612694468e-17 -7.467870090493224713e-17 forward_v I I I I #
loop $-1 -1 $-1 $-1 $32 $8 #
coedge $-1 -1 $-1 $22 $22 $33 $34 reversed $13 $-1 #
coedge $-1 -1 $-1 $23 $23 $31 $35 reversed $15 $-1 #
coedge $-1 -1 $-1 $24 $24 $16 $25 forward $36 $-1 #
edge $-1 -1 $-1 $37 -3.141592653589793116 $37 3.141592653589793116 $24 $38 forward @7 unknown #
DXID-attrib $-1 -1 $-1 $-1 $18 @10 ASM ENTITY @36 38262135-2f94-4de0-ba02-6a5cf7d23fdf #
face $39 -1 $-1 $40 $41 $5 $-1 $42 forward single #
loop $-1 -1 $-1 $-1 $43 $18 #
cone-surface $-1 -1 $-1 4.440892098500626162e-15 -5.239862457849325139 16.79640378398901035 -2.011897893917929251e-35 1 1.11022302462515654e-15 4.242640687119286547 -4.710277376051325352e-15 4.242640687119286547 1 I I 0 1 6.000000000000001776 forward I I I I #
loop $-1 -1 $-1 $-1 $44 $12 #
coedge $-1 -1 $-1 $31 $31 $23 $35 forward $19 $-1 #
coedge $-1 -1 $-1 $32 $32 $45 $46 reversed $21 $-1 #
coedge $-1 -1 $-1 $33 $33 $22 $34 forward $47 $-1 #
edge $-1 -1 $-1 $48 -3.141592653589793116 $48 3.141592653589793116 $33 $49 forward @7 unknown #
edge $-1 -1 $-1 $50 -3.141592653589793116 $50 3.141592653589793116 $31 $51 forward @7 unknown #
loop $-1 -1 $-1 $52 $24 $40 #
vertex $-1 -1 $-1 $25 $53 #
ellipse-curve $-1 -1 $-1 -6.661338147750939243e-15 -5.239862457849326915 17 -2.030546272837748783e-18 1 3.885780586188047891e-16 -3.000000000000000444 0 -1.423193684741993249e-31 1 I I #
DXID-attrib $-1 -1 $-1 $-1 $27 @10 ASM ENTITY @36 de00f878-f98e-484e-93b3-4fe8962a5706 #
face $54 -1 $-1 $55 $36 $5 $-1 $56 reversed single #
loop $-1 -1 $-1 $-1 $57 $27 #
plane-surface $-1 -1 $-1 6.000000000000005329 -5.239862457849322475 12.51288740878843164 1 2.011897893917935398e-35 -5.527644033787839992e-35 -2.941197957458057752e-34 -6.42787609686538719 -7.66044443118978613 forward_v I I I I #
coedge $-1 -1 $-1 $58 $59 $44 $60 forward $28 $-1 #
coedge $-1 -1 $-1 $61 $62 $43 $60 reversed $30 $-1 #
coedge $-1 -1 $-1 $45 $45 $32 $46 forward $63 $-1 #
edge $-1 -1 $-1 $64 -3.141592653589793116 $64 3.141592653589793116 $45 $65 forward @7 unknown #
loop $-1 -1 $-1 $66 $33 $55 #
vertex $-1 -1 $-1 $34 $67 #
ellipse-curve $-1 -1 $-1 -6.661338147750939243e-15 -5.239862457849340238 -17 4.303926274200427829e-16 1 0 -3 0 -1.42319368474199303e-31 1 I I #
vertex $-1 -1 $-1 $35 $68 #
ellipse-curve $-1 -1 $-1 -6.661338147750939243e-15 -2.039862457849324962 17 -6.266287038612700323e-18 -1 -4.996003610813204432e-16 -3.000000000000000444 0 -1.423193684741993249e-31 1 I I #
loop $-1 -1 $-1 $-1 $69 $40 #
point $-1 -1 $-1 2.999999999999993783 -5.239862457849326027 17 #
DXID-attrib $-1 -1 $-1 $-1 $40 @10 ASM ENTITY @36 13c545d2-1f0b-4763-af17-4445b83a807d #
face $70 -1 $-1 $71 $47 $5 $-1 $72 reversed single #
plane-surface $-1 -1 $-1 3.357080250646383965e-34 -5.239862457849326915 16.86966072695814844 -2.030546272837748783e-18 1 3.885780586188047891e-16 10 2.030546272837747628e-17 2.419910815583172659e-17 forward_v I I I I #
coedge $-1 -1 $-1 $73 $74 $59 $75 reversed $41 $-1 #
coedge $-1 -1 $-1 $76 $43 $77 $78 forward $28 $-1 #
coedge $-1 -1 $-1 $43 $76 $57 $75 forward $28 $-1 #
edge $-1 -1 $-1 $79 3.926990816987239619 $80 7.068583470577034511 $44 $81 forward @7 unknown #
coedge $-1 -1 $-1 $82 $44 $74 $83 reversed $30 $-1 #
coedge $-1 -1 $-1 $44 $82 $84 $85 reversed $30 $-1 #
loop $-1 -1 $-1 $86 $45 $87 #
vertex $-1 -1 $-1 $46 $88 #
ellipse-curve $-1 -1 $-1 -6.661338147750939243e-15 -2.039862457849337396 -17 -4.160173060494228904e-16 -1 -0 -3 0 -1.42319368474199303e-31 1 I I #
loop $-1 -1 $-1 $-1 $89 $55 #
point $-1 -1 $-1 2.999999999999993339 -5.239862457849309152 -17 #
point $-1 -1 $-1 2.999999999999993783 -2.039862457849324962 17 #
coedge $-1 -1 $-1 $90 $91 $76 $92 reversed $52 $-1 #
DXID-attrib $-1 -1 $-1 $-1 $55 @10 ASM ENTITY @36 6a6856aa-6d12-48b8-89bc-7071fe6f1378 #
face $93 -1 $-1 $94 $95 $5 $-1 $96 forward single #
plane-surface $-1 -1 $-1 1.414621790206196972e-15 -5.239862457849340238 -16.8696607269581591 4.303926274200427829e-16 1 0 -10 4.303926274200427533e-15 -6.546686563933714577e-15 forward_v I I I I #
coedge $-1 -1 $-1 $97 $57 $91 $98 reversed $41 $-1 #
coedge $-1 -1 $-1 $57 $97 $61 $83 forward $41 $-1 #
edge $-1 -1 $-1 $99 1.11022302462515654e-16 $79 0.3199999999999999512 $57 $100 forward @7 tangent #
coedge $-1 -1 $-1 $59 $58 $69 $92 forward $28 $-1 #
coedge $-1 -1 $-1 $84 $101 $58 $78 reversed $102 $-1 #
edge $-1 -1 $-1 $80 -0.3200000000000002287 $103 -1.11022302462515654e-16 $77 $104 forward @7 tangent #
vertex $-1 -1 $-1 $60 $105 #
vertex $-1 -1 $-1 $60 $106 #
ellipse-curve $-1 -1 $-1 -4.440892098500626162e-15 -2.039862457849324962 16.7964037839890139 -6.266287038612700323e-18 -1 -4.996003610813204432e-16 -4.242640687119286547 -4.710277376051325352e-15 4.242640687119286547 1 F 2.356194490192344837 F 8.639379797371930181 #
coedge $-1 -1 $-1 $62 $61 $107 $108 forward $30 $-1 #
edge $-1 -1 $-1 $109 4.440892098500624683e-16 $79 0.428351637520058337 $74 $110 forward @7 unknown #
coedge $-1 -1 $-1 $111 $77 $62 $85 forward $102 $-1 #
edge $-1 -1 $-1 $80 -5.046380050691460895 $112 -3.141592653589795336 $84 $113 forward @7 unknown #
loop $-1 -1 $-1 $-1 $114 $87 #
face $115 -1 $-1 $116 $63 $5 $-1 $117 forward single #
point $-1 -1 $-1 2.999999999999993339 -2.039862457849308086 -17 #
coedge $-1 -1 $-1 $118 $119 $120 $121 reversed $66 $-1 #
coedge $-1 -1 $-1 $122 $69 $101 $123 reversed $52 $-1 #
coedge $-1 -1 $-1 $69 $122 $73 $98 forward $52 $-1 #
edge $-1 -1 $-1 $103 -0.785398163397448279 $99 2.356194490192346613 $69 $124 forward @7 unknown #
DXID-attrib $-1 -1 $-1 $-1 $71 @10 ASM ENTITY @36 120b0ae7-551a-460d-946a-8af34debd84a #
face $125 -1 $-1 $126 $127 $5 $-1 $128 forward single #
loop $-1 -1 $-1 $-1 $129 $71 #
cone-surface $-1 -1 $-1 6.456172647025071089e-15 -5.239862457849340238 -16.79640378398902811 -1.189396007029607211e-16 1 3.885780586188047891e-16 4.242640687119285658 3.140184917367550235e-15 -4.242640687119286547 1 I I 0 1 6.000000000000000888 forward I I I I #
coedge $-1 -1 $-1 $74 $73 $130 $131 forward $41 $-1 #
edge $-1 -1 $-1 $132 3.141592653589792228 $99 5.04638005069145823 $91 $133 forward @7 unknown #
vertex $-1 -1 $-1 $92 $134 #
straight-curve $-1 -1 $-1 6.000000000000005329 -5.239862457849325139 16.79640378398901035 -2.011897893917929197e-34 10 1.11022302462515654e-14 F -1.860001000000001126 F 2.1800010000000003 #
coedge $-1 -1 $-1 $77 $111 $90 $123 forward $102 $-1 #
loop $-1 -1 $-1 $-1 $77 $135 #
vertex $-1 -1 $-1 $78 $136 #
straight-curve $-1 -1 $-1 -6.000000000000005329 -5.239862457849325139 16.79640378398901035 2.011897893917929197e-34 -10 -1.11022302462515654e-14 F -2.1800010000000003 F 1.860001000000001126 #
point $-1 -1 $-1 6.000000000000001776 -2.039862457849324962 16.7964037839890139 #
point $-1 -1 $-1 -6.00000000000000977 -2.039862457849322297 16.7964037839890139 #
coedge $-1 -1 $-1 $137 $138 $82 $108 reversed $139 $-1 #
edge $-1 -1 $-1 $109 -0.6000000000000003109 $112 0.600000000000000866 $82 $140 forward @7 tangent #
vertex $-1 -1 $-1 $83 $141 #
straight-curve $-1 -1 $-1 6.000000000000001776 -2.039862457849323185 12.51288740878843164 5.527644033787841702e-34 -4.996003610813204432e-15 10.00000000000000178 F -0.1569969738861143327 F 1.028351637520058315 #
coedge $-1 -1 $-1 $101 $84 $142 $143 forward $102 $-1 #
vertex $-1 -1 $-1 $108 $144 #
straight-curve $-1 -1 $-1 -6.00000000000000977 -2.039862457849319632 5.448023583913245815 -1.2430654345486636e-34 5.551115123125782702e-16 -2.248816000000000148 F -7.714450715432370487 F -2.44346095279206299 #
coedge $-1 -1 $-1 $145 $146 $129 $147 reversed $86 $-1 #
DXID-attrib $-1 -1 $-1 $-1 $87 @10 ASM ENTITY @36 c15dbe72-4c2e-47d6-a5bb-70e10d7945bb #
face $148 -1 $-1 $149 $150 $5 $-1 $151 reversed single #
plane-surface $-1 -1 $-1 7.564593118004333126e-16 -2.039862457849337396 -16.8696607269581591 4.160173060494228904e-16 1 0 -10 4.160173060494228609e-15 -6.37536815505238868e-15 forward_v I I I I #
coedge $-1 -1 $-1 $152 $89 $153 $154 reversed $66 $-1 #
coedge $-1 -1 $-1 $89 $152 $155 $156 forward $66 $-1 #
coedge $-1 -1 $-1 $157 $158 $89 $121 forward $95 $-1 #
edge $-1 -1 $-1 $159 -0.78539816339744839 $160 2.356194490192345725 $89 $161 forward @7 unknown #
coedge $-1 -1 $-1 $91 $90 $162 $163 forward $52 $-1 #
edge $-1 -1 $-1 $164 3.141592653589792228 $103 5.04638005069145823 $90 $165 forward @7 unknown #
ellipse-curve $-1 -1 $-1 -4.440892098500626162e-15 -5.239862457849326915 16.79640378398901035 -2.030546272837748783e-18 1 3.885780586188047891e-16 -4.242640687119286547 -4.710277376051325352e-15 4.242640687119286547 1 F -2.356194490192344837 F 3.926990816987241395 #
DXID-attrib $-1 -1 $-1 $-1 $94 @10 ASM ENTITY @36 d1b34143-025f-4e82-b3e9-a0cf9448a918 #
face $166 -1 $-1 $135 $139 $5 $-1 $167 forward single #
loop $-1 -1 $-1 $-1 $168 $94 #
plane-surface $-1 -1 $-1 6.000000000000006217 -5.239862457849342903 -12.51288740878844052 1 1.189396007029606471e-16 1.633919336051668145e-16 4.871258115577550057e-16 6.427876096865393407 -7.660444431189779912 forward_v I I I I #
coedge $-1 -1 $-1 $158 $157 $114 $147 forward $95 $-1 #
coedge $-1 -1 $-1 $169 $170 $97 $131 reversed $171 $-1 #
edge $-1 -1 $-1 $132 -0.1233591999999999467 $109 0.1966408000000001155 $97 $172 forward @7 tangent #
vertex $-1 -1 $-1 $98 $173 #
straight-curve $-1 -1 $-1 6.000000000000005329 -5.23986245784931981 5.44802358391324848 1.2430654345486636e-34 -6.938893903907228378e-16 2.248816000000000148 F 2.443460952792061214 F 7.714450715432373151 #
point $-1 -1 $-1 6.000000000000005329 -5.239862457849323363 16.79640378398901035 #
face $174 -1 $-1 $175 $102 $5 $-1 $176 forward single #
point $-1 -1 $-1 -6.000000000000005329 -5.239862457849323363 16.79640378398901035 #
coedge $-1 -1 $-1 $177 $107 $170 $178 reversed $139 $-1 #
coedge $-1 -1 $-1 $107 $177 $179 $180 reversed $139 $-1 #
loop $-1 -1 $-1 $-1 $107 $126 #
straight-curve $-1 -1 $-1 -1.107927006923912616e-15 -2.039862457849321853 12.5128874087884352 -10 6.266287038612699398e-17 4.622231866529366047e-32 I I #
point $-1 -1 $-1 6.000000000000001776 -2.039862457849321853 12.5128874087884352 #
coedge $-1 -1 $-1 $179 $181 $111 $143 reversed $182 $-1 #
edge $-1 -1 $-1 $112 -0.1966408000000002265 $164 0.1233591999999999467 $111 $183 forward @7 tangent #
point $-1 -1 $-1 -6.00000000000000977 -2.039862457849320521 12.5128874087884352 #
coedge $-1 -1 $-1 $184 $114 $185 $186 reversed $86 $-1 #
coedge $-1 -1 $-1 $114 $184 $187 $188 reversed $86 $-1 #
edge $-1 -1 $-1 $189 3.926990816987240507 $190 7.068583470577034511 $114 $191 forward @7 unknown #
DXID-attrib $-1 -1 $-1 $-1 $116 @10 ASM ENTITY @36 faa16c7c-143c-46d0-97e7-7f5ce904835e #
face $192 -1 $-1 $193 $194 $5 $-1 $195 reversed single #
loop $-1 -1 $-1 $-1 $196 $116 #
cone-surface $-1 -1 $-1 1.24395966317237126e-15 -0.5238624578493394912 -12.51288740878844408 1 5.946980035148034822e-17 1.633919336051667899e-16 -2.804595784575814923e-16 -3.612665593749099457 3.031386367281720062 1 I I -0 -1 2.248816000000000592 forward I I I I #
coedge $-1 -1 $-1 $119 $118 $196 $197 forward $66 $-1 #
coedge $-1 -1 $-1 $168 $198 $118 $154 forward $127 $-1 #
edge $-1 -1 $-1 $199 3.141592653589794892 $159 5.046380050691462671 $118 $200 forward @7 unknown #
coedge $-1 -1 $-1 $201 $202 $119 $156 reversed $203 $-1 #
edge $-1 -1 $-1 $204 3.141592653589796225 $160 5.046380050691463559 $119 $205 forward @7 unknown #
coedge $-1 -1 $-1 $129 $120 $202 $206 forward $95 $-1 #
coedge $-1 -1 $-1 $120 $129 $168 $207 forward $95 $-1 #
vertex $-1 -1 $-1 $121 $208 #
vertex $-1 -1 $-1 $121 $209 #
ellipse-curve $-1 -1 $-1 6.456172647025071089e-15 -5.239862457849340238 -16.79640378398902811 4.303926274200427829e-16 1 0 4.242640687119285658 3.140184917367550235e-15 -4.242640687119286547 1 F -2.356194490192344837 F 3.926990816987241395 #
coedge $-1 -1 $-1 $210 $211 $122 $163 reversed $212 $-1 #
edge $-1 -1 $-1 $164 -0.6000000000000005329 $132 0.6000000000000005329 $122 $213 forward @7 tangent #
vertex $-1 -1 $-1 $123 $214 #
straight-curve $-1 -1 $-1 -6.000000000000005329 -5.23986245784931981 5.44802358391324848 1.2430654345486636e-34 -6.938893903907228378e-16 2.248816000000000148 F 2.443460952792061214 F 7.714450715432373151 #
DXID-attrib $-1 -1 $-1 $-1 $126 @10 ASM ENTITY @36 d97c5824-9d4a-481a-8314-29ca02612e64 #
cone-surface $-1 -1 $-1 1.933866514873950532e-34 -0.5238624578493225048 12.5128874087884352 -1 6.587589635848617247e-35 5.527644033787845337e-35 -1.303682309512608311e-34 -1.161323375768370081 -0.9744660162847926799 1 I I -0 -1 2.248816000000000592 forward I I I I #
coedge $-1 -1 $-1 $187 $153 $158 $207 reversed $127 $-1 #
coedge $-1 -1 $-1 $215 $130 $211 $216 reversed $171 $-1 #
coedge $-1 -1 $-1 $130 $215 $137 $178 forward $171 $-1 #
loop $-1 -1 $-1 $-1 $130 $175 #
straight-curve $-1 -1 $-1 6.000000000000005329 -4.006270457849322675 12.5128874087884352 -2.011897893917933902e-34 10 6.661338147750939243e-15 I I #
point $-1 -1 $-1 6.000000000000005329 -5.239862457849322475 12.51288740878843164 #
DXID-attrib $-1 -1 $-1 $-1 $135 @10 ASM ENTITY @36 5375b1c5-a783-4363-9990-89a4c292b5c6 #
face $217 -1 $-1 $218 $171 $5 $-1 $219 forward single #
plane-surface $-1 -1 $-1 -6.000000000000005329 -5.239862457849322475 12.51288740878843164 -1 -2.011897893917935398e-35 5.527644033787839992e-35 2.941197957458057752e-34 6.42787609686538719 7.66044443118978613 forward_v I I I I #
coedge $-1 -1 $-1 $138 $137 $220 $221 reversed $139 $-1 #
edge $-1 -1 $-1 $222 -5.283599534532991378e-16 $109 0.6981317007977301259 $170 $223 forward @7 unknown #
coedge $-1 -1 $-1 $224 $142 $138 $180 forward $182 $-1 #
edge $-1 -1 $-1 $112 1.464674174967225424e-15 $225 0.6981317007977321243 $179 $226 forward @7 unknown #
coedge $-1 -1 $-1 $142 $224 $210 $227 forward $182 $-1 #
loop $-1 -1 $-1 $-1 $142 $218 #
straight-curve $-1 -1 $-1 -6.000000000000005329 -4.006270457849322675 12.5128874087884352 2.011897893917933902e-34 -10 -6.661338147750939243e-15 I I #
coedge $-1 -1 $-1 $146 $145 $228 $229 forward $86 $-1 #
coedge $-1 -1 $-1 $202 $201 $145 $186 forward $203 $-1 #
edge $-1 -1 $-1 $230 1.11022302462515654e-15 $189 0.4283516375200593362 $185 $231 forward @7 unknown #
coedge $-1 -1 $-1 $198 $168 $146 $188 forward $127 $-1 #
edge $-1 -1 $-1 $190 -5.046380050691463559 $232 -3.141592653589796669 $187 $233 forward @7 unknown #
vertex $-1 -1 $-1 $147 $234 #
vertex $-1 -1 $-1 $147 $235 #
ellipse-curve $-1 -1 $-1 6.075565924775596071e-15 -2.039862457849337396 -16.79640378398902811 -4.160173060494228904e-16 -1 -0 4.242640687119285658 3.140184917367550235e-15 -4.242640687119286547 1 F 2.356194490192344837 F 8.639379797371930181 #
DXID-attrib $-1 -1 $-1 $-1 $149 @10 ASM ENTITY @36 ce976b85-0930-4a0c-a53a-784a4ef692ef #
face $236 -1 $-1 $237 $238 $5 $-1 $239 forward single #
loop $-1 -1 $-1 $-1 $240 $149 #
cone-surface $-1 -1 $-1 -4.440892098500626162e-15 -1.516000000000001569 -4.000000000000003553 -1 0 -9.251858538542970348e-17 0 1.515999999999999348 0 1 I I 0 1 2.248816000000000148 forward I I I I #
coedge $-1 -1 $-1 $241 $242 $152 $197 reversed $150 $-1 #
edge $-1 -1 $-1 $199 -0.6000000000000006439 $204 0.6000000000000004219 $152 $243 forward @7 tangent #
coedge $-1 -1 $-1 $153 $187 $244 $245 forward $127 $-1 #
vertex $-1 -1 $-1 $154 $246 #
straight-curve $-1 -1 $-1 6.000000000000006217 -5.239862457849332245 -5.448023583913254697 3.674383945622372246e-16 -2.914335439641035919e-15 -2.248816000000000592 F 2.443460952792062102 F 7.714450715432374039 #
coedge $-1 -1 $-1 $185 $155 $247 $248 forward $203 $-1 #
coedge $-1 -1 $-1 $155 $185 $157 $206 reversed $203 $-1 #
loop $-1 -1 $-1 $-1 $202 $249 #
vertex $-1 -1 $-1 $197 $250 #
straight-curve $-1 -1 $-1 -6.000000000000004441 -5.239862457849335797 -5.448023583913253809 3.674383945622370767e-16 -6.938893903907228378e-16 -2.248816000000000592 F 2.443460952792061658 F 7.714450715432374039 #
edge $-1 -1 $-1 $160 -1.110223024625155924e-16 $189 0.3199999999999999512 $202 $251 forward @7 tangent #
edge $-1 -1 $-1 $190 -0.319999999999999174 $159 7.771561172376095783e-16 $168 $252 forward @7 tangent #
point $-1 -1 $-1 6.000000000000008882 -5.239862457849346455 -16.79640378398902811 #
point $-1 -1 $-1 -6.000000000000001776 -5.23986245784933935 -16.79640378398902811 #
coedge $-1 -1 $-1 $253 $162 $181 $227 reversed $212 $-1 #
coedge $-1 -1 $-1 $162 $253 $169 $216 forward $212 $-1 #
loop $-1 -1 $-1 $-1 $162 $254 #
straight-curve $-1 -1 $-1 2.504865637802468006e-18 -5.239862457849325139 12.51288740878843342 10 2.030546272837748861e-17 1.155557966632341512e-32 I I #
point $-1 -1 $-1 -6.000000000000005329 -5.239862457849322475 12.51288740878843164 #
coedge $-1 -1 $-1 $170 $169 $255 $256 reversed $171 $-1 #
edge $-1 -1 $-1 $257 9.983725521631700249e-16 $132 0.6981317007977315692 $211 $258 forward @7 unknown #
DXID-attrib $-1 -1 $-1 $-1 $175 @10 ASM ENTITY @36 92316e69-4227-49d5-be89-72b02c184bfa #
face $259 -1 $-1 $254 $182 $5 $-1 $260 forward single #
plane-surface $-1 -1 $-1 6.000000000000005329 -5.239862457849323363 12.51288740878843342 1 -6.587589635848617247e-35 -5.527644033787845337e-35 -5.527644033787845123e-34 0 -10 forward_v I I I I #
coedge $-1 -1 $-1 $261 $262 $177 $221 forward $263 $-1 #
edge $-1 -1 $-1 $225 0 $222 1.2000000000000004 $177 $264 forward @7 tangent #
vertex $-1 -1 $-1 $178 $265 #
ellipse-curve $-1 -1 $-1 6.000000000000001776 -0.5238624578493225048 12.5128874087884352 -1 6.587589635848617247e-35 5.527644033787845337e-35 0 -1.161323375768372523 -0.9744660162847917917 1 I I #
coedge $-1 -1 $-1 $181 $179 $266 $267 forward $182 $-1 #
vertex $-1 -1 $-1 $221 $268 #
ellipse-curve $-1 -1 $-1 -6.00000000000000977 -0.5238624578493225048 12.5128874087884352 1 -6.587589635848617247e-35 -5.527644033787845337e-35 0 -1.51599999999999957 2.220446049250313081e-15 1 I I #
edge $-1 -1 $-1 $269 9.983725521631700249e-16 $164 0.6981317007977315692 $210 $270 forward @7 unknown #
coedge $-1 -1 $-1 $271 $272 $184 $229 reversed $273 $-1 #
edge $-1 -1 $-1 $230 -0.6000000000000003109 $232 0.6000000000000005329 $184 $274 forward @7 tangent #
vertex $-1 -1 $-1 $229 $275 #
straight-curve $-1 -1 $-1 -6.000000000000001776 -2.039862457849337396 -12.5128874087884352 2.159228388652224909e-15 -1.665334536937734811e-15 -10 F -0.1569969738861144992 F 1.028351637520058759 #
vertex $-1 -1 $-1 $188 $276 #
straight-curve $-1 -1 $-1 6.000000000000005329 -2.039862457849332955 -5.448023583913251144 -3.674383945622372246e-16 2.914335439641035919e-15 2.248816000000000592 F -7.714450715432374039 F -2.443460952792063878 #
point $-1 -1 $-1 -6.000000000000000888 -2.039862457849338284 -16.79640378398902811 #
point $-1 -1 $-1 6.000000000000007105 -2.03986245784934761 -16.79640378398902811 #
DXID-attrib $-1 -1 $-1 $-1 $193 @10 ASM ENTITY @36 391eb7d4-80eb-4699-bac9-0aef3a902187 #
face $277 -1 $-1 $278 $279 $5 $-1 $280 forward single #
loop $-1 -1 $-1 $-1 $281 $193 #
plane-surface $-1 -1 $-1 -6.000000000000005329 2.096665593749099443 -7.031386367281724503 -1 0 -9.251858538542970348e-17 -7.087334821973711104e-16 6.427876096865393407 7.660444431189779912 forward_v I I I I #
coedge $-1 -1 $-1 $282 $283 $284 $285 reversed $194 $-1 #
coedge $-1 -1 $-1 $286 $196 $287 $288 reversed $150 $-1 #
coedge $-1 -1 $-1 $196 $286 $289 $290 forward $150 $-1 #
straight-curve $-1 -1 $-1 5.092993355509710582e-16 -5.239862457849340238 -12.51288740878844763 -10 4.303926274200427533e-15 -1.633919336051668786e-15 I I #
coedge $-1 -1 $-1 $291 $287 $198 $245 reversed $292 $-1 #
edge $-1 -1 $-1 $232 -0.1966407999999997824 $199 0.1233592000000000577 $198 $293 forward @7 tangent #
point $-1 -1 $-1 6.000000000000006217 -5.239862457849340238 -12.51288740878844408 #
coedge $-1 -1 $-1 $289 $294 $201 $248 reversed $295 $-1 #
edge $-1 -1 $-1 $204 -0.1233591999999998912 $230 0.196640800000000171 $201 $296 forward @7 tangent #
face $297 -1 $-1 $87 $203 $5 $-1 $298 forward single #
point $-1 -1 $-1 -6.000000000000004441 -5.239862457849337574 -12.51288740878844763 #
straight-curve $-1 -1 $-1 -6.000000000000003553 -5.239862457849337574 -16.79640378398903167 -1.18939600702960726e-15 10 3.885780586188047891e-15 F -1.86000100000000046 F 2.1800010000000003 #
straight-curve $-1 -1 $-1 6.000000000000007105 -5.23986245784933935 -16.79640378398902811 1.18939600702960726e-15 -10 -3.885780586188047891e-15 F -2.180000999999999856 F 1.860001000000000904 #
coedge $-1 -1 $-1 $211 $210 $299 $300 forward $212 $-1 #
face $301 -1 $-1 $302 $212 $5 $-1 $303 reversed single #
coedge $-1 -1 $-1 $304 $305 $215 $256 forward $306 $-1 #
edge $-1 -1 $-1 $222 0 $257 0.3200000000000000622 $215 $307 forward @7 tangent #
vertex $-1 -1 $-1 $216 $308 #
ellipse-curve $-1 -1 $-1 6.000000000000005329 -0.5238624578493225048 12.5128874087884352 -1 6.587589635848617247e-35 5.527644033787845337e-35 0 -3.612665593749099457 -3.031386367281723171 1 I I #
DXID-attrib $-1 -1 $-1 $-1 $218 @10 ASM ENTITY @36 9f78f89b-37ff-4a02-a42b-352f7007a99c #
plane-surface $-1 -1 $-1 -6.000000000000005329 -2.039862457849320965 12.5128874087884352 -1 6.587589635848617247e-35 5.527644033787845337e-35 5.527644033787845123e-34 0 10 forward_v I I I I #
coedge $-1 -1 $-1 $309 $220 $305 $310 reversed $263 $-1 #
coedge $-1 -1 $-1 $220 $309 $311 $312 forward $263 $-1 #
loop $-1 -1 $-1 $-1 $309 $313 #
straight-curve $-1 -1 $-1 -6.000000000000001776 -1.685185833617695028 11.5384213925036434 10 0 0 I I #
point $-1 -1 $-1 6.000000000000001776 -1.685185833617695028 11.5384213925036434 #
coedge $-1 -1 $-1 $311 $314 $224 $267 reversed $315 $-1 #
edge $-1 -1 $-1 $225 0 $269 0.3200000000000000622 $266 $316 forward @7 tangent #
point $-1 -1 $-1 -6.000000000000001776 -1.685185833617695028 11.5384213925036434 #
vertex $-1 -1 $-1 $267 $317 #
ellipse-curve $-1 -1 $-1 -6.000000000000005329 -0.5238624578493225048 12.5128874087884352 -1 6.587589635848617247e-35 5.527644033787845337e-35 0 -3.612665593749099457 -3.031386367281723171 1 I I #
coedge $-1 -1 $-1 $318 $228 $294 $319 reversed $273 $-1 #
coedge $-1 -1 $-1 $228 $318 $291 $320 reversed $273 $-1 #
loop $-1 -1 $-1 $-1 $228 $321 #
straight-curve $-1 -1 $-1 8.635790674673925262e-16 -2.039862457849339616 -12.51288740878844763 10 -4.160173060494228609e-15 1.633919336051668589e-15 I I #
point $-1 -1 $-1 -6.000000000000001776 -2.039862457849337396 -12.51288740878844763 #
point $-1 -1 $-1 6.000000000000006217 -2.039862457849341837 -12.51288740878844408 #
DXID-attrib $-1 -1 $-1 $-1 $237 @10 ASM ENTITY @36 aa853516-0cfd-43fc-b4cd-a857a7e05d65 #
face $322 -1 $-1 $323 $324 $5 $-1 $325 forward single #
loop $-1 -1 $-1 $-1 $326 $237 #
plane-surface $-1 -1 $-1 -1.993143842036374198e-15 0.7103184279270813306 -8.683570582732912158 5.946980035148031124e-17 0.7660444431189779024 -0.6427876096865394739 2.164523716569259737e-16 6.427876096865395183 7.660444431189779024 forward_v I I I I #
coedge $-1 -1 $-1 $327 $328 $329 $330 forward $238 $-1 #
coedge $-1 -1 $-1 $331 $240 $332 $333 reversed $194 $-1 #
coedge $-1 -1 $-1 $240 $331 $334 $335 reversed $194 $-1 #
coedge $-1 -1 $-1 $336 $337 $240 $285 forward $338 $-1 #
edge $-1 -1 $-1 $339 -0.6000000000000003109 $340 0.6000000000000000888 $284 $341 forward @7 tangent #
coedge $-1 -1 $-1 $242 $241 $342 $343 forward $150 $-1 #
coedge $-1 -1 $-1 $244 $344 $241 $288 forward $292 $-1 #
edge $-1 -1 $-1 $345 -3.119914225509905465e-16 $199 0.6981317007977321243 $241 $346 forward @7 unknown #
coedge $-1 -1 $-1 $347 $247 $242 $290 reversed $295 $-1 #
edge $-1 -1 $-1 $348 1.809550250795748789e-15 $204 0.6981317007977351219 $242 $349 forward @7 unknown #
coedge $-1 -1 $-1 $344 $244 $272 $320 forward $292 $-1 #
loop $-1 -1 $-1 $-1 $244 $350 #
straight-curve $-1 -1 $-1 6.000000000000006217 -4.00627045784933955 -12.51288740878844408 1.189396007029606274e-15 -10 1.665334536937734811e-15 I I #
coedge $-1 -1 $-1 $247 $347 $271 $319 forward $295 $-1 #
loop $-1 -1 $-1 $-1 $247 $351 #
straight-curve $-1 -1 $-1 -6.000000000000004441 -4.00627045784933955 -12.51288740878844408 -1.189396007029606077e-15 10 -1.665334536937734811e-15 I I #
DXID-attrib $-1 -1 $-1 $-1 $249 @10 ASM ENTITY @36 017f8c7f-033e-483b-b62e-d19e07e34e6e #
plane-surface $-1 -1 $-1 -6.000000000000004441 -5.239862457849336685 -12.51288740878844052 -1 -1.189396007029606471e-16 -2.159228388652224515e-16 -8.895358922225063481e-16 -6.427876096865393407 7.660444431189779912 forward_v I I I I #
coedge $-1 -1 $-1 $352 $353 $253 $300 reversed $354 $-1 #
edge $-1 -1 $-1 $269 0 $257 1.2000000000000004 $299 $355 forward @7 tangent #
DXID-attrib $-1 -1 $-1 $-1 $254 @10 ASM ENTITY @36 0c86a331-ec00-4ce8-8d76-44e591563f29 #
face $356 -1 $-1 $357 $358 $5 $-1 $359 reversed single #
cone-surface $-1 -1 $-1 1.933866514873950532e-34 -0.5238624578493225048 12.5128874087884352 -1 6.587589635848617247e-35 5.527644033787845337e-35 -4.055518319037907211e-34 -3.61266559374910079 -3.03138636728171873 1 I I -0 -1 2.248816000000000592 forward I I I I #
coedge $-1 -1 $-1 $360 $255 $353 $361 forward $306 $-1 #
coedge $-1 -1 $-1 $255 $360 $261 $310 forward $306 $-1 #
loop $-1 -1 $-1 $-1 $360 $357 #
straight-curve $-1 -1 $-1 6.000000000000001776 -1.685185833617695028 11.5384213925036434 0 -7.660444431189780801 -6.427876096865392519 I I #
point $-1 -1 $-1 6.000000000000001776 -4.136528051598425293 9.481501041506717797 #
coedge $-1 -1 $-1 $262 $261 $362 $363 forward $263 $-1 #
edge $-1 -1 $-1 $364 3.141592653589792672 $222 5.757865561289039924 $261 $365 forward @7 unknown #
coedge $-1 -1 $-1 $366 $266 $262 $312 reversed $315 $-1 #
edge $-1 -1 $-1 $367 3.141592653589792672 $225 5.757865561289039924 $262 $368 forward @7 unknown #
face $369 -1 $-1 $370 $263 $5 $-1 $371 forward single #
coedge $-1 -1 $-1 $266 $366 $352 $372 forward $315 $-1 #
loop $-1 -1 $-1 $-1 $366 $373 #
straight-curve $-1 -1 $-1 -6.000000000000001776 -1.685185833617695028 11.5384213925036434 0 -7.660444431189780801 -6.427876096865392519 I I #
point $-1 -1 $-1 -6.000000000000001776 -4.136528051598425293 9.481501041506717797 #
coedge $-1 -1 $-1 $272 $271 $374 $375 reversed $273 $-1 #
edge $-1 -1 $-1 $376 -2.037959820462731726e-15 $230 0.6981317007977351219 $294 $377 forward @7 unknown #
edge $-1 -1 $-1 $232 -1.464674174967221086e-15 $378 0.6981317007977325684 $291 $379 forward @7 unknown #
face $380 -1 $-1 $351 $273 $5 $-1 $381 forward single #
DXID-attrib $-1 -1 $-1 $-1 $278 @10 ASM ENTITY @36 3accf5a2-24e1-4e28-8512-161dcebc9ad2 #
face $382 -1 $-1 $383 $384 $5 $-1 $385 forward single #
loop $-1 -1 $-1 $-1 $386 $278 #
plane-surface $-1 -1 $-1 5.999999999999996447 2.096665593749098111 -7.031386367281724503 1 0 9.251858538542970348e-17 9.251858538542969855e-16 0 -10 forward_v I I I I #
coedge $-1 -1 $-1 $387 $388 $389 $390 forward $279 $-1 #
coedge $-1 -1 $-1 $391 $281 $388 $392 forward $238 $-1 #
coedge $-1 -1 $-1 $281 $391 $336 $393 forward $238 $-1 #
coedge $-1 -1 $-1 $334 $394 $281 $330 reversed $384 $-1 #
edge $-1 -1 $-1 $340 -0.1966408000000000045 $395 0.1233592000000000993 $281 $396 forward @7 tangent #
coedge $-1 -1 $-1 $283 $282 $397 $398 reversed $194 $-1 #
coedge $-1 -1 $-1 $386 $399 $282 $333 forward $324 $-1 #
edge $-1 -1 $-1 $400 3.661685437418061589e-16 $339 0.6981317007977321243 $332 $401 forward @7 unknown #
coedge $-1 -1 $-1 $402 $329 $283 $335 forward $384 $-1 #
edge $-1 -1 $-1 $340 7.54799933504712473e-17 $403 0.6981317007977320133 $334 $404 forward @7 unknown #
coedge $-1 -1 $-1 $342 $284 $328 $393 reversed $338 $-1 #
coedge $-1 -1 $-1 $284 $342 $405 $406 reversed $338 $-1 #
loop $-1 -1 $-1 $-1 $284 $407 #
vertex $-1 -1 $-1 $285 $408 #
vertex $-1 -1 $-1 $285 $409 #
straight-curve $-1 -1 $-1 -3.343520415369286566e-15 -0.3546766242316312656 -4.974466016284797121 -10 2.465190328815661892e-31 -9.2518585385429738e-16 I I #
coedge $-1 -1 $-1 $337 $336 $286 $343 reversed $338 $-1 #
edge $-1 -1 $-1 $345 6.602474162007470972e-33 $348 1.200000000000000178 $342 $410 forward @7 tangent #
coedge $-1 -1 $-1 $287 $291 $411 $412 forward $292 $-1 #
vertex $-1 -1 $-1 $412 $413 #
ellipse-curve $-1 -1 $-1 6.000000000000007105 -0.5238624578493391581 -12.51288740878844408 1 5.946980035148034822e-17 1.633919336051667899e-16 0 -3.612665593749100346 3.03138636728172095 1 I I #
coedge $-1 -1 $-1 $294 $289 $391 $414 reversed $295 $-1 #
vertex $-1 -1 $-1 $290 $415 #
ellipse-curve $-1 -1 $-1 -6.000000000000003553 -0.5238624578493398243 -12.51288740878844408 1 5.946980035148034822e-17 1.633919336051667899e-16 0 -3.612665593749089243 3.031386367281727612 1 I I #
face $416 -1 $-1 $249 $292 $5 $-1 $417 forward single #
face $418 -1 $-1 $350 $295 $5 $-1 $419 forward single #
coedge $-1 -1 $-1 $420 $299 $314 $372 reversed $354 $-1 #
coedge $-1 -1 $-1 $299 $420 $304 $361 reversed $354 $-1 #
loop $-1 -1 $-1 $-1 $420 $421 #
straight-curve $-1 -1 $-1 -6.000000000000001776 -4.136528051598426181 9.481501041506717797 10 0 0 I I #
DXID-attrib $-1 -1 $-1 $-1 $302 @10 ASM ENTITY @36 a431151e-8e9f-4520-8146-c7cc131b474d #
face $422 -1 $-1 $313 $306 $5 $-1 $423 forward single #
loop $-1 -1 $-1 $-1 $424 $302 #
cone-surface $-1 -1 $-1 0 -1.515999999999999126 4 1 0 0 0 1.516000000000000014 0 1 I I 0 1 2.248815999999998816 forward I I I I #
coedge $-1 -1 $-1 $305 $304 $425 $426 forward $306 $-1 #
edge $-1 -1 $-1 $257 -5.757865561289038148 $427 -3.141592653589792228 $304 $428 forward @7 unknown #
coedge $-1 -1 $-1 $429 $430 $309 $363 reversed $431 $-1 #
edge $-1 -1 $-1 $364 -0.6000000000000005329 $367 0.6000000000000005329 $309 $432 forward @7 tangent #
vertex $-1 -1 $-1 $426 $433 #
straight-curve $-1 -1 $-1 6.000000000000005329 6.637872524501519322 1.619386692843796993 0 -1.445511061264843411 1.722693000397047314 F 2.443460952792061214 F 5.757865561289040812 #
coedge $-1 -1 $-1 $314 $311 $434 $435 forward $315 $-1 #
vertex $-1 -1 $-1 $363 $436 #
straight-curve $-1 -1 $-1 -6.000000000000005329 6.637872524501519322 1.619386692843796993 0 -1.445511061264843411 1.722693000397047314 F 2.443460952792061214 F 5.757865561289040812 #
DXID-attrib $-1 -1 $-1 $-1 $313 @10 ASM ENTITY @36 15454391-5374-44e1-bdbd-d40f714cc1c7 #
face $437 -1 $-1 $438 $439 $5 $-1 $440 forward single #
plane-surface $-1 -1 $-1 0 0.7103184279270846613 8.683570582732912158 -6.984604532257376854e-32 0.7660444431189782355 0.6427876096865392519 0 -6.427876096865391631 7.660444431189780801 forward_v I I I I #
edge $-1 -1 $-1 $441 0 $269 0.5883516375200588122 $314 $442 forward @7 unknown #
face $443 -1 $-1 $421 $315 $5 $-1 $444 forward single #
coedge $-1 -1 $-1 $388 $387 $318 $375 forward $279 $-1 #
edge $-1 -1 $-1 $378 -0 $376 1.200000000000000178 $318 $445 forward @7 tangent #
vertex $-1 -1 $-1 $319 $446 #
ellipse-curve $-1 -1 $-1 -6.000000000000001776 -0.5238624578493398243 -12.51288740878844408 1 5.946980035148034822e-17 1.633919336051667899e-16 0 -1.161323375768366972 0.9744660162847940121 1 I I #
vertex $-1 -1 $-1 $375 $447 #
ellipse-curve $-1 -1 $-1 6.000000000000006217 -0.5238624578493391581 -12.51288740878844408 -1 -5.946980035148034822e-17 -1.633919336051667899e-16 0 -1.516000000000004011 2.220446049250313081e-15 1 I I #
DXID-attrib $-1 -1 $-1 $-1 $321 @10 ASM ENTITY @36 9e97d1a7-441e-4489-8b10-1561a1418752 #
cone-surface $-1 -1 $-1 1.24395966317237126e-15 -0.5238624578493394912 -12.51288740878844408 1 5.946980035148034822e-17 1.633919336051667899e-16 -9.015621733284426707e-17 -1.161323375768370303 0.9744660162847937901 1 I I -0 -1 2.248816000000000592 forward I I I I #
DXID-attrib $-1 -1 $-1 $-1 $323 @10 ASM ENTITY @36 9aea9abb-1ab2-4c9f-8596-c53de564bf65 #
face $448 -1 $-1 $407 $449 $5 $-1 $450 forward single #
loop $-1 -1 $-1 $-1 $329 $323 #
plane-surface $-1 -1 $-1 -6.000000000000005329 -0.3546766242316304329 -4.974466016284797121 -1 0 -9.251858538542970348e-17 -9.251858538542969855e-16 0 10 forward_v I I I I #
coedge $-1 -1 $-1 $451 $332 $452 $453 reversed $324 $-1 #
coedge $-1 -1 $-1 $374 $326 $454 $455 forward $279 $-1 #
coedge $-1 -1 $-1 $326 $374 $327 $392 reversed $279 $-1 #
coedge $-1 -1 $-1 $456 $457 $326 $390 reversed $458 $-1 #
edge $-1 -1 $-1 $395 -0.6000000000000000888 $459 0.6000000000000000888 $326 $460 forward @7 tangent #
coedge $-1 -1 $-1 $328 $327 $347 $414 forward $238 $-1 #
edge $-1 -1 $-1 $395 3.14159265358979356 $376 5.757865561289040812 $388 $461 forward @7 unknown #
edge $-1 -1 $-1 $348 -5.757865561289039924 $340 -3.141592653589793116 $328 $462 forward @7 unknown #
coedge $-1 -1 $-1 $329 $402 $456 $463 forward $384 $-1 #
vertex $-1 -1 $-1 $330 $464 #
straight-curve $-1 -1 $-1 -6.000000000000005329 1.151679297073073371 -6.238448714273285844 5.946980035148034329e-16 7.660444431189779912 -6.427876096865393407 I I #
coedge $-1 -1 $-1 $465 $466 $331 $398 forward $467 $-1 #
edge $-1 -1 $-1 $403 0 $400 1.200000000000000178 $331 $468 forward @7 tangent #
coedge $-1 -1 $-1 $332 $451 $469 $470 reversed $324 $-1 #
vertex $-1 -1 $-1 $333 $471 #
ellipse-curve $-1 -1 $-1 6 -1.516000000000001569 -4.000000000000002665 -1 0 -9.251858538542970348e-17 0 1.515999999999999792 1.11022302462515654e-15 1 I I #
coedge $-1 -1 $-1 $394 $334 $472 $473 forward $384 $-1 #
vertex $-1 -1 $-1 $398 $474 #
ellipse-curve $-1 -1 $-1 -6.000000000000004441 -1.516000000000001569 -4.000000000000004441 1 0 9.251858538542970348e-17 0 1.161323375768370969 -0.974466016284793457 1 I I #
coedge $-1 -1 $-1 $411 $452 $337 $406 forward $449 $-1 #
edge $-1 -1 $-1 $339 7.820588914273048788e-17 $345 0.5883516375200590343 $405 $475 forward @7 unknown #
face $476 -1 $-1 $477 $338 $5 $-1 $478 reversed single #
point $-1 -1 $-1 6 -0.3546766242316307105 -4.974466016284796233 #
point $-1 -1 $-1 -6.000000000000004441 -0.3546766242316301554 -4.974466016284797121 #
straight-curve $-1 -1 $-1 6.000000000000000888 -4.136528051598428846 -9.481501041506719574 -10 -5.946980035148034329e-16 -1.633919336051668195e-15 I I #
coedge $-1 -1 $-1 $454 $405 $344 $412 reversed $449 $-1 #
edge $-1 -1 $-1 $378 0 $345 0.3200000000000001732 $411 $479 forward @7 tangent #
point $-1 -1 $-1 6.000000000000000888 -4.136528051598430622 -9.481501041506719574 #
edge $-1 -1 $-1 $376 0 $348 0.3200000000000001732 $347 $480 forward @7 tangent #
point $-1 -1 $-1 -6.000000000000000888 -4.13652805159843151 -9.48150104150672135 #
DXID-attrib $-1 -1 $-1 $-1 $350 @10 ASM ENTITY @36 182e490b-15f2-43aa-ba10-07de8a72ee60 #
plane-surface $-1 -1 $-1 6.000000000000006217 -2.039862457849343169 -12.5128874087884423 1 5.946980035148034822e-17 1.633919336051667899e-16 1.633919336051667997e-15 0 -10 forward_v I I I I #
DXID-attrib $-1 -1 $-1 $-1 $351 @10 ASM ENTITY @36 da38c750-7bbc-4005-a442-11c9ff80f1f2 #
plane-surface $-1 -1 $-1 -6.000000000000004441 -5.239862457849337574 -12.51288740878844052 -1 -5.946980035148034822e-17 -1.633919336051667899e-16 -1.633919336051667997e-15 0 10 forward_v I I I I #
coedge $-1 -1 $-1 $353 $352 $424 $481 forward $354 $-1 #
face $482 -1 $-1 $483 $354 $5 $-1 $484 reversed single #
DXID-attrib $-1 -1 $-1 $-1 $357 @10 ASM ENTITY @36 64e4aaf6-af2b-4069-bf67-55deca34796a #
plane-surface $-1 -1 $-1 6.000000000000005329 2.096665593749102552 7.031386367281720062 1 0 0 0 6.427876096865392519 -7.660444431189780801 forward_v I I I I #
coedge $-1 -1 $-1 $485 $486 $420 $481 reversed $358 $-1 #
coedge $-1 -1 $-1 $487 $488 $360 $426 reversed $489 $-1 #
edge $-1 -1 $-1 $427 -0.19664080000000006 $364 0.123359200000000141 $360 $490 forward @7 tangent #
vertex $-1 -1 $-1 $481 $491 #
straight-curve $-1 -1 $-1 6.000000000000005329 4.186530306520788614 -0.437533658153129057 0 1.445511061264843411 -1.722693000397047314 F -5.757865561289040812 F -2.443460952792061214 #
coedge $-1 -1 $-1 $492 $362 $488 $493 reversed $431 $-1 #
coedge $-1 -1 $-1 $362 $492 $494 $495 forward $431 $-1 #
loop $-1 -1 $-1 $-1 $362 $483 #
straight-curve $-1 -1 $-1 -8.616152274156446168e-32 2.096665593749102552 7.031386367281720062 -10 -5.350517489319391949e-31 -4.4896172518954871e-31 I I #
point $-1 -1 $-1 6.000000000000005329 2.096665593749102552 7.031386367281720062 #
coedge $-1 -1 $-1 $494 $496 $366 $435 reversed $439 $-1 #
edge $-1 -1 $-1 $367 -0.123359200000000141 $441 0.1966407999999999767 $366 $497 forward @7 tangent #
point $-1 -1 $-1 -6.000000000000005329 2.096665593749102552 7.031386367281720062 #
DXID-attrib $-1 -1 $-1 $-1 $370 @10 ASM ENTITY @36 2bc6d36f-5ee7-4d37-af6e-b8901c03c27f #
face $498 -1 $-1 $373 $489 $5 $-1 $499 forward single #
loop $-1 -1 $-1 $-1 $434 $370 #
plane-surface $-1 -1 $-1 -6.000000000000005329 2.096665593749102108 7.031386367281720062 -1 0 0 0 0 10 forward_v I I I I #
vertex $-1 -1 $-1 $481 $500 #
straight-curve $-1 -1 $-1 -6.000000000000001776 -0.3546766242316279349 4.974466016284793568 0 -6.427876096865392519 7.660444431189780801 F -0.1569969738861151376 F 0.5883516375200588122 #
DXID-attrib $-1 -1 $-1 $-1 $373 @10 ASM ENTITY @36 f97a553c-b81b-4c5d-b593-fa54ff6ecc92 #
plane-surface $-1 -1 $-1 -6.000000000000005329 2.096665593749102552 7.031386367281720062 -1 0 0 0 -6.427876096865392519 7.660444431189780801 forward_v I I I I #
straight-curve $-1 -1 $-1 6.000000000000000888 -1.685185833617699469 -11.53842139250364696 -10 -5.946980035148034329e-16 -1.633919336051668195e-15 I I #
point $-1 -1 $-1 -6.000000000000000888 -1.685185833617700579 -11.53842139250364873 #
point $-1 -1 $-1 6.000000000000000888 -1.685185833617699469 -11.53842139250364696 #
DXID-attrib $-1 -1 $-1 $-1 $383 @10 ASM ENTITY @36 71da486b-b15b-4d47-89e2-1d9680911826 #
loop $-1 -1 $-1 $-1 $452 $383 #
plane-surface $-1 -1 $-1 5.999999999999996447 2.096665593749099887 -7.031386367281722727 1 7.573789255842681916e-17 1.827794909374491204e-16 1.88700592269075585e-15 -6.427876096865393407 -7.660444431189779912 forward_v I I I I #
coedge $-1 -1 $-1 $399 $386 $457 $501 reversed $324 $-1 #
coedge $-1 -1 $-1 $405 $454 $386 $453 forward $449 $-1 #
edge $-1 -1 $-1 $459 -0.1233592000000000993 $339 0.1966408000000001155 $452 $502 forward @7 tangent #
coedge $-1 -1 $-1 $452 $411 $387 $455 reversed $449 $-1 #
edge $-1 -1 $-1 $459 3.141592653589794448 $378 5.757865561289039924 $387 $503 forward @7 unknown #
coedge $-1 -1 $-1 $504 $389 $394 $463 reversed $458 $-1 #
coedge $-1 -1 $-1 $389 $504 $451 $501 forward $458 $-1 #
loop $-1 -1 $-1 $-1 $389 $477 #
vertex $-1 -1 $-1 $390 $505 #
straight-curve $-1 -1 $-1 -3.153217054244549451e-15 2.096665593749098999 -7.031386367281722727 10 3.697785493223492838e-31 9.251858538542967883e-16 I I #
straight-curve $-1 -1 $-1 -6.000000000000005329 6.637872524501523763 -1.619386692843800546 1.593811194501162811e-16 -1.445511061264845409 -1.722693000397047314 F 2.443460952792061214 F 5.757865561289040812 #
straight-curve $-1 -1 $-1 -6.000000000000005329 4.186530306520793943 0.4375336581531257263 -1.593811194501162811e-16 1.445511061264845409 1.722693000397047314 F -5.757865561289040812 F -2.443460952792061214 #
edge $-1 -1 $-1 $506 3.531243717001133423e-16 $395 0.6981317007977322353 $456 $507 forward @7 unknown #
point $-1 -1 $-1 -6.000000000000004441 2.096665593749099887 -7.031386367281724503 #
coedge $-1 -1 $-1 $508 $397 $509 $510 forward $467 $-1 #
coedge $-1 -1 $-1 $397 $508 $511 $512 forward $467 $-1 #
loop $-1 -1 $-1 $-1 $508 $513 #
straight-curve $-1 -1 $-1 -6.000000000000001776 0 -4 10 0 9.251858538542969855e-16 F 0 F 1.200000000000000178 #
coedge $-1 -1 $-1 $514 $509 $399 $470 forward $515 $-1 #
edge $-1 -1 $-1 $400 0 $516 0.3200000000000000622 $399 $517 forward @7 tangent #
point $-1 -1 $-1 6 0 -3.999999999999999112 #
coedge $-1 -1 $-1 $511 $518 $402 $473 reversed $519 $-1 #
edge $-1 -1 $-1 $403 0 $506 0.3200000000000000622 $472 $520 forward @7 tangent #
point $-1 -1 $-1 -6.000000000000001776 0 -4 #
straight-curve $-1 -1 $-1 6 -0.3546766242316301554 -4.974466016284795344 1.88700592269075585e-15 -6.427876096865393407 -7.660444431189779912 F -0.1569969738861152486 F 0.5883516375200590343 #
DXID-attrib $-1 -1 $-1 $-1 $407 @10 ASM ENTITY @36 7f4ada4a-82ff-4483-ad3e-3caf6771f90e #
face $521 -1 $-1 $522 $458 $5 $-1 $523 forward single #
plane-surface $-1 -1 $-1 -2.183447203161110918e-15 -1.741023790053648934 -6.626650231735986551 5.94698003514803852e-17 0.7660444431189779024 -0.6427876096865394739 2.164523716569259737e-16 6.427876096865395183 7.660444431189779024 forward_v I I I I #
straight-curve $-1 -1 $-1 6.000000000000000888 -1.685185833617699469 -11.53842139250364696 -5.946980035148034329e-16 -7.660444431189779912 6.427876096865393407 I I #
straight-curve $-1 -1 $-1 -6.000000000000000888 -1.685185833617700579 -11.53842139250364873 -5.946980035148034329e-16 -7.660444431189779912 6.427876096865393407 I I #
edge $-1 -1 $-1 $441 -0.6000000000000001998 $427 0.6000000000000005329 $420 $524 forward @7 tangent #
DXID-attrib $-1 -1 $-1 $-1 $421 @10 ASM ENTITY @36 2dcb633b-4e21-4085-8376-658321077bfb #
face $525 -1 $-1 $321 $431 $5 $-1 $526 forward single #
plane-surface $-1 -1 $-1 0 -1.741023790053645826 6.626650231735984775 8.599487529766554783e-35 0.7660444431189782355 0.6427876096865392519 0 -6.427876096865391631 7.660444431189780801 forward_v I I I I #
coedge $-1 -1 $-1 $527 $424 $496 $528 reversed $358 $-1 #
coedge $-1 -1 $-1 $424 $527 $487 $529 reversed $358 $-1 #
coedge $-1 -1 $-1 $530 $425 $486 $529 forward $489 $-1 #
coedge $-1 -1 $-1 $425 $530 $429 $493 forward $489 $-1 #
loop $-1 -1 $-1 $-1 $425 $438 #
straight-curve $-1 -1 $-1 6.000000000000005329 1.151679297073075592 6.238448714273281404 0 7.660444431189780801 6.427876096865392519 I I #
point $-1 -1 $-1 6.000000000000005329 -0.3546766242316284901 4.974466016284793568 #
coedge $-1 -1 $-1 $430 $429 $531 $532 forward $431 $-1 #
edge $-1 -1 $-1 $533 0 $364 0.6981317007977316802 $429 $534 forward @7 unknown #
coedge $-1 -1 $-1 $535 $434 $430 $495 reversed $439 $-1 #
edge $-1 -1 $-1 $536 0 $367 0.6981317007977316802 $430 $537 forward @7 unknown #
coedge $-1 -1 $-1 $434 $535 $485 $528 forward $439 $-1 #
straight-curve $-1 -1 $-1 -6.000000000000005329 1.151679297073075592 6.238448714273281404 -0 -7.660444431189780801 -6.427876096865392519 I I #
DXID-attrib $-1 -1 $-1 $-1 $438 @10 ASM ENTITY @36 099df600-a9bb-4cd4-a799-a241d5a11c7b #
plane-surface $-1 -1 $-1 6.000000000000005329 -0.3546766242316287676 4.974466016284793568 1 0 0 0 0 -10 forward_v I I I I #
point $-1 -1 $-1 -6.000000000000001776 -0.3546766242316279349 4.974466016284793568 #
edge $-1 -1 $-1 $516 3.531243717001133423e-16 $459 0.6981317007977325684 $457 $538 forward @7 unknown #
straight-curve $-1 -1 $-1 5.999999999999996447 1.151679297073072705 -6.238448714273285844 -5.946980035148034329e-16 -7.660444431189779912 6.427876096865393407 I I #
straight-curve $-1 -1 $-1 5.999999999999996447 6.637872524501524651 -1.619386692843799436 1.593811194501162811e-16 -1.445511061264845409 -1.722693000397047314 F 2.443460952792061214 F 5.757865561289040812 #
coedge $-1 -1 $-1 $457 $456 $539 $540 forward $458 $-1 #
point $-1 -1 $-1 5.999999999999997335 2.096665593749099443 -7.031386367281724503 #
vertex $-1 -1 $-1 $473 $541 #
ellipse-curve $-1 -1 $-1 -6.000000000000005329 -1.516000000000001569 -4.000000000000004441 -1 0 -9.251858538542970348e-17 0 4.71600000000000108 2.220446049250313081e-15 1 I I #
coedge $-1 -1 $-1 $466 $465 $527 $542 forward $467 $-1 #
coedge $-1 -1 $-1 $469 $543 $465 $510 reversed $515 $-1 #
edge $544 -1 $-1 $400 0 $545 0.7999999999999999334 $465 $546 forward @7 unknown #
coedge $-1 -1 $-1 $547 $472 $466 $512 reversed $519 $-1 #
edge $548 -1 $-1 $549 0 $403 0.8000000000000000444 $466 $550 forward @7 unknown #
face $551 -1 $-1 $-1 $467 $5 $-1 $552 reversed single #
coedge $-1 -1 $-1 $543 $469 $553 $554 forward $515 $-1 #
loop $-1 -1 $-1 $-1 $514 $555 #
vertex $-1 -1 $-1 $501 $556 #
straight-curve $-1 -1 $-1 6 0 -3.999999999999999112 0 10 0 I I #
coedge $-1 -1 $-1 $472 $547 $557 $558 forward $519 $-1 #
loop $-1 -1 $-1 $-1 $518 $522 #
straight-curve $-1 -1 $-1 -6.000000000000001776 0 -4 0 10 0 I I #
DXID-attrib $-1 -1 $-1 $-1 $477 @10 ASM ENTITY @36 7e8f6495-722f-40df-9fc0-6d1f3c0e008c #
face $559 -1 $-1 $555 $519 $5 $-1 $560 forward single #
cone-surface $-1 -1 $-1 -4.440892098500626162e-15 -1.516000000000001569 -4.000000000000003553 -1 0 -9.251858538542970348e-17 0 4.716000000000000192 0 1 I I 0 1 2.248816000000000148 forward I I I I #
straight-curve $-1 -1 $-1 -3.150921026806699345e-35 -0.3546766242316279349 4.974466016284793568 10 -6.587589635848615964e-34 -5.527644033787845123e-34 I I #
DXID-attrib $-1 -1 $-1 $-1 $483 @10 ASM ENTITY @36 215456bc-7804-4601-a9f3-7f201ed1fb90 #
cone-surface $-1 -1 $-1 0 -1.515999999999999126 4 1 0 0 0 4.71600000000000108 0 1 I I 0 1 2.248815999999998816 forward I I I I #
coedge $-1 -1 $-1 $486 $485 $508 $542 reversed $358 $-1 #
edge $-1 -1 $-1 $549 0 $441 0.6981317007977315692 $496 $561 forward @7 unknown #
edge $-1 -1 $-1 $427 1.509599867009426918e-16 $545 0.6981317007977316802 $487 $562 forward @7 unknown #
coedge $-1 -1 $-1 $488 $487 $543 $563 forward $489 $-1 #
coedge $-1 -1 $-1 $553 $557 $492 $532 reversed $564 $-1 #
edge $-1 -1 $-1 $533 0 $536 1.2000000000000004 $531 $565 forward @7 tangent #
vertex $-1 -1 $-1 $563 $566 #
ellipse-curve $-1 -1 $-1 6.000000000000005329 -1.515999999999999126 4 1 0 0 0 4.715999999999999304 0 1 I I #
coedge $-1 -1 $-1 $496 $494 $547 $567 reversed $439 $-1 #
vertex $-1 -1 $-1 $495 $568 #
ellipse-curve $-1 -1 $-1 -6.000000000000005329 -1.515999999999999126 4 1 0 0 0 4.715999999999999304 0 1 I I #
ellipse-curve $-1 -1 $-1 5.999999999999996447 -1.516000000000001569 -4.000000000000002665 -1 0 -9.251858538542970348e-17 0 4.71600000000000108 2.220446049250313081e-15 1 I I #
coedge $-1 -1 $-1 $557 $553 $504 $540 reversed $564 $-1 #
edge $-1 -1 $-1 $506 0 $516 1.200000000000000178 $539 $569 forward @7 tangent #
point $-1 -1 $-1 -6.000000000000001776 3.200000000000000622 -4 #
edge $-1 -1 $-1 $545 0 $549 1.2000000000000004 $527 $570 forward @7 tangent #
coedge $-1 -1 $-1 $509 $514 $530 $563 reversed $515 $-1 #
DXID-attrib $-1 -1 $-1 $-1 $510 @10 ASM ENTITY @36 accc276d-22f8-49cd-8fa0-caeb688f1493 #
vertex $-1 -1 $-1 $542 $571 #
straight-curve $-1 -1 $-1 6 0 -3.999999999999999112 2.775557561562891745e-15 0 10 F 0 F 0.7999999999999999334 #
coedge $-1 -1 $-1 $518 $511 $535 $567 forward $519 $-1 #
DXID-attrib $-1 -1 $-1 $-1 $512 @10 ASM ENTITY @36 0b6ad59c-986b-4a44-b400-d09cde3625f0 #
vertex $-1 -1 $-1 $528 $572 #
straight-curve $-1 -1 $-1 -6.000000000000001776 0 4 0 0 -10 F 0 F 0.8000000000000000444 #
DXID-attrib $-1 -1 $-1 $-1 $513 @10 ASM ENTITY @36 43f7f581-b5a6-4d7d-aa05-ec082fcba1b3 #
plane-surface $-1 -1 $-1 -5.551115123125782702e-16 0 3.381133756812976199e-16 0 1 0 0 0 10 forward_v I I I I #
coedge $-1 -1 $-1 $539 $531 $514 $554 reversed $564 $-1 #
edge $573 -1 $-1 $516 0 $533 0.7999999999999999334 $514 $574 forward @7 unknown #
face $575 -1 $-1 $576 $515 $5 $-1 $577 forward single #
point $-1 -1 $-1 6 3.200000000000000622 -3.999999999999999112 #
coedge $-1 -1 $-1 $531 $539 $518 $558 reversed $564 $-1 #
edge $578 -1 $-1 $536 0 $506 0.8000000000000000444 $518 $579 forward @7 unknown #
DXID-attrib $-1 -1 $-1 $-1 $522 @10 ASM ENTITY @36 f82d0021-4628-409a-ae17-32d3a2158330 #
plane-surface $-1 -1 $-1 -6.000000000000001776 0 4 -1 0 0 0 0 10 forward_v I I I I #
ellipse-curve $-1 -1 $-1 -6.000000000000001776 -1.515999999999999126 4 1 0 0 0 1.51599999999999957 0 1 I I #
ellipse-curve $-1 -1 $-1 6.000000000000005329 -1.515999999999999126 4 -1 0 0 0 1.161323375768370303 0.9744660162847929019 1 I I #
edge $-1 -1 $-1 $545 0 $533 0.3200000000000000622 $543 $580 forward @7 tangent #
loop $-1 -1 $-1 $-1 $557 $576 #
straight-curve $-1 -1 $-1 6.000000000000001776 3.200000000000000622 4 -10 0 0 F 0 F 1.2000000000000004 #
point $-1 -1 $-1 6.000000000000001776 3.200000000000000622 4 #
edge $-1 -1 $-1 $549 0 $536 0.3200000000000000622 $535 $581 forward @7 tangent #
point $-1 -1 $-1 -6.000000000000001776 3.200000000000000622 4 #
straight-curve $-1 -1 $-1 -6.000000000000001776 3.200000000000000622 -4 10 0 9.251858538542969855e-16 F 0 F 1.200000000000000178 #
straight-curve $-1 -1 $-1 6.000000000000001776 0 4 -10 0 0 F 0 F 1.2000000000000004 #
point $-1 -1 $-1 6.000000000000001776 0 4 #
point $-1 -1 $-1 -6.000000000000001776 0 4 #
DXID-attrib $-1 -1 $-1 $-1 $554 @10 ASM ENTITY @36 e4d37c9f-200e-4472-9c4e-76c37d6547e4 #
straight-curve $-1 -1 $-1 6 3.200000000000000622 -3.999999999999999112 2.775557561562891745e-15 0 10 F 0 F 0.7999999999999999334 #
DXID-attrib $-1 -1 $-1 $-1 $555 @10 ASM ENTITY @36 5a0daedc-e45e-4fc5-ad9c-dbb606969878 #
face $582 -1 $-1 $513 $564 $5 $-1 $583 forward single #
plane-surface $-1 -1 $-1 6 0 -3.999999999999999112 1 0 -2.775557561562891844e-16 -2.775557561562891745e-15 0 -10 forward_v I I I I #
DXID-attrib $-1 -1 $-1 $-1 $558 @10 ASM ENTITY @36 cd65df48-1f57-4163-9a6d-efa70f0fbec7 #
straight-curve $-1 -1 $-1 -6.000000000000001776 3.200000000000000622 4 0 0 -10 F 0 F 0.8000000000000000444 #
straight-curve $-1 -1 $-1 6.000000000000001776 0 4 0 10 0 I I #
straight-curve $-1 -1 $-1 -6.000000000000001776 0 4 0 10 0 I I #
DXID-attrib $-1 -1 $-1 $-1 $576 @10 ASM ENTITY @36 ce4f2b2b-92bd-4793-adc2-3959fbaa3b82 #
plane-surface $-1 -1 $-1 -5.551115123125782702e-16 3.200000000000000622 2.977416293312919634e-16 0 1 0 0 0 10 forward_v I I I I #
End-of-ACIS-data 