700 0 1 0           
30 Autodesk Translation Framework 20 ASM 226.6.1.65535 NT 24 Wed Jul 29 14:36:54 2026 
1 9.999999999999999547e-07 1.000000000000000036e-10 
body $1 -1 $-1 $2 $-1 $3 #
rgb_color-st-attrib $-1 -1 $4 $-1 $0 0.7450980392156862919 0.737254901960784359 0.7294117647058823151 #
lump $-1 -1 $-1 $-1 $5 $0 #
transform $-1 -1 1 0 0 0 1 0 0 0 1 0 0 0 1 no_rotate no_reflect no_shear #
DXID-attrib $-1 -1 $-1 $1 $0 @10 ASM ENTITY @121 SP8V1 CONDUCTOR HEXAGONAL FRENO.IPT|:|8439D0C2C7441672AFB6F577862470720CD1C2E5|:|DA4B9237BACCCDF19C0760CAB7AEC4A8359010B0 #
shell $-1 -1 $-1 $-1 $-1 $6 $-1 $2 #
face $7 -1 $-1 $8 $9 $5 $-1 $10 reversed single #
DXID-attrib $-1 -1 $-1 $-1 $6 @10 ASM ENTITY @36 08cb1173-b306-4918-9650-c85f1489da63 #
face $11 -1 $-1 $12 $13 $5 $-1 $14 reversed single #
loop $-1 -1 $-1 $-1 $15 $6 #
plane-surface $-1 -1 $-1 -4.618802153517002296 -2.350000000000000089 -33 0 0 -1 -10 0 0 forward_v I I I I #
DXID-attrib $-1 -1 $-1 $-1 $8 @10 ASM ENTITY @36 e3dd904d-3131-4b39-a0a8-c8976e5df76b #
face $16 -1 $-1 $17 $18 $5 $-1 $19 reversed single #
loop $-1 -1 $-1 $-1 $20 $8 #
plane-surface $-1 -1 $-1 4.618802153517005848 -2.350000000000000089 -33 0.8660254037844387076 0 -0.5 -5 0 -8.660254037844387298 forward_v I I I I #
coedge $-1 -1 $-1 $21 $22 $23 $24 reversed $9 $-1 #
DXID-attrib $-1 -1 $-1 $-1 $12 @10 ASM ENTITY @36 efdb0df3-6ea4-4133-b711-6f7ad778030a #
face $25 -1 $-1 $26 $27 $5 $-1 $28 reversed single #
loop $-1 -1 $-1 $-1 $29 $12 #
plane-surface $-1 -1 $-1 9.237604307034011697 -2.350000000000000089 -25.00000000000000355 0.8660254037844390407 0 0.4999999999999993894 4.999999999999993783 0 -8.660254037844390851 forward_v I I I I #
coedge $-1 -1 $-1 $30 $31 $32 $33 reversed $13 $-1 #
coedge $-1 -1 $-1 $34 $15 $35 $36 reversed $9 $-1 #
coedge $-1 -1 $-1 $15 $34 $30 $37 forward $9 $-1 #
coedge $-1 -1 $-1 $32 $38 $15 $24 forward $39 $-1 #
edge $-1 -1 $-1 $40 -0.2310225069882844984 $41 0.6927379237151163327 $23 $42 forward @7 unknown #
DXID-attrib $-1 -1 $-1 $-1 $17 @10 ASM ENTITY @36 f37a5155-e691-4346-999e-3ee0a283c7d8 #
face $43 -1 $-1 $44 $45 $5 $-1 $46 reversed single #
loop $-1 -1 $-1 $-1 $47 $17 #
plane-surface $-1 -1 $-1 4.618802153517012066 -2.350000000000000089 -17.00000000000000355 9.614813431917826478e-16 0 1 10 0 -9.614813431917827266e-15 forward_v I I I I #
coedge $-1 -1 $-1 $48 $49 $50 $51 reversed $18 $-1 #
coedge $-1 -1 $-1 $52 $20 $22 $37 reversed $13 $-1 #
coedge $-1 -1 $-1 $20 $52 $48 $53 forward $13 $-1 #
coedge $-1 -1 $-1 $50 $23 $20 $33 forward $39 $-1 #
edge $-1 -1 $-1 $41 -1.326832921141976041 $54 -0.4030724904385751262 $32 $55 forward @7 unknown #
coedge $-1 -1 $-1 $22 $21 $56 $57 reversed $9 $-1 #
coedge $-1 -1 $-1 $58 $59 $21 $36 forward $60 $-1 #
edge $61 -1 $-1 $62 0 $40 0.4700000000000000289 $21 $63 forward @7 unknown #
edge $64 -1 $-1 $65 0 $41 0.4700000000000000289 $30 $66 forward @7 unknown #
coedge $-1 -1 $-1 $23 $67 $58 $68 forward $39 $-1 #
loop $-1 -1 $-1 $69 $23 $70 #
vertex $-1 -1 $-1 $24 $71 #
vertex $-1 -1 $-1 $24 $72 #
straight-curve $-1 -1 $-1 -2.308577083634157034 2.350000000000000089 -33 10 0 0 I I #
DXID-attrib $-1 -1 $-1 $-1 $26 @10 ASM ENTITY @36 20b5a8b5-1014-4412-ab55-990c08af341c #
face $73 -1 $-1 $74 $60 $5 $-1 $75 reversed single #
loop $-1 -1 $-1 $-1 $76 $26 #
plane-surface $-1 -1 $-1 -4.618802153516994302 -2.350000000000000089 -16.99999999999999645 -0.8660254037844384856 0 0.5000000000000004441 5.000000000000004441 0 8.660254037844385522 forward_v I I I I #
coedge $-1 -1 $-1 $77 $78 $79 $80 reversed $27 $-1 #
coedge $-1 -1 $-1 $81 $29 $31 $53 reversed $18 $-1 #
coedge $-1 -1 $-1 $29 $81 $77 $82 forward $18 $-1 #
coedge $-1 -1 $-1 $79 $32 $29 $51 forward $39 $-1 #
edge $-1 -1 $-1 $54 -1.326750521829541896 $83 -0.4029900911261410368 $50 $84 forward @7 unknown #
coedge $-1 -1 $-1 $31 $30 $85 $86 reversed $13 $-1 #
edge $87 -1 $-1 $88 0 $54 0.4700000000000000289 $48 $89 forward @7 unknown #
vertex $-1 -1 $-1 $33 $90 #
straight-curve $-1 -1 $-1 11.2529667592268865 2.350000000000000533 -21.50928983713534137 5 0 8.660254037844387298 I I #
coedge $-1 -1 $-1 $91 $85 $34 $57 forward $92 $-1 #
edge $-1 -1 $-1 $65 -0.6927379237151163327 $62 0.2310225069882844984 $56 $93 forward @7 unknown #
coedge $-1 -1 $-1 $94 $35 $38 $68 reversed $60 $-1 #
coedge $-1 -1 $-1 $35 $94 $91 $95 reversed $60 $-1 #
loop $-1 -1 $-1 $-1 $58 $44 #
DXID-attrib $-1 -1 $-1 $-1 $36 @10 ASM ENTITY @36 3690b0c0-0eae-44a1-8f29-947ee609bf87 #
vertex $-1 -1 $-1 $36 $96 #
straight-curve $-1 -1 $-1 -4.618802153517002296 -2.350000000000000089 -33 0 10 0 I I #
DXID-attrib $-1 -1 $-1 $-1 $37 @10 ASM ENTITY @36 08772a40-f291-4fc5-9b4a-a5dfaf9a26cd #
vertex $-1 -1 $-1 $57 $97 #
straight-curve $-1 -1 $-1 4.618802153517005848 -2.350000000000000089 -33 0 10 0 I I #
coedge $-1 -1 $-1 $38 $79 $76 $98 forward $39 $-1 #
edge $-1 -1 $-1 $99 0.864870306477840578 $40 1.78863073718124177 $38 $100 forward @7 unknown #
loop $-1 -1 $-1 $101 $102 $70 #
face $103 -1 $-1 $-1 $39 $5 $-1 $104 forward single #
point $-1 -1 $-1 -4.618802153517002296 2.350000000000000089 -33 #
point $-1 -1 $-1 4.618802153517005848 2.350000000000000089 -33 #
DXID-attrib $-1 -1 $-1 $-1 $44 @10 ASM ENTITY @36 902ea113-b24a-45b8-89ea-967cc78a8d41 #
face $105 -1 $-1 $106 $107 $5 $-1 $108 reversed single #
plane-surface $-1 -1 $-1 -9.237604307034011697 -2.350000000000000089 -25.00000000000000355 -0.8660254037844384856 0 -0.5000000000000003331 -5.000000000000003553 0 8.660254037844385522 forward_v I I I I #
coedge $-1 -1 $-1 $109 $110 $67 $98 reversed $45 $-1 #
coedge $-1 -1 $-1 $111 $47 $49 $82 reversed $27 $-1 #
coedge $-1 -1 $-1 $47 $111 $109 $112 forward $27 $-1 #
coedge $-1 -1 $-1 $67 $50 $47 $80 forward $39 $-1 #
edge $-1 -1 $-1 $83 -0.2308577083634170413 $113 0.6929027223399836233 $79 $114 forward @7 unknown #
coedge $-1 -1 $-1 $49 $48 $115 $116 reversed $18 $-1 #
edge $117 -1 $-1 $118 0 $83 0.4700000000000000289 $77 $119 forward @7 unknown #
vertex $-1 -1 $-1 $51 $120 #
straight-curve $-1 -1 $-1 2.603851697886310212 2.350000000000000089 -13.51000343611356236 -4.999999999999993783 0 8.660254037844390851 I I #
coedge $-1 -1 $-1 $56 $115 $52 $86 forward $92 $-1 #
edge $-1 -1 $-1 $88 0.4030724904385751262 $65 1.326832921141976041 $85 $121 forward @7 unknown #
DXID-attrib $-1 -1 $-1 $-1 $53 @10 ASM ENTITY @36 6e0e8804-834e-4759-86dc-9b1437dd5d62 #
vertex $-1 -1 $-1 $86 $122 #
straight-curve $-1 -1 $-1 9.237604307034011697 -2.350000000000000089 -25.00000000000000355 0 10 0 I I #
point $-1 -1 $-1 9.237604307034011697 2.350000000000000089 -25.00000000000000355 #
coedge $-1 -1 $-1 $123 $56 $59 $95 forward $92 $-1 #
loop $-1 -1 $-1 $124 $56 $125 #
straight-curve $-1 -1 $-1 -2.308577083634157034 -2.350000000000000089 -33 -10 0 0 I I #
coedge $-1 -1 $-1 $59 $58 $110 $126 reversed $60 $-1 #
edge $-1 -1 $-1 $62 -1.78863073718124177 $127 -0.864870306477840578 $91 $128 forward @7 unknown #
point $-1 -1 $-1 -4.618802153517002296 -2.350000000000000089 -33 #
point $-1 -1 $-1 4.618802153517005848 -2.350000000000000089 -33 #
edge $-1 -1 $-1 $113 0.8649527057902747229 $99 1.788713136493677247 $67 $129 forward @7 unknown #
vertex $-1 -1 $-1 $98 $130 #
straight-curve $-1 -1 $-1 -13.56195583942321647 2.350000000000000533 -17.51000343611357479 5.000000000000003553 0 -8.660254037844385522 I I #
loop $-1 -1 $-1 $-1 $131 $70 #
coedge $-1 -1 $-1 $102 $102 $132 $133 forward $69 $-1 #
DXID-attrib $-1 -1 $-1 $-1 $70 @10 ASM ENTITY @36 3492b268-ba83-4029-8cc7-aeaa99ea399a #
plane-surface $-1 -1 $-1 0.0016479862486878721 2.350000000000000089 0.3076089690014546796 0 1 0 0 0 10 forward_v I I I I #
DXID-attrib $-1 -1 $-1 $-1 $74 @10 ASM ENTITY @36 6fbb9c80-a08f-4486-8288-5bdcd87540e7 #
face $134 -1 $-1 $135 $136 $5 $-1 $137 forward single #
loop $-1 -1 $-1 $138 $132 $74 #
cone-surface $-1 -1 $-1 0 -2.350000000000000089 0 0 1 0 3.000000000000000444 0 0 1 I I 0 1 3.000000000000000444 forward I I I I #
coedge $-1 -1 $-1 $139 $76 $78 $112 reversed $45 $-1 #
coedge $-1 -1 $-1 $76 $139 $94 $126 forward $45 $-1 #
coedge $-1 -1 $-1 $78 $77 $140 $141 reversed $27 $-1 #
edge $142 -1 $-1 $143 0 $113 0.4700000000000000289 $109 $144 forward @7 unknown #
vertex $-1 -1 $-1 $80 $145 #
straight-curve $-1 -1 $-1 2.310225069882841709 2.350000000000000089 -17 -10 0 9.614813431917827266e-15 I I #
coedge $-1 -1 $-1 $85 $140 $81 $116 forward $92 $-1 #
edge $-1 -1 $-1 $118 0.4029900911261410368 $88 1.326750521829541896 $115 $146 forward @7 unknown #
DXID-attrib $-1 -1 $-1 $-1 $82 @10 ASM ENTITY @36 eb96923e-f8a4-48ae-9a01-6ac87d4c9dbe #
vertex $-1 -1 $-1 $116 $147 #
straight-curve $-1 -1 $-1 4.618802153517012066 -2.350000000000000089 -17.00000000000000355 0 10 0 I I #
point $-1 -1 $-1 4.618802153517012066 2.350000000000000089 -17.00000000000000355 #
straight-curve $-1 -1 $-1 11.2529667592268865 -2.350000000000000089 -21.50928983713534137 -5 0 -8.660254037844387298 I I #
point $-1 -1 $-1 9.237604307034011697 -2.350000000000000089 -25.00000000000000355 #
coedge $-1 -1 $-1 $140 $91 $139 $148 forward $92 $-1 #
loop $-1 -1 $-1 $149 $150 $125 #
face $151 -1 $-1 $70 $92 $5 $-1 $152 reversed single #
edge $153 -1 $-1 $127 0 $99 0.4700000000000000289 $94 $154 forward @7 unknown #
vertex $-1 -1 $-1 $148 $155 #
straight-curve $-1 -1 $-1 -13.56195583942321647 -2.350000000000000089 -17.51000343611357479 -5.000000000000003553 0 8.660254037844385522 I I #
straight-curve $-1 -1 $-1 -0.2940386245656179121 2.350000000000000533 -9.509289837135344925 -5.000000000000004441 0 -8.660254037844385522 I I #
point $-1 -1 $-1 -9.237604307034011697 2.350000000000000089 -25.00000000000000355 #
coedge $-1 -1 $-1 $156 $157 $158 $159 reversed $101 $-1 #
coedge $-1 -1 $-1 $132 $132 $102 $133 reversed $107 $-1 #
edge $-1 -1 $-1 $160 -3.141592653589793116 $160 3.141592653589793116 $102 $161 forward @7 unknown #
DXID-attrib $-1 -1 $-1 $-1 $106 @10 ASM ENTITY @36 f64c6698-6b69-4c06-8beb-e90446c929b7 #
face $162 -1 $-1 $163 $164 $5 $-1 $165 forward single #
loop $-1 -1 $-1 $-1 $166 $106 #
plane-surface $-1 -1 $-1 -6.215432406518470287 -2.350000000000000089 3.219999999999997975 -0.8879189152169247867 0 0.4599999999999996869 4.59999999999999698 0 8.879189152169248089 forward_v I I I I #
loop $-1 -1 $-1 $-1 $167 $74 #
coedge $-1 -1 $-1 $110 $109 $123 $148 reversed $45 $-1 #
coedge $-1 -1 $-1 $115 $123 $111 $141 forward $92 $-1 #
edge $-1 -1 $-1 $143 -0.6929027223399836233 $118 0.2308577083634170413 $140 $168 forward @7 unknown #
DXID-attrib $-1 -1 $-1 $-1 $112 @10 ASM ENTITY @36 8138b313-8f2d-4e75-ae4f-d7f3277dd34a #
vertex $-1 -1 $-1 $141 $169 #
straight-curve $-1 -1 $-1 -4.618802153516994302 -2.350000000000000089 -16.99999999999999645 0 10 0 I I #
point $-1 -1 $-1 -4.618802153516994302 2.350000000000000089 -16.99999999999999645 #
straight-curve $-1 -1 $-1 2.603851697886310212 -2.350000000000000089 -13.51000343611356236 4.999999999999993783 0 -8.660254037844390851 I I #
point $-1 -1 $-1 4.618802153517012066 -2.350000000000000089 -17.00000000000000355 #
edge $-1 -1 $-1 $127 -1.788713136493677247 $143 -0.8649527057902747229 $123 $170 forward @7 unknown #
loop $-1 -1 $-1 $-1 $171 $125 #
coedge $-1 -1 $-1 $150 $150 $167 $172 forward $124 $-1 #
DXID-attrib $-1 -1 $-1 $-1 $125 @10 ASM ENTITY @36 045be648-d7ea-4e21-b5f9-6a35026b4db9 #
plane-surface $-1 -1 $-1 0.0016479862486878721 -2.350000000000000089 0.3076089690014546796 0 1 0 0 0 10 forward_v I I I I #
DXID-attrib $-1 -1 $-1 $-1 $126 @10 ASM ENTITY @36 8abe5031-3cf1-4cd4-9895-1acf864c4929 #
straight-curve $-1 -1 $-1 -9.237604307034011697 -2.350000000000000089 -25.00000000000000355 0 10 0 I I #
point $-1 -1 $-1 -9.237604307034011697 -2.350000000000000089 -25.00000000000000355 #
coedge $-1 -1 $-1 $173 $131 $174 $175 reversed $101 $-1 #
coedge $-1 -1 $-1 $131 $173 $166 $176 reversed $101 $-1 #
coedge $-1 -1 $-1 $177 $178 $131 $159 forward $179 $-1 #
edge $180 -1 $-1 $181 -2.674312165292608512 $182 -0.477995198518952169 $158 $183 forward @7 unknown #
vertex $-1 -1 $-1 $133 $184 #
ellipse-curve $-1 -1 $-1 0 2.350000000000000089 0 -0 -1 -0 3.000000000000000444 0 0 1 I I #
DXID-attrib $-1 -1 $-1 $-1 $135 @10 ASM ENTITY @36 ed8787d9-68dd-48a6-8f03-92f0499319ac #
face $185 -1 $-1 $186 $187 $5 $-1 $188 forward single #
loop $-1 -1 $-1 $-1 $189 $135 #
cone-surface $-1 -1 $-1 0 -2.350000000000000089 -25 0 1 0 -18.5 0 0 1 I I 0 1 18.5 forward I I I I #
coedge $-1 -1 $-1 $190 $191 $157 $176 forward $136 $-1 #
coedge $-1 -1 $-1 $167 $167 $150 $172 reversed $138 $-1 #
straight-curve $-1 -1 $-1 2.310225069882841709 -2.350000000000000089 -17 10 0 -9.614813431917827266e-15 I I #
point $-1 -1 $-1 -4.618802153516994302 -2.350000000000000089 -16.99999999999999645 #
straight-curve $-1 -1 $-1 -0.2940386245656179121 -2.350000000000000089 -9.509289837135344925 5.000000000000004441 0 8.660254037844385522 I I #
coedge $-1 -1 $-1 $192 $193 $194 $195 reversed $149 $-1 #
edge $-1 -1 $-1 $196 -3.141592653589793116 $196 3.141592653589793116 $150 $197 forward @7 unknown #
coedge $-1 -1 $-1 $157 $156 $189 $198 reversed $101 $-1 #
coedge $-1 -1 $-1 $199 $200 $156 $175 forward $187 $-1 #
edge $201 -1 $-1 $202 -2.528093440158565297 $181 -4.956016815421643614e-17 $174 $203 forward @7 unknown #
edge $204 -1 $-1 $182 -2.219797288042311578 $205 0 $166 $206 forward @7 unknown #
coedge $-1 -1 $-1 $194 $158 $191 $207 reversed $179 $-1 #
coedge $-1 -1 $-1 $158 $194 $199 $208 forward $179 $-1 #
loop $-1 -1 $-1 $-1 $177 $186 #
DXID-attrib $-1 -1 $-1 $-1 $159 @10 ASM ENTITY @36 fd062e5a-5d03-460f-9e55-f04a488ceb29 #
vertex $-1 -1 $-1 $175 $209 #
vertex $-1 -1 $-1 $176 $210 #
ellipse-curve $-1 -1 $-1 0 2.350000000000000089 0 0 -1 0 -7.000000000000000888 0 0 1 I I #
point $-1 -1 $-1 -3.000000000000000444 2.350000000000000089 3.673940397442060361e-16 #
DXID-attrib $-1 -1 $-1 $-1 $163 @10 ASM ENTITY @36 d0eeff2f-86d1-475e-a941-b4fffa4dfa0e #
face $211 -1 $-1 $125 $179 $5 $-1 $212 forward single #
loop $-1 -1 $-1 $-1 $174 $163 #
plane-surface $-1 -1 $-1 17.6376256226157615 -2.350000000000000089 -19.41751288434553402 0.8927966193269930573 0 0.4504599832596589137 4.504599832596588804 0 -8.927966193269931239 forward_v I I I I #
coedge $-1 -1 $-1 $213 $214 $173 $198 forward $164 $-1 #
coedge $-1 -1 $-1 $215 $166 $214 $216 reversed $136 $-1 #
coedge $-1 -1 $-1 $166 $215 $177 $207 forward $136 $-1 #
coedge $-1 -1 $-1 $217 $171 $215 $218 reversed $149 $-1 #
coedge $-1 -1 $-1 $171 $217 $219 $220 reversed $149 $-1 #
coedge $-1 -1 $-1 $178 $177 $171 $195 forward $179 $-1 #
edge $221 -1 $-1 $222 0.477995198518952169 $223 2.674312165292608512 $194 $224 forward @7 unknown #
vertex $-1 -1 $-1 $172 $225 #
ellipse-curve $-1 -1 $-1 0 -2.350000000000000089 0 0 1 0 3.000000000000000444 0 0 1 I I #
edge $226 -1 $-1 $205 -0.4779951985189524466 $202 3.448126693199468296 $189 $227 forward @7 unknown #
coedge $-1 -1 $-1 $219 $174 $178 $208 reversed $187 $-1 #
coedge $-1 -1 $-1 $174 $219 $213 $228 forward $187 $-1 #
DXID-attrib $-1 -1 $-1 $-1 $175 @10 ASM ENTITY @36 682d1747-96e1-4528-a8dd-f4e0b6e1a2a2 #
vertex $-1 -1 $-1 $198 $229 #
straight-curve $-1 -1 $-1 6.249576335288951512 2.350000000000000089 3.153219882817612785 -4.504599832596588804 0 8.927966193269931239 F -2.528093440158565297 F -0 #
DXID-attrib $-1 -1 $-1 $-1 $176 @10 ASM ENTITY @36 dfa49f62-77df-4ba6-88a2-d1e3240e0277 #
vertex $-1 -1 $-1 $176 $230 #
straight-curve $-1 -1 $-1 -16.42649993151309573 2.350000000000000089 -16.49000000000000554 -4.59999999999999698 0 -8.879189152169248089 F -2.219797288042311578 F -0 #
edge $-1 -1 $-1 $222 0 $182 0.4700000000000000289 $177 $231 forward @7 tangent #
edge $-1 -1 $-1 $223 0 $181 0.4700000000000000289 $178 $232 forward @7 tangent #
point $-1 -1 $-1 6.249576335288951512 2.350000000000000089 3.153219882817612341 #
point $-1 -1 $-1 -6.215432406518470287 2.350000000000000089 3.219999999999997975 #
DXID-attrib $-1 -1 $-1 $-1 $186 @10 ASM ENTITY @36 98d30341-2bac-422a-81ee-fc41b11a4c85 #
cone-surface $-1 -1 $-1 0 -2.350000000000000089 0 0 1 0 -7.000000000000000888 0 0 1 I I 0 1 7.000000000000000888 forward I I I I #
coedge $-1 -1 $-1 $233 $189 $200 $228 reversed $164 $-1 #
coedge $-1 -1 $-1 $189 $233 $190 $216 forward $164 $-1 #
coedge $-1 -1 $-1 $191 $190 $192 $218 forward $136 $-1 #
edge $234 -1 $-1 $235 0 $205 0.4700000000000000289 $214 $236 forward @7 tangent #
coedge $-1 -1 $-1 $193 $192 $233 $237 reversed $149 $-1 #
edge $238 -1 $-1 $235 0 $222 2.219797288042311578 $215 $239 forward @7 unknown #
coedge $-1 -1 $-1 $200 $199 $193 $220 forward $187 $-1 #
edge $240 -1 $-1 $223 4.956016815421643614e-17 $241 2.528093440158565297 $219 $242 forward @7 unknown #
DXID-attrib $-1 -1 $-1 $-1 $195 @10 ASM ENTITY @36 85c08f56-2818-4b97-80e1-5f3bf550b8f6 #
vertex $-1 -1 $-1 $218 $243 #
vertex $-1 -1 $-1 $208 $244 #
ellipse-curve $-1 -1 $-1 0 -2.350000000000000089 0 0 1 0 -7.000000000000000888 0 0 1 I I #
point $-1 -1 $-1 -3.000000000000000444 -2.350000000000000089 3.673940397442060361e-16 #
DXID-attrib $-1 -1 $-1 $-1 $198 @10 ASM ENTITY @36 6370e2a6-a21a-4f30-84fe-e42779774a12 #
ellipse-curve $-1 -1 $-1 0 2.350000000000000089 -25 0 -1 0 -18.5 0 0 1 I I #
edge $245 -1 $-1 $241 0 $202 0.4700000000000000289 $200 $246 forward @7 unknown #
point $-1 -1 $-1 17.6376256226157615 2.350000000000000089 -19.41751288434553402 #
point $-1 -1 $-1 -16.42649993151309573 2.350000000000000089 -16.49000000000000554 #
straight-curve $-1 -1 $-1 -6.215432406518470287 -2.350000000000000089 3.219999999999996199 0 10 0 I I #
straight-curve $-1 -1 $-1 6.2495763352889524 -2.350000000000000089 3.153219882817610564 0 10 0 I I #
coedge $-1 -1 $-1 $214 $213 $217 $237 forward $164 $-1 #
DXID-attrib $-1 -1 $-1 $-1 $216 @10 ASM ENTITY @36 47c1ad8b-1b88-432b-928f-e59391e8070d #
vertex $-1 -1 $-1 $216 $247 #
straight-curve $-1 -1 $-1 -16.42649993151309573 -2.350000000000000089 -16.49000000000000554 0 10 0 I I #
edge $248 -1 $-1 $241 2.835058613980117936 $235 6.761180505698538568 $233 $249 forward @7 unknown #
DXID-attrib $-1 -1 $-1 $-1 $218 @10 ASM ENTITY @36 3f6ff45e-7004-4292-a2ac-abaf8eb8d58f #
straight-curve $-1 -1 $-1 -16.42649993151309573 -2.350000000000000089 -16.49000000000000554 4.59999999999999698 0 8.879189152169248089 F 0 F 2.219797288042311578 #
DXID-attrib $-1 -1 $-1 $-1 $220 @10 ASM ENTITY @36 242f255e-4dc7-4d53-8c1d-4f35d69f68e4 #
vertex $-1 -1 $-1 $228 $250 #
straight-curve $-1 -1 $-1 6.249576335288951512 -2.350000000000000089 3.153219882817612785 4.504599832596588804 0 -8.927966193269931239 F 0 F 2.528093440158565297 #
point $-1 -1 $-1 -6.215432406518470287 -2.350000000000000089 3.219999999999997975 #
point $-1 -1 $-1 6.249576335288951512 -2.350000000000000089 3.153219882817612341 #
DXID-attrib $-1 -1 $-1 $-1 $228 @10 ASM ENTITY @36 9757bf37-ee24-4cab-8c8f-b214d8b96ada #
straight-curve $-1 -1 $-1 17.6376256226157615 -2.350000000000000089 -19.41751288434553402 0 10 0 I I #
point $-1 -1 $-1 -16.42649993151309573 -2.350000000000000089 -16.49000000000000554 #
DXID-attrib $-1 -1 $-1 $-1 $237 @10 ASM ENTITY @36 d5423962-7498-4003-b144-213bef8a0b2e #
ellipse-curve $-1 -1 $-1 0 -2.350000000000000089 -25 0 1 0 -18.5 0 0 1 I I #
point $-1 -1 $-1 17.6376256226157615 -2.350000000000000089 -19.41751288434553402 #
End-of-ACIS-data 