700 0 1 0           
30 Autodesk Translation Framework 20 ASM 226.6.1.65535 NT 24 Wed Jul 29 14:37:22 2026 
1 9.999999999999999547e-07 1.000000000000000036e-10 
body $1 -1 $-1 $2 $-1 $3 #
rgb_color-st-attrib $-1 -1 $4 $-1 $0 0.7490196078431372584 0.7490196078431372584 0.7490196078431372584 #
lump $-1 -1 $-1 $-1 $5 $0 #
transform $-1 -1 1 0 0 0 1 0 0 0 1 0 0 0 1 no_rotate no_reflect no_shear #
DXID-attrib $-1 -1 $-1 $1 $0 @10 ASM ENTITY @109 SP9V1 COLUMNA FRENO.IPT|:|F6F9323F43CA8F3874F5C591A0C31B4DD9B60DA7|:|DA4B9237BACCCDF19C0760CAB7AEC4A8359010B0 #
shell $-1 -1 $-1 $-1 $-1 $6 $-1 $2 #
face $7 -1 $-1 $8 $9 $5 $-1 $10 forward single #
DXID-attrib $-1 -1 $-1 $-1 $6 @10 ASM ENTITY @36 2c896c54-e567-45d1-9890-50ce1a755ba7 #
face $11 -1 $-1 $12 $13 $5 $-1 $14 forward single #
loop $-1 -1 $-1 $-1 $15 $6 #
cone-surface $-1 -1 $-1 6.088011646725567161 -15.14047733906688364 -1.600000000000000311 0 0 1 -1.414213562373094479 1.414213562373096256 0 1 I I 0 1 2.000000000000000444 forward I I I I #
DXID-attrib $-1 -1 $-1 $-1 $8 @10 ASM ENTITY @36 270648a3-a117-4e20-82d2-b47ba2a12965 #
face $16 -1 $-1 $17 $18 $5 $-1 $19 forward single #
loop $-1 -1 $-1 $-1 $20 $8 #
plane-surface $-1 -1 $-1 4.088011646725567161 -13.14047733906688542 -1.600000000000000311 2.883054923313528468e-16 1 0 0 0 10 forward_v I I I I #
coedge $-1 -1 $-1 $21 $22 $23 $24 forward $9 $-1 #
DXID-attrib $-1 -1 $-1 $-1 $12 @10 ASM ENTITY @36 270af758-f115-44e5-ad59-75fef5988743 #
face $25 -1 $-1 $26 $27 $5 $-1 $28 forward single #
loop $-1 -1 $-1 $-1 $23 $12 #
plane-surface $-1 -1 $-1 60.44821095262559396 -14.54491051317715034 1.600000000000000311 0 0 1 10 0 0 forward_v I I I I #
coedge $-1 -1 $-1 $29 $30 $21 $31 reversed $13 $-1 #
coedge $-1 -1 $-1 $32 $15 $20 $31 forward $9 $-1 #
coedge $-1 -1 $-1 $15 $32 $33 $34 forward $9 $-1 #
coedge $-1 -1 $-1 $35 $36 $15 $24 reversed $18 $-1 #
edge $-1 -1 $-1 $37 -0.7853981633974489451 $38 0.7853981633974495002 $23 $39 forward @7 unknown #
DXID-attrib $-1 -1 $-1 $-1 $17 @10 ASM ENTITY @36 a5da2743-c07f-45a2-8be3-c823c652e065 #
face $40 -1 $-1 $41 $42 $5 $-1 $43 forward single #
loop $-1 -1 $-1 $-1 $44 $17 #
cone-surface $-1 -1 $-1 119.9999999999997868 -8.965022791482926579 -1.600000000000000311 0 0 1 1.529614714440458378 -1.288518073356844873 0 1 I I 0 1 2 forward I I I I #
coedge $-1 -1 $-1 $45 $20 $36 $46 forward $13 $-1 #
coedge $-1 -1 $-1 $20 $45 $47 $48 forward $13 $-1 #
edge $-1 -1 $-1 $38 -0.3200000000000000622 $49 0 $20 $50 forward @7 tangent #
coedge $-1 -1 $-1 $22 $21 $51 $52 forward $9 $-1 #
coedge $-1 -1 $-1 $53 $54 $22 $34 reversed $55 $-1 #
edge $-1 -1 $-1 $56 0 $37 0.3200000000000000622 $33 $57 forward @7 tangent #
coedge $-1 -1 $-1 $58 $23 $54 $59 reversed $18 $-1 #
coedge $-1 -1 $-1 $23 $60 $29 $46 reversed $18 $-1 #
vertex $-1 -1 $-1 $24 $61 #
vertex $-1 -1 $-1 $24 $62 #
ellipse-curve $-1 -1 $-1 6.088011646725567161 -15.14047733906688364 1.600000000000000311 -0 -0 -1 -1.414213562373094479 1.414213562373096256 0 1 I I #
DXID-attrib $-1 -1 $-1 $-1 $26 @10 ASM ENTITY @36 2c166312-b091-4692-bbfc-bab13333afdf #
face $63 -1 $-1 $64 $65 $5 $-1 $66 forward single #
loop $-1 -1 $-1 $-1 $67 $26 #
plane-surface $-1 -1 $-1 121.9999999999997442 -10.64978440000102466 -1.600000000000000311 0.1698605873163984425 -0.9854681024145471868 0 0 0 -10 forward_v I I I I #
coedge $-1 -1 $-1 $68 $69 $70 $71 forward $27 $-1 #
coedge $-1 -1 $-1 $30 $29 $72 $73 reversed $13 $-1 #
edge $74 -1 $-1 $38 -5.191198835327181627 $75 -0.5999999999998797406 $29 $76 forward @7 unknown #
coedge $-1 -1 $-1 $77 $51 $30 $48 reversed $78 $-1 #
edge $79 -1 $-1 $80 0.5999999999998797406 $49 5.191198835327181627 $30 $81 forward @7 unknown #
vertex $-1 -1 $-1 $31 $82 #
straight-curve $-1 -1 $-1 6.088011646725568937 -13.14047733906688542 -1.600000000000000311 0 0 -10 F -0.9400010000000000865 F 0.6200010000000000243 #
coedge $-1 -1 $-1 $47 $83 $32 $52 reversed $78 $-1 #
edge $-1 -1 $-1 $49 -0.7853981633974495002 $56 0.7853981633974489451 $51 $84 forward @7 unknown #
coedge $-1 -1 $-1 $85 $33 $83 $86 forward $55 $-1 #
coedge $-1 -1 $-1 $33 $85 $35 $59 forward $55 $-1 #
loop $-1 -1 $-1 $-1 $33 $87 #
vertex $-1 -1 $-1 $52 $88 #
straight-curve $-1 -1 $-1 4.088011646725567161 -15.14047733906688364 -1.600000000000000311 0 0 10 F -0.6200010000000000243 F 0.9400010000000000865 #
coedge $-1 -1 $-1 $89 $35 $90 $91 reversed $18 $-1 #
edge $92 -1 $-1 $93 -0.8559307060933105671 $37 -0.1999999999999999556 $54 $94 forward @7 unknown #
coedge $-1 -1 $-1 $36 $95 $96 $97 reversed $18 $-1 #
point $-1 -1 $-1 4.088011646725567161 -15.14047733906688364 1.600000000000000311 #
point $-1 -1 $-1 6.088011646725570714 -13.14047733906688542 1.600000000000000311 #
DXID-attrib $-1 -1 $-1 $-1 $41 @10 ASM ENTITY @36 bca421e5-253d-4579-b759-0f9c88114912 #
face $98 -1 $-1 $99 $100 $5 $-1 $101 forward single #
loop $-1 -1 $-1 $-1 $102 $41 #
cone-surface $-1 -1 $-1 119.9999999999998295 -8.140477339068326046 -1.600000000000000311 0 0 1 1.414213562373121569 1.414213562373068056 0 1 I I 0 1 1.999999999999999778 forward I I I I #
coedge $-1 -1 $-1 $103 $104 $68 $105 reversed $42 $-1 #
coedge $-1 -1 $-1 $106 $44 $67 $105 forward $27 $-1 #
coedge $-1 -1 $-1 $44 $106 $107 $108 forward $27 $-1 #
coedge $-1 -1 $-1 $109 $110 $44 $71 reversed $18 $-1 #
edge $-1 -1 $-1 $111 -0.7000540639401379162 $112 0.7000540639401511278 $70 $113 forward @7 unknown #
coedge $-1 -1 $-1 $96 $114 $45 $73 forward $115 $-1 #
edge $-1 -1 $-1 $80 0 $75 0.3200000000000000622 $45 $116 forward @7 tangent #
DXID-attrib $-1 -1 $-1 $-1 $46 @10 ASM ENTITY @36 5f4783af-29e9-4f18-8fd0-1a2c0440c5c8 #
vertex $-1 -1 $-1 $46 $117 #
straight-curve $-1 -1 $-1 57.9999999999973852 -13.14047733906690141 1.600000000000000311 10 -2.883054923313528271e-15 0 F -5.391198835327181804 F -0 #
coedge $-1 -1 $-1 $118 $47 $114 $119 reversed $78 $-1 #
loop $-1 -1 $-1 $-1 $51 $120 #
DXID-attrib $-1 -1 $-1 $-1 $48 @10 ASM ENTITY @36 c3e7b5a0-9d43-4fe8-b37f-2513436848ce #
vertex $-1 -1 $-1 $73 $121 #
straight-curve $-1 -1 $-1 57.9999999999973852 -13.14047733906690141 -1.600000000000000311 -10 2.883054923313528271e-15 0 F 0 F 5.391198835327181804 #
point $-1 -1 $-1 6.088011646725570714 -13.14047733906688542 -1.600000000000000311 #
coedge $-1 -1 $-1 $51 $122 $53 $86 reversed $78 $-1 #
ellipse-curve $-1 -1 $-1 6.088011646725567161 -15.14047733906688364 -1.600000000000000311 0 0 1 -1.414213562373094479 1.414213562373096256 0 1 I I #
coedge $-1 -1 $-1 $54 $53 $123 $124 forward $55 $-1 #
edge $125 -1 $-1 $56 0.1999999999999999556 $126 0.8559307060933105671 $53 $127 forward @7 unknown #
face $128 -1 $-1 $129 $55 $5 $-1 $130 forward single #
point $-1 -1 $-1 4.088011646725567161 -15.14047733906688364 -1.600000000000000311 #
coedge $-1 -1 $-1 $131 $58 $132 $133 reversed $18 $-1 #
coedge $-1 -1 $-1 $123 $134 $58 $91 forward $135 $-1 #
edge $136 -1 $-1 $137 -1.119999999999999885 $93 -5.551115123125782702e-17 $90 $138 forward @7 unknown #
DXID-attrib $-1 -1 $-1 $-1 $59 @10 ASM ENTITY @36 1eac4615-73ea-4fbf-adbe-d03134a63eed #
vertex $-1 -1 $-1 $59 $139 #
straight-curve $-1 -1 $-1 4.088011646725567161 -13.14047733906688542 1.600000000000000311 0 10 0 F -0.8559307060933105671 F 0 #
coedge $-1 -1 $-1 $60 $140 $141 $142 reversed $18 $-1 #
coedge $-1 -1 $-1 $143 $72 $60 $97 forward $115 $-1 #
edge $-1 -1 $-1 $75 -0.7853981633973475818 $144 0.785398163397348692 $96 $145 forward @7 unknown #
DXID-attrib $-1 -1 $-1 $-1 $64 @10 ASM ENTITY @36 5ef40b4f-6281-4d3a-b6e9-89cfb9867a6a #
face $146 -1 $-1 $147 $115 $5 $-1 $148 forward single #
loop $-1 -1 $-1 $-1 $149 $64 #
plane-surface $-1 -1 $-1 57.99999999999879208 -6.140477339066898743 -1.600000000000000311 2.301978052621184833e-14 1 0 0 0 10 forward_v I I I I #
coedge $-1 -1 $-1 $150 $151 $152 $153 forward $65 $-1 #
coedge $-1 -1 $-1 $154 $67 $110 $155 forward $42 $-1 #
coedge $-1 -1 $-1 $67 $154 $156 $157 forward $42 $-1 #
edge $-1 -1 $-1 $112 -0.3200000000000000622 $158 0 $67 $159 forward @7 tangent #
coedge $-1 -1 $-1 $69 $68 $160 $161 forward $27 $-1 #
coedge $-1 -1 $-1 $162 $163 $69 $108 reversed $164 $-1 #
edge $-1 -1 $-1 $165 0 $111 0.3200000000000000622 $107 $166 forward @7 tangent #
coedge $-1 -1 $-1 $152 $70 $163 $167 reversed $18 $-1 #
coedge $-1 -1 $-1 $70 $168 $103 $155 reversed $18 $-1 #
vertex $-1 -1 $-1 $71 $169 #
vertex $-1 -1 $-1 $155 $170 #
ellipse-curve $-1 -1 $-1 119.9999999999997868 -8.965022791482926579 1.600000000000000311 -0 -0 -1 1.529614714440458378 -1.288518073356844873 0 1 I I #
coedge $-1 -1 $-1 $72 $143 $77 $119 forward $115 $-1 #
loop $-1 -1 $-1 $-1 $114 $99 #
straight-curve $-1 -1 $-1 51.99999999999859313 -13.14047733906689785 -1.600000000000000311 0 0 10 F -1.86000100000000046 F 2.180001000000000744 #
point $-1 -1 $-1 51.99999999999859313 -13.14047733906689785 1.600000000000000311 #
coedge $-1 -1 $-1 $171 $77 $172 $173 reversed $78 $-1 #
edge $-1 -1 $-1 $174 -0.785398163397348692 $80 0.7853981633973475818 $114 $175 forward @7 unknown #
face $176 -1 $-1 $-1 $78 $5 $-1 $177 reversed single #
point $-1 -1 $-1 51.99999999999859313 -13.14047733906689785 -1.600000000000000311 #
coedge $-1 -1 $-1 $83 $178 $179 $180 reversed $78 $-1 #
coedge $-1 -1 $-1 $179 $90 $85 $124 reversed $135 $-1 #
edge $181 -1 $-1 $126 0 $93 0.3200000000000000622 $85 $182 forward @7 unknown #
DXID-attrib $-1 -1 $-1 $-1 $86 @10 ASM ENTITY @36 7cecb6e0-2c73-45fb-87cb-966aaab1bbd5 #
vertex $-1 -1 $-1 $124 $183 #
straight-curve $-1 -1 $-1 4.088011646725567161 -13.14047733906688542 -1.600000000000000311 -0 -10 -0 F -0 F 0.8559307060933105671 #
DXID-attrib $-1 -1 $-1 $-1 $87 @10 ASM ENTITY @36 14ffd0d4-a33d-410a-ad62-f93d5bfc8805 #
face $184 -1 $-1 $120 $185 $5 $-1 $186 forward single #
plane-surface $-1 -1 $-1 4.088011646725567161 -21.69978439999999154 -1.600000000000000311 -1 0 0 0 0 10 forward_v I I I I #
coedge $-1 -1 $-1 $187 $89 $188 $189 reversed $18 $-1 #
coedge $-1 -1 $-1 $190 $191 $89 $133 forward $192 $-1 #
edge $193 -1 $-1 $194 -0.3200000000000002842 $137 0 $132 $195 forward @7 unknown #
coedge $-1 -1 $-1 $90 $179 $190 $196 forward $135 $-1 #
loop $-1 -1 $-1 $-1 $90 $197 #
DXID-attrib $-1 -1 $-1 $-1 $91 @10 ASM ENTITY @36 9fe55a51-9e41-4dfa-8d9e-d02c7abe347d #
vertex $-1 -1 $-1 $91 $198 #
straight-curve $-1 -1 $-1 4.088011646725567161 -21.69978439999999154 1.600000000000000311 -10 -2.775557561562891351e-14 0 F -1.119999999999999885 F -0 #
point $-1 -1 $-1 4.088011646725567161 -21.69978439999999154 1.600000000000000311 #
coedge $-1 -1 $-1 $95 $152 $199 $200 reversed $18 $-1 #
coedge $-1 -1 $-1 $201 $202 $95 $142 forward $185 $-1 #
edge $203 -1 $-1 $144 -0.1000000000001201039 $204 0 $141 $205 forward @7 unknown #
coedge $-1 -1 $-1 $114 $96 $202 $206 forward $115 $-1 #
vertex $-1 -1 $-1 $142 $207 #
ellipse-curve $-1 -1 $-1 51.99999999999859313 -7.140477339066897855 1.600000000000000311 0 0 1 4.242640687118858445 -4.242640687119712872 0 1 I I #
DXID-attrib $-1 -1 $-1 $-1 $99 @10 ASM ENTITY @36 b0db114e-5586-4a3c-959a-a075000b97f2 #
face $208 -1 $-1 $209 $164 $5 $-1 $210 forward single #
cone-surface $-1 -1 $-1 51.99999999999859313 -7.140477339066897855 -1.600000000000000311 0 0 1 4.242640687118858445 -4.242640687119712872 0 1 I I 0 -1 6.000000000000000888 forward I I I I #
coedge $-1 -1 $-1 $211 $199 $151 $212 reversed $100 $-1 #
coedge $-1 -1 $-1 $213 $102 $214 $215 forward $65 $-1 #
coedge $-1 -1 $-1 $102 $213 $149 $212 forward $65 $-1 #
coedge $-1 -1 $-1 $140 $109 $102 $153 reversed $18 $-1 #
edge $-1 -1 $-1 $216 -0.7853981633974406185 $217 0.785398163397453275 $152 $218 forward @7 unknown #
coedge $-1 -1 $-1 $104 $103 $219 $220 reversed $42 $-1 #
edge $221 -1 $-1 $112 -6.336858699091936664 $222 -0 $103 $223 forward @7 unknown #
coedge $-1 -1 $-1 $224 $160 $104 $157 reversed $78 $-1 #
edge $225 -1 $-1 $226 0 $158 6.336858699091936664 $104 $227 forward @7 unknown #
vertex $-1 -1 $-1 $105 $228 #
straight-curve $-1 -1 $-1 120.3397211746325866 -10.93595899631202073 -1.600000000000000311 -0 -0 -10 F -0.9400010000000000865 F 0.6200010000000000243 #
coedge $-1 -1 $-1 $156 $229 $106 $161 reversed $78 $-1 #
edge $-1 -1 $-1 $158 -0.7000540639401511278 $165 0.7000540639401379162 $160 $230 forward @7 unknown #
coedge $-1 -1 $-1 $214 $107 $229 $231 forward $164 $-1 #
coedge $-1 -1 $-1 $107 $214 $109 $167 forward $164 $-1 #
loop $-1 -1 $-1 $-1 $107 $147 #
vertex $-1 -1 $-1 $161 $232 #
straight-curve $-1 -1 $-1 121.9999999999997726 -8.96502279148297454 -1.600000000000000311 0 0 10 F -0.6200010000000000243 F 0.9400010000000000865 #
edge $233 -1 $-1 $217 -0.2509307060932651767 $111 -0.1684761608518051679 $163 $234 forward @7 unknown #
coedge $-1 -1 $-1 $110 $235 $236 $237 reversed $18 $-1 #
point $-1 -1 $-1 121.9999999999997726 -8.96502279148297454 1.600000000000000311 #
point $-1 -1 $-1 120.3397211746325723 -10.93595899631202073 1.600000000000000311 #
coedge $-1 -1 $-1 $238 $118 $211 $239 reversed $78 $-1 #
coedge $-1 -1 $-1 $202 $201 $118 $173 forward $185 $-1 #
edge $240 -1 $-1 $241 0 $174 0.1000000000001201039 $172 $242 forward @7 unknown #
vertex $-1 -1 $-1 $119 $243 #
ellipse-curve $-1 -1 $-1 51.99999999999859313 -7.140477339066897855 -1.600000000000000311 -0 -0 -1 4.242640687118858445 -4.242640687119712872 0 1 I I #
DXID-attrib $-1 -1 $-1 $-1 $120 @10 ASM ENTITY @36 aa7ad756-55ca-4821-b99f-56557cf6437a #
plane-surface $-1 -1 $-1 60.44821095262561528 -14.54491051317715389 -1.600000000000000311 0 0 1 10 0 0 forward_v I I I I #
coedge $-1 -1 $-1 $122 $244 $245 $246 reversed $78 $-1 #
coedge $-1 -1 $-1 $134 $123 $122 $180 forward $135 $-1 #
edge $247 -1 $-1 $126 5.551115123125782702e-17 $248 1.119999999999999885 $179 $249 forward @7 unknown #
DXID-attrib $-1 -1 $-1 $-1 $124 @10 ASM ENTITY @36 5781711d-6102-4d36-b7ce-43a1cd02c4e0 #
straight-curve $-1 -1 $-1 4.088011646725567161 -21.69978439999999154 -1.600000000000000311 0 0 10 I I #
point $-1 -1 $-1 4.088011646725567161 -21.69978439999999154 -1.600000000000000311 #
DXID-attrib $-1 -1 $-1 $-1 $129 @10 ASM ENTITY @36 6c333b97-3fe8-44bd-8fcf-ac3df550b329 #
loop $-1 -1 $-1 $-1 $202 $129 #
plane-surface $-1 -1 $-1 57.9999999999973852 -13.14047733906690141 -1.600000000000000311 -1 2.004745575894567696e-13 0 0 0 10 forward_v I I I I #
coedge $-1 -1 $-1 $250 $131 $251 $252 reversed $18 $-1 #
coedge $-1 -1 $-1 $253 $254 $131 $189 forward $255 $-1 #
edge $256 -1 $-1 $257 -0.75 $194 -0 $188 $258 forward @7 unknown #
coedge $-1 -1 $-1 $245 $132 $134 $196 reversed $192 $-1 #
coedge $-1 -1 $-1 $132 $245 $253 $259 forward $192 $-1 #
loop $-1 -1 $-1 $-1 $132 $260 #
DXID-attrib $-1 -1 $-1 $-1 $133 @10 ASM ENTITY @36 8321b4a1-e9ae-4edd-b17a-25ea98480400 #
vertex $-1 -1 $-1 $133 $261 #
straight-curve $-1 -1 $-1 15.28801164672556467 -21.69978439999995956 1.600000000000000311 -4.440892098500622123e-13 10 0 F -0.3200000000000002842 F -0 #
edge $262 -1 $-1 $248 0 $137 0.3200000000000000622 $134 $263 forward @7 unknown #
face $264 -1 $-1 $87 $135 $5 $-1 $265 forward single #
point $-1 -1 $-1 15.28801164672556467 -21.69978439999995956 1.600000000000000311 #
coedge $-1 -1 $-1 $149 $266 $140 $200 forward $100 $-1 #
edge $267 -1 $-1 $204 -6.400000000000106049 $216 -0.1999999999999975131 $199 $268 forward @7 unknown #
coedge $-1 -1 $-1 $172 $141 $266 $269 reversed $185 $-1 #
coedge $-1 -1 $-1 $141 $172 $143 $206 reversed $185 $-1 #
DXID-attrib $-1 -1 $-1 $-1 $142 @10 ASM ENTITY @36 27a8dd00-ef03-41a4-b227-d22c07bd832c #
vertex $-1 -1 $-1 $200 $270 #
straight-curve $-1 -1 $-1 57.99999999999879208 -6.140477339066898743 1.600000000000000311 2.004745575894567747e-12 10 0 F -0.7000000000000001776 F -0 #
edge $-1 -1 $-1 $144 -0.3200000000000000622 $174 0 $202 $271 forward @7 tangent #
point $-1 -1 $-1 57.99999999999858602 -7.14047733906809956 1.600000000000000311 #
DXID-attrib $-1 -1 $-1 $-1 $147 @10 ASM ENTITY @36 e3607482-fee0-4d95-90c4-992c428e285e #
face $272 -1 $-1 $273 $274 $5 $-1 $275 forward single #
plane-surface $-1 -1 $-1 121.9999999999998579 -6.140477339068372231 -1.600000000000000311 1 -2.363587330022519043e-14 0 0 0 -10 forward_v I I I I #
coedge $-1 -1 $-1 $266 $149 $171 $239 forward $100 $-1 #
edge $-1 -1 $-1 $276 0 $216 0.3200000000000000622 $149 $277 forward @7 tangent #
coedge $-1 -1 $-1 $151 $150 $238 $278 forward $65 $-1 #
coedge $-1 -1 $-1 $163 $162 $150 $215 reversed $164 $-1 #
edge $-1 -1 $-1 $217 -0.3200000000000000622 $279 0 $214 $280 forward @7 tangent #
vertex $-1 -1 $-1 $153 $281 #
vertex $-1 -1 $-1 $167 $282 #
ellipse-curve $-1 -1 $-1 119.9999999999998295 -8.140477339068326046 1.600000000000000311 -0 -0 -1 1.414213562373121569 1.414213562373068056 0 1 I I #
coedge $-1 -1 $-1 $236 $283 $154 $220 forward $274 $-1 #
edge $284 -1 $-1 $226 0 $222 0.3200000000000000622 $219 $285 forward @7 unknown #
DXID-attrib $-1 -1 $-1 $-1 $155 @10 ASM ENTITY @36 e43d5549-2b0f-4eec-a5e6-30cab47ff0c8 #
vertex $-1 -1 $-1 $237 $286 #
straight-curve $-1 -1 $-1 57.8920000000001167 -21.69978439999987074 1.600000000000000311 -9.854681024145472534 -1.69860587316398437 -0 F -6.505334859943743275 F -0 #
coedge $-1 -1 $-1 $287 $156 $283 $288 reversed $78 $-1 #
DXID-attrib $-1 -1 $-1 $-1 $157 @10 ASM ENTITY @36 477ac0d2-067e-4955-a3d7-48d6410e3aab #
vertex $-1 -1 $-1 $220 $289 #
straight-curve $-1 -1 $-1 57.8920000000001167 -21.69978439999987074 -1.600000000000000311 9.854681024145472534 1.69860587316398437 0 F 0 F 6.505334859943743275 #
point $-1 -1 $-1 120.3397211746325723 -10.93595899631202073 -1.600000000000000311 #
coedge $-1 -1 $-1 $160 $238 $162 $231 reversed $78 $-1 #
ellipse-curve $-1 -1 $-1 119.9999999999997868 -8.965022791482926579 -1.600000000000000311 0 0 1 1.529614714440458378 -1.288518073356844873 0 1 I I #
edge $290 -1 $-1 $165 0.1684761608518051679 $279 0.2509307060932651767 $162 $291 forward @7 unknown #
point $-1 -1 $-1 121.9999999999997726 -8.96502279148297454 -1.600000000000000311 #
DXID-attrib $-1 -1 $-1 $-1 $167 @10 ASM ENTITY @36 627d09da-bcc9-4261-a2f3-abaeffb15c24 #
straight-curve $-1 -1 $-1 121.9999999999997442 -10.64978440000102466 1.600000000000000311 -2.363587330022519106e-13 -10 0 F -0.4509307060932653544 F -0 #
coedge $-1 -1 $-1 $168 $292 $293 $294 reversed $18 $-1 #
coedge $-1 -1 $-1 $295 $219 $168 $237 forward $274 $-1 #
edge $296 -1 $-1 $222 -1.760398835327442235 $297 0 $236 $298 forward @7 unknown #
coedge $-1 -1 $-1 $229 $171 $213 $278 reversed $78 $-1 #
edge $299 -1 $-1 $276 0.1999999999999975131 $241 6.400000000000106049 $211 $300 forward @7 unknown #
DXID-attrib $-1 -1 $-1 $-1 $173 @10 ASM ENTITY @36 df161748-d18d-4854-87ce-c6bdc7e931ef #
vertex $-1 -1 $-1 $239 $301 #
straight-curve $-1 -1 $-1 57.99999999999879208 -6.140477339066898743 -1.600000000000000311 -2.004745575894567747e-12 -10 0 F 0 F 0.7000000000000001776 #
point $-1 -1 $-1 57.99999999999858602 -7.14047733906809956 -1.600000000000000311 #
coedge $-1 -1 $-1 $178 $302 $303 $304 reversed $78 $-1 #
coedge $-1 -1 $-1 $191 $190 $178 $246 forward $192 $-1 #
edge $305 -1 $-1 $248 0 $306 0.3200000000000002842 $245 $307 forward @7 unknown #
DXID-attrib $-1 -1 $-1 $-1 $180 @10 ASM ENTITY @36 a2419e03-b0b6-4675-9c89-8eb6e6c8567b #
vertex $-1 -1 $-1 $196 $308 #
straight-curve $-1 -1 $-1 4.088011646725567161 -21.69978439999999154 -1.600000000000000311 10 2.775557561562891351e-14 0 F 0 F 1.119999999999999885 #
coedge $-1 -1 $-1 $309 $187 $310 $311 reversed $18 $-1 #
coedge $-1 -1 $-1 $312 $313 $187 $252 forward $314 $-1 #
edge $315 -1 $-1 $316 -0.3200000000000002842 $257 0 $251 $317 forward @7 unknown #
coedge $-1 -1 $-1 $303 $188 $191 $259 reversed $255 $-1 #
coedge $-1 -1 $-1 $188 $303 $312 $318 forward $255 $-1 #
loop $-1 -1 $-1 $-1 $188 $319 #
DXID-attrib $-1 -1 $-1 $-1 $189 @10 ASM ENTITY @36 246f908f-a8d0-4397-b21f-c76312688dfa #
vertex $-1 -1 $-1 $189 $320 #
straight-curve $-1 -1 $-1 15.28801164672570678 -24.8997843999999624 1.600000000000000311 -10 -1.776356839400250465e-14 -0 F -0.75 F -0 #
edge $321 -1 $-1 $306 0 $194 0.3200000000000000622 $191 $322 forward @7 unknown #
face $323 -1 $-1 $197 $192 $5 $-1 $324 forward single #
point $-1 -1 $-1 15.28801164672570678 -24.8997843999999624 1.600000000000000311 #
DXID-attrib $-1 -1 $-1 $-1 $196 @10 ASM ENTITY @36 c452c5e4-bfd6-4e81-9652-7848b93b9b29 #
straight-curve $-1 -1 $-1 15.28801164672556467 -21.69978439999995956 -1.600000000000000311 0 0 10 I I #
DXID-attrib $-1 -1 $-1 $-1 $197 @10 ASM ENTITY @36 54c55746-c0d4-4305-9102-0ab396719867 #
plane-surface $-1 -1 $-1 15.28801164672556467 -21.69978439999995956 -1.600000000000000311 2.775557561562891351e-15 -1 0 0 0 -10 forward_v I I I I #
coedge $-1 -1 $-1 $199 $211 $201 $269 forward $100 $-1 #
DXID-attrib $-1 -1 $-1 $-1 $200 @10 ASM ENTITY @36 35f8bac9-b5cb-40ee-9274-5333d8b7a414 #
straight-curve $-1 -1 $-1 121.9999999999998579 -6.140477339068372231 1.600000000000000311 10 -2.301978052621184644e-13 0 F -6.400000000000106049 F -0 #
edge $325 -1 $-1 $241 0 $204 0.3200000000000000622 $266 $326 forward @7 unknown #
point $-1 -1 $-1 57.99999999999879208 -6.140477339066898743 1.600000000000000311 #
straight-curve $-1 -1 $-1 57.99999999999858602 -7.14047733906809956 -1.600000000000000311 0 0 -10 F -2.180001000000000744 F 1.86000100000000046 #
DXID-attrib $-1 -1 $-1 $-1 $209 @10 ASM ENTITY @36 da3566cb-73c9-4ebf-b078-71723924b4e4 #
face $327 -1 $-1 $328 $329 $5 $-1 $330 forward single #
loop $-1 -1 $-1 $-1 $236 $209 #
plane-surface $-1 -1 $-1 57.8920000000001167 -21.69978439999987074 -1.600000000000000311 3.027194980624671815e-15 -1 0 0 0 -10 forward_v I I I I #
vertex $-1 -1 $-1 $278 $331 #
straight-curve $-1 -1 $-1 119.9999999999998721 -6.140477339068326046 -1.600000000000000311 0 0 10 F -0.6200010000000000243 F 0.9400010000000000865 #
edge $-1 -1 $-1 $279 -0.785398163397453275 $276 0.7853981633974406185 $238 $332 forward @7 unknown #
vertex $-1 -1 $-1 $215 $333 #
straight-curve $-1 -1 $-1 121.999999999999801 -8.140477339068374008 -1.600000000000000311 0 0 -10 F -0.9400010000000000865 F 0.6200010000000000243 #
point $-1 -1 $-1 119.9999999999998721 -6.140477339068326046 1.600000000000000311 #
point $-1 -1 $-1 121.999999999999801 -8.140477339068374008 1.600000000000000311 #
coedge $-1 -1 $-1 $219 $295 $224 $288 forward $274 $-1 #
DXID-attrib $-1 -1 $-1 $-1 $220 @10 ASM ENTITY @36 749f1d8f-3ea2-4934-9e99-1cf6bb235fd4 #
straight-curve $-1 -1 $-1 57.8920000000001167 -21.69978439999987074 -1.600000000000000311 0 0 10 I I #
point $-1 -1 $-1 57.8920000000001167 -21.69978439999987074 1.600000000000000311 #
coedge $-1 -1 $-1 $334 $224 $335 $336 reversed $78 $-1 #
edge $337 -1 $-1 $338 0 $226 1.760398835327442235 $283 $339 forward @7 unknown #
point $-1 -1 $-1 57.8920000000001167 -21.69978439999987074 -1.600000000000000311 #
DXID-attrib $-1 -1 $-1 $-1 $231 @10 ASM ENTITY @36 b9137662-ddab-457e-bc47-e6387c5a313c #
straight-curve $-1 -1 $-1 121.9999999999997442 -10.64978440000102466 -1.600000000000000311 2.363587330022519106e-13 10 0 F 0 F 0.4509307060932653544 #
coedge $-1 -1 $-1 $235 $309 $340 $341 reversed $18 $-1 #
coedge $-1 -1 $-1 $342 $343 $235 $294 forward $329 $-1 #
edge $344 -1 $-1 $297 -0.3200000000000002842 $345 0 $293 $346 forward @7 unknown #
coedge $-1 -1 $-1 $283 $236 $343 $347 reversed $274 $-1 #
DXID-attrib $-1 -1 $-1 $-1 $237 @10 ASM ENTITY @36 af740f7c-744f-400f-b838-f9a777456df7 #
vertex $-1 -1 $-1 $294 $348 #
straight-curve $-1 -1 $-1 40.28801164672569257 -21.69978439999992403 1.600000000000000311 -10 -3.027194980624672052e-14 0 F -1.760398835327442235 F -0 #
DXID-attrib $-1 -1 $-1 $-1 $239 @10 ASM ENTITY @36 44eecc92-ceaf-429e-b894-a58953021e6d #
straight-curve $-1 -1 $-1 121.9999999999998579 -6.140477339068372231 -1.600000000000000311 -10 2.301978052621184644e-13 0 F 0 F 6.400000000000106049 #
point $-1 -1 $-1 57.99999999999879208 -6.140477339066898743 -1.600000000000000311 #
coedge $-1 -1 $-1 $244 $349 $350 $351 reversed $78 $-1 #
coedge $-1 -1 $-1 $254 $253 $244 $304 forward $255 $-1 #
edge $352 -1 $-1 $306 0 $353 0.75 $303 $354 forward @7 unknown #
DXID-attrib $-1 -1 $-1 $-1 $246 @10 ASM ENTITY @36 2b91e437-2479-417b-a325-c7489941bffb #
vertex $-1 -1 $-1 $259 $355 #
straight-curve $-1 -1 $-1 15.28801164672556467 -21.69978439999995956 -1.600000000000000311 4.440892098500622123e-13 -10 0 F 0 F 0.3200000000000002842 #
point $-1 -1 $-1 15.28801164672556467 -21.69978439999995956 -1.600000000000000311 #
coedge $-1 -1 $-1 $292 $250 $356 $357 reversed $18 $-1 #
coedge $-1 -1 $-1 $358 $359 $250 $311 forward $360 $-1 #
edge $361 -1 $-1 $362 -1 $316 0 $310 $363 forward @7 unknown #
coedge $-1 -1 $-1 $350 $251 $254 $318 reversed $314 $-1 #
coedge $-1 -1 $-1 $251 $350 $358 $364 forward $314 $-1 #
loop $-1 -1 $-1 $-1 $251 $365 #
DXID-attrib $-1 -1 $-1 $-1 $252 @10 ASM ENTITY @36 6fc1649d-526f-40a6-9b1b-12dab74d95ab #
vertex $-1 -1 $-1 $252 $366 #
straight-curve $-1 -1 $-1 22.78801164672570678 -24.89978439999994819 1.600000000000000311 1.387778780781444413e-14 -10 0 F -0.3200000000000002842 F -0 #
edge $367 -1 $-1 $353 0 $257 0.3200000000000000622 $254 $368 forward @7 unknown #
face $369 -1 $-1 $260 $255 $5 $-1 $370 forward single #
point $-1 -1 $-1 22.78801164672570678 -24.89978439999994819 1.600000000000000311 #
DXID-attrib $-1 -1 $-1 $-1 $259 @10 ASM ENTITY @36 cf151118-654d-4c6c-a02e-9dee5b159f04 #
straight-curve $-1 -1 $-1 15.28801164672570678 -24.8997843999999624 -1.600000000000000311 0 0 10 I I #
DXID-attrib $-1 -1 $-1 $-1 $260 @10 ASM ENTITY @36 6a322d81-3748-4dd0-ad43-45dff00879fd #
plane-surface $-1 -1 $-1 15.28801164672570678 -24.8997843999999624 -1.600000000000000311 -1 -4.440892098500622375e-14 0 0 0 10 forward_v I I I I #
DXID-attrib $-1 -1 $-1 $-1 $269 @10 ASM ENTITY @36 d827fa54-7746-4dda-a062-fb09765bdaf4 #
straight-curve $-1 -1 $-1 57.99999999999879208 -6.140477339066898743 -1.600000000000000311 0 0 10 I I #
DXID-attrib $-1 -1 $-1 $-1 $273 @10 ASM ENTITY @36 6c362cea-ebef-4215-bc5a-1d3001477ae0 #
face $371 -1 $-1 $372 $373 $5 $-1 $374 forward single #
loop $-1 -1 $-1 $-1 $293 $273 #
plane-surface $-1 -1 $-1 40.28801164672569257 -21.69978439999992403 -1.600000000000000311 1 2.775557561562888984e-15 0 0 0 -10 forward_v I I I I #
point $-1 -1 $-1 119.9999999999998721 -6.140477339068326046 -1.600000000000000311 #
ellipse-curve $-1 -1 $-1 119.9999999999998295 -8.140477339068326046 -1.600000000000000311 0 0 1 1.414213562373121569 1.414213562373068056 0 1 I I #
point $-1 -1 $-1 121.999999999999801 -8.140477339068374008 -1.600000000000000311 #
coedge $-1 -1 $-1 $375 $287 $376 $377 reversed $78 $-1 #
coedge $-1 -1 $-1 $343 $342 $287 $336 forward $329 $-1 #
edge $378 -1 $-1 $379 0 $338 0.3200000000000002842 $335 $380 forward @7 unknown #
DXID-attrib $-1 -1 $-1 $-1 $288 @10 ASM ENTITY @36 24df919b-cb6a-48f4-9c36-58aa084aeb66 #
vertex $-1 -1 $-1 $347 $381 #
straight-curve $-1 -1 $-1 40.28801164672569257 -21.69978439999992403 -1.600000000000000311 10 3.027194980624672052e-14 0 F 0 F 1.760398835327442235 #
coedge $-1 -1 $-1 $382 $383 $292 $341 forward $373 $-1 #
edge $384 -1 $-1 $345 -0.75 $385 0 $340 $386 forward @7 unknown #
coedge $-1 -1 $-1 $335 $293 $383 $387 reversed $329 $-1 #
coedge $-1 -1 $-1 $293 $335 $295 $347 forward $329 $-1 #
DXID-attrib $-1 -1 $-1 $-1 $294 @10 ASM ENTITY @36 82251e2f-38d8-42e2-8389-fd993c15d750 #
vertex $-1 -1 $-1 $341 $388 #
straight-curve $-1 -1 $-1 40.28801164672570678 -24.89978439999992688 1.600000000000000311 2.775557561562888827e-14 -10 0 F -0.3200000000000002842 F -0 #
edge $389 -1 $-1 $338 0 $297 0.3200000000000000622 $343 $390 forward @7 unknown #
point $-1 -1 $-1 40.28801164672569257 -21.69978439999992403 1.600000000000000311 #
coedge $-1 -1 $-1 $302 $375 $391 $392 reversed $78 $-1 #
coedge $-1 -1 $-1 $313 $312 $302 $351 forward $314 $-1 #
edge $393 -1 $-1 $353 0 $394 0.3200000000000002842 $350 $395 forward @7 unknown #
DXID-attrib $-1 -1 $-1 $-1 $304 @10 ASM ENTITY @36 9ac107e1-fac4-480b-8cb1-91d8f4e7c952 #
vertex $-1 -1 $-1 $318 $396 #
straight-curve $-1 -1 $-1 15.28801164672570678 -24.8997843999999624 -1.600000000000000311 10 1.776356839400250465e-14 0 F 0 F 0.75 #
point $-1 -1 $-1 15.28801164672570678 -24.8997843999999624 -1.600000000000000311 #
coedge $-1 -1 $-1 $397 $398 $309 $357 forward $399 $-1 #
edge $400 -1 $-1 $385 -0.3200000000000002842 $362 0 $356 $401 forward @7 unknown #
coedge $-1 -1 $-1 $391 $310 $313 $364 reversed $360 $-1 #
coedge $-1 -1 $-1 $310 $391 $397 $402 forward $360 $-1 #
loop $-1 -1 $-1 $-1 $310 $403 #
DXID-attrib $-1 -1 $-1 $-1 $311 @10 ASM ENTITY @36 d6ba7dbd-cff3-4002-ac06-14e90a8b4792 #
vertex $-1 -1 $-1 $311 $404 #
straight-curve $-1 -1 $-1 22.78801164672570323 -21.69978439999994535 1.600000000000000311 -10 -4.440892098500626162e-15 0 F -1 F -0 #
edge $405 -1 $-1 $394 0 $316 0.3200000000000000622 $313 $406 forward @7 unknown #
face $407 -1 $-1 $319 $314 $5 $-1 $408 forward single #
point $-1 -1 $-1 22.78801164672570323 -21.69978439999994535 1.600000000000000311 #
DXID-attrib $-1 -1 $-1 $-1 $318 @10 ASM ENTITY @36 3f3d54a3-1988-41a6-bb9d-4553adeb64ee #
straight-curve $-1 -1 $-1 22.78801164672570678 -24.89978439999994819 -1.600000000000000311 0 0 10 I I #
DXID-attrib $-1 -1 $-1 $-1 $319 @10 ASM ENTITY @36 a118c2ff-657b-443f-ba94-b3f52a916fd2 #
plane-surface $-1 -1 $-1 22.78801164672570678 -24.89978439999994819 -1.600000000000000311 1.776356839400250465e-15 -1 0 0 0 -10 forward_v I I I I #
DXID-attrib $-1 -1 $-1 $-1 $328 @10 ASM ENTITY @36 adca0f22-fba8-47fb-b046-dfcd6e0a1da0 #
face $409 -1 $-1 $403 $399 $5 $-1 $410 forward single #
loop $-1 -1 $-1 $-1 $340 $328 #
plane-surface $-1 -1 $-1 40.28801164672570678 -24.89978439999992688 -1.600000000000000311 2.368475785867000488e-15 -1 0 0 0 -10 forward_v I I I I #
coedge $-1 -1 $-1 $349 $334 $411 $412 reversed $78 $-1 #
coedge $-1 -1 $-1 $383 $382 $334 $377 forward $373 $-1 #
edge $413 -1 $-1 $414 0 $379 0.75 $376 $415 forward @7 unknown #
DXID-attrib $-1 -1 $-1 $-1 $336 @10 ASM ENTITY @36 de1eccb9-8d7b-461b-8553-580e6bdf7bc0 #
vertex $-1 -1 $-1 $387 $416 #
straight-curve $-1 -1 $-1 40.28801164672570678 -24.89978439999992688 -1.600000000000000311 -2.775557561562888827e-14 10 0 F 0 F 0.3200000000000002842 #
point $-1 -1 $-1 40.28801164672569257 -21.69978439999992403 -1.600000000000000311 #
coedge $-1 -1 $-1 $376 $340 $398 $417 reversed $373 $-1 #
coedge $-1 -1 $-1 $340 $376 $342 $387 forward $373 $-1 #
DXID-attrib $-1 -1 $-1 $-1 $341 @10 ASM ENTITY @36 f4e2739e-a720-47c1-8cfb-293e19c1bfab #
vertex $-1 -1 $-1 $357 $418 #
straight-curve $-1 -1 $-1 32.78801164672570678 -24.89978439999994464 1.600000000000000311 -10 -2.368475785867000409e-14 0 F -0.75 F -0 #
edge $419 -1 $-1 $379 0 $345 0.3200000000000000622 $383 $420 forward @7 unknown #
point $-1 -1 $-1 40.28801164672570678 -24.89978439999992688 1.600000000000000311 #
DXID-attrib $-1 -1 $-1 $-1 $347 @10 ASM ENTITY @36 a1b37eb9-5839-4164-b78e-23139f125808 #
straight-curve $-1 -1 $-1 40.28801164672569257 -21.69978439999992403 -1.600000000000000311 0 0 10 I I #
coedge $-1 -1 $-1 $359 $358 $349 $392 forward $360 $-1 #
edge $421 -1 $-1 $394 0 $422 1 $391 $423 forward @7 unknown #
DXID-attrib $-1 -1 $-1 $-1 $351 @10 ASM ENTITY @36 392056c0-83c2-4032-baa7-67ca0f57ad18 #
vertex $-1 -1 $-1 $364 $424 #
straight-curve $-1 -1 $-1 22.78801164672570678 -24.89978439999994819 -1.600000000000000311 -1.387778780781444413e-14 10 0 F 0 F 0.3200000000000002842 #
point $-1 -1 $-1 22.78801164672570678 -24.89978439999994819 -1.600000000000000311 #
coedge $-1 -1 $-1 $411 $356 $359 $402 reversed $399 $-1 #
coedge $-1 -1 $-1 $356 $411 $382 $417 forward $399 $-1 #
loop $-1 -1 $-1 $-1 $356 $372 #
DXID-attrib $-1 -1 $-1 $-1 $357 @10 ASM ENTITY @36 e9716140-b899-4509-adc0-7e891e8ac290 #
straight-curve $-1 -1 $-1 32.78801164672570678 -21.6997843999999418 1.600000000000000311 0 10 0 F -0.3200000000000002842 F 0 #
edge $425 -1 $-1 $422 0 $362 0.3200000000000000622 $359 $426 forward @7 unknown #
face $427 -1 $-1 $365 $360 $5 $-1 $428 forward single #
point $-1 -1 $-1 32.78801164672570678 -21.6997843999999418 1.600000000000000311 #
DXID-attrib $-1 -1 $-1 $-1 $364 @10 ASM ENTITY @36 a36a3070-4e52-4152-862f-989acaf7e9b5 #
straight-curve $-1 -1 $-1 22.78801164672570323 -21.69978439999994535 -1.600000000000000311 0 0 10 I I #
DXID-attrib $-1 -1 $-1 $-1 $365 @10 ASM ENTITY @36 0e8bc54d-ba4e-43af-a2e9-b7d88b660073 #
plane-surface $-1 -1 $-1 22.78801164672570323 -21.69978439999994535 -1.600000000000000311 1 1.387778780781444492e-15 0 0 0 -10 forward_v I I I I #
DXID-attrib $-1 -1 $-1 $-1 $372 @10 ASM ENTITY @36 32351954-1e35-4ae8-bf0e-325200a0f632 #
plane-surface $-1 -1 $-1 32.78801164672570678 -24.89978439999994464 -1.600000000000000311 -1 0 0 0 0 10 forward_v I I I I #
coedge $-1 -1 $-1 $398 $397 $375 $412 forward $399 $-1 #
edge $429 -1 $-1 $422 -0 $414 0.3200000000000002842 $411 $430 forward @7 unknown #
DXID-attrib $-1 -1 $-1 $-1 $377 @10 ASM ENTITY @36 d89ce11f-b548-4468-8b3c-5b9cfebebba2 #
vertex $-1 -1 $-1 $417 $431 #
straight-curve $-1 -1 $-1 32.78801164672570678 -24.89978439999994464 -1.600000000000000311 10 2.368475785867000409e-14 0 F 0 F 0.75 #
point $-1 -1 $-1 40.28801164672570678 -24.89978439999992688 -1.600000000000000311 #
edge $432 -1 $-1 $414 0 $385 0.3200000000000000622 $398 $433 forward @7 unknown #
point $-1 -1 $-1 32.78801164672570678 -24.89978439999994464 1.600000000000000311 #
DXID-attrib $-1 -1 $-1 $-1 $387 @10 ASM ENTITY @36 0ed4ef44-7811-4396-8418-9ea495c18fda #
straight-curve $-1 -1 $-1 40.28801164672570678 -24.89978439999992688 -1.600000000000000311 0 0 10 I I #
DXID-attrib $-1 -1 $-1 $-1 $392 @10 ASM ENTITY @36 f63adf05-2e6f-446a-8844-0797ae96a740 #
vertex $-1 -1 $-1 $402 $434 #
straight-curve $-1 -1 $-1 22.78801164672570323 -21.69978439999994535 -1.600000000000000311 10 4.440892098500626162e-15 0 F 0 F 1 #
point $-1 -1 $-1 22.78801164672570323 -21.69978439999994535 -1.600000000000000311 #
DXID-attrib $-1 -1 $-1 $-1 $402 @10 ASM ENTITY @36 71fe8a29-f8a5-41e3-b063-0f854b0c0430 #
straight-curve $-1 -1 $-1 32.78801164672570678 -21.6997843999999418 -1.600000000000000311 0 0 10 I I #
DXID-attrib $-1 -1 $-1 $-1 $403 @10 ASM ENTITY @36 eb1d676b-88a6-4d3a-8ad3-4a2dc13b3c8b #
plane-surface $-1 -1 $-1 32.78801164672570678 -21.6997843999999418 -1.600000000000000311 4.440892098500626162e-16 -1 0 0 0 -10 forward_v I I I I #
DXID-attrib $-1 -1 $-1 $-1 $412 @10 ASM ENTITY @36 2a7cce70-e404-4458-a02f-7686c43cf0f2 #
straight-curve $-1 -1 $-1 32.78801164672570678 -21.6997843999999418 -1.600000000000000311 -0 -10 -0 F -0 F 0.3200000000000002842 #
point $-1 -1 $-1 32.78801164672570678 -24.89978439999994464 -1.600000000000000311 #
DXID-attrib $-1 -1 $-1 $-1 $417 @10 ASM ENTITY @36 3c46fe04-418c-4984-aecb-664e34f55ac4 #
straight-curve $-1 -1 $-1 32.78801164672570678 -24.89978439999994464 -1.600000000000000311 0 0 10 I I #
point $-1 -1 $-1 32.78801164672570678 -21.6997843999999418 -1.600000000000000311 #
End-of-ACIS-data 